<svg xmlns="http://www.w3.org/2000/svg" xmlns:xlink="http://www.w3.org/1999/xlink" fill="none" version="1.1" width="682" height="582" viewBox="0 0 682 582"><g style="mix-blend-mode:passthrough"><g style="mix-blend-mode:passthrough"><g style="mix-blend-mode:passthrough"><rect x="291" y="477" width="283" height="48" rx="4" fill-opacity="0" stroke-opacity="1" stroke="#000000" fill="none" stroke-width="2" style="mix-blend-mode:passthrough"/></g><g style="mix-blend-mode:passthrough"><rect x="291" y="417" width="283" height="48" rx="4" fill-opacity="0" stroke-opacity="1" stroke="#000000" fill="none" stroke-width="2" style="mix-blend-mode:passthrough"/></g><g style="mix-blend-mode:passthrough"><rect x="291" y="357" width="283" height="48" rx="4" fill-opacity="0" stroke-opacity="1" stroke="#000000" fill="none" stroke-width="2" style="mix-blend-mode:passthrough"/></g><g style="mix-blend-mode:passthrough"><rect x="291" y="297" width="283" height="48" rx="4" fill-opacity="0" stroke-opacity="1" stroke="#000000" fill="none" stroke-width="2" style="mix-blend-mode:passthrough"/></g><g style="mix-blend-mode:passthrough"><rect x="291" y="237" width="283" height="48" rx="4" fill-opacity="0" stroke-opacity="1" stroke="#000000" fill="none" stroke-width="2" style="mix-blend-mode:passthrough"/></g><g style="mix-blend-mode:passthrough"><rect x="291" y="177" width="283" height="48" rx="4" fill-opacity="0" stroke-opacity="1" stroke="#000000" fill="none" stroke-width="2" style="mix-blend-mode:passthrough"/></g><g style="mix-blend-mode:passthrough"><rect x="291" y="117" width="283" height="48" rx="4" fill-opacity="0" stroke-opacity="1" stroke="#000000" fill="none" stroke-width="2" style="mix-blend-mode:passthrough"/></g><g style="mix-blend-mode:passthrough"><ellipse cx="60" cy="486" rx="39" ry="39" fill-opacity="0" stroke-opacity="1" stroke="#000000" fill="none" stroke-width="2"/></g><g style="mix-blend-mode:passthrough"><ellipse cx="60" cy="396" rx="39" ry="39" fill-opacity="0" stroke-opacity="1" stroke="#000000" fill="none" stroke-width="2"/></g><g style="mix-blend-mode:passthrough"><ellipse cx="60" cy="306" rx="39" ry="39" fill-opacity="0" stroke-opacity="1" stroke="#000000" fill="none" stroke-width="2"/></g><g style="mix-blend-mode:passthrough"><ellipse cx="60" cy="216" rx="39" ry="39" fill-opacity="0" stroke-opacity="1" stroke="#000000" fill="none" stroke-width="2"/></g><g style="mix-blend-mode:passthrough"><ellipse cx="60" cy="126" rx="39" ry="39" fill-opacity="0" stroke-opacity="1" stroke="#000000" fill="none" stroke-width="2"/></g><g style="mix-blend-mode:passthrough"><path d="M27.9785,65.80136L31.9219,65.80136L31.9219,67.1314L16.0957,67.1314L16.0957,65.80136L18.83203,65.80136L18.83203,57.22909Q25.9102,56.854094,29.8652,56.0103436L30.1406,57.32284Q28.2656,57.73886,25.6113,58.04355Q22.95703,58.34823,20.27344,58.5123L20.27344,60.95566L31.3066,60.95566L31.3066,62.25644L27.9785,62.25644L27.9785,65.80136ZM26.5547,62.25644L20.27344,62.25644L20.27344,65.80136L26.5547,65.80136L26.5547,62.25644ZM16.81641,70.9459Q18.00586,70.3365,19.55859,69.3404Q21.11719,68.3385,22.07227,67.5299L22.92188,68.5553Q21.83789,69.4517,20.37305,70.4537Q18.9082,71.4498,17.63086,72.18809999999999L16.81641,70.9459ZM45.960899999999995,65.80136L49.8457,65.80136L49.8457,67.1314L34.0957,67.1314L34.0957,65.80136L36.832,65.80136L36.832,57.21152Q43.9277,56.836515,47.8477,55.99276543L48.1172,57.32284Q46.248000000000005,57.73886,43.599599999999995,58.04355Q40.957,58.34823,38.2559,58.5123L38.2559,60.95566L49.3066,60.95566L49.3066,62.25644L45.960899999999995,62.25644L45.960899999999995,65.80136ZM44.5547,62.25644L38.2559,62.25644L38.2559,65.80136L44.5547,65.80136L44.5547,62.25644ZM43.8926,67.6529Q44.8828,68.22710000000001,46.3535,69.1764Q47.8301,70.1197,48.1934,70.3541L49.1074,70.9459L48.334,72.1529Q45.310500000000005,70.06700000000001,43.1719,68.78960000000001L43.8926,67.6529ZM64.8398,64.99277000000001Q66.17580000000001,67.6178,67.957,68.9889L67.0898,70.1197Q65.707,68.8775,64.7168,67.2838Q63.7266,65.69003000000001,63.0234,63.63925L63.0234,69.8326Q63.0234,70.9107,62.5078,71.3502Q61.998,71.7955,60.668,71.7955L59.1152,71.7955L58.8633,70.47710000000001L60.3047,70.47710000000001Q60.9199,70.47710000000001,61.2246,70.3892Q61.5293,70.3014,61.6465,70.0963Q61.7637,69.8853,61.7637,69.4693L61.7637,66.2525Q59.332,68.2096,58.2188,69.0416L57.5156,67.9225Q60.0527,66.05330000000001,61.7637,64.62948L61.7637,60.04159L57.5859,60.04159L57.5859,58.74667L61.7637,58.74667L61.7637,55.57675L63.0234,55.57675L63.0234,58.74667L67.86330000000001,58.74667L67.86330000000001,60.04159L63.0762,60.04159Q63.5273,62.074799999999996,64.2832,63.82089Q65.6719,62.32675,66.55080000000001,61.11972L67.541,62.00448Q66.2637,63.56894,64.8398,64.99277000000001ZM66.0469,58.63534Q64.7695,57.30527,63.9434,56.51425L64.66409999999999,55.75839Q65.707,56.707609,66.83789999999999,57.84433L66.0469,58.63534ZM52.1543,58.56503L52.1543,57.27011L57.498,57.27011L57.498,58.56503L55.4648,58.56503L55.4648,62.83066L57.2461,62.83066L57.2461,64.12558L55.4648,64.12558L55.4648,68.7369L57.2988,68.3736L57.334,69.16460000000001L57.3516,69.7799L56.0742,69.9967Q52.8926,70.5006,52.2949,70.6412L52.0957,69.3463Q53.8066,69.0416,54.2051,68.9654L54.2051,64.12558L52.2598,64.12558L52.2598,62.83066L54.2051,62.83066L54.2051,58.56503L52.1543,58.56503ZM58.6348,61.04941Q59.8535,62.7955,60.7383,64.16073L59.7656,64.86386Q59.5312,64.50644,58.3418,62.68417L57.6973,61.71152L58.6348,61.04941ZM74.18549999999999,59.53769Q72.38669999999999,60.56308,70.5293,61.2662L70.043,59.96542Q72.2578,59.19198,74.1035,58.04355Q75.94919999999999,56.88925,77.2793,55.57675L78.53909999999999,55.57675Q81.0762,58.20175,85.957,59.84237L85.4707,61.137299999999996Q83.3848,60.38144,81.6738,59.42636L81.6738,60.3287L74.18549999999999,60.3287L74.18549999999999,59.53769ZM77.9297,56.672453Q76.6523,58.02597,74.61330000000001,59.26816L81.3867,59.26816Q79.1719,58.00839,77.9297,56.672453ZM83.4023,65.08066L72.5273,65.08066L72.5273,61.51816L83.4023,61.51816L83.4023,65.08066ZM82.084,62.56112L73.8574,62.56112L73.8574,64.03769L82.084,64.03769L82.084,62.56112ZM71.8418,66.358L84.1172,66.358L84.1172,70.2662L85.8105,70.2662L85.8105,71.4322L70.11330000000001,71.4322L70.11330000000001,70.2662L71.8418,70.2662L71.8418,66.358ZM75.58590000000001,67.4713L73.1191,67.4713L73.1191,70.2662L75.58590000000001,70.2662L75.58590000000001,67.4713ZM76.77539999999999,70.2662L79.207,70.2662L79.207,67.4713L76.77539999999999,67.4713L76.77539999999999,70.2662ZM80.3965,70.2662L82.8574,70.2662L82.8574,67.4713L80.3965,67.4713L80.3965,70.2662ZM103.8457,63.29941L103.8457,64.66464L96.8613,64.66464L96.8613,69.4342Q96.8613,70.3189,96.6445,70.7994Q96.4336,71.274,95.9121,71.4791Q95.3906,71.6842,94.4004,71.6842L91.9512,71.6842L91.6816,70.2486L93.9316,70.2486Q94.5938,70.2486,94.8984,70.149Q95.209,70.0494,95.3262,69.7916Q95.4434,69.5279,95.4434,68.9478L95.4434,64.66464L88.1895,64.66464L88.1895,63.29941L95.4434,63.29941L95.4434,61.606049999999996L100.3008,58.13144L89.5195,58.13144L89.5195,56.801359L102.6445,56.801359L102.6445,58.14902L96.8613,62.23886L96.8613,63.29941L103.8457,63.29941Z" fill="#000000" fill-opacity="1" style="mix-blend-mode:passthrough"/></g><g style="mix-blend-mode:passthrough"><path d="M403.334,83.9654Q403.5859,83.1568,403.7676,81.9674L404.9219,82.4361Q404.8457,82.8697,404.6934,83.56700000000001Q404.541,84.2584,404.3828,84.815Q404.002,85.9635,403.5332,86.4029Q403.0645,86.8482,402.3086,86.8482Q401.5879,86.8482,400.8672,86.3443Q400.1523,85.8404,399.6309,84.8502Q399.4141,84.4693,399.1211,83.78960000000001Q397.08789,84.9029,394.49805,85.8404L393.94141,84.4928Q396.61914,83.5728,398.6582,82.4713Q398.2422,81.0357,397.95508,79.17831L395.28906,79.54159L395.16602,78.29941L397.77344,77.9537L397.70312,77.23886L397.53906,75.81503000000001L395.4707,76.04941L395.3418,74.80722L397.43359,74.57284Q397.41602,74.53769,397.41602,74.44394Q397.33984,73.60019,397.27539,72.50448Q397.2168,71.402922,397.19922,70.611906L398.5645,70.594328Q398.582,72.10605,398.7812,74.42636L404.4883,73.79941L404.5586,74.98886L398.8926,75.65097L399.0508,77.09237L399.1211,77.7955L404.8281,77.05722L404.9219,78.24667L399.3027,79.00253000000001Q399.5898,80.70761,399.8828,81.774Q402.0566,80.43808,403.4277,79.00253000000001L404.2363,79.99277000000001Q402.6133,81.6803,400.3281,83.1041Q400.6387,83.78960000000001,400.8906,84.24080000000001Q401.2656,84.8678,401.6172,85.1373Q401.9688,85.4068,402.3262,85.4068Q402.6895,85.4068,402.8945,85.10210000000001Q403.0996,84.7975,403.334,83.9654ZM394.33398,80.36777000000001Q394.01172,80.01034,392.83984,78.80331L392.83984,87.0826L391.50977,87.0826L391.50977,78.65683Q390.58984,81.01820000000001,389.67578,82.4713L389.06055,81.1412Q389.6582,80.11581,390.33789,78.53378000000001Q391.02344,76.94589,391.50977,75.41659L391.50977,75.36386L389.1543,75.36386L389.1543,74.08652000000001L391.50977,74.08652000000001L391.50977,70.629484L392.83984,70.629484L392.83984,74.08652000000001L395.01953,74.08652000000001L395.01953,75.36386L392.83984,75.36386L392.83984,77.12753000000001L394.69727,78.94394L395.14844,79.41269L394.33398,80.36777000000001ZM402.0391,73.79941Q401.2129,72.82675,399.8418,71.51425L400.5977,70.75839Q401.9512,71.959562,402.8887,73.00839L402.0391,73.79941ZM415.668,70.594328L415.668,74.12167L421.8379,74.12167L421.8379,81.53960000000001L415.668,81.53960000000001L415.668,87.0826L414.2793,87.0826L414.2793,81.53960000000001L408.1621,81.53960000000001L408.1621,74.12167L414.2793,74.12167L414.2793,70.594328L415.668,70.594328ZM409.5625,75.52792L409.5625,80.15097L414.2793,80.15097L414.2793,75.52792L409.5625,75.52792ZM415.668,75.52792L415.668,80.15097L420.4375,80.15097L420.4375,75.52792L415.668,75.52792ZM440.3066,73.40097Q440.2539,75.34628000000001,440.1367,78.90292Q440.0195,82.4537,439.9492,84.3639Q439.9141,85.2252,439.6504,85.7232Q439.3926,86.2154,438.8242,86.4322Q438.2559,86.649,437.2832,86.649L435.0156,86.649L434.7461,85.2486L436.8672,85.2486Q437.5703,85.2486,437.9395,85.1256Q438.3086,84.9967,438.47270000000003,84.6627Q438.6367,84.3287,438.6543,83.67830000000001L438.8125,78.96152000000001L438.9414,74.77206L434.7637,74.77206Q434.207,76.10214,433.4512,77.36191L432.2617,76.57089Q433.1055,75.29355,433.8145,73.54159Q434.5293,71.783781,434.8926,70.254484L436.22270000000003,70.57675Q435.8828,71.959562,435.3203,73.40097L440.3066,73.40097ZM429.9238,70.629484Q429.707,71.707609,429.2383,73.34823L432.0625,73.34823L432.0625,85.7291L427.1699,85.7291L427.1699,86.9185L425.8691,86.9185L425.8691,73.34823L427.7793,73.34823Q428.1191,72.30527,428.5,70.377531L429.9238,70.629484ZM427.1699,78.87362L430.7676,78.87362L430.7676,74.73691L427.1699,74.73691L427.1699,78.87362ZM436.1348,81.8443Q434.9805,80.06308,433.5566,78.24667L434.5469,77.43222Q436.15229999999997,79.37753000000001,437.2832,81.0357L436.1348,81.8443ZM427.1699,80.2623L427.1699,84.3463L430.7676,84.3463L430.7676,80.2623L427.1699,80.2623ZM455.6055,82.401Q456.8652,84.24080000000001,458.9746,85.8228L458.2012,87.1353Q456.168,85.47710000000001,454.8496,83.5904Q453.666,85.2486,451.4512,87.1529L450.5312,86.03960000000001Q452.91020000000003,84.16460000000001,454.0938,82.33070000000001Q452.9629,80.18612,452.5117,77.32675Q452.2246,77.90097,451.8262,78.55136L451.1289,77.27402000000001Q451.90229999999997,75.97323,452.6113,74.12167Q453.3203,72.27011,453.6484,70.66464L454.90819999999997,70.899015Q454.6562,72.12362,454.1348,73.63534L458.9395,73.63534L458.9395,75.02402000000001L457.5684,75.02402000000001Q457.334,77.43222,456.877,79.19589Q456.4199,80.95956,455.6055,82.401ZM442.97270000000003,78.31698Q444.1445,77.68417,445.0234,77.05722Q445.9082,76.42441,446.5703,75.68612L443.2598,75.68612L443.2598,74.55527000000001L446.8574,74.55527000000001L446.8574,70.775969L448.082,70.775969L448.082,74.55527000000001L451.5918,74.55527000000001L451.5918,75.68612L448.082,75.68612L448.082,76.04941Q448.75,76.38925,449.6641,76.91073Q450.584,77.43222,451.2871,77.90097L450.7129,78.96152000000001Q449.6348,78.13534,448.082,77.19784L448.082,78.8912L446.8574,78.8912L446.8574,76.858Q445.6562,78.1705,443.5117,79.41269L442.97270000000003,78.31698ZM445.1875,74.15683Q444.5547,73.11386,443.5996,71.766203L444.4316,71.186125Q444.8066,71.690031,445.5449,72.79159L446.084,73.58261L445.1875,74.15683ZM451.3809,71.801359Q450.584,73.02597,449.65229999999997,74.25058L448.7676,73.61777000000001Q449.166,73.11386,449.6699,72.39316Q450.1738,71.672453,450.4785,71.186125L451.3809,71.801359ZM453.4141,75.45175Q453.7363,78.80331,454.832,81.0357Q455.4121,79.8287,455.7578,78.36972Q456.1094,76.91073,456.3086,75.02402000000001L453.58979999999997,75.02402000000001L453.4141,75.45175ZM450.2969,86.2916L449.541,85.8756L448.0293,85.06700000000001Q446.4121,86.1978,443.5117,87.1178L442.9551,85.9635Q445.52729999999997,85.1549,446.8223,84.4517Q445.1348,83.608,444.1211,83.1568Q444.6484,82.3482,445.0762,81.4635L443.1543,81.4635L443.1543,80.36777000000001L445.59770000000003,80.36777000000001Q445.9258,79.62948,446.1426,79.02011L447.3613,79.34237Q447.1094,80.02792,446.9688,80.36777000000001L450.9121,80.36777000000001L450.9121,81.4107Q450.5488,82.2955,450.1152,82.9693Q449.6875,83.64320000000001,449.08979999999997,84.2174L450.8359,85.10210000000001L450.2969,86.2916ZM445.832,82.70570000000001Q446.9336,83.1744,447.959,83.67830000000001Q448.5156,83.22710000000001,448.90229999999997,82.6881Q449.2891,82.149,449.5762,81.4635L446.46479999999997,81.4635Q446.2129,82.0084,445.832,82.70570000000001ZM466.1758,78.87362Q465.1328,79.30722,464.5176,79.59433L464.5176,84.95570000000001Q464.5176,85.6939,464.3359,86.08070000000001Q464.16020000000003,86.4674,463.7266,86.6197Q463.293,86.7779,462.4492,86.7779L461.2422,86.7779L461.043,85.5357L462.1211,85.5357Q462.6074,85.5357,462.84180000000003,85.4654Q463.0762,85.3892,463.15819999999997,85.1842Q463.2402,84.9732,463.2402,84.5455L463.2402,80.16855L461.3301,81.0357L461.043,79.66464L463.2402,78.72714L463.2402,75.38144L461.15430000000003,75.38144L461.15430000000003,74.06894L463.2402,74.06894L463.2402,70.775969L464.5176,70.775969L464.5176,74.06894L466.082,74.06894L466.082,75.38144L464.5176,75.38144L464.5176,78.1705L465.9414,77.54355L466.0645,78.24667L466.1758,78.87362ZM476.9219,79.19589L473.0664,79.19589L473.0664,81.1939L475.9492,81.1939L475.9492,87.1002L474.707,87.1002L474.707,86.1627L470.1719,86.1627L470.1719,87.1178L468.9297,87.1178L468.9297,81.1939L471.8066,81.1939L471.8066,79.19589L468.2266,79.19589Q468.09770000000003,81.7564,467.6113,83.4732Q467.1309,85.19,466.02930000000003,86.9537L464.83979999999997,86.274Q465.707,84.8678,466.15229999999997,83.6256Q466.6035,82.3834,466.791,80.81308Q466.9844,79.23691,466.9844,76.80527000000001L466.9844,71.654875L476.2539,71.654875L476.2539,76.11972L473.0664,76.11972L473.0664,78.0123L476.9219,78.0123L476.9219,79.19589ZM474.9414,74.94784L474.9414,72.84433L468.2617,72.84433L468.2617,74.94784L474.9414,74.94784ZM468.2617,78.0123L471.8066,78.0123L471.8066,76.11972L468.2617,76.11972L468.2617,76.96347L468.2617,78.0123ZM470.1719,85.0318L474.707,85.0318L474.707,82.3834L470.1719,82.3834L470.1719,85.0318Z" fill="#000000" fill-opacity="1" style="mix-blend-mode:passthrough"/></g><g style="mix-blend-mode:passthrough"><path d="M57.37891,129.6002Q57.75391,130.5728,58.49805,131.1236Q59.24805,131.6685,60.38477,131.6685Q61.66211,131.6685,62.40625,130.8892Q63.15625,130.1041,63.15625,128.774Q63.15625,127.43808,62.37695,126.68222Q61.60352,125.92636,60.30859,125.92636Q58.83203,125.92636,57.82422,127.15097L56.51172,126.79355L57.05078,119.17636L63.98242,119.17636L63.98242,120.61777000000001L58.47461,120.61777000000001L58.11133,125.26425L58.16992,125.28183Q58.61523,124.86581,59.25391,124.66659Q59.89844,124.46737,60.61328,124.46737Q61.82031,124.46737,62.76367,124.99472Q63.71289,125.5162,64.23438,126.47714Q64.75586,127.43808,64.75586,128.6978Q64.75586,130.0162,64.20508,131.024Q63.66016,132.0318,62.66992,132.5709Q61.67969,133.11,60.40234,133.11Q58.74414,133.11,57.58984,132.3014Q56.44141,131.4928,55.955078,130.1217L57.37891,129.6002Z" fill="#000000" fill-opacity="1" style="mix-blend-mode:passthrough"/></g><g style="mix-blend-mode:passthrough"><path d="M422.09961,139.71933L419.3457,139.71933L419.3457,145.192Q419.3457,145.9889,419.76172,146.4225Q420.17773,146.8502,420.91602,146.8502Q421.34375,146.8502,421.88867,146.6685L421.88867,148.0396Q421.40234,148.2389,420.60547,148.2389Q419.27539,148.2389,418.56055,147.483Q417.85156,146.72129999999999,417.85156,145.3033L417.85156,139.71933L416.357422,139.71933L416.357422,138.31894L417.85156,138.31894L417.85156,135.2955L419.3457,135.2955L419.3457,138.31894L422.09961,138.31894L422.09961,139.71933ZM423.66992,147.858L423.66992,138.31894L425.16406,138.31894L425.16406,140.13534L425.25781,140.13534Q425.84961,139.16269,426.7637,138.61777Q427.6836,138.06698,428.8027,138.06698L428.9258,138.06698L428.9258,139.68417L428.7676,139.68417Q427.666,139.68417,426.8574,140.04745Q426.0488,140.40487,425.60352,141.02597Q425.16406,141.64706,425.16406,142.36777L425.16406,147.858L423.66992,147.858ZM438.2539,138.31894L438.2539,147.858L436.7598,147.858L436.7598,146.5279L436.6484,146.5279Q436.2148,147.2486,435.3887,147.6822Q434.5625,148.11,433.6953,148.11Q432.1133,148.11,431.2227,147.13139999999999Q430.332,146.1471,430.332,144.3834L430.332,138.31894L431.8262,138.31894L431.8262,144.149Q431.8262,145.3209,432.4648,146.0357Q433.1035,146.7447,434.0938,146.7447Q435.2832,146.7447,436.0215,145.9771Q436.7598,145.2096,436.7598,143.9674L436.7598,138.31894L438.2539,138.31894ZM448.8418,142.27987Q448.8418,142.90683,448.7305,143.5045L442.0039,143.5045Q442.0918,144.9986,442.8828,145.86Q443.6738,146.72129999999999,444.9863,146.72129999999999Q445.7246,146.72129999999999,446.375,146.3639Q447.0254,146.00639999999999,447.4883,145.3033L448.66020000000003,146.1119Q447.3828,148.0924,444.9863,148.0924Q442.8828,148.0924,441.6641,146.7623Q440.4512,145.4264,440.4512,143.106Q440.4512,140.76816,441.6055,139.4205Q442.7598,138.06698,444.7754,138.06698Q446.6621,138.06698,447.752,139.2037Q448.8418,140.33456,448.8418,142.27987ZM447.3125,142.15097Q447.3125,140.90878,446.6152,140.1705Q445.9238,139.43222,444.7754,139.43222Q443.6914,139.43222,442.9707,140.15292Q442.2559,140.87362,442.0566,142.15097L447.3125,142.15097Z" fill="#000000" fill-opacity="1" style="mix-blend-mode:passthrough"/></g><g style="mix-blend-mode:passthrough"><path d="M420.84961,208.11Q419.4668,208.11,418.64648,207.3834Q417.826172,206.651,417.826172,205.44389999999999Q417.826172,202.35019,422.54297,202.35019L423.91406,202.35019L423.91406,201.57675Q423.91406,200.60409,423.31641,200.01816Q422.72461,199.43222,421.75195,199.43222Q420.54492,199.43222,419.33789,200.47519L418.45898,199.46737Q419.90039,198.06698,421.82227,198.06698Q423.48047,198.06698,424.44141,198.96933Q425.4082,199.86581,425.4082,201.39511L425.4082,207.858L423.91406,207.858L423.91406,206.4928L423.80273,206.4928Q423.41016,207.2076,422.57812,207.65879999999999Q421.75195,208.11,420.84961,208.11ZM421.11914,206.7447Q421.7168,206.7447,422.36133,206.4752Q423.01172,206.1998,423.46289,205.6373Q423.91406,205.06889999999999,423.91406,204.2193L423.91406,203.7154L422.83008,203.7154Q421.04883,203.7154,420.19922,204.1256Q419.35547,204.5299,419.35547,205.356Q419.35547,205.9889,419.83008,206.3697Q420.31055,206.7447,421.11914,206.7447ZM428.0449,207.858L428.0449,194.17636L429.5391,194.17636L429.5391,199.66659L429.6328,199.66659Q430.1719,198.92831,430.9512,198.50644Q431.7363,198.08456,432.6387,198.08456Q433.7871,198.08456,434.7129,198.70566Q435.6445,199.32675,436.166,200.42831Q436.6875,201.52402,436.6875,202.90683Q436.6875,204.401,436.166,205.5846Q435.6445,206.7623,434.7129,207.4303Q433.7871,208.0924,432.6387,208.0924Q431.6836,208.0924,430.9102,207.6822Q430.1367,207.2662,429.6328,206.4928L429.5391,206.4928L429.5391,207.858L428.0449,207.858ZM429.4688,203.0885Q429.4688,204.1139,429.8203,204.9283Q430.1719,205.7369,430.8105,206.1881Q431.4492,206.6334,432.2402,206.6334Q433.0664,206.6334,433.7344,206.1881Q434.4023,205.7369,434.7773,204.9283Q435.1582,204.1139,435.1582,203.0885Q435.1582,202.06308,434.7891,201.25448Q434.4199,200.44003,433.7695,199.99472Q433.1191,199.54355,432.293,199.54355Q431.4844,199.54355,430.834,199.99472Q430.1895,200.44003,429.8262,201.25448Q429.4688,202.06308,429.4688,203.0885ZM442.9512,208.11Q441.5859,208.11,440.5664,207.4889Q439.5527,206.8678,439.002,205.7252Q438.4512,204.5826,438.4512,203.0709Q438.4512,201.57675,439.002,200.44589Q439.5527,199.30917,440.5664,198.6998Q441.5859,198.08456,442.9512,198.08456Q443.959,198.08456,444.9199,198.62362Q445.8867,199.16269,446.4609,200.06503L445.2949,200.8912Q444.8613,200.24667,444.2227,199.87167Q443.584,199.49081,442.8457,199.49081Q441.5684,199.49081,440.7715,200.46933Q439.9805,201.44783999999999,439.9805,203.0709Q439.9805,204.7057,440.7656,205.7076Q441.5508,206.7037,442.8281,206.7037Q443.5664,206.7037,444.2227,206.3287Q444.8789,205.9478,445.2949,205.3033L446.4609,206.1295Q445.8867,207.0318,444.9199,207.5709Q443.959,208.11,442.9512,208.11Z" fill="#000000" fill-opacity="1" style="mix-blend-mode:passthrough"/></g><g style="mix-blend-mode:passthrough"><path d="M435.29688,323.358L436.99023,323.358L436.99023,324.7818L435.29688,324.7818L435.29688,327.858L433.73242,327.858L433.73242,324.7818L427.503906,324.7818L427.503906,323.5924L433.04688,314.17636L435.29688,314.17636L435.29688,323.358ZM433.73242,315.90487L429.35547,323.358L433.73242,323.358L433.73242,315.90487Z" fill="#000000" fill-opacity="1" style="mix-blend-mode:passthrough"/></g><g style="mix-blend-mode:passthrough"><path d="M432.10938,379.7955Q432.30859,379.76034,432.72461,379.76034Q433.73242,379.76034,434.64062,380.21737Q435.54883,380.67441,436.12305,381.59433Q436.70312,382.51425,436.70312,383.8443Q436.70312,385.1392,436.15234,386.106Q435.60156,387.067,434.61133,387.5885Q433.62109,388.11,432.30859,388.11Q430.84961,388.11,429.66016,387.3189Q428.47656,386.5279,427.955078,385.1041L429.37891,384.6002Q430.22266,386.6685,432.36133,386.6685Q433.60352,386.6685,434.34766,385.9068Q435.09766,385.1392,435.09766,383.8443Q435.09766,382.54941,434.33008,381.78769Q433.56836,381.02011,432.25586,381.02011Q431.48242,381.02011,430.76172,381.43027L429.90039,380.24667L433.89648,375.61777L428.29492,375.61777L428.29492,374.17636L435.94727,374.17636L435.94727,375.49472L432.07422,379.71933L432.10938,379.7955Z" fill="#000000" fill-opacity="1" style="mix-blend-mode:passthrough"/></g><g style="mix-blend-mode:passthrough"><path d="M430.00586,446.4166L436.23438,446.4166L436.23438,447.858L427.919922,447.858L427.919922,446.5631L432.02148,441.8287Q433.28125,440.3873,433.82031,439.43222Q434.35938,438.47714,434.35938,437.65097Q434.35938,436.62558,433.69141,435.99862Q433.0293,435.36581,431.95117,435.36581Q431.04883,435.36581,430.33984,435.90487Q429.63086,436.44394,429.16211,437.45175L427.826172,436.80722Q428.36523,435.41855,429.4375,434.67441Q430.50977,433.924406,431.98633,433.924406Q433.1582,433.924406,434.05469,434.37558Q434.95703,434.82675,435.46094,435.65292Q435.96484,436.47909,435.96484,437.58066Q435.96484,438.62362,435.36719,439.7955Q434.77539,440.96152,433.42773,442.51425L430.00586,446.4166Z" fill="#000000" fill-opacity="1" style="mix-blend-mode:passthrough"/></g><g style="mix-blend-mode:passthrough"><path d="M434.13281,507.858L432.5625,507.858L432.5625,495.99862L429.902344,497.39902L429.902344,495.76425L432.96094,494.17636L434.13281,494.17636L434.13281,507.858Z" fill="#000000" fill-opacity="1" style="mix-blend-mode:passthrough"/></g><g style="mix-blend-mode:passthrough"><path d="M450.9,261.86914L449.025,261.86914L449.025,260L450.9,260L450.9,261.86914ZM445.5,261.86914L443.625,261.86914L443.625,260L445.5,260L445.5,261.86914ZM440.1,261.86914L438.225,261.86914L438.225,260L440.1,260L440.1,261.86914ZM426.675,261.86914L424.8,261.86914L424.8,260L426.675,260L426.675,261.86914ZM421.275,261.86914L419.4,261.86914L419.4,260L421.275,260L421.275,261.86914ZM415.875,261.86914L414,261.86914L414,260L415.875,260L415.875,261.86914Z" fill="#000000" fill-opacity="1" style="mix-blend-mode:passthrough"/></g><g style="mix-blend-mode:passthrough"><path d="M63.29688,218.358L64.99023,218.358L64.99023,219.7818L63.29688,219.7818L63.29688,222.858L61.73242,222.858L61.73242,219.7818L55.503906,219.7818L55.503906,218.5924L61.04688,209.17636L63.29688,209.17636L63.29688,218.358ZM61.73242,210.90487L57.35547,218.358L61.73242,218.358L61.73242,210.90487Z" fill="#000000" fill-opacity="1" style="mix-blend-mode:passthrough"/></g><g style="mix-blend-mode:passthrough"><path d="M60.10938,304.7955Q60.30859,304.76034,60.72461,304.76034Q61.73242,304.76034,62.64062,305.21737Q63.54883,305.67441,64.12305,306.59433Q64.70312,307.51425,64.70312,308.8443Q64.70312,310.1392,64.15234,311.106Q63.60156,312.067,62.61133,312.5885Q61.62109,313.11,60.30859,313.11Q58.84961,313.11,57.66016,312.3189Q56.47656,311.5279,55.955078,310.1041L57.37891,309.6002Q58.22266,311.6685,60.36133,311.6685Q61.60352,311.6685,62.34766,310.9068Q63.09766,310.1392,63.09766,308.8443Q63.09766,307.54941,62.33008,306.78769Q61.56836,306.02011,60.25586,306.02011Q59.48242,306.02011,58.76172,306.43027L57.90039,305.24667L61.89648,300.61777L56.29492,300.61777L56.29492,299.17636L63.94727,299.17636L63.94727,300.49472L60.07422,304.71933L60.10938,304.7955Z" fill="#000000" fill-opacity="1" style="mix-blend-mode:passthrough"/></g><g style="mix-blend-mode:passthrough"><path d="M58.00586,401.4166L64.23438,401.4166L64.23438,402.858L55.919922,402.858L55.919922,401.5631L60.02148,396.8287Q61.28125,395.3873,61.82031,394.43222Q62.35938,393.47714,62.35938,392.65097Q62.35938,391.62558,61.69141,390.99862Q61.0293,390.36581,59.95117,390.36581Q59.04883,390.36581,58.33984,390.90487Q57.63086,391.44394,57.16211,392.45175L55.826172,391.80722Q56.36523,390.41855,57.4375,389.67441Q58.50977,388.924406,59.98633,388.924406Q61.1582,388.924406,62.05469,389.37558Q62.95703,389.82675,63.46094,390.65292Q63.96484,391.47909,63.96484,392.58066Q63.96484,393.62362,63.36719,394.7955Q62.77539,395.96152,61.42773,397.51425L58.00586,401.4166Z" fill="#000000" fill-opacity="1" style="mix-blend-mode:passthrough"/></g><g style="mix-blend-mode:passthrough"><path d="M61.13281,492.858L59.5625,492.858L59.5625,480.99862L56.902344,482.39902L56.902344,480.76425L59.96094,479.17636L61.13281,479.17636L61.13281,492.858Z" fill="#000000" fill-opacity="1" style="mix-blend-mode:passthrough"/></g><g style="mix-blend-mode:passthrough"><rect x="1" y="42" width="118" height="493" rx="4" fill-opacity="0" stroke-opacity="1" stroke="#000000" fill="none" stroke-width="2" style="mix-blend-mode:passthrough"/></g><g style="mix-blend-mode:passthrough"><rect x="271" y="42" width="323" height="493" rx="4" fill-opacity="0" stroke-opacity="1" stroke="#000000" fill="none" stroke-width="2" style="mix-blend-mode:passthrough"/></g><g style="mix-blend-mode:passthrough"><path d="M120,287.5L171,287.5L171,289.5L120,289.5L120,287.5ZM219,287.5L261,287.5L261,289.5L219,289.5L219,287.5ZM270,288.5L259.954,294.3L259.954,282.7L270,288.5ZM171,300.5L171,276.5Q171,276.30349,171.0193,276.10793Q171.0385,275.91237,171.0769,275.71964Q171.11520000000002,275.52691,171.1722,275.33886Q171.2293,275.15082,171.3045,274.96927Q171.3797,274.78772,171.4723,274.61441Q171.5649,274.44111,171.6741,274.27772Q171.7833,274.11433,171.90800000000002,273.96243Q172.0326,273.81052,172.1716,273.67157Q172.3105,273.53262,172.4624,273.407958Q172.61430000000001,273.283295,172.7777,273.174121Q172.9411,273.064948,173.1144,272.972315Q173.2877,272.879682,173.4693,272.804482Q173.6508,272.729282,173.8389,272.672239Q174.0269,272.615196,174.2196,272.5768589Q174.4124,272.5385222,174.6079,272.5192611Q174.80349999999999,272.5,175,272.5L215,272.5Q215.19650000000001,272.5,215.3921,272.5192611Q215.5876,272.5385222,215.7804,272.5768589Q215.9731,272.615196,216.1611,272.672239Q216.3492,272.729282,216.5307,272.804482Q216.7123,272.879682,216.8856,272.972315Q217.0589,273.064948,217.22230000000002,273.174121Q217.38569999999999,273.283295,217.5376,273.407958Q217.6895,273.53262,217.8284,273.67157Q217.9674,273.81052,218.09199999999998,273.96243Q218.2167,274.11433,218.3259,274.27772Q218.435,274.44111,218.52769999999998,274.61441Q218.6203,274.78772,218.69549999999998,274.96927Q218.7707,275.15082,218.8278,275.33886Q218.88479999999998,275.52691,218.9231,275.71964Q218.9615,275.91237,218.9807,276.10793Q219,276.30349,219,276.5L219,300.5Q219,300.6965,218.9807,300.8921Q218.9615,301.0876,218.9231,301.2804Q218.88479999999998,301.4731,218.8278,301.6611Q218.7707,301.8492,218.69549999999998,302.0307Q218.6203,302.2123,218.52769999999998,302.3856Q218.435,302.5589,218.3259,302.7223Q218.2167,302.8857,218.09199999999998,303.0376Q217.9674,303.1895,217.8284,303.3284Q217.6895,303.4674,217.5376,303.592Q217.38569999999999,303.7167,217.22230000000002,303.8259Q217.0589,303.935,216.8856,304.0277Q216.7123,304.1203,216.5307,304.1955Q216.3492,304.2707,216.1611,304.3278Q215.9731,304.3848,215.7804,304.4231Q215.5876,304.4615,215.3921,304.4807Q215.19650000000001,304.5,215,304.5L175,304.5Q174.80349999999999,304.5,174.6079,304.4807Q174.4124,304.4615,174.2196,304.4231Q174.0269,304.3848,173.8389,304.3278Q173.6508,304.2707,173.4693,304.1955Q173.2877,304.1203,173.1144,304.0277Q172.9411,303.935,172.7777,303.8259Q172.61430000000001,303.7167,172.4624,303.592Q172.3105,303.4674,172.1716,303.3284Q172.0326,303.1895,171.90800000000002,303.0376Q171.7833,302.8857,171.6741,302.7223Q171.5649,302.5589,171.4723,302.3856Q171.3797,302.2123,171.3045,302.0307Q171.2293,301.8492,171.1722,301.6611Q171.11520000000002,301.4731,171.0769,301.2804Q171.0385,301.0876,171.0193,300.8921Q171,300.6965,171,300.5Z" fill="#000000" fill-opacity="1" style="mix-blend-mode:passthrough"/></g><g style="mix-blend-mode:passthrough"><path d="M180.08854,288.54913Q183.35417,287.55433,185.65625,285.55433L180.47396,285.55433L180.47396,284.50225L186.375,284.50225L186.375,281.122042L187.59375,281.122042L187.59375,284.50225L193.5417,284.50225L193.5417,285.55433L187.59375,285.55433L187.59375,285.89288Q190.6823,287.07517,193.8333,288.41892L193.4323,289.47621Q189.625,287.79392,187.59375,287.01267L187.59375,288.30954L186.375,288.30954L186.375,286.37204Q185.20833,287.44496,183.86979,288.21579Q182.53646,288.98142,180.48958,289.71579L180.08854,288.54913ZM184.04167,284.46579Q183.28646,283.71579,181.54167,282.19496L182.26562,281.382459L182.76042,281.79392Q183.91146,282.74183,184.82292,283.58558L184.04167,284.46579ZM192.474,282.17933Q191.5781,283.05954,189.9427,284.45017L189.1771,283.63767Q190.6979,282.35642,191.6562,281.382459L192.474,282.17933ZM187.71875,291.2054Q188.40625,292.2783,189.9427,293.096Q191.4792,293.9085,193.8958,294.3408L193.6094,295.6377Q191.0469,294.997,189.4479,294.2002Q187.84896,293.3981,187.0625,292.2783Q186.40625,293.346,184.82812,294.0908Q183.25521,294.8356,180.35938,295.5856L180.01042,294.3408Q182.74479,293.7627,184.22917,293.0127Q185.71875,292.2575,186.16667,291.2054L180.35938,291.2054L180.35938,290.14808L186.375,290.14808L186.375,288.95017L187.60938,288.95017L187.60938,290.14808L193.6562,290.14808L193.6562,291.2054L187.71875,291.2054ZM208.5521,292.5648Q208.5677,292.1325,208.599,291.4033Q208.6302,290.6741,208.6302,290.17933L209.8177,290.43454L209.7188,293.0283Q209.6875,294.1325,209.1927,294.5804Q208.6979,295.0283,207.4479,295.0283L205.2552,295.0283Q204.2135,295.0283,203.776,294.5752Q203.3385,294.1168,203.3385,292.9658L203.3385,281.221001L204.5677,281.221001L204.5677,287.2835Q205.6719,286.48142,206.9583,285.39808Q208.25,284.30954,209.0156,283.52308L209.8333,284.50225Q208.8229,285.50746,207.2865,286.77308Q205.75,288.0335,204.5677,288.83558L204.5677,292.5335Q204.5677,293.2835,204.7969,293.5387Q205.0312,293.7939,205.7344,293.7939L207.2396,293.7939Q207.7865,293.7939,208.0469,293.7002Q208.3125,293.6064,208.4219,293.3512Q208.5365,293.0908,208.5521,292.5648ZM198.474,281.382459L198.474,285.87725L202.3594,285.87725L202.3594,287.13767L198.474,287.13767L198.474,293.3981L202.1979,291.8095L202.3125,293.122L197.2552,295.3304L196.7604,294.07Q197.0625,293.9085,197.151,293.7679Q197.2396,293.622,197.2396,293.3304L197.2396,281.382459L198.474,281.382459Z" fill="#FFFFFF" fill-opacity="1" style="mix-blend-mode:passthrough"/></g><g style="mix-blend-mode:passthrough"><path d="M322,0L322,25.5L320,25.5L320,0L322,0ZM322,57.5L322,74L320,74L320,57.5L322,57.5ZM321,83L315.2,72.9541L326.8,72.9541L321,83ZM297,53.5L297,29.5Q297,29.3035,297.0192611,29.1079Q297.0385222,28.9124,297.0768589,28.7196Q297.115196,28.5269,297.172239,28.3389Q297.229282,28.1508,297.304482,27.9693Q297.379682,27.7877,297.472315,27.6144Q297.564948,27.4411,297.674121,27.2777Q297.783295,27.1143,297.907958,26.9624Q298.03262,26.8105,298.17157,26.6716Q298.31052,26.5326,298.46243,26.408Q298.61433,26.2833,298.77772,26.1741Q298.94111,26.0649,299.11441,25.9723Q299.28772,25.8797,299.46927,25.8045Q299.65082,25.7293,299.83886,25.6722Q300.02691,25.6152,300.21964,25.5769Q300.41237,25.5385,300.60793,25.5193Q300.80349,25.5,301,25.5L341,25.5Q341.1965,25.5,341.3921,25.5193Q341.5876,25.5385,341.7804,25.5769Q341.9731,25.6152,342.1611,25.6722Q342.3492,25.7293,342.5307,25.8045Q342.7123,25.8797,342.8856,25.9723Q343.0589,26.0649,343.2223,26.1741Q343.3857,26.2833,343.5376,26.408Q343.6895,26.5326,343.8284,26.6716Q343.9674,26.8105,344.092,26.9624Q344.2167,27.1143,344.3259,27.2777Q344.435,27.4411,344.5277,27.6144Q344.6203,27.7877,344.6955,27.9693Q344.7707,28.1508,344.8278,28.3389Q344.8848,28.5269,344.9231,28.7196Q344.9615,28.9124,344.9807,29.1079Q345,29.3035,345,29.5L345,53.5Q345,53.6965,344.9807,53.8921Q344.9615,54.0876,344.9231,54.2804Q344.8848,54.4731,344.8278,54.6611Q344.7707,54.8492,344.6955,55.0307Q344.6203,55.2123,344.5277,55.3856Q344.435,55.5589,344.3259,55.7223Q344.2167,55.8857,344.092,56.0376Q343.9674,56.1895,343.8284,56.3284Q343.6895,56.4674,343.5376,56.592Q343.3857,56.7167,343.2223,56.8259Q343.0589,56.935,342.8856,57.0277Q342.7123,57.1203,342.5307,57.1955Q342.3492,57.2707,342.1611,57.3278Q341.9731,57.3848,341.7804,57.4231Q341.5876,57.4615,341.3921,57.4807Q341.1965,57.5,341,57.5L301,57.5Q300.80349,57.5,300.60793,57.4807Q300.41237,57.4615,300.21964,57.4231Q300.02691,57.3848,299.83886,57.3278Q299.65082,57.2707,299.46927,57.1955Q299.28772,57.1203,299.11441,57.0277Q298.94111,56.935,298.77772,56.8259Q298.61433,56.7167,298.46243,56.592Q298.31052,56.4674,298.17157,56.3284Q298.03262,56.1895,297.907958,56.0376Q297.783295,55.8857,297.674121,55.7223Q297.564948,55.5589,297.472315,55.3856Q297.379682,55.2123,297.304482,55.0307Q297.229282,54.8492,297.172239,54.6611Q297.115196,54.4731,297.0768589,54.2804Q297.0385222,54.0876,297.0192611,53.8921Q297,53.6965,297,53.5Z" fill="#000000" fill-opacity="1" style="mix-blend-mode:passthrough"/></g><g style="mix-blend-mode:passthrough"><path d="M310.53646,45.7887Q311.46354,44.7002,311.80729,43.9918Q312.15104,43.27829,312.25,42.20538L310.01042,42.20538L310.01042,41.033500000000004L312.29688,41.033500000000004L312.29688,40.09079L312.29688,37.89808L310.52083,37.89808L310.52083,36.73142L312.29688,36.73142L312.29688,34.267876L313.44792,34.267876L313.44792,36.73142L316.4583,36.73142L316.4583,34.252251L317.6094,34.252251L317.6094,36.73142L319.4792,36.73142L319.4792,37.89808L317.6094,37.89808L317.6094,41.033500000000004L320.0417,41.033500000000004L320.0417,42.20538L317.6094,42.20538L317.6094,46.3304L316.4583,46.3304L316.4583,42.20538L313.38542,42.20538Q313.28646,43.6273,312.89583,44.5023Q312.50521,45.372,311.51042,46.5075L310.53646,45.7887ZM308.80729,38.23663Q308.4375,37.71058,307.73958,36.78871Q307.04688,35.86683,306.52083,35.21058L307.41667,34.460584Q308.85417,36.23663,309.73438,37.40329L308.80729,38.23663ZM313.44792,39.98142Q313.44792,40.71579,313.43229,41.033500000000004L316.4583,41.033500000000004L316.4583,37.89808L313.44792,37.89808L313.44792,39.98142ZM320.0729,47.0023L319.7656,48.2054L312.96875,48.2054Q311.81771,48.2054,311.07812,48.0595Q310.34375,47.9137,309.73438,47.5075Q309.13021,47.1012,308.48958,46.299099999999996L306.55208,48.361599999999996L305.848958,47.2262L307.81771,45.1325L307.81771,40.846000000000004L306.04167,40.846000000000004L306.04167,39.64288L309.03125,39.64288L309.03125,45.1325Q309.57812,45.9345,310.13021,46.3356Q310.68229,46.7314,311.36979,46.8668Q312.05729,47.0023,313.14583,47.0023L320.0729,47.0023ZM334.6302,45.9137Q334.8542,45.195,335.0156,44.1377L336.0417,44.5543Q335.974,44.9398,335.8385,45.5595Q335.7031,46.174099999999996,335.5625,46.6689Q335.224,47.6898,334.8073,48.0804Q334.3906,48.4762,333.7188,48.4762Q333.0781,48.4762,332.4375,48.0283Q331.8021,47.5804,331.3385,46.7002Q331.1458,46.361599999999996,330.8854,45.7575Q329.0781,46.747,326.776,47.5804L326.2812,46.3825Q328.6615,45.5648,330.474,44.5856Q330.1042,43.30954,329.849,41.658500000000004L327.4792,41.98142L327.3698,40.877250000000004L329.6875,40.56996L329.625,39.93454L329.4792,38.66892L327.6406,38.877250000000004L327.526,37.77308L329.3854,37.564750000000004Q329.3698,37.533500000000004,329.3698,37.45017Q329.3021,36.70017,329.2448,35.72621Q329.1927,34.74704,329.1771,34.043917L330.3906,34.028292Q330.4062,35.37204,330.5833,37.43454L335.6562,36.877250000000004L335.7188,37.93454L330.6823,38.52308L330.8229,39.80433L330.8854,40.42933L335.9583,39.77308L336.0417,40.83038L331.0469,41.502250000000004Q331.3021,43.01788,331.5625,43.9658Q333.4948,42.77829,334.7135,41.502250000000004L335.4323,42.38246Q333.9896,43.8825,331.9583,45.1481Q332.2344,45.7575,332.4583,46.158500000000004Q332.7917,46.7158,333.1042,46.9554Q333.4167,47.195,333.7344,47.195Q334.0573,47.195,334.2396,46.924099999999996Q334.4219,46.6533,334.6302,45.9137ZM326.6302,42.71579Q326.3438,42.39808,325.3021,41.32517L325.3021,48.6845L324.1198,48.6845L324.1198,41.19496Q323.3021,43.29392,322.4896,44.5856L321.9427,43.40329Q322.474,42.49183,323.0781,41.08558Q323.6875,39.67413,324.1198,38.314750000000004L324.1198,38.26788L322.026,38.26788L322.026,37.13246L324.1198,37.13246L324.1198,34.059542L325.3021,34.059542L325.3021,37.13246L327.2396,37.13246L327.2396,38.26788L325.3021,38.26788L325.3021,39.83558L326.9531,41.45017L327.3542,41.86683L326.6302,42.71579ZM333.4792,36.877250000000004Q332.7448,36.01267,331.526,34.846000000000004L332.1979,34.174126Q333.401,35.24183,334.2344,36.17413L333.4792,36.877250000000004Z" fill="#FFFFFF" fill-opacity="1" style="mix-blend-mode:passthrough"/></g><g style="mix-blend-mode:passthrough"><path d="M545,9L545,25.5L543,25.5L543,9L545,9ZM545,57.5L545,83L543,83L543,57.5L545,57.5ZM544,0L549.8,10.0459L538.2,10.0459L544,0ZM520,53.5L520,29.5Q520,29.3035,520.0192611,29.1079Q520.0385222,28.9124,520.0768589,28.7196Q520.115196,28.5269,520.172239,28.3389Q520.229282,28.1508,520.304482,27.9693Q520.379682,27.7877,520.472315,27.6144Q520.564948,27.4411,520.674121,27.2777Q520.783295,27.1143,520.907958,26.9624Q521.03262,26.8105,521.17157,26.6716Q521.31052,26.5326,521.46243,26.408Q521.61433,26.2833,521.77772,26.1741Q521.94111,26.0649,522.11441,25.9723Q522.28772,25.8797,522.46927,25.8045Q522.65082,25.7293,522.83886,25.6722Q523.02691,25.6152,523.21964,25.5769Q523.41237,25.5385,523.60793,25.5193Q523.80349,25.5,524,25.5L564,25.5Q564.1965,25.5,564.3921,25.5193Q564.5876,25.5385,564.7804,25.5769Q564.9731,25.6152,565.1611,25.6722Q565.3492,25.7293,565.5307,25.8045Q565.7123,25.8797,565.8856,25.9723Q566.0589,26.0649,566.2223,26.1741Q566.3857,26.2833,566.5376,26.408Q566.6895,26.5326,566.8284,26.6716Q566.9674,26.8105,567.092,26.9624Q567.2167,27.1143,567.3259,27.2777Q567.435,27.4411,567.5277,27.6144Q567.6203,27.7877,567.6955,27.9693Q567.7707,28.1508,567.8278,28.3389Q567.8848,28.5269,567.9231,28.7196Q567.9615,28.9124,567.9807,29.1079Q568,29.3035,568,29.5L568,53.5Q568,53.6965,567.9807,53.8921Q567.9615,54.0876,567.9231,54.2804Q567.8848,54.4731,567.8278,54.6611Q567.7707,54.8492,567.6955,55.0307Q567.6203,55.2123,567.5277,55.3856Q567.435,55.5589,567.3259,55.7223Q567.2167,55.8857,567.092,56.0376Q566.9674,56.1895,566.8284,56.3284Q566.6895,56.4674,566.5376,56.592Q566.3857,56.7167,566.2223,56.8259Q566.0589,56.935,565.8856,57.0277Q565.7123,57.1203,565.5307,57.1955Q565.3492,57.2707,565.1611,57.3278Q564.9731,57.3848,564.7804,57.4231Q564.5876,57.4615,564.3921,57.4807Q564.1965,57.5,564,57.5L524,57.5Q523.80349,57.5,523.60793,57.4807Q523.41237,57.4615,523.21964,57.4231Q523.02691,57.3848,522.83886,57.3278Q522.65082,57.2707,522.46927,57.1955Q522.28772,57.1203,522.11441,57.0277Q521.94111,56.935,521.77772,56.8259Q521.61433,56.7167,521.46243,56.592Q521.31052,56.4674,521.17157,56.3284Q521.03262,56.1895,520.907958,56.0376Q520.783295,55.8857,520.674121,55.7223Q520.564948,55.5589,520.472315,55.3856Q520.379682,55.2123,520.304482,55.0307Q520.229282,54.8492,520.172239,54.6611Q520.115196,54.4731,520.0768589,54.2804Q520.0385222,54.0876,520.0192611,53.8921Q520,53.6965,520,53.5Z" fill="#000000" fill-opacity="1" style="mix-blend-mode:passthrough"/></g><g style="mix-blend-mode:passthrough"><path d="M540.8177,46.6689L540.8177,42.252250000000004L542.0469,42.252250000000004L542.0469,48.622L540.8177,48.622L540.8177,47.8356L530.01562,47.8356L530.01562,42.283500000000004L531.23438,42.283500000000004L531.23438,46.6689L535.42188,46.6689L535.42188,41.002250000000004L530.46354,41.002250000000004L530.46354,35.43454L531.66146,35.43454L531.66146,39.78871L535.42188,39.78871L535.42188,33.981417L536.59375,33.981417L536.59375,39.78871L540.3698,39.78871L540.3698,35.43454L541.5677,35.43454L541.5677,41.002250000000004L536.59375,41.002250000000004L536.59375,46.6689L540.8177,46.6689ZM557.6302,45.9137Q557.8542,45.195,558.0156,44.1377L559.0417,44.5543Q558.974,44.9398,558.8385,45.5595Q558.7031,46.174099999999996,558.5625,46.6689Q558.224,47.6898,557.8073,48.0804Q557.3906,48.4762,556.7188,48.4762Q556.0781,48.4762,555.4375,48.0283Q554.8021,47.5804,554.3385,46.7002Q554.1458,46.361599999999996,553.8854,45.7575Q552.0781,46.747,549.776,47.5804L549.2812,46.3825Q551.6615,45.5648,553.474,44.5856Q553.1042,43.30954,552.849,41.658500000000004L550.4792,41.98142L550.3698,40.877250000000004L552.6875,40.56996L552.625,39.93454L552.4792,38.66892L550.6406,38.877250000000004L550.526,37.77308L552.3854,37.564750000000004Q552.3698,37.533500000000004,552.3698,37.45017Q552.3021,36.70017,552.2448,35.72621Q552.1927,34.74704,552.1771,34.043917L553.3906,34.028292Q553.4062,35.37204,553.5833,37.43454L558.6562,36.877250000000004L558.7188,37.93454L553.6823,38.52308L553.8229,39.80433L553.8854,40.42933L558.9583,39.77308L559.0417,40.83038L554.0469,41.502250000000004Q554.3021,43.01788,554.5625,43.9658Q556.4948,42.77829,557.7135,41.502250000000004L558.4323,42.38246Q556.9896,43.8825,554.9583,45.1481Q555.2344,45.7575,555.4583,46.158500000000004Q555.7917,46.7158,556.1042,46.9554Q556.4167,47.195,556.7344,47.195Q557.0573,47.195,557.2396,46.924099999999996Q557.4219,46.6533,557.6302,45.9137ZM549.6302,42.71579Q549.3438,42.39808,548.3021,41.32517L548.3021,48.6845L547.1198,48.6845L547.1198,41.19496Q546.3021,43.29392,545.4896,44.5856L544.9427,43.40329Q545.474,42.49183,546.0781,41.08558Q546.6875,39.67413,547.1198,38.314750000000004L547.1198,38.26788L545.026,38.26788L545.026,37.13246L547.1198,37.13246L547.1198,34.059542L548.3021,34.059542L548.3021,37.13246L550.2396,37.13246L550.2396,38.26788L548.3021,38.26788L548.3021,39.83558L549.9531,41.45017L550.3542,41.86683L549.6302,42.71579ZM556.4792,36.877250000000004Q555.7448,36.01267,554.526,34.846000000000004L555.1979,34.174126Q556.401,35.24183,557.2344,36.17413L556.4792,36.877250000000004Z" fill="#FFFFFF" fill-opacity="1" style="mix-blend-mode:passthrough"/></g><g style="mix-blend-mode:passthrough"><path d="M584,124L634,124L634,126L584,126L584,124ZM575,125L585.0459,119.2L585.0459,130.8L575,125ZM634,137L634,113Q634,112.80349,634.0193,112.60793Q634.0385,112.41237,634.0769,112.21964Q634.1152,112.02691,634.1722,111.83886Q634.2293,111.65082,634.3045,111.46927Q634.3797,111.28772000000001,634.4723,111.11441Q634.5649,110.94111,634.6741,110.77772Q634.7833,110.61433,634.908,110.46243Q635.0326,110.31052,635.1716,110.17157Q635.3105,110.03262,635.4624,109.907958Q635.6143,109.783295,635.7777,109.674121Q635.9411,109.564948,636.1144,109.472315Q636.2877,109.379682,636.4693,109.304482Q636.6508,109.229282,636.8389,109.172239Q637.0269,109.115196,637.2196,109.0768589Q637.4124,109.0385222,637.6079,109.0192611Q637.8035,109,638,109L678,109Q678.197,109,678.392,109.0192611Q678.588,109.0385222,678.78,109.0768589Q678.973,109.115196,679.1610000000001,109.172239Q679.349,109.229282,679.531,109.304482Q679.712,109.379682,679.886,109.472315Q680.059,109.564948,680.222,109.674121Q680.386,109.783295,680.538,109.907958Q680.689,110.03262,680.828,110.17157Q680.967,110.31052,681.092,110.46243Q681.217,110.61433,681.326,110.77772Q681.435,110.94111,681.528,111.11441Q681.62,111.28772000000001,681.696,111.46927Q681.771,111.65082,681.828,111.83886Q681.885,112.02691,681.923,112.21964Q681.961,112.41237,681.981,112.60793Q682,112.80349,682,113L682,137Q682,137.19650000000001,681.981,137.3921Q681.961,137.5876,681.923,137.7804Q681.885,137.9731,681.828,138.1611Q681.771,138.3492,681.696,138.5307Q681.62,138.7123,681.528,138.8856Q681.435,139.0589,681.326,139.2223Q681.217,139.38569999999999,681.092,139.5376Q680.967,139.6895,680.828,139.8284Q680.689,139.9674,680.538,140.09199999999998Q680.386,140.2167,680.222,140.3259Q680.059,140.435,679.886,140.5277Q679.712,140.6203,679.531,140.6955Q679.349,140.7707,679.1610000000001,140.8278Q678.973,140.88479999999998,678.78,140.9231Q678.588,140.9615,678.392,140.9807Q678.197,141,678,141L638,141Q637.8035,141,637.6079,140.9807Q637.4124,140.9615,637.2196,140.9231Q637.0269,140.88479999999998,636.8389,140.8278Q636.6508,140.7707,636.4693,140.6955Q636.2877,140.6203,636.1144,140.5277Q635.9411,140.435,635.7777,140.3259Q635.6143,140.2167,635.4624,140.09199999999998Q635.3105,139.9674,635.1716,139.8284Q635.0326,139.6895,634.908,139.5376Q634.7833,139.38569999999999,634.6741,139.2223Q634.5649,139.0589,634.4723,138.8856Q634.3797,138.7123,634.3045,138.5307Q634.2293,138.3492,634.1722,138.1611Q634.1152,137.9731,634.0769,137.7804Q634.0385,137.5876,634.0193,137.3921Q634,137.19650000000001,634,137Z" fill="#000000" fill-opacity="1" style="mix-blend-mode:passthrough"/></g><g style="mix-blend-mode:passthrough"><path d="M655.6302,129.4137Q655.8542,128.695,656.0156,127.6377L657.0417,128.0543Q656.974,128.4398,656.8385,129.0595Q656.7031,129.6741,656.5625,130.1689Q656.224,131.1898,655.8073,131.5804Q655.3906,131.9762,654.7188,131.9762Q654.0781,131.9762,653.4375,131.5283Q652.8021,131.0804,652.3385,130.2002Q652.1458,129.8616,651.88542,129.2575Q650.07812,130.247,647.77604,131.0804L647.28125,129.8825Q649.66146,129.0648,651.47396,128.0856Q651.10417,126.80954,650.84896,125.1585L648.47917,125.48142L648.36979,124.37725L650.6875,124.06996L650.625,123.43454L650.47917,122.16892L648.64062,122.37725L648.52604,121.27308L650.38542,121.06475Q650.36979,121.0335,650.36979,120.95017Q650.30208,120.20017,650.24479,119.22621Q650.19271,118.24704,650.17708,117.543917L651.39062,117.528292Q651.40625,118.87204,651.58333,120.93454L656.6562,120.37725L656.7188,121.43454L651.68229,122.02308L651.82292,123.30433L651.88542,123.92933L656.9583,123.27308L657.0417,124.33038L652.0469,125.00225Q652.3021,126.51788,652.5625,127.4658Q654.4948,126.27829,655.7135,125.00225L656.4323,125.88246Q654.9896,127.3825,652.9583,128.6481Q653.2344,129.2575,653.4583,129.6585Q653.7917,130.2158,654.1042,130.4554Q654.4167,130.695,654.7344,130.695Q655.0573,130.695,655.2396,130.4241Q655.4219,130.1533,655.6302,129.4137ZM647.63021,126.21579Q647.34375,125.89808,646.30208,124.82517L646.30208,132.1845L645.11979,132.1845L645.11979,124.69496Q644.30208,126.79392,643.48958,128.0856L642.942708,126.90329Q643.47396,125.99183,644.07812,124.58558Q644.6875,123.17413,645.11979,121.81475L645.11979,121.76788L643.02604,121.76788L643.02604,120.63246L645.11979,120.63246L645.11979,117.559542L646.30208,117.559542L646.30208,120.63246L648.23958,120.63246L648.23958,121.76788L646.30208,121.76788L646.30208,123.33558L647.95312,124.95017L648.35417,125.36683L647.63021,126.21579ZM654.4792,120.37725Q653.7448,119.51267,652.526,118.346L653.1979,117.674126Q654.401,118.74183,655.2344,119.67413L654.4792,120.37725ZM667.2812,121.63767Q667.4219,121.096,667.7448,119.60642L664.3385,119.60642L664.3385,118.471L672.974,118.471L672.974,119.60642L669.0104,119.60642L668.5417,121.63767L672.1146,121.63767L672.1146,128.5335L670.974,128.5335L670.974,122.69496L665.776,122.69496L665.776,128.5179L664.6562,128.5179L664.6562,121.63767L667.2812,121.63767ZM663.9062,119.86163L662.2708,119.86163L662.2708,129.9918Q662.2708,130.6325,662.1042,130.971Q661.9375,131.3043,661.5417,131.4293Q661.151,131.5595,660.4167,131.5595L659.2969,131.5595L659.026,130.4241L660.0781,130.4241Q660.7031,130.4241,660.8958,130.2679Q661.0885,130.1064,661.0885,129.5752L661.0885,119.86163L658.9896,119.86163L658.9896,118.67933L663.9062,118.67933L663.9062,119.86163ZM672.3542,132.0231Q671.2344,131.096,668.2708,128.9033Q667.7448,129.7991,666.6875,130.57Q665.6302,131.3356,663.7917,132.122L663.25,130.9814Q665.2656,130.1689,666.2135,129.4658Q667.1667,128.7575,667.4635,127.9345Q667.7604,127.1116,667.7604,125.70538L667.7604,123.49704L668.9115,123.49704L668.9115,126.00746Q668.9115,127.096,668.7188,127.8148Q671.25,129.6064,673.0573,130.9658L672.3542,132.0231Z" fill="#FFFFFF" fill-opacity="1" style="mix-blend-mode:passthrough"/></g><g style="mix-blend-mode:passthrough"><path d="M584,500L634,500L634,502L584,502L584,500ZM575,501L585.0459,495.2L585.0459,506.8L575,501ZM634,513L634,489Q634,488.80349,634.0193,488.60793Q634.0385,488.41237,634.0769,488.21964Q634.1152,488.02691,634.1722,487.83886Q634.2293,487.65082,634.3045,487.46927Q634.3797,487.28772,634.4723,487.11441Q634.5649,486.94111,634.6741,486.77772Q634.7833,486.61433,634.908,486.46243Q635.0326,486.31052,635.1716,486.17157Q635.3105,486.03262,635.4624,485.907958Q635.6143,485.783295,635.7777,485.674121Q635.9411,485.564948,636.1144,485.472315Q636.2877,485.379682,636.4693,485.304482Q636.6508,485.229282,636.8389,485.172239Q637.0269,485.115196,637.2196,485.0768589Q637.4124,485.0385222,637.6079,485.0192611Q637.8035,485,638,485L678,485Q678.197,485,678.392,485.0192611Q678.588,485.0385222,678.78,485.0768589Q678.973,485.115196,679.1610000000001,485.172239Q679.349,485.229282,679.531,485.304482Q679.712,485.379682,679.886,485.472315Q680.059,485.564948,680.222,485.674121Q680.386,485.783295,680.538,485.907958Q680.689,486.03262,680.828,486.17157Q680.967,486.31052,681.092,486.46243Q681.217,486.61433,681.326,486.77772Q681.435,486.94111,681.528,487.11441Q681.62,487.28772,681.696,487.46927Q681.771,487.65082,681.828,487.83886Q681.885,488.02691,681.923,488.21964Q681.961,488.41237,681.981,488.60793Q682,488.80349,682,489L682,513Q682,513.1965,681.981,513.3921Q681.961,513.5876,681.923,513.7804Q681.885,513.9731,681.828,514.1611Q681.771,514.3492,681.696,514.5307Q681.62,514.7123,681.528,514.8856Q681.435,515.0589,681.326,515.2223Q681.217,515.3857,681.092,515.5376Q680.967,515.6895,680.828,515.8284Q680.689,515.9674,680.538,516.092Q680.386,516.2167,680.222,516.3259Q680.059,516.435,679.886,516.5277Q679.712,516.6203,679.531,516.6955Q679.349,516.7707,679.1610000000001,516.8278Q678.973,516.8848,678.78,516.9231Q678.588,516.9615,678.392,516.9807Q678.197,517,678,517L638,517Q637.8035,517,637.6079,516.9807Q637.4124,516.9615,637.2196,516.9231Q637.0269,516.8848,636.8389,516.8278Q636.6508,516.7707,636.4693,516.6955Q636.2877,516.6203,636.1144,516.5277Q635.9411,516.435,635.7777,516.3259Q635.6143,516.2167,635.4624,516.092Q635.3105,515.9674,635.1716,515.8284Q635.0326,515.6895,634.908,515.5376Q634.7833,515.3857,634.6741,515.2223Q634.5649,515.0589,634.4723,514.8856Q634.3797,514.7123,634.3045,514.5307Q634.2293,514.3492,634.1722,514.1611Q634.1152,513.9731,634.0769,513.7804Q634.0385,513.5876,634.0193,513.3921Q634,513.1965,634,513Z" fill="#000000" fill-opacity="1" style="mix-blend-mode:passthrough"/></g><g style="mix-blend-mode:passthrough"><path d="M655.6302,505.4137Q655.8542,504.695,656.0156,503.6377L657.0417,504.0543Q656.974,504.4398,656.8385,505.0595Q656.7031,505.6741,656.5625,506.1689Q656.224,507.1898,655.8073,507.5804Q655.3906,507.9762,654.7188,507.9762Q654.0781,507.9762,653.4375,507.5283Q652.8021,507.0804,652.3385,506.2002Q652.1458,505.8616,651.88542,505.2575Q650.07812,506.247,647.77604,507.0804L647.28125,505.8825Q649.66146,505.0648,651.47396,504.0856Q651.10417,502.80954,650.84896,501.1585L648.47917,501.48142L648.36979,500.37725L650.6875,500.06996L650.625,499.43454L650.47917,498.16892L648.64062,498.37725L648.52604,497.27308L650.38542,497.06475Q650.36979,497.0335,650.36979,496.95017Q650.30208,496.20017,650.24479,495.22621Q650.19271,494.24704,650.17708,493.543917L651.39062,493.528292Q651.40625,494.87204,651.58333,496.93454L656.6562,496.37725L656.7188,497.43454L651.68229,498.02308L651.82292,499.30433L651.88542,499.92933L656.9583,499.27308L657.0417,500.33038L652.0469,501.00225Q652.3021,502.51788,652.5625,503.4658Q654.4948,502.27829,655.7135,501.00225L656.4323,501.88246Q654.9896,503.3825,652.9583,504.6481Q653.2344,505.2575,653.4583,505.6585Q653.7917,506.2158,654.1042,506.4554Q654.4167,506.695,654.7344,506.695Q655.0573,506.695,655.2396,506.4241Q655.4219,506.1533,655.6302,505.4137ZM647.63021,502.21579Q647.34375,501.89808,646.30208,500.82517L646.30208,508.1845L645.11979,508.1845L645.11979,500.69496Q644.30208,502.79392,643.48958,504.0856L642.942708,502.90329Q643.47396,501.99183,644.07812,500.58558Q644.6875,499.17413,645.11979,497.81475L645.11979,497.76788L643.02604,497.76788L643.02604,496.63246L645.11979,496.63246L645.11979,493.559542L646.30208,493.559542L646.30208,496.63246L648.23958,496.63246L648.23958,497.76788L646.30208,497.76788L646.30208,499.33558L647.95312,500.95017L648.35417,501.36683L647.63021,502.21579ZM654.4792,496.37725Q653.7448,495.51267,652.526,494.346L653.1979,493.674126Q654.401,494.74183,655.2344,495.67413L654.4792,496.37725ZM672.9115,495.01788L672.9115,496.16892L661.5521,496.16892L661.5521,499.99183Q661.5521,502.05433,661.4219,503.3981Q661.2969,504.7418,660.9583,505.8877Q660.625,507.0335,659.9531,508.2627L658.849,507.5595Q659.5208,506.346,659.849,505.3148Q660.1771,504.2783,660.2812,503.1273Q660.3854,501.97621,660.3854,500.12204L660.3854,495.01788L666.2396,495.01788L665.9375,494.16892L665.7135,493.559542L666.9583,493.335584Q666.9427,493.288709,667.3281,494.346L667.5833,495.01788L672.9115,495.01788ZM673.0573,504.5335Q672.7188,506.1064,672.5781,506.57Q672.3698,507.1898,671.9844,507.5179Q671.599,507.846,671.1354,507.846Q670.625,507.846,670.1823,507.5439Q669.7448,507.2418,669.2812,506.5543Q668.8021,505.7991,668.474,504.8564Q668.1458,503.9137,667.9219,502.51788L664.3854,502.51788L664.3854,505.846L667.4375,504.4241L667.599,505.5127L666.6875,505.9293Q667.5677,507.0491,668,507.622L667.151,508.3095Q666.401,507.2262,665.7135,506.3773L663.2656,507.497L662.7344,506.4866Q663.0104,506.2939,663.1094,506.1429Q663.2135,505.9918,663.2135,505.7835L663.2135,498.00746Q668.3854,497.83038,671.8698,497.30433L672.1146,498.4085Q670.224,498.66371,668.75,498.79392Q668.8021,500.16892,668.9271,501.39808L672.9271,501.39808L672.9271,502.51788L669.0885,502.51788Q669.4062,504.4398,670.1615,505.7054Q670.401,506.1533,670.6615,506.3616Q670.9271,506.57,671.1354,506.57Q671.3281,506.57,671.4375,506.4085Q671.5521,506.247,671.6823,505.7679Q671.7604,505.4658,671.8698,504.9085Q671.9844,504.346,672.0156,504.122L673.0573,504.5335ZM664.3854,501.39808L667.7917,501.39808Q667.6615,500.18454,667.6146,498.90329Q666.3177,499.00225,664.3854,499.11163L664.3854,501.39808Z" fill="#FFFFFF" fill-opacity="1" style="mix-blend-mode:passthrough"/></g></g><g style="mix-blend-mode:passthrough"><path d="M239.92770000000002,571.5564L234.7598,571.5564L234.7598,576.0681Q234.7598,576.7419,234.9766,577.0056Q235.1934,577.2634,235.7324,577.322Q236.3066,577.3572,236.6172,577.3572Q236.9043,577.3572,237.4785,577.322Q238,577.2634,238.1992,577.0173Q238.3984,576.7712,238.4336,576.1208Q238.4863,575.6228,238.4863,574.9548L238.5039,574.5154L239.8984,574.8259Q239.8984,575.2068,239.8047,576.5837Q239.752,577.4392,239.55270000000002,577.8728Q239.3594,578.3064,238.9727,578.4763Q238.5859,578.6521,237.8066,578.7224Q237.1621,578.781,236.5059,578.781Q235.8438,578.781,235.1934,578.7224Q234.4375,578.6521,234.0332,578.4646Q233.6289,578.283,233.4473,577.8318Q233.2656,577.3806,233.2656,576.5193L233.2656,571.5564L230.40625,571.5564Q230.37695,571.8494,230.37695,571.9607Q230.24805,573.7595,229.75,575.0251Q229.25781,576.2908,228.13867,577.3455Q227.02539,578.4001,225.0625,579.3728L224.14258,577.9724Q225.95898,577.1638,226.96094,576.3142Q227.96289,575.4646,228.36719,574.4451Q228.77148,573.4197,228.86523,571.9431Q228.86523,571.8142,228.89453,571.5564L224.125,571.5564L224.125,570.156L231.51953,570.156L231.51953,566.781L227.49414,566.781Q226.95508,568.01733,226.19336,569.23608L224.86328,568.50365Q226.30469,566.47631,227.33008,563.04858L228.77148,563.3767Q228.39062,564.60131,228.08594,565.39233L231.51953,565.39233L231.51953,562.47436L232.97852,562.47436L232.97852,565.39233L238.7559,565.39233L238.7559,566.781L232.97852,566.781L232.97852,570.156L239.92770000000002,570.156L239.92770000000002,571.5564ZM247.293,575.6404Q248.248,574.5622,248.623,573.783Q249.0039,572.9978,249.127,571.8201L246.625,571.8201L246.625,570.41381L249.19729999999998,570.41381Q249.2148,570.09155,249.2148,569.35326L249.2148,566.88647L247.1816,566.88647L247.1816,565.51537L249.2148,565.51537L249.2148,562.656L250.6211,562.656L250.6211,565.51537L253.7852,565.51537L253.7852,562.656L255.1738,562.656L255.1738,565.51537L257.5293,565.51537L257.5293,566.88647L255.1738,566.88647L255.1738,570.41381L257.9453,570.41381L257.9453,571.8201L255.1738,571.8201L255.1738,576.408L253.7852,576.408L253.7852,571.8201L250.5332,571.8201Q250.4043,573.3962,249.9531,574.3747Q249.5078,575.3533,248.459,576.5193L247.293,575.6404ZM245.125,567.26147Q244.7031,566.63451,243.877,565.55639Q243.0566,564.4724,242.5469,563.88061L243.666,562.97826Q244.1875,563.55834,244.99020000000002,564.58373Q245.793,565.60912,246.2266,566.25365L245.125,567.26147ZM250.6211,569.22436Q250.6211,570.05639,250.6035,570.41381L253.7852,570.41381L253.7852,566.88647L250.6211,566.88647L250.6211,569.22436ZM250.2461,577.0583Q251.63479999999998,577.1462,253.5918,577.1462Q255.7422,577.1462,258.21479999999997,577.0056L257.8574,578.3884Q256.0469,578.5173,253.9434,578.5173Q251.8633,578.5173,250.0117,578.3884Q248.6758,578.3005,247.8145,578.0837Q246.9531,577.8669,246.2559,577.3923Q245.5645,576.9119,244.832,576.0505L242.459,578.5701L241.668,577.2224L244.16989999999998,574.6794L244.16989999999998,570.21459L241.9375,570.21459L241.9375,568.79662L245.5,568.79662L245.5,574.6619Q246.1211,575.529,246.7539,576.0271Q247.3867,576.5193,248.2012,576.7537Q249.0215,576.988,250.2461,577.0583ZM263.3652,567.906L275.9395,567.906L275.9395,569.23608L263.3652,569.23608Q263.34770000000003,571.3865,263.1484,572.8806Q262.9492,574.3747,262.4512,575.7224Q261.959,577.0642,261.02729999999997,578.5935L259.75,577.7439Q260.6816,576.2322,261.1562,574.9841Q261.6367,573.7302,261.8184,572.2361Q262,570.73608,262,568.35717L262,563.94506Q265.041,563.87475,268.4805,563.60522Q271.9258,563.33569,274.627,562.93725L274.9844,564.39623Q272.6582,564.70678,269.4062,564.95873Q266.1543,565.21069,263.3652,565.33373L263.3652,567.906ZM266.0312,578.781L264.625,578.781L264.625,571.656L274.375,571.656L274.375,578.781L272.9746,578.781L272.9746,577.656L266.0312,577.656L266.0312,578.781ZM272.9746,576.3435L272.9746,572.9685L266.0312,572.9685L266.0312,576.3435L272.9746,576.3435ZM291.7715,576.6423L291.7715,571.5974L293.2305,571.5974L293.2305,578.781L291.7715,578.781L291.7715,578.031L279.25,578.031L279.25,571.6326L280.7266,571.6326L280.7266,576.6423L285.2734,576.6423L285.2734,570.43725L279.7715,570.43725L279.7715,564.20873L281.2012,564.20873L281.2012,569.031L285.2734,569.031L285.2734,562.56811L286.75,562.56811L286.75,569.031L291.25,569.031L291.25,564.20873L292.6914,564.20873L292.6914,570.43725L286.75,570.43725L286.75,576.6423L291.7715,576.6423ZM299.0137,575.781Q299.5469,575.781,299.8691,576.1853Q300.1914,576.5896,300.1914,577.4333Q300.1914,578.658,299.5469,579.449Q298.90819999999997,580.2458,297.8652,580.4392L297.8652,579.5955Q299.08979999999997,579.2146,299.16020000000003,577.8494Q299.1074,577.8669,299.002,577.8669Q298.5566,577.8669,298.293,577.5622Q298.02930000000003,577.2576,298.02930000000003,576.824Q298.02930000000003,576.3728,298.3047,576.0798Q298.5859,575.781,299.0137,575.781ZM317.3652,567.906L329.93899999999996,567.906L329.93899999999996,569.23608L317.3652,569.23608Q317.34770000000003,571.3865,317.1484,572.8806Q316.9492,574.3747,316.4512,575.7224Q315.959,577.0642,315.02729999999997,578.5935L313.75,577.7439Q314.6816,576.2322,315.1562,574.9841Q315.6367,573.7302,315.8184,572.2361Q316,570.73608,316,568.35717L316,563.94506Q319.041,563.87475,322.4805,563.60522Q325.926,563.33569,328.627,562.93725L328.984,564.39623Q326.658,564.70678,323.406,564.95873Q320.15430000000003,565.21069,317.3652,565.33373L317.3652,567.906ZM320.0312,578.781L318.625,578.781L318.625,571.656L328.375,571.656L328.375,578.781L326.975,578.781L326.975,577.656L320.0312,577.656L320.0312,578.781ZM326.975,576.3435L326.975,572.9685L320.0312,572.9685L320.0312,576.3435L326.975,576.3435ZM337.293,575.6404Q338.248,574.5622,338.623,573.783Q339.004,572.9978,339.127,571.8201L336.625,571.8201L336.625,570.41381L339.197,570.41381Q339.21500000000003,570.09155,339.21500000000003,569.35326L339.21500000000003,566.88647L337.182,566.88647L337.182,565.51537L339.21500000000003,565.51537L339.21500000000003,562.656L340.621,562.656L340.621,565.51537L343.78499999999997,565.51537L343.78499999999997,562.656L345.174,562.656L345.174,565.51537L347.529,565.51537L347.529,566.88647L345.174,566.88647L345.174,570.41381L347.945,570.41381L347.945,571.8201L345.174,571.8201L345.174,576.408L343.78499999999997,576.408L343.78499999999997,571.8201L340.533,571.8201Q340.404,573.3962,339.953,574.3747Q339.508,575.3533,338.459,576.5193L337.293,575.6404ZM335.125,567.26147Q334.703,566.63451,333.877,565.55639Q333.057,564.4724,332.547,563.88061L333.666,562.97826Q334.188,563.55834,334.99,564.58373Q335.793,565.60912,336.227,566.25365L335.125,567.26147ZM340.621,569.22436Q340.621,570.05639,340.604,570.41381L343.78499999999997,570.41381L343.78499999999997,566.88647L340.621,566.88647L340.621,569.22436ZM340.246,577.0583Q341.635,577.1462,343.592,577.1462Q345.742,577.1462,348.21500000000003,577.0056L347.85699999999997,578.3884Q346.047,578.5173,343.943,578.5173Q341.863,578.5173,340.012,578.3884Q338.676,578.3005,337.81399999999996,578.0837Q336.953,577.8669,336.256,577.3923Q335.56399999999996,576.9119,334.832,576.0505L332.459,578.5701L331.668,577.2224L334.17,574.6794L334.17,570.21459L331.938,570.21459L331.938,568.79662L335.5,568.79662L335.5,574.6619Q336.121,575.529,336.754,576.0271Q337.387,576.5193,338.201,576.7537Q339.021,576.988,340.246,577.0583ZM365.928,571.5564L360.76,571.5564L360.76,576.0681Q360.76,576.7419,360.977,577.0056Q361.193,577.2634,361.73199999999997,577.322Q362.307,577.3572,362.61699999999996,577.3572Q362.904,577.3572,363.47900000000004,577.322Q364,577.2634,364.199,577.0173Q364.398,576.7712,364.43399999999997,576.1208Q364.486,575.6228,364.486,574.9548L364.504,574.5154L365.898,574.8259Q365.898,575.2068,365.805,576.5837Q365.752,577.4392,365.553,577.8728Q365.35900000000004,578.3064,364.973,578.4763Q364.586,578.6521,363.807,578.7224Q363.16200000000003,578.781,362.506,578.781Q361.844,578.781,361.193,578.7224Q360.438,578.6521,360.033,578.4646Q359.629,578.283,359.447,577.8318Q359.26599999999996,577.3806,359.26599999999996,576.5193L359.26599999999996,571.5564L356.406,571.5564Q356.377,571.8494,356.377,571.9607Q356.248,573.7595,355.75,575.0251Q355.25800000000004,576.2908,354.139,577.3455Q353.025,578.4001,351.062,579.3728L350.14300000000003,577.9724Q351.959,577.1638,352.961,576.3142Q353.96299999999997,575.4646,354.36699999999996,574.4451Q354.77099999999996,573.4197,354.865,571.9431Q354.865,571.8142,354.895,571.5564L350.125,571.5564L350.125,570.156L357.52,570.156L357.52,566.781L353.494,566.781Q352.95500000000004,568.01733,352.193,569.23608L350.863,568.50365Q352.305,566.47631,353.33000000000004,563.04858L354.77099999999996,563.3767Q354.39099999999996,564.60131,354.086,565.39233L357.52,565.39233L357.52,562.47436L358.97900000000004,562.47436L358.97900000000004,565.39233L364.756,565.39233L364.756,566.781L358.97900000000004,566.781L358.97900000000004,570.156L365.928,570.156L365.928,571.5564ZM381.77099999999996,576.6423L381.77099999999996,571.5974L383.23,571.5974L383.23,578.781L381.77099999999996,578.781L381.77099999999996,578.031L369.25,578.031L369.25,571.6326L370.727,571.6326L370.727,576.6423L375.273,576.6423L375.273,570.43725L369.77099999999996,570.43725L369.77099999999996,564.20873L371.201,564.20873L371.201,569.031L375.273,569.031L375.273,562.56811L376.75,562.56811L376.75,569.031L381.25,569.031L381.25,564.20873L382.69100000000003,564.20873L382.69100000000003,570.43725L376.75,570.43725L376.75,576.6423L381.77099999999996,576.6423ZM396.971,570.99389Q396.971,568.45092,397.81399999999996,566.30053Q398.664,564.15014,400.14099999999996,562.656L401.594,562.656Q400.14099999999996,564.41967,399.355,566.46459Q398.57,568.50951,398.57,570.99389Q398.57,573.4958,399.355,575.5466Q400.14099999999996,577.5974,401.594,579.3259L400.14099999999996,579.3259Q398.664,577.8318,397.81399999999996,575.6931Q396.971,573.5486,396.971,570.99389ZM404.5,564.156L406.11699999999996,564.156L406.11699999999996,576.1853L412.562,576.1853L412.562,577.656L404.5,577.656L404.5,564.156ZM416.24199999999996,577.656L414.625,577.656L414.625,564.156L416.24199999999996,564.156L416.24199999999996,577.656ZM419.125,564.156L427.188,564.156L427.188,565.6267L420.74199999999996,565.6267L420.74199999999996,570.1853L426.438,570.1853L426.438,571.656L420.74199999999996,571.656L420.74199999999996,577.656L419.125,577.656L419.125,564.156ZM428.5,570.90014Q428.5,568.82592,429.279,567.24389Q430.05899999999997,565.66186,431.424,564.81811Q432.79499999999996,563.9685,434.5,563.9685Q436.20500000000004,563.9685,437.57,564.82397Q438.94100000000003,565.67944,439.721,567.25561Q440.5,568.82592,440.5,570.90014Q440.5,572.9919,439.709,574.5681Q438.924,576.1384,437.56399999999996,576.9939Q436.20500000000004,577.8435,434.5,577.8435Q432.79499999999996,577.8435,431.424,576.9997Q430.05899999999997,576.156,429.279,574.574Q428.5,572.9919,428.5,570.90014ZM430.11699999999996,570.906Q430.11699999999996,572.5115,430.645,573.7537Q431.172,574.99,432.168,575.6814Q433.16999999999996,576.3728,434.5,576.3728Q435.836,576.3728,436.82,575.6814Q437.81100000000004,574.99,438.344,573.7537Q438.88300000000004,572.5115,438.88300000000004,570.906Q438.88300000000004,569.28295,438.344,568.04662Q437.81100000000004,566.80444,436.82,566.12475Q435.836,565.4392,434.5,565.4392Q433.16999999999996,565.4392,432.18,566.12475Q431.195,566.80444,430.656,568.04662Q430.11699999999996,569.28295,430.11699999999996,570.906ZM447.279,570.99389Q447.279,573.531,446.43,575.6814Q445.586,577.8318,444.10900000000004,579.3259L442.656,579.3259Q444.10900000000004,577.5622,444.895,575.5232Q445.68,573.4783,445.68,570.99389Q445.68,568.49194,444.895,566.44115Q444.10900000000004,564.38451,442.656,562.656L444.10900000000004,562.656Q445.586,564.15014,446.43,566.29467Q447.279,568.43334,447.279,570.99389Z" fill="#000000" fill-opacity="1" style="mix-blend-mode:passthrough"/></g></g></svg>