<svg xmlns="http://www.w3.org/2000/svg" xmlns:xlink="http://www.w3.org/1999/xlink" fill="none" version="1.1" width="1075" height="213.800048828125" viewBox="0 0 1075 213.800048828125"><g style="mix-blend-mode:passthrough"><g style="mix-blend-mode:passthrough"><g style="mix-blend-mode:passthrough"><g style="mix-blend-mode:passthrough"><rect x="111" y="37.800048828125" width="153" height="98" rx="4" fill-opacity="0" stroke-opacity="1" stroke="#000000" fill="none" stroke-width="2" style="mix-blend-mode:passthrough"/></g><g style="mix-blend-mode:passthrough"><rect x="286" y="37.800048828125" width="153" height="98" rx="4" fill-opacity="0" stroke-opacity="1" stroke="#000000" fill="none" stroke-width="2" style="mix-blend-mode:passthrough"/></g><g style="mix-blend-mode:passthrough"><rect x="461" y="37.800048828125" width="153" height="98" rx="4" fill-opacity="0" stroke-opacity="1" stroke="#000000" fill="none" stroke-width="2" style="mix-blend-mode:passthrough"/></g><g style="mix-blend-mode:passthrough"><rect x="636" y="37.800048828125" width="153" height="98" rx="4" fill-opacity="0" stroke-opacity="1" stroke="#000000" fill="none" stroke-width="2" style="mix-blend-mode:passthrough"/></g><g style="mix-blend-mode:passthrough"><rect x="811" y="37.800048828125" width="153" height="98" rx="4" fill-opacity="0" stroke-opacity="1" stroke="#000000" fill="none" stroke-width="2" style="mix-blend-mode:passthrough"/></g><g style="mix-blend-mode:passthrough"><path d="M191.7168,76.079948828125Q191.7168,76.706848828125,191.6055,77.30454882812501L184.8789,77.30454882812501Q184.9668,78.798648828125,185.7578,79.660048828125Q186.5488,80.521348828125,187.8613,80.521348828125Q188.5996,80.521348828125,189.25,80.163948828125Q189.9004,79.806448828125,190.3633,79.10334882812501L191.5352,79.91194882812499Q190.2578,81.892448828125,187.8613,81.892448828125Q185.7578,81.892448828125,184.5391,80.562348828125Q183.3262,79.226448828125,183.3262,76.906048828125Q183.3262,74.56824882812501,184.4805,73.220548828125Q185.63479999999998,71.867028828125,187.6504,71.867028828125Q189.5371,71.867028828125,190.627,73.003748828125Q191.7168,74.134648828125,191.7168,76.079948828125ZM190.1875,75.951048828125Q190.1875,74.708848828125,189.49020000000002,73.970548828125Q188.7988,73.232248828125,187.6504,73.232248828125Q186.5664,73.232248828125,185.8457,73.952948828125Q185.1309,74.673648828125,184.9316,75.951048828125L190.1875,75.951048828125ZM148.291,106.73614882812501Q147.248,104.990048828125,146.6797,102.833848828125Q146.1113,100.671748828125,146.1113,98.63854882812501Q146.1113,96.587748828125,146.6797,94.437348828125Q147.248,92.281048828125,148.291,90.54084882812501L149.7852,90.54084882812501Q148.7422,92.357248828125,148.1738,94.507648828125Q147.6055,96.658048828125,147.6055,98.63854882812501Q147.6055,100.601448828125,148.1738,102.76354882812501Q148.7422,104.919748828125,149.7852,106.73614882812501L148.291,106.73614882812501ZM155.3281,91.003748828125L166.707,91.003748828125L166.707,96.101448828125L155.3281,96.101448828125L155.3281,91.003748828125ZM165.4297,93.077948828125L165.4297,92.070148828125L156.6055,92.070148828125L156.6055,93.077948828125L165.4297,93.077948828125ZM156.6055,94.02714882812501L156.6055,95.058448828125L165.4297,95.058448828125L165.4297,94.02714882812501L156.6055,94.02714882812501ZM161.8262,104.81434882812499Q161.6855,104.831848828125,160.5312,104.972548828125L160.5312,106.935348828125L159.3242,106.935348828125L159.3242,105.136548828125Q154.23239999999998,105.72834882812501,153.2773,105.892448828125L153.1543,104.73814882812499L154.0859,104.632648828125L154.7012,104.56234882812501L154.7012,98.257648828125L153.1543,98.257648828125L153.1543,97.16194882812499L168.8867,97.16194882812499L168.8867,98.257648828125L160.5312,98.257648828125L160.5312,103.841648828125L161.7559,103.677548828125L161.791,104.292848828125L161.8262,104.81434882812499ZM159.3242,99.61114882812501L159.3242,98.257648828125L155.9258,98.257648828125L155.9258,99.61114882812501L159.3242,99.61114882812501ZM168.418,106.753748828125Q166.2207,105.910048828125,164.7793,104.77324882812499Q163.4492,105.910048828125,161.5039,106.81234882812501L160.9121,105.658048828125Q162.6934,104.972548828125,163.918,103.982248828125Q163.25,103.279148828125,162.7168,102.42954882812501Q162.1895,101.574048828125,161.7031,100.472548828125L161.7031,99.359248828125L167.8203,99.359248828125L167.8203,100.566248828125Q167.0645,102.470548828125,165.6992,103.92954882812501Q166.9238,104.831848828125,168.9395,105.529148828125L168.418,106.753748828125ZM163.0156,100.472548828125Q163.7188,102.095548828125,164.7969,103.17364882812501Q165.8984,101.984248828125,166.45510000000002,100.472548828125L163.0156,100.472548828125ZM159.3242,100.566248828125L155.9258,100.566248828125L155.9258,101.913948828125L159.3242,101.913948828125L159.3242,100.566248828125ZM155.9258,104.41584882812501L159.3242,103.99984882812501L159.3242,102.868948828125L155.9258,102.868948828125L155.9258,104.41584882812501ZM174.3184,95.667848828125L186.7227,95.667848828125L186.7227,96.962748828125L174.3184,96.962748828125Q174.3008,99.247848828125,174.1367,100.80064882812499Q173.9785,102.347548828125,173.5273,103.753748828125Q173.0762,105.154148828125,172.19729999999998,106.70104882812501L170.9727,105.822148828125Q171.8516,104.327948828125,172.2852,103.05064882812499Q172.7188,101.767448828125,172.8535,100.296748828125Q172.9883,98.820148828125,172.9883,96.35334882812501L172.9883,91.941248828125Q175.959,91.870948828125,179.375,91.601448828125Q182.7969,91.331848828125,185.42770000000002,90.91584882812501L185.76760000000002,92.281048828125Q183.5,92.609248828125,180.3008,92.861148828125Q177.10739999999998,93.11314882812499,174.3184,93.236148828125L174.3184,95.667848828125ZM176.9844,106.81234882812501L175.6367,106.81234882812501L175.6367,99.49984882812501L185.1934,99.49984882812501L185.1934,106.81234882812501L183.8398,106.81234882812501L183.8398,105.570148828125L176.9844,105.570148828125L176.9844,106.81234882812501ZM183.8398,104.345548828125L183.8398,100.77714882812501L176.9844,100.77714882812501L176.9844,104.345548828125L183.8398,104.345548828125ZM194.2285,103.62484882812501Q195.2715,102.400248828125,195.6582,101.60334882812501Q196.04489999999998,100.80064882812499,196.1562,99.593548828125L193.6367,99.593548828125L193.6367,98.275248828125L196.209,98.275248828125L196.209,97.21464882812501L196.209,94.747848828125L194.2109,94.747848828125L194.2109,93.435348828125L196.209,93.435348828125L196.209,90.663948828125L197.5039,90.663948828125L197.5039,93.435348828125L200.8906,93.435348828125L200.8906,90.646348828125L202.1855,90.646348828125L202.1855,93.435348828125L204.28910000000002,93.435348828125L204.28910000000002,94.747848828125L202.1855,94.747848828125L202.1855,98.275248828125L204.9219,98.275248828125L204.9219,99.593548828125L202.1855,99.593548828125L202.1855,104.234248828125L200.8906,104.234248828125L200.8906,99.593548828125L197.4336,99.593548828125Q197.32229999999998,101.19324882812501,196.8828,102.177548828125Q196.4434,103.156048828125,195.3242,104.433448828125L194.2285,103.62484882812501ZM192.2832,95.128748828125Q191.8672,94.53694882812499,191.082,93.499848828125Q190.30270000000002,92.462748828125,189.7109,91.72444882812499L190.7188,90.88074882812501Q192.3359,92.878748828125,193.3262,94.191248828125L192.2832,95.128748828125ZM197.5039,97.091648828125Q197.5039,97.917848828125,197.4863,98.275248828125L200.8906,98.275248828125L200.8906,94.747848828125L197.5039,94.747848828125L197.5039,97.091648828125ZM204.957,104.990048828125L204.6113,106.343548828125L196.9648,106.343548828125Q195.66989999999998,106.343548828125,194.8379,106.17954882812501Q194.0117,106.015448828125,193.3262,105.558448828125Q192.6465,105.101448828125,191.9258,104.199048828125L189.7461,106.519348828125L188.95510000000002,105.24204882812501L191.16989999999998,102.886548828125L191.16989999999998,98.06434882812499L189.1719,98.06434882812499L189.1719,96.71074882812499L192.5352,96.71074882812499L192.5352,102.886548828125Q193.1504,103.788948828125,193.7715,104.240048828125Q194.39260000000002,104.685348828125,195.166,104.837748828125Q195.9395,104.990048828125,197.1641,104.990048828125L204.957,104.990048828125ZM215.6855,92.966648828125Q216.0957,96.962748828125,217.8066,99.98614882812501Q219.51760000000002,103.009648828125,222.9395,105.370948828125L221.9668,106.63074882812501Q219.14260000000002,104.544748828125,217.4727,102.18934882812499Q215.8086,99.827948828125,215.01760000000002,96.67564882812499Q213.3594,102.077948828125,207.9805,106.61314882812499L206.95510000000002,105.42364882812501Q213.52339999999998,100.220548828125,214.3672,93.236148828125Q214.22660000000002,92.896348828125,213.85739999999998,92.75574882812501Q213.48829999999998,92.609248828125,212.80270000000002,92.609248828125L210.33589999999998,92.609248828125L210.33589999999998,91.167848828125L213.3418,91.167848828125Q214.4785,91.167848828125,215.02339999999998,91.583848828125Q215.57420000000002,91.993948828125,215.6855,92.966648828125ZM226.2148,106.73614882812501Q227.2578,104.919748828125,227.8262,102.76354882812501Q228.3945,100.601448828125,228.3945,98.63854882812501Q228.3945,96.658048828125,227.8262,94.507648828125Q227.2578,92.357248828125,226.2148,90.54084882812501L227.709,90.54084882812501Q228.752,92.281048828125,229.3203,94.437348828125Q229.8887,96.587748828125,229.8887,98.63854882812501Q229.8887,100.671748828125,229.3203,102.833848828125Q228.752,104.990048828125,227.709,106.73614882812501L226.2148,106.73614882812501Z" fill="#000000" fill-opacity="1" style="mix-blend-mode:passthrough"/></g><g style="mix-blend-mode:passthrough"><path d="M366.48633,93.658048828125L364.99219,93.658048828125L364.99219,92.292848828125L364.88672,92.292848828125Q364.41797,93.066248828125,363.63867,93.48814882812499Q362.86523,93.910048828125,361.93359,93.910048828125Q360.76172,93.910048828125,359.82422,93.247848828125Q358.89258,92.579948828125,358.35938,91.408048828125Q357.826172,90.236148828125,357.826172,88.77714882812501Q357.826172,87.359248828125,358.35938,86.234248828125Q358.89258,85.109248828125,359.82422,84.488128828125Q360.76172,83.867028828125,361.93359,83.867028828125Q362.79492,83.867028828125,363.56836,84.300628828125Q364.3418,84.728358828125,364.88672,85.484248828125L364.99219,85.484248828125L364.99219,79.976408828125L366.48633,79.976408828125L366.48633,93.658048828125ZM365.04492,88.888548828125Q365.04492,87.863148828125,364.68164,87.05454882812501Q364.32422,86.240048828125,363.68555,85.794748828125Q363.04688,85.343548828125,362.23828,85.343548828125Q361.41211,85.343548828125,360.75,85.794748828125Q360.09375,86.240048828125,359.72461,87.05454882812501Q359.35547,87.863148828125,359.35547,88.888548828125Q359.35547,89.913948828125,359.73047,90.72834882812501Q360.11133,91.53694882812499,360.7793,91.98814882812499Q361.44727,92.433448828125,362.29102,92.433448828125Q363.08203,92.433448828125,363.70898,91.98814882812499Q364.3418,91.53694882812499,364.69336,90.72834882812501Q365.04492,89.913948828125,365.04492,88.888548828125Z" fill="#000000" fill-opacity="1" style="mix-blend-mode:passthrough"/></g><g style="mix-blend-mode:passthrough"><path d="M538.32617,93.910048828125Q536.96094,93.910048828125,535.94141,93.288948828125Q534.92773,92.667848828125,534.37695,91.525248828125Q533.826172,90.382648828125,533.826172,88.870948828125Q533.826172,87.376748828125,534.37695,86.245948828125Q534.92773,85.109248828125,535.94141,84.499848828125Q536.96094,83.884608828125,538.32617,83.884608828125Q539.33398,83.884608828125,540.29492,84.423668828125Q541.26172,84.962748828125,541.83594,85.865048828125L540.66992,86.691248828125Q540.23633,86.046748828125,539.59766,85.671748828125Q538.95898,85.29084882812501,538.2207,85.29084882812501Q536.94336,85.29084882812501,536.14648,86.269348828125Q535.35547,87.247848828125,535.35547,88.870948828125Q535.35547,90.50574882812501,536.14062,91.507648828125Q536.92578,92.503748828125,538.20312,92.503748828125Q538.94141,92.503748828125,539.59766,92.128748828125Q540.25391,91.747848828125,540.66992,91.10334882812501L541.83594,91.92954882812501Q541.26172,92.831848828125,540.29492,93.370948828125Q539.33398,93.910048828125,538.32617,93.910048828125Z" fill="#000000" fill-opacity="1" style="mix-blend-mode:passthrough"/></g><g style="mix-blend-mode:passthrough"><path d="M708.29492,93.658048828125L708.29492,79.976408828125L709.78906,79.976408828125L709.78906,85.466648828125L709.88281,85.466648828125Q710.42188,84.728358828125,711.20117,84.306488828125Q711.98633,83.884608828125,712.88867,83.884608828125Q714.03711,83.884608828125,714.96289,84.505708828125Q715.89453,85.126748828125,716.41602,86.22834882812501Q716.9375,87.324048828125,716.9375,88.706848828125Q716.9375,90.201048828125,716.41602,91.384648828125Q715.89453,92.562348828125,714.96289,93.230348828125Q714.03711,93.892448828125,712.88867,93.892448828125Q711.93359,93.892448828125,711.16016,93.482248828125Q710.38672,93.066248828125,709.88281,92.292848828125L709.78906,92.292848828125L709.78906,93.658048828125L708.29492,93.658048828125ZM709.71875,88.888548828125Q709.71875,89.913948828125,710.07031,90.72834882812501Q710.42188,91.53694882812499,711.06055,91.98814882812499Q711.69922,92.433448828125,712.49023,92.433448828125Q713.31641,92.433448828125,713.98438,91.98814882812499Q714.65234,91.53694882812499,715.02734,90.72834882812501Q715.4082,89.913948828125,715.4082,88.888548828125Q715.4082,87.863148828125,715.03906,87.05454882812501Q714.66992,86.240048828125,714.01953,85.794748828125Q713.36914,85.343548828125,712.54297,85.343548828125Q711.73438,85.343548828125,711.08398,85.794748828125Q710.43945,86.240048828125,710.07617,87.05454882812501Q709.71875,87.863148828125,709.71875,88.888548828125Z" fill="#000000" fill-opacity="1" style="mix-blend-mode:passthrough"/></g><g style="mix-blend-mode:passthrough"><path d="M886.8496,81.910048828125Q885.4668,81.910048828125,884.6465000000001,81.183448828125Q883.8262,80.451048828125,883.8262,79.243948828125Q883.8262,76.150248828125,888.543,76.150248828125L889.9141,76.150248828125L889.9141,75.376748828125Q889.9141,74.404148828125,889.3164,73.81824882812501Q888.7246,73.232248828125,887.752,73.232248828125Q886.5449,73.232248828125,885.3379,74.275248828125L884.4590000000001,73.267448828125Q885.9004,71.867028828125,887.8223,71.867028828125Q889.4805,71.867028828125,890.4414,72.769378828125Q891.4082,73.66584882812501,891.4082,75.195148828125L891.4082,81.658048828125L889.9141,81.658048828125L889.9141,80.292848828125L889.8027,80.292848828125Q889.4102,81.007648828125,888.5781,81.458848828125Q887.752,81.910048828125,886.8496,81.910048828125ZM887.1191,80.544748828125Q887.7168,80.544748828125,888.3613,80.275248828125Q889.0117,79.999848828125,889.4629,79.437348828125Q889.9141,78.868948828125,889.9141,78.019348828125L889.9141,77.515448828125L888.8301,77.515448828125Q887.0488,77.515448828125,886.1992,77.925648828125Q885.3555,78.329948828125,885.3555,79.156048828125Q885.3555,79.788948828125,885.8301,80.169748828125Q886.3105,80.544748828125,887.1191,80.544748828125ZM848.291,106.73614882812501Q847.248,104.990048828125,846.6797,102.833848828125Q846.1113,100.671748828125,846.1113,98.63854882812501Q846.1113,96.587748828125,846.6797,94.437348828125Q847.248,92.281048828125,848.291,90.54084882812501L849.7852,90.54084882812501Q848.7422,92.357248828125,848.1738,94.507648828125Q847.6055,96.658048828125,847.6055,98.63854882812501Q847.6055,100.601448828125,848.1738,102.76354882812501Q848.7422,104.919748828125,849.7852,106.73614882812501L848.291,106.73614882812501ZM855.3281,91.003748828125L866.707,91.003748828125L866.707,96.101448828125L855.3281,96.101448828125L855.3281,91.003748828125ZM865.4297,93.077948828125L865.4297,92.070148828125L856.6055,92.070148828125L856.6055,93.077948828125L865.4297,93.077948828125ZM856.6055,94.02714882812501L856.6055,95.058448828125L865.4297,95.058448828125L865.4297,94.02714882812501L856.6055,94.02714882812501ZM861.8262,104.81434882812499Q861.6855,104.831848828125,860.5312,104.972548828125L860.5312,106.935348828125L859.3242,106.935348828125L859.3242,105.136548828125Q854.2324,105.72834882812501,853.2773,105.892448828125L853.1543,104.73814882812499L854.0859,104.632648828125L854.7012,104.56234882812501L854.7012,98.257648828125L853.1543,98.257648828125L853.1543,97.16194882812499L868.8867,97.16194882812499L868.8867,98.257648828125L860.5312,98.257648828125L860.5312,103.841648828125L861.7559,103.677548828125L861.791,104.292848828125L861.8262,104.81434882812499ZM859.3242,99.61114882812501L859.3242,98.257648828125L855.9258,98.257648828125L855.9258,99.61114882812501L859.3242,99.61114882812501ZM868.418,106.753748828125Q866.2207,105.910048828125,864.7793,104.77324882812499Q863.4492,105.910048828125,861.5039,106.81234882812501L860.9121,105.658048828125Q862.6934,104.972548828125,863.918,103.982248828125Q863.25,103.279148828125,862.7168,102.42954882812501Q862.1895,101.574048828125,861.7031,100.472548828125L861.7031,99.359248828125L867.8203,99.359248828125L867.8203,100.566248828125Q867.0645,102.470548828125,865.6992,103.92954882812501Q866.9238,104.831848828125,868.9395,105.529148828125L868.418,106.753748828125ZM863.0156,100.472548828125Q863.7188,102.095548828125,864.7969,103.17364882812501Q865.8984,101.984248828125,866.4551,100.472548828125L863.0156,100.472548828125ZM859.3242,100.566248828125L855.9258,100.566248828125L855.9258,101.913948828125L859.3242,101.913948828125L859.3242,100.566248828125ZM855.9258,104.41584882812501L859.3242,103.99984882812501L859.3242,102.868948828125L855.9258,102.868948828125L855.9258,104.41584882812501ZM886.8281,99.341648828125L881.7012,99.341648828125L881.7012,103.806448828125Q881.7012,104.503748828125,881.9707,104.767448828125Q882.2402,105.025248828125,882.9609,105.025248828125L883.9336,105.025248828125Q884.5254,105.025248828125,884.8301,104.919748828125Q885.1406,104.81434882812499,885.2637,104.56234882812501Q885.3926,104.310348828125,885.4277,103.841648828125Q885.4805,103.08574882812499,885.4805,101.732248828125L886.7578,102.00184882812499Q886.7578,102.400248828125,886.7284999999999,103.06824882812501Q886.7051,103.730348828125,886.6699,104.269348828125Q886.6113,105.136548828125,886.3711,105.570148828125Q886.1309,105.997848828125,885.6034999999999,106.167848828125Q885.082,106.343548828125,884.1094,106.343548828125L882.457,106.343548828125Q881.6074,106.343548828125,881.1562,106.16194882812499Q880.7109,105.980348828125,880.5176,105.52324882812499Q880.3301,105.066248828125,880.3301,104.216648828125L880.3301,99.341648828125L877.3418,99.341648828125L877.3242,99.716648828125Q877.2188,101.644348828125,876.7207,102.88074882812501Q876.2284999999999,104.11114882812501,875.1621,105.03694882812499Q874.1016,105.962748828125,872.1621,106.952948828125L871.2949,105.622848828125Q873.1113,104.81434882812499,874.0547,104.070148828125Q875.0039,103.320148828125,875.4258,102.324048828125Q875.8477,101.322148828125,875.9414,99.699048828125L875.9590000000001,99.341648828125L871.2598,99.341648828125L871.2598,98.00574882812501L878.6016,98.00574882812501L878.6016,94.712748828125L874.6055,94.712748828125Q874.0312,96.04864882812501,873.2402,97.32604882812501L871.9805,96.67564882812499Q873.4746,94.58964882812501,874.5527,90.951048828125L875.8652,91.27324882812499Q875.5605,92.410048828125,875.168,93.400248828125L878.6016,93.400248828125L878.6016,90.37684882812499L880.0254,90.37684882812499L880.0254,93.400248828125L885.8027,93.400248828125L885.8027,94.712748828125L880.0254,94.712748828125L880.0254,98.00574882812501L886.8281,98.00574882812501L886.8281,99.341648828125ZM894.2284999999999,103.62484882812501Q895.2715000000001,102.400248828125,895.6582,101.60334882812501Q896.0449,100.80064882812499,896.1562,99.593548828125L893.6367,99.593548828125L893.6367,98.275248828125L896.2090000000001,98.275248828125L896.2090000000001,97.21464882812501L896.2090000000001,94.747848828125L894.2109,94.747848828125L894.2109,93.435348828125L896.2090000000001,93.435348828125L896.2090000000001,90.663948828125L897.5039,90.663948828125L897.5039,93.435348828125L900.8906,93.435348828125L900.8906,90.646348828125L902.1855,90.646348828125L902.1855,93.435348828125L904.2891,93.435348828125L904.2891,94.747848828125L902.1855,94.747848828125L902.1855,98.275248828125L904.9219,98.275248828125L904.9219,99.593548828125L902.1855,99.593548828125L902.1855,104.234248828125L900.8906,104.234248828125L900.8906,99.593548828125L897.4336,99.593548828125Q897.3223,101.19324882812501,896.8828,102.177548828125Q896.4434,103.156048828125,895.3242,104.433448828125L894.2284999999999,103.62484882812501ZM892.2832,95.128748828125Q891.8672,94.53694882812499,891.082,93.499848828125Q890.3027,92.462748828125,889.7109,91.72444882812499L890.7188,90.88074882812501Q892.3359,92.878748828125,893.3262,94.191248828125L892.2832,95.128748828125ZM897.5039,97.091648828125Q897.5039,97.917848828125,897.4863,98.275248828125L900.8906,98.275248828125L900.8906,94.747848828125L897.5039,94.747848828125L897.5039,97.091648828125ZM904.957,104.990048828125L904.6113,106.343548828125L896.9648,106.343548828125Q895.6699,106.343548828125,894.8379,106.17954882812501Q894.0117,106.015448828125,893.3262,105.558448828125Q892.6465000000001,105.101448828125,891.9258,104.199048828125L889.7461,106.519348828125L888.9551,105.24204882812501L891.1699,102.886548828125L891.1699,98.06434882812499L889.1719,98.06434882812499L889.1719,96.71074882812499L892.5352,96.71074882812499L892.5352,102.886548828125Q893.1504,103.788948828125,893.7715000000001,104.240048828125Q894.3926,104.685348828125,895.1659999999999,104.837748828125Q895.9395,104.990048828125,897.1641,104.990048828125L904.957,104.990048828125ZM915.6855,92.966648828125Q916.0957,96.962748828125,917.8066,99.98614882812501Q919.5176,103.009648828125,922.9395,105.370948828125L921.9668,106.63074882812501Q919.1426,104.544748828125,917.4727,102.18934882812499Q915.8086,99.827948828125,915.0176,96.67564882812499Q913.3594,102.077948828125,907.9805,106.61314882812499L906.9551,105.42364882812501Q913.5234,100.220548828125,914.3672,93.236148828125Q914.2266,92.896348828125,913.8574,92.75574882812501Q913.4883,92.609248828125,912.8027,92.609248828125L910.3359,92.609248828125L910.3359,91.167848828125L913.3418,91.167848828125Q914.4784999999999,91.167848828125,915.0234,91.583848828125Q915.5742,91.993948828125,915.6855,92.966648828125ZM926.2148,106.73614882812501Q927.2578,104.919748828125,927.8262,102.76354882812501Q928.3945,100.601448828125,928.3945,98.63854882812501Q928.3945,96.658048828125,927.8262,94.507648828125Q927.2578,92.357248828125,926.2148,90.54084882812501L927.7090000000001,90.54084882812501Q928.752,92.281048828125,929.3203,94.437348828125Q929.8887,96.587748828125,929.8887,98.63854882812501Q929.8887,100.671748828125,929.3203,102.833848828125Q928.752,104.990048828125,927.7090000000001,106.73614882812501L926.2148,106.73614882812501Z" fill="#000000" fill-opacity="1" style="mix-blend-mode:passthrough"/></g></g><g style="mix-blend-mode:passthrough"><path d="M92,4.800048828125L973,4.800048828125L973,6.800048828125L92,6.800048828125L92,4.800048828125ZM982,5.800048828125L971.954,11.600048828125L971.954,0.000048828125000177636L982,5.800048828125Z" fill="#000000" fill-opacity="1" style="mix-blend-mode:passthrough"/></g><g style="mix-blend-mode:passthrough"><path d="M92,165.800048828125L973,165.800048828125L973,167.800048828125L92,167.800048828125L92,165.800048828125ZM982,166.800048828125L971.954,172.600048828125L971.954,161.000048828125L982,166.800048828125Z" fill="#000000" fill-opacity="1" style="mix-blend-mode:passthrough"/></g></g><g style="mix-blend-mode:passthrough"><path d="M0,86.300048828125L20,86.300048828125L20,88.300048828125L0,88.300048828125L0,86.300048828125ZM50,86.300048828125L61,86.300048828125L61,88.300048828125L50,88.300048828125L50,86.300048828125ZM70,87.300048828125L59.9541,93.100048828125L59.9541,81.500048828125L70,87.300048828125Z" fill="#000000" fill-opacity="1" style="mix-blend-mode:passthrough"/></g><g style="mix-blend-mode:passthrough"><path d="M30.89583,81.922088828125Q30.89583,82.338758828125,30.64062,82.578338828125Q30.38542,82.817928828125,29.96875,82.817928828125Q29.55208,82.817928828125,29.317709999999998,82.578338828125Q29.088540000000002,82.338758828125,29.088540000000002,81.922088828125Q29.088540000000002,81.505428828125,29.32812,81.260628828125Q29.567709999999998,81.010628828125,29.96875,81.010628828125Q30.38542,81.010628828125,30.64062,81.260628828125Q30.89583,81.505428828125,30.89583,81.922088828125ZM30.65625,84.916878828125L30.65625,93.396048828125L29.32812,93.396048828125L29.32812,84.916878828125L30.65625,84.916878828125ZM33.15104,93.396048828125L33.15104,84.916878828125L34.479169999999996,84.916878828125L34.479169999999996,86.114798828125L34.5625,86.114798828125Q34.94271,85.474178828125,35.6875,85.083548828125Q36.43229,84.692928828125,37.18229,84.692928828125Q38.5938,84.692928828125,39.3906,85.567928828125Q40.1927,86.437718828125,40.1927,88.021048828125L40.1927,93.396048828125L38.864599999999996,93.396048828125L38.864599999999996,88.213748828125Q38.864599999999996,87.187748828125,38.286500000000004,86.547088828125Q37.71354,85.906468828125,36.84896,85.906468828125Q35.791669999999996,85.906468828125,35.135419999999996,86.588758828125Q34.479169999999996,87.265848828125,34.479169999999996,88.370048828125L34.479169999999996,93.396048828125L33.15104,93.396048828125Z" fill="#333333" fill-opacity="1"/></g><g style="mix-blend-mode:passthrough"><path d="M1005,86.300048828125L1019.5,86.300048828125L1019.5,88.300048828125L1005,88.300048828125L1005,86.300048828125ZM1060.5,86.300048828125L1066,86.300048828125L1066,88.300048828125L1060.5,88.300048828125L1060.5,86.300048828125ZM1075,87.300048828125L1064.9541,93.100048828125L1064.9541,81.500048828125L1075,87.300048828125Z" fill="#000000" fill-opacity="1" style="mix-blend-mode:passthrough"/></g><g style="mix-blend-mode:passthrough"><path d="M1032.10938,93.620048828125Q1030.9375,93.620048828125,1030.05729,93.078348828125Q1029.18229,92.53144882812501,1028.70833,91.526248828125Q1028.234375,90.515848828125,1028.234375,89.15644882812501Q1028.234375,87.797048828125,1028.70833,86.791878828125Q1029.18229,85.781468828125,1030.05729,85.239798828125Q1030.9375,84.692928828125,1032.10938,84.692928828125Q1033.27604,84.692928828125,1034.14583,85.239798828125Q1035.02083,85.781468828125,1035.5,86.791878828125Q1035.97917,87.797048828125,1035.97917,89.15644882812501Q1035.97917,90.515848828125,1035.5,91.526248828125Q1035.02083,92.53144882812501,1034.14583,93.078348828125Q1033.27604,93.620048828125,1032.10938,93.620048828125ZM1032.10938,92.370048828125Q1033.26042,92.370048828125,1033.9375,91.510648828125Q1034.61979,90.646048828125,1034.61979,89.15644882812501Q1034.61979,87.666848828125,1033.9375,86.802348828125Q1033.26042,85.937718828125,1032.10938,85.937718828125Q1030.95833,85.937718828125,1030.27604,86.802348828125Q1029.59375,87.666848828125,1029.59375,89.15644882812501Q1029.59375,90.646048828125,1030.27604,91.510648828125Q1030.95833,92.370048828125,1032.10938,92.370048828125ZM1044.9479,84.916878828125L1044.9479,93.396048828125L1043.6198,93.396048828125L1043.6198,92.213748828125L1043.5208,92.213748828125Q1043.1354,92.854348828125,1042.401,93.239848828125Q1041.6667,93.620048828125,1040.8958,93.620048828125Q1039.4896,93.620048828125,1038.6979,92.750248828125Q1037.9063,91.875248828125,1037.9063,90.307548828125L1037.9063,84.916878828125L1039.2344,84.916878828125L1039.2344,90.099148828125Q1039.2344,91.140848828125,1039.8021,91.776248828125Q1040.3698,92.40644882812501,1041.25,92.40644882812501Q1042.3073,92.40644882812501,1042.9635,91.724148828125Q1043.6198,91.041848828125,1043.6198,89.937748828125L1043.6198,84.916878828125L1044.9479,84.916878828125ZM1051.5885,86.161678828125L1049.1406,86.161678828125L1049.1406,91.026248828125Q1049.1406,91.734548828125,1049.5104,92.120048828125Q1049.8802,92.500248828125,1050.5365,92.500248828125Q1050.9167,92.500248828125,1051.401,92.338748828125L1051.401,93.557548828125Q1050.9688,93.734548828125,1050.2604,93.734548828125Q1049.0781,93.734548828125,1048.4427,93.062748828125Q1047.8125,92.385648828125,1047.8125,91.125248828125L1047.8125,86.161678828125L1046.4844,86.161678828125L1046.4844,84.916878828125L1047.8125,84.916878828125L1047.8125,82.229378828125L1049.1406,82.229378828125L1049.1406,84.916878828125L1051.5885,84.916878828125L1051.5885,86.161678828125Z" fill="#333333" fill-opacity="1"/></g><g style="mix-blend-mode:passthrough"><path d="M480.9277,203.356448828125L475.7598,203.356448828125L475.7598,207.868148828125Q475.7598,208.541948828125,475.9766,208.80564882812502Q476.1934,209.063448828125,476.7324,209.122048828125Q477.3066,209.157248828125,477.6172,209.157248828125Q477.9043,209.157248828125,478.4785,209.122048828125Q479,209.063448828125,479.1992,208.817348828125Q479.3984,208.571248828125,479.4336,207.920848828125Q479.4863,207.422848828125,479.4863,206.754848828125L479.5039,206.315448828125L480.8984,206.625948828125Q480.8984,207.006848828125,480.8047,208.383748828125Q480.752,209.239248828125,480.5527,209.672848828125Q480.3594,210.106448828125,479.9727,210.276348828125Q479.5859,210.452148828125,478.8066,210.522448828125Q478.1621,210.581048828125,477.5059,210.581048828125Q476.8438,210.581048828125,476.1934,210.522448828125Q475.4375,210.452148828125,475.0332,210.264648828125Q474.6289,210.08304882812502,474.4473,209.631848828125Q474.2656,209.18064882812502,474.2656,208.319348828125L474.2656,203.356448828125L471.40625,203.356448828125Q471.37695,203.649448828125,471.37695,203.760748828125Q471.24805,205.559548828125,470.75,206.825148828125Q470.25781,208.090848828125,469.13867,209.14554882812502Q468.02539,210.200148828125,466.0625,211.172848828125L465.14258,209.772448828125Q466.95898,208.963848828125,467.96094,208.114248828125Q468.96289,207.264648828125,469.36719,206.245148828125Q469.77148,205.219748828125,469.86523,203.743148828125Q469.86523,203.614248828125,469.89453,203.356448828125L465.125,203.356448828125L465.125,201.956048828125L472.51953,201.956048828125L472.51953,198.581048828125L468.49414,198.581048828125Q467.95508,199.817378828125,467.19336,201.036128828125L465.86328,200.303698828125Q467.30469,198.276358828125,468.33008,194.848628828125L469.77148,195.176748828125Q469.39062,196.401358828125,469.08594,197.192378828125L472.51953,197.192378828125L472.51953,194.274408828125L473.97852,194.274408828125L473.97852,197.192378828125L479.7559,197.192378828125L479.7559,198.581048828125L473.97852,198.581048828125L473.97852,201.956048828125L480.9277,201.956048828125L480.9277,203.356448828125ZM488.293,207.440448828125Q489.248,206.362248828125,489.623,205.583048828125Q490.0039,204.797848828125,490.127,203.620148828125L487.625,203.620148828125L487.625,202.213858828125L490.1973,202.213858828125Q490.2148,201.891598828125,490.2148,201.153308828125L490.2148,198.686518828125L488.1816,198.686518828125L488.1816,197.315418828125L490.2148,197.315418828125L490.2148,194.456048828125L491.6211,194.456048828125L491.6211,197.315418828125L494.7852,197.315418828125L494.7852,194.456048828125L496.1738,194.456048828125L496.1738,197.315418828125L498.5293,197.315418828125L498.5293,198.686518828125L496.1738,198.686518828125L496.1738,202.213858828125L498.9453,202.213858828125L498.9453,203.620148828125L496.1738,203.620148828125L496.1738,208.208048828125L494.7852,208.208048828125L494.7852,203.620148828125L491.5332,203.620148828125Q491.4043,205.196248828125,490.9531,206.174748828125Q490.5078,207.153348828125,489.459,208.319348828125L488.293,207.440448828125ZM486.125,199.061518828125Q485.7031,198.434558828125,484.877,197.356438828125Q484.0566,196.272448828125,483.5469,195.680658828125L484.666,194.778308828125Q485.1875,195.358388828125,485.9902,196.383778828125Q486.793,197.409168828125,487.2266,198.053698828125L486.125,199.061518828125ZM491.6211,201.024408828125Q491.6211,201.856438828125,491.6035,202.213858828125L494.7852,202.213858828125L494.7852,198.686518828125L491.6211,198.686518828125L491.6211,201.024408828125ZM491.2461,208.858348828125Q492.6348,208.946248828125,494.5918,208.946248828125Q496.7422,208.946248828125,499.21479999999997,208.80564882812502L498.8574,210.188448828125Q497.0469,210.317348828125,494.9434,210.317348828125Q492.8633,210.317348828125,491.0117,210.188448828125Q489.6758,210.100548828125,488.8145,209.883748828125Q487.9531,209.666948828125,487.2559,209.192348828125Q486.5645,208.711948828125,485.832,207.850548828125L483.459,210.370148828125L482.668,209.022448828125L485.1699,206.479448828125L485.1699,202.014638828125L482.9375,202.014638828125L482.9375,200.596668828125L486.5,200.596668828125L486.5,206.461948828125Q487.1211,207.329048828125,487.7539,207.827148828125Q488.3867,208.319348828125,489.2012,208.553748828125Q490.0215,208.788048828125,491.2461,208.858348828125ZM516.9277,203.356448828125L511.7598,203.356448828125L511.7598,207.868148828125Q511.7598,208.541948828125,511.9766,208.80564882812502Q512.1934,209.063448828125,512.7324,209.122048828125Q513.3066,209.157248828125,513.6172,209.157248828125Q513.9043,209.157248828125,514.4784999999999,209.122048828125Q515,209.063448828125,515.1992,208.817348828125Q515.3984,208.571248828125,515.4336,207.920848828125Q515.4863,207.422848828125,515.4863,206.754848828125L515.5039,206.315448828125L516.8984,206.625948828125Q516.8984,207.006848828125,516.8047,208.383748828125Q516.752,209.239248828125,516.5527,209.672848828125Q516.3594,210.106448828125,515.9727,210.276348828125Q515.5859,210.452148828125,514.8066,210.522448828125Q514.1621,210.581048828125,513.5059,210.581048828125Q512.8438,210.581048828125,512.1934,210.522448828125Q511.4375,210.452148828125,511.0332,210.264648828125Q510.6289,210.08304882812502,510.4473,209.631848828125Q510.2656,209.18064882812502,510.2656,208.319348828125L510.2656,203.356448828125L507.4062,203.356448828125Q507.377,203.649448828125,507.377,203.760748828125Q507.248,205.559548828125,506.75,206.825148828125Q506.2578,208.090848828125,505.1387,209.14554882812502Q504.0254,210.200148828125,502.0625,211.172848828125L501.1426,209.772448828125Q502.959,208.963848828125,503.9609,208.114248828125Q504.9629,207.264648828125,505.3672,206.245148828125Q505.7715,205.219748828125,505.8652,203.743148828125Q505.8652,203.614248828125,505.8945,203.356448828125L501.125,203.356448828125L501.125,201.956048828125L508.5195,201.956048828125L508.5195,198.581048828125L504.4941,198.581048828125Q503.9551,199.817378828125,503.1934,201.036128828125L501.8633,200.303698828125Q503.3047,198.276358828125,504.3301,194.848628828125L505.7715,195.176748828125Q505.3906,196.401358828125,505.0859,197.192378828125L508.5195,197.192378828125L508.5195,194.274408828125L509.9785,194.274408828125L509.9785,197.192378828125L515.7559,197.192378828125L515.7559,198.581048828125L509.9785,198.581048828125L509.9785,201.956048828125L516.9277,201.956048828125L516.9277,203.356448828125ZM532.7715000000001,208.442348828125L532.7715000000001,203.397448828125L534.2305,203.397448828125L534.2305,210.581048828125L532.7715000000001,210.581048828125L532.7715000000001,209.831048828125L520.25,209.831048828125L520.25,203.432648828125L521.7266,203.432648828125L521.7266,208.442348828125L526.2734,208.442348828125L526.2734,202.237298828125L520.7715000000001,202.237298828125L520.7715000000001,196.008778828125L522.2012,196.008778828125L522.2012,200.831048828125L526.2734,200.831048828125L526.2734,194.368158828125L527.75,194.368158828125L527.75,200.831048828125L532.25,200.831048828125L532.25,196.008778828125L533.6914,196.008778828125L533.6914,202.237298828125L527.75,202.237298828125L527.75,208.442348828125L532.7715000000001,208.442348828125ZM547.9707,202.793938828125Q547.9707,200.250968828125,548.8145,198.100578828125Q549.6641,195.950188828125,551.1406,194.456048828125L552.5938,194.456048828125Q551.1406,196.219718828125,550.3555,198.264638828125Q549.5703,200.309558828125,549.5703,202.793938828125Q549.5703,205.295848828125,550.3555,207.346648828125Q551.1406,209.397448828125,552.5938,211.125948828125L551.1406,211.125948828125Q549.6641,209.631848828125,548.8145,207.493148828125Q547.9707,205.348648828125,547.9707,202.793938828125ZM555.5,195.956048828125L563.5625,195.956048828125L563.5625,197.426748828125L557.1172,197.426748828125L557.1172,201.985348828125L562.8125,201.985348828125L562.8125,203.456048828125L557.1172,203.456048828125L557.1172,209.456048828125L555.5,209.456048828125L555.5,195.956048828125ZM567.242,209.456048828125L565.625,209.456048828125L565.625,195.956048828125L567.242,195.956048828125L567.242,209.456048828125ZM570.125,195.956048828125L578.188,195.956048828125L578.188,197.426748828125L571.742,197.426748828125L571.742,201.985348828125L577.438,201.985348828125L577.438,203.456048828125L571.742,203.456048828125L571.742,209.456048828125L570.125,209.456048828125L570.125,195.956048828125ZM579.5,202.700188828125Q579.5,200.625968828125,580.279,199.043938828125Q581.059,197.461908828125,582.424,196.618158828125Q583.795,195.768548828125,585.5,195.768548828125Q587.205,195.768548828125,588.5699999999999,196.624018828125Q589.941,197.479488828125,590.721,199.055658828125Q591.5,200.625968828125,591.5,202.700188828125Q591.5,204.791948828125,590.7090000000001,206.368148828125Q589.924,207.938448828125,588.564,208.793948828125Q587.205,209.643548828125,585.5,209.643548828125Q583.795,209.643548828125,582.424,208.799748828125Q581.059,207.956048828125,580.279,206.374048828125Q579.5,204.791948828125,579.5,202.700188828125ZM581.117,202.706048828125Q581.117,204.311548828125,581.645,205.553748828125Q582.172,206.790048828125,583.168,207.481448828125Q584.17,208.172848828125,585.5,208.172848828125Q586.836,208.172848828125,587.8199999999999,207.481448828125Q588.811,206.790048828125,589.344,205.553748828125Q589.883,204.311548828125,589.883,202.706048828125Q589.883,201.082998828125,589.344,199.846668828125Q588.811,198.604488828125,587.8199999999999,197.924798828125Q586.836,197.239248828125,585.5,197.239248828125Q584.17,197.239248828125,583.1800000000001,197.924798828125Q582.1949999999999,198.604488828125,581.656,199.846668828125Q581.117,201.082998828125,581.117,202.706048828125ZM598.279,202.793938828125Q598.279,205.331048828125,597.4300000000001,207.481448828125Q596.586,209.631848828125,595.109,211.125948828125L593.656,211.125948828125Q595.109,209.362248828125,595.895,207.323248828125Q596.6800000000001,205.278348828125,596.6800000000001,202.793938828125Q596.6800000000001,200.291988828125,595.895,198.241198828125Q595.109,196.184558828125,593.656,194.456048828125L595.109,194.456048828125Q596.586,195.950188828125,597.4300000000001,198.094718828125Q598.279,200.233388828125,598.279,202.793938828125Z" fill="#000000" fill-opacity="1" style="mix-blend-mode:passthrough"/></g></g></svg>