<svg xmlns="http://www.w3.org/2000/svg" xmlns:xlink="http://www.w3.org/1999/xlink" fill="none" version="1.1" width="705" height="331" viewBox="0 0 705 331"><g style="mix-blend-mode:passthrough"><g style="mix-blend-mode:passthrough"><g style="mix-blend-mode:passthrough"><g style="mix-blend-mode:passthrough"><rect x="230" y="0" width="130" height="45" rx="5" fill="#696CFD" fill-opacity="1"/></g><g style="mix-blend-mode:passthrough"><path d="M270.53125,27.5419Q269.96159,27.933799999999998,269.09115,27.933799999999998Q266.95833,27.933799999999998,266.95833,25.4683L266.95833,21.64021L265.791667,21.64021L265.791667,20.49633L266.95833,20.49633L266.95833,18.30883L268.21615,18.30883L268.21615,20.49633L270.16667,20.49633L270.16667,21.64021L268.21615,21.64021L268.21615,25.2997Q268.21615,26.79,269.27344,26.79Q269.73828,26.79,270.13932,26.5439L270.53125,27.5419ZM274.75586,20.3505Q275.6855,20.3505,276.3874,20.78344Q277.0892,21.21183,277.4629,21.95011Q277.8411,22.68839,277.8411,23.59529Q277.8411,23.97355,277.7865,24.288L272.59115,24.288Q272.59115,25.5504,273.2474,26.1702Q273.90365,26.79,274.90625,26.79Q276.1458,26.79,276.7018,25.7965L277.5723,26.3206Q277.2897,27.0907,276.5286,27.5146Q275.7721,27.933799999999998,274.84245,27.933799999999998Q273.86719,27.933799999999998,273.0651,27.4872Q272.26758,27.040599999999998,271.79818,26.179299999999998Q271.33333,25.3179,271.33333,24.11482Q271.33333,22.95271,271.79818,22.1005Q272.26758,21.24373,273.04232,20.79711Q273.82161,20.3505,274.75586,20.3505ZM274.73763,21.49438Q273.9401,21.49438,273.35221,21.918210000000002Q272.76432,22.33748,272.60482,23.14412L276.5833,23.14412Q276.5833,22.36027,276.0729,21.92732Q275.5625,21.49438,274.73763,21.49438ZM284.2578,25.728099999999998Q284.2578,26.3798,283.9115,26.8811Q283.5697,27.3824,282.9499,27.6604Q282.3346,27.933799999999998,281.5326,27.933799999999998Q280.4616,27.933799999999998,279.6868,27.446199999999997Q278.9167,26.954,278.6797,26.1064L279.5957,25.6005Q280.1152,26.79,281.5326,26.79Q282.2161,26.79,282.6081,26.5165Q283,26.238500000000002,283,25.7509Q283,25.377200000000002,282.7676,25.1448Q282.5397,24.90779,282.1934,24.77563Q281.847,24.64347,281.2318,24.46573Q280.4889,24.2561,280.0241,24.06469Q279.5638,23.86873,279.2402,23.48592Q278.9167,23.103099999999998,278.9167,22.47876Q278.9167,21.83162,279.2767,21.34855Q279.6367,20.86092,280.2428,20.605710000000002Q280.8535,20.3505,281.5872,20.3505Q282.5443,20.3505,283.2324,20.78344Q283.9206,21.21183,284.1576,21.959220000000002L283.2415,22.46508Q283.0137,22.000239999999998,282.5716,21.74959Q282.1341,21.49438,281.5326,21.49438Q280.9173,21.49438,280.5436,21.740470000000002Q280.1745,21.98201,280.1745,22.437739999999998Q280.1745,22.77498,280.3887,22.98461Q280.6074,23.18969,280.931,23.3173Q281.2546,23.44034,281.8424,23.60896Q282.6126,23.81404,283.0911,24.01912Q283.5697,24.21964,283.9115,24.634349999999998Q284.2578,25.0491,284.2578,25.728099999999998ZM289.7812,27.5419Q289.2116,27.933799999999998,288.3411,27.933799999999998Q286.2083,27.933799999999998,286.2083,25.4683L286.2083,21.64021L285.0417,21.64021L285.0417,20.49633L286.2083,20.49633L286.2083,18.30883L287.4661,18.30883L287.4661,20.49633L289.4167,20.49633L289.4167,21.64021L287.4661,21.64021L287.4661,25.2997Q287.4661,26.79,288.5234,26.79Q288.9883,26.79,289.3893,26.5439L289.7812,27.5419ZM292.4245,21.68579L297.875,21.68579L297.875,17.288L299.1328,17.288L299.1328,27.788L297.875,27.788L297.875,22.82967L292.4245,22.82967L292.4245,27.788L291.1667,27.788L291.1667,17.288L292.4245,17.288L292.4245,21.68579ZM304.5059,20.3505Q305.4355,20.3505,306.1374,20.78344Q306.8392,21.21183,307.2129,21.95011Q307.5911,22.68839,307.5911,23.59529Q307.5911,23.97355,307.5365,24.288L302.3411,24.288Q302.3411,25.5504,302.99739999999997,26.1702Q303.6536,26.79,304.6562,26.79Q305.8958,26.79,306.4518,25.7965L307.3223,26.3206Q307.0397,27.0907,306.2786,27.5146Q305.5221,27.933799999999998,304.5924,27.933799999999998Q303.6172,27.933799999999998,302.81510000000003,27.4872Q302.0176,27.040599999999998,301.5482,26.179299999999998Q301.0833,25.3179,301.0833,24.11482Q301.0833,22.95271,301.5482,22.1005Q302.0176,21.24373,302.7923,20.79711Q303.5716,20.3505,304.5059,20.3505ZM304.4876,21.49438Q303.69010000000003,21.49438,303.1022,21.918210000000002Q302.5143,22.33748,302.3548,23.14412L306.3333,23.14412Q306.3333,22.36027,305.8229,21.92732Q305.3125,21.49438,304.4876,21.49438ZM311.8066,20.3505Q313.0326,20.3505,313.8118,21.10245Q314.5911,21.84985,314.5911,23.23527L314.5911,27.788L313.4473,27.788Q313.4473,26.9722,313.4473,26.735300000000002Q313.1146,27.3277,312.554,27.6331Q311.9935,27.933799999999998,311.2734,27.933799999999998Q310.5853,27.933799999999998,309.9837,27.665Q309.3822,27.3961,309.0221,26.8629Q308.6667,26.3251,308.6667,25.5777Q308.6667,24.44751,309.5234,23.79581Q310.3848,23.14412,311.7428,23.14412Q312.513,23.14412,313.3333,23.39021L313.3333,23.27628Q313.3333,22.37394,312.9323,21.93644Q312.5312,21.49438,311.7201,21.49438Q311.0638,21.49438,310.6309,21.73136Q310.1979,21.96834,309.8971,22.437739999999998L308.9766,21.99568Q309.3138,21.24373,310.0703,20.79711Q310.83140000000003,20.3505,311.8066,20.3505ZM313.3333,24.50675Q312.48109999999997,24.288,311.7747,24.288Q310.8861,24.288,310.403,24.6298Q309.9245,24.96704,309.9245,25.5823Q309.9245,26.147399999999998,310.3301,26.4709Q310.7402,26.79,311.3919,26.79Q312.194,26.79,312.7637,26.3206Q313.3333,25.8512,313.3333,25.0217L313.3333,24.50675ZM320.4609,20.3505Q321.2812,20.3505,322.0104,20.80623Q322.7441,21.2574,323.1862,22.11873Q323.6328,22.98006,323.6328,24.14217Q323.6328,25.3179,323.1862,26.179299999999998Q322.7441,27.040599999999998,322.0104,27.4872Q321.2812,27.933799999999998,320.45640000000003,27.933799999999998Q319.7591,27.933799999999998,319.1256,27.6012Q318.4967,27.2639,318.0911,26.6077L318.0911,30.996299999999998L316.8333,30.996299999999998L316.8333,20.49633L317.9635,20.49633Q317.9635,21.22094,318.0365,21.77238Q318.4284,21.06144,319.0755,20.70597Q319.72270000000003,20.3505,320.4609,20.3505ZM320.2923,26.79Q321.2357,26.79,321.8053,26.0972Q322.375,25.4,322.375,24.14217Q322.375,22.88435,321.8053,22.19165Q321.2357,21.49438,320.2923,21.49438Q319.7272,21.49438,319.2259,21.7587Q318.7292,22.02303,318.41020000000003,22.62003Q318.0911,23.21248,318.0911,24.14217Q318.0911,25.0719,318.41020000000003,25.6689Q318.7292,26.265900000000002,319.2259,26.5302Q319.7272,26.79,320.2923,26.79Z" fill="#FFFFFF" fill-opacity="1" style="mix-blend-mode:passthrough"/></g></g><g style="mix-blend-mode:passthrough"><g style="mix-blend-mode:passthrough"><rect x="0" y="120" width="130" height="45" rx="5" fill="#696CFD" fill-opacity="1"/></g><g style="mix-blend-mode:passthrough"><path d="M64.72331,140.3505Q65.94922,140.3505,66.72852,141.10245Q67.50781,141.84985,67.50781,143.23527L67.50781,147.788L66.36393,147.788Q66.36393,146.9722,66.36393,146.7353Q66.03125,147.3277,65.4707,147.6331Q64.91016,147.9338,64.1901,147.9338Q63.50195,147.9338,62.90039,147.665Q62.29883,147.3961,61.938802,146.8629Q61.583333,146.3251,61.583333,145.5777Q61.583333,144.44751,62.4401,143.79581Q63.301429999999996,143.14412,64.65951,143.14412Q65.42969,143.14412,66.25,143.39021L66.25,143.27627999999999Q66.25,142.37394,65.84896,141.93644Q65.44792,141.49438,64.63672,141.49438Q63.98047,141.49438,63.54753,141.73136Q63.114580000000004,141.96834,62.8138,142.43774L61.893229,141.99568Q62.23047,141.24373,62.98698,140.79711Q63.74805,140.3505,64.72331,140.3505ZM66.25,144.50675Q65.39779,144.288,64.69141,144.288Q63.80273,144.288,63.31966,144.6298Q62.84115,144.96704,62.84115,145.5823Q62.84115,146.1474,63.24674,146.4709Q63.6569,146.79,64.30859,146.79Q65.11068,146.79,65.68034,146.3206Q66.25,145.8512,66.25,145.0217L66.25,144.50675Z" fill="#FFFFFF" fill-opacity="1" style="mix-blend-mode:passthrough"/></g></g><g style="mix-blend-mode:passthrough"><g style="mix-blend-mode:passthrough"><rect x="230" y="120" width="130" height="45" rx="5" fill="#696CFD" fill-opacity="1"/></g><g style="mix-blend-mode:passthrough"><path d="M295.28971,140.3505Q296.11458,140.3505,296.84375,140.80623Q297.57747,141.2574,298.01953,142.11873Q298.46615,142.98006,298.46615,144.14217Q298.46615,145.3179,298.01953,146.1793Q297.57747,147.0406,296.84375,147.4872Q296.11458,147.9338,295.29427,147.9338Q294.56966,147.9338,293.91341,147.5784Q293.26172,147.2229,292.86979,146.512Q292.79688,147.1272,292.79688,147.788L291.66667,147.788L291.66667,136.99633L292.92448,136.99633L292.92448,141.663Q293.33008,141.01131,293.95443,140.68318Q294.57878,140.3505,295.28971,140.3505ZM295.12565,146.79Q296.06901,146.79,296.63867,146.0927Q297.20833,145.3954,297.20833,144.13305Q297.20833,142.88435,296.63867,142.19165Q296.06901,141.49438,295.12565,141.49438Q294.22331,141.49438,293.57161,142.1324Q292.92448,142.77042,292.92448,144.13305Q292.92448,145.0627,293.24349,145.6643Q293.5625,146.2613,294.05924,146.5256Q294.56055,146.79,295.12565,146.79Z" fill="#FFFFFF" fill-opacity="1" style="mix-blend-mode:passthrough"/></g></g><g style="mix-blend-mode:passthrough"><g style="mix-blend-mode:passthrough"><rect x="460" y="120" width="130" height="45" rx="5" fill="#696CFD" fill-opacity="1"/></g><g style="mix-blend-mode:passthrough"><path d="M525.55143,146.79Q526.61784,146.79,527.2194,145.8466L528.1582,146.3889Q527.76628,147.1682,527.10091,147.551Q526.43555,147.9338,525.57878,147.9338Q524.60352,147.9338,523.80599,147.4599Q523.00846,146.9814,522.54362,146.1246Q522.083333,145.2633,522.083333,144.14217Q522.083333,143.02107,522.54362,142.1643Q523.00846,141.30297,523.80599,140.82902Q524.60352,140.3505,525.57878,140.3505Q526.43555,140.3505,527.10091,140.73331Q527.76628,141.11613,528.1582,141.89542L527.2194,142.43774Q526.61784,141.49438,525.55143,141.49438Q524.57161,141.49438,523.95638,142.20076Q523.34115,142.90714,523.34115,144.14217Q523.34115,145.3772,523.95638,146.0836Q524.57161,146.79,525.55143,146.79Z" fill="#FFFFFF" fill-opacity="1" style="mix-blend-mode:passthrough"/></g></g><g style="mix-blend-mode:passthrough"><g style="mix-blend-mode:passthrough"><g style="mix-blend-mode:passthrough"><rect x="345" y="240" width="130" height="45" rx="5" fill="#696CFD" fill-opacity="1"/></g><g style="mix-blend-mode:passthrough"><path d="M412.75,260.3505Q413.78906,260.3505,414.4362,261.10245Q415.0833,261.84985,415.0833,263.2535L415.0833,267.788L413.82552,267.788L413.82552,263.64542Q413.82552,262.59725,413.47005,262.04581Q413.11914,261.49438,412.41732,261.49438Q411.70638,261.49438,411.20508,262.05493Q410.70833,262.61092,410.70833,263.65909L410.70833,267.788L409.45052,267.788L409.45052,263.64542Q409.45052,262.61092,409.10417,262.05493Q408.75781,261.49438,408.09245,261.49438Q407.39518,261.49438,406.90755,262.05948Q406.42448,262.62459,406.42448,263.65909L406.42448,267.788L405.16667,267.788L405.16667,260.49633L406.2832,260.49633Q406.2832,260.98852,406.35612,261.63566Q406.71159,260.99764,407.25391,260.67407000000003Q407.79622,260.3505,408.4388,260.3505Q409.1543,260.3505,409.69661,260.73787Q410.23893,261.12524,410.48503,261.88631Q410.83594,261.11157000000003,411.43294,260.73331Q412.02995,260.3505,412.75,260.3505Z" fill="#FFFFFF" fill-opacity="1" style="mix-blend-mode:passthrough"/></g></g><g style="mix-blend-mode:passthrough"><g style="mix-blend-mode:passthrough"><rect x="575" y="240" width="130" height="45" rx="5" fill="#696CFD" fill-opacity="1"/></g><g style="mix-blend-mode:passthrough"><path d="M640.24414,260.3505Q641.39714,260.3505,642.0944,261.12068Q642.79167,261.89086,642.79167,263.30363L642.79167,267.788L641.53385,267.788L641.53385,263.64542Q641.53385,262.61092,641.12825,262.05493Q640.72266,261.49438,639.92969,261.49438Q639.41471,261.49438,638.95443,261.74047Q638.4987,261.98201,638.21159,262.46508Q637.92448,262.94816,637.92448,263.65909L637.92448,267.788L636.66667,267.788L636.66667,260.49633L637.79688,260.49633Q637.79688,261.21639,637.86979,261.73136Q638.23438,261.05232,638.85417,260.70141Q639.47396,260.3505,640.24414,260.3505Z" fill="#FFFFFF" fill-opacity="1" style="mix-blend-mode:passthrough"/></g></g></g><g style="mix-blend-mode:passthrough"><path d="M296,45L296,120L294,120L294,45L296,45ZM294.292893,120.7071L287.92893,114.3431Q287.85929,114.2735,287.80457,114.1916Q287.74985,114.1097,287.71216,114.0187Q287.67447,113.9277,287.65526,113.8311Q287.63604,113.7345,287.63604,113.636Q287.63604,113.5376,287.65526,113.4409Q287.67447,113.3444,287.71216,113.2533Q287.74985,113.1624,287.80457,113.0805Q287.85929,112.9986,287.92893,112.9289Q287.99858,112.8593,288.08047,112.8046Q288.16236,112.7498,288.25336,112.7122Q288.34435,112.6745,288.44095,112.6553Q288.53755,112.636,288.63604,112.636Q288.73453,112.636,288.83113,112.6553Q288.92773,112.6745,289.01872,112.7122Q289.10972,112.7498,289.19161,112.8046Q289.2735,112.8593,289.34315,112.9289L295.707107,119.2929Q295.776751,119.3625,295.83147,119.4444Q295.886188,119.5263,295.923879,119.6173Q295.96157,119.7083,295.980785,119.8049Q296,119.9015,296,120Q296,120.0985,295.980785,120.1951Q295.96157,120.2917,295.923879,120.3827Q295.886188,120.4737,295.83147,120.5556Q295.776751,120.6375,295.707107,120.7071Q295.637463,120.7767,295.55557,120.8315Q295.473678,120.8862,295.382683,120.9239Q295.291689,120.9616,295.19509,120.9808Q295.0984914,121,294.9999999650844,121Q294.9015086,121,294.80491,120.9808Q294.708311,120.9616,294.617317,120.9239Q294.526322,120.8862,294.44443,120.8315Q294.362537,120.7767,294.292893,120.7071ZM294.292893,119.2929L300.65685,112.9289Q300.7265,112.8593,300.80839,112.8046Q300.89028,112.7498,300.98128,112.7122Q301.07227,112.6745,301.16887,112.6553Q301.26547,112.636,301.36396,112.636Q301.46245,112.636,301.55905,112.6553Q301.65565,112.6745,301.74664,112.7122Q301.83764,112.7498,301.91953,112.8046Q302.00142,112.8593,302.07107,112.9289Q302.14071,112.9986,302.19543,113.0805Q302.25015,113.1624,302.28784,113.2533Q302.32553,113.3444,302.34474,113.4409Q302.36396,113.5376,302.36396,113.636Q302.36396,113.7345,302.34474,113.8311Q302.32553,113.9277,302.28784,114.0187Q302.25015,114.1097,302.19543,114.1916Q302.14071,114.2735,302.07107,114.3431L295.707107,120.7071Q295.637463,120.7767,295.55557,120.8315Q295.473678,120.8862,295.382683,120.9239Q295.291689,120.9616,295.19509,120.9808Q295.0984914,121,295.0000000349156,121Q294.9015086,121,294.80491,120.9808Q294.708311,120.9616,294.617317,120.9239Q294.526322,120.8862,294.44443,120.8315Q294.362537,120.7767,294.292893,120.7071Q294.223249,120.6375,294.16853,120.5556Q294.113812,120.4737,294.076121,120.3827Q294.03843,120.2917,294.019215,120.1951Q294,120.0985,294,120Q294,119.9015,294.019215,119.8049Q294.03843,119.7083,294.076121,119.6173Q294.113812,119.5263,294.16853,119.4444Q294.223249,119.3625,294.292893,119.2929Z" fill="#696CFD" fill-opacity="1"/></g><g style="mix-blend-mode:passthrough"><path d="M526,165L526,186.5Q526,189.7427,524.806,192.7576Q523.51,196.0312,521.021,198.5208Q518.531,201.0104,515.258,202.3064Q512.2429999999999,203.5,509,203.5L426,203.5Q423.1388,203.5,420.47860000000003,204.5532Q417.59009,205.6967,415.3934,207.89339999999999Q413.1967,210.0901,412.05318,212.9786Q411,215.6388,411,218.5L411,240L409,240L409,218.5Q409,215.2574,410.193599,212.2424Q411.4896,208.9688,413.97918,206.4792Q416.46876,203.9896,419.74239,202.6936Q422.7574,201.5,426,201.5L509,201.5Q511.861,201.5,514.521,200.4468Q517.41,199.3033,519.607,197.10660000000001Q521.803,194.9099,522.947,192.0214Q524,189.3612,524,186.5L524,165L526,165ZM409.292893,240.7071L402.92893,234.3431Q402.85929,234.2735,402.80457,234.1916Q402.74985,234.1097,402.71216,234.0187Q402.67447,233.92770000000002,402.65526,233.8311Q402.63604,233.7345,402.63604,233.636Q402.63604,233.5376,402.65526,233.4409Q402.67447,233.3444,402.71216,233.2533Q402.74985,233.1624,402.80457,233.0805Q402.85929,232.9986,402.92893,232.9289Q402.99858,232.85930000000002,403.08047,232.8046Q403.16236,232.7498,403.25336,232.7122Q403.34435,232.6745,403.44095,232.6553Q403.53755,232.636,403.63604,232.636Q403.73453,232.636,403.83113,232.6553Q403.92773,232.6745,404.01872,232.7122Q404.10972,232.7498,404.19161,232.8046Q404.2735,232.85930000000002,404.34315,232.9289L410.707107,239.2929Q410.776751,239.3625,410.83147,239.4444Q410.886188,239.5263,410.923879,239.6173Q410.96157,239.7083,410.980785,239.8049Q411,239.9015,411,240Q411,240.0985,410.980785,240.1951Q410.96157,240.2917,410.923879,240.3827Q410.886188,240.4737,410.83147,240.5556Q410.776751,240.6375,410.707107,240.7071Q410.637463,240.7767,410.55557,240.8315Q410.473678,240.8862,410.382683,240.9239Q410.291689,240.9616,410.19509,240.9808Q410.0984914,241,409.9999999650844,241Q409.9015086,241,409.80491,240.9808Q409.708311,240.9616,409.617317,240.9239Q409.526322,240.8862,409.44443,240.8315Q409.362537,240.7767,409.292893,240.7071ZM409.292893,239.2929L415.65685,232.9289Q415.7265,232.85930000000002,415.80839,232.8046Q415.89028,232.7498,415.98128,232.7122Q416.07227,232.6745,416.16887,232.6553Q416.26547,232.636,416.36396,232.636Q416.46245,232.636,416.55905,232.6553Q416.65565,232.6745,416.74664,232.7122Q416.83764,232.7498,416.91953,232.8046Q417.00142,232.85930000000002,417.07107,232.9289Q417.14071,232.9986,417.19543,233.0805Q417.25015,233.1624,417.28784,233.2533Q417.32553,233.3444,417.34474,233.4409Q417.36396,233.5376,417.36396,233.636Q417.36396,233.7345,417.34474,233.8311Q417.32553,233.92770000000002,417.28784,234.0187Q417.25015,234.1097,417.19543,234.1916Q417.14071,234.2735,417.07107,234.3431L410.707107,240.7071Q410.637463,240.7767,410.55557,240.8315Q410.473678,240.8862,410.382683,240.9239Q410.291689,240.9616,410.19509,240.9808Q410.0984914,241,410.0000000349156,241Q409.9015086,241,409.80491,240.9808Q409.708311,240.9616,409.617317,240.9239Q409.526322,240.8862,409.44443,240.8315Q409.362537,240.7767,409.292893,240.7071Q409.223249,240.6375,409.16853,240.5556Q409.113812,240.4737,409.076121,240.3827Q409.03843,240.2917,409.019215,240.1951Q409,240.0985,409,240Q409,239.9015,409.019215,239.8049Q409.03843,239.7083,409.076121,239.6173Q409.113812,239.5263,409.16853,239.4444Q409.223249,239.3625,409.292893,239.2929Z" fill="#696CFD" fill-opacity="1"/></g><g style="mix-blend-mode:passthrough"><path d="M526,165L526,186.5Q526,189.3612,527.05318,192.0214Q528.19669,194.9099,530.3934,197.10660000000001Q532.59009,199.3033,535.4786,200.4468Q538.1388,201.5,541,201.5L624,201.5Q627.2429999999999,201.5,630.258,202.6936Q633.531,203.9896,636.021,206.4792Q638.51,208.9688,639.806,212.2424Q641,215.2573,641,218.5L641,240L639,240L639,218.5Q639,215.6388,637.947,212.9786Q636.803,210.0901,634.607,207.89339999999999Q632.41,205.6967,629.521,204.5532Q626.861,203.5,624,203.5L541,203.5Q537.7574,203.5,534.74239,202.3064Q531.46877,201.0104,528.97918,198.5208Q526.48959,196.0312,525.193599,192.7576Q524,189.7426,524,186.5L524,165L526,165ZM639.293,240.7071L632.929,234.3431Q632.859,234.2735,632.8050000000001,234.1916Q632.75,234.1097,632.712,234.0187Q632.674,233.92770000000002,632.655,233.8311Q632.636,233.7345,632.636,233.636Q632.636,233.5376,632.655,233.4409Q632.674,233.3444,632.712,233.2533Q632.75,233.1624,632.8050000000001,233.0805Q632.859,232.9986,632.929,232.9289Q632.999,232.85930000000002,633.08,232.8046Q633.162,232.7498,633.253,232.7122Q633.344,232.6745,633.441,232.6553Q633.538,232.636,633.636,232.636Q633.735,232.636,633.831,232.6553Q633.928,232.6745,634.019,232.7122Q634.11,232.7498,634.192,232.8046Q634.273,232.85930000000002,634.343,232.9289L640.707,239.2929Q640.777,239.3625,640.831,239.4444Q640.886,239.5263,640.924,239.6173Q640.962,239.7083,640.981,239.8049Q641,239.9015,641,240Q641,240.0985,640.981,240.1951Q640.962,240.2917,640.924,240.3827Q640.886,240.4737,640.831,240.5556Q640.777,240.6375,640.707,240.7071Q640.637,240.7767,640.556,240.8315Q640.474,240.8862,640.383,240.9239Q640.292,240.9616,640.1949999999999,240.9808Q640.098,241,640,241Q639.902,241,639.8050000000001,240.9808Q639.708,240.9616,639.617,240.9239Q639.526,240.8862,639.444,240.8315Q639.363,240.7767,639.293,240.7071ZM639.293,239.2929L645.657,232.9289Q645.726,232.85930000000002,645.808,232.8046Q645.89,232.7498,645.981,232.7122Q646.072,232.6745,646.169,232.6553Q646.265,232.636,646.364,232.636Q646.462,232.636,646.559,232.6553Q646.656,232.6745,646.747,232.7122Q646.838,232.7498,646.92,232.8046Q647.001,232.85930000000002,647.071,232.9289Q647.141,232.9986,647.1949999999999,233.0805Q647.25,233.1624,647.288,233.2533Q647.326,233.3444,647.345,233.4409Q647.364,233.5376,647.364,233.636Q647.364,233.7345,647.345,233.8311Q647.326,233.92770000000002,647.288,234.0187Q647.25,234.1097,647.1949999999999,234.1916Q647.141,234.2735,647.071,234.3431L640.707,240.7071Q640.637,240.7767,640.556,240.8315Q640.474,240.8862,640.383,240.9239Q640.292,240.9616,640.1949999999999,240.9808Q640.098,241,640,241Q639.902,241,639.8050000000001,240.9808Q639.708,240.9616,639.617,240.9239Q639.526,240.8862,639.444,240.8315Q639.363,240.7767,639.293,240.7071Q639.223,240.6375,639.169,240.5556Q639.114,240.4737,639.076,240.3827Q639.038,240.2917,639.019,240.1951Q639,240.0985,639,240Q639,239.9015,639.019,239.8049Q639.038,239.7083,639.076,239.6173Q639.114,239.5263,639.169,239.4444Q639.223,239.3625,639.293,239.2929Z" fill="#696CFD" fill-opacity="1"/></g><g style="mix-blend-mode:passthrough"><path d="M296,45L296,66.5Q296,69.7426,294.80600000000004,72.7576Q293.51,76.0311,291.02099999999996,78.52080000000001Q288.531,81.0104,285.25800000000004,82.3064Q282.243,83.5,279,83.5L81,83.5Q78.1388,83.5,75.4786,84.5532Q72.59009,85.69669999999999,70.3934,87.8934Q68.19669999999999,90.0901,67.05318,92.9786Q66,95.6388,66,98.5L66,120L64,120L64,98.5Q64,95.25739999999999,65.193599,92.2424Q66.4896,88.9688,68.97918,86.47919999999999Q71.46876,83.9896,74.74239,82.6936Q77.7574,81.5,81,81.5L279,81.5Q281.861,81.5,284.52099999999996,80.4468Q287.40999999999997,79.30330000000001,289.60699999999997,77.1066Q291.803,74.9098,292.947,72.0214Q294,69.3611,294,66.5L294,45L296,45ZM64.292893,120.7071L57.92893,114.3431Q57.85929,114.2735,57.80457,114.1916Q57.74985,114.1097,57.71216,114.0187Q57.67447,113.9277,57.65526,113.8311Q57.63604,113.7345,57.63604,113.636Q57.63604,113.5376,57.65526,113.4409Q57.67447,113.3444,57.71216,113.2533Q57.74985,113.1624,57.80457,113.0805Q57.85929,112.9986,57.92893,112.9289Q57.99858,112.8593,58.08047,112.8046Q58.16236,112.7498,58.25336,112.7122Q58.34435,112.6745,58.44095,112.6553Q58.53755,112.636,58.63604,112.636Q58.73453,112.636,58.83113,112.6553Q58.92773,112.6745,59.01872,112.7122Q59.10972,112.7498,59.19161,112.8046Q59.2735,112.8593,59.34315,112.9289L65.707107,119.2929Q65.776751,119.3625,65.83147,119.4444Q65.886188,119.5263,65.923879,119.6173Q65.96157,119.7083,65.980785,119.8049Q66,119.9015,66,120Q66,120.0985,65.980785,120.1951Q65.96157,120.2917,65.923879,120.3827Q65.886188,120.4737,65.83147,120.5556Q65.776751,120.6375,65.707107,120.7071Q65.637463,120.7767,65.55557,120.8315Q65.473678,120.8862,65.382683,120.9239Q65.291689,120.9616,65.19509,120.9808Q65.0984914,121,64.9999999650844,121Q64.9015086,121,64.80491,120.9808Q64.708311,120.9616,64.617317,120.9239Q64.526322,120.8862,64.44443,120.8315Q64.362537,120.7767,64.292893,120.7071ZM64.292893,119.2929L70.65685,112.9289Q70.7265,112.8593,70.80839,112.8046Q70.89028,112.7498,70.98128,112.7122Q71.07227,112.6745,71.16887,112.6553Q71.26547,112.636,71.36396,112.636Q71.46245,112.636,71.55905,112.6553Q71.65565,112.6745,71.74664,112.7122Q71.83764,112.7498,71.91953,112.8046Q72.00142,112.8593,72.07107,112.9289Q72.14071,112.9986,72.19543,113.0805Q72.25015,113.1624,72.28784,113.2533Q72.32553,113.3444,72.34474,113.4409Q72.36396,113.5376,72.36396,113.636Q72.36396,113.7345,72.34474,113.8311Q72.32553,113.9277,72.28784,114.0187Q72.25015,114.1097,72.19543,114.1916Q72.14071,114.2735,72.07107,114.3431L65.707107,120.7071Q65.637463,120.7767,65.55557,120.8315Q65.473678,120.8862,65.382683,120.9239Q65.291689,120.9616,65.19509,120.9808Q65.0984914,121,65.0000000349156,121Q64.9015086,121,64.80491,120.9808Q64.708311,120.9616,64.617317,120.9239Q64.526322,120.8862,64.44443,120.8315Q64.362537,120.7767,64.292893,120.7071Q64.223249,120.6375,64.16853,120.5556Q64.113812,120.4737,64.076121,120.3827Q64.03843,120.2917,64.019215,120.1951Q64,120.0985,64,120Q64,119.9015,64.019215,119.8049Q64.03843,119.7083,64.076121,119.6173Q64.113812,119.5263,64.16853,119.4444Q64.223249,119.3625,64.292893,119.2929Z" fill="#696CFD" fill-opacity="1"/></g><g style="mix-blend-mode:passthrough"><path d="M296,45L296,66.5Q296,69.3612,297.05318,72.0214Q298.19669,74.9099,300.3934,77.1066Q302.59009,79.30330000000001,305.47860000000003,80.4468Q308.1388,81.5,311,81.5L509,81.5Q512.2429999999999,81.5,515.258,82.6936Q518.531,83.9896,521.021,86.47919999999999Q523.51,88.96889999999999,524.806,92.2424Q526,95.25739999999999,526,98.5L526,120L524,120L524,98.5Q524,95.6389,522.947,92.9786Q521.803,90.09020000000001,519.607,87.8934Q517.41,85.69669999999999,514.521,84.5532Q511.861,83.5,509,83.5L311,83.5Q307.7574,83.5,304.74239,82.3064Q301.46877,81.0104,298.97918,78.52080000000001Q296.48959,76.0312,295.193599,72.7576Q294,69.7426,294,66.5L294,45L296,45ZM524.293,120.7071L517.929,114.3431Q517.859,114.2735,517.8050000000001,114.1916Q517.75,114.1097,517.712,114.0187Q517.674,113.9277,517.655,113.8311Q517.636,113.7345,517.636,113.636Q517.636,113.5376,517.655,113.4409Q517.674,113.3444,517.712,113.2533Q517.75,113.1624,517.8050000000001,113.0805Q517.859,112.9986,517.929,112.9289Q517.999,112.8593,518.08,112.8046Q518.162,112.7498,518.2529999999999,112.7122Q518.344,112.6745,518.441,112.6553Q518.538,112.636,518.636,112.636Q518.735,112.636,518.831,112.6553Q518.928,112.6745,519.019,112.7122Q519.11,112.7498,519.192,112.8046Q519.273,112.8593,519.343,112.9289L525.707,119.2929Q525.777,119.3625,525.831,119.4444Q525.886,119.5263,525.924,119.6173Q525.962,119.7083,525.981,119.8049Q526,119.9015,526,120Q526,120.0985,525.981,120.1951Q525.962,120.2917,525.924,120.3827Q525.886,120.4737,525.831,120.5556Q525.777,120.6375,525.707,120.7071Q525.637,120.7767,525.556,120.8315Q525.4739999999999,120.8862,525.383,120.9239Q525.292,120.9616,525.1949999999999,120.9808Q525.098,121,525,121Q524.9010000000001,121,524.8050000000001,120.9808Q524.708,120.9616,524.617,120.9239Q524.5260000000001,120.8862,524.444,120.8315Q524.363,120.7767,524.293,120.7071ZM524.293,119.2929L530.657,112.9289Q530.726,112.8593,530.808,112.8046Q530.89,112.7498,530.981,112.7122Q531.072,112.6745,531.169,112.6553Q531.265,112.636,531.364,112.636Q531.462,112.636,531.559,112.6553Q531.656,112.6745,531.7470000000001,112.7122Q531.838,112.7498,531.92,112.8046Q532.001,112.8593,532.071,112.9289Q532.141,112.9986,532.1949999999999,113.0805Q532.25,113.1624,532.288,113.2533Q532.325,113.3444,532.345,113.4409Q532.364,113.5376,532.364,113.636Q532.364,113.7345,532.345,113.8311Q532.325,113.9277,532.288,114.0187Q532.25,114.1097,532.1949999999999,114.1916Q532.141,114.2735,532.071,114.3431L525.707,120.7071Q525.637,120.7767,525.556,120.8315Q525.4739999999999,120.8862,525.383,120.9239Q525.292,120.9616,525.1949999999999,120.9808Q525.098,121,525,121Q524.9010000000001,121,524.8050000000001,120.9808Q524.708,120.9616,524.617,120.9239Q524.5260000000001,120.8862,524.444,120.8315Q524.363,120.7767,524.293,120.7071Q524.223,120.6375,524.169,120.5556Q524.114,120.4737,524.076,120.3827Q524.038,120.2917,524.019,120.1951Q524,120.0985,524,120Q524,119.9015,524.019,119.8049Q524.038,119.7083,524.076,119.6173Q524.114,119.5263,524.169,119.4444Q524.223,119.3625,524.293,119.2929Z" fill="#696CFD" fill-opacity="1"/></g></g><g style="mix-blend-mode:passthrough"><path d="M291.46875,326.3396Q290.73633,326.8435,289.61719,326.8435Q286.875,326.8435,286.875,323.6736L286.875,318.7517L285.375,318.7517L285.375,317.281L286.875,317.281L286.875,314.4685L288.49219,314.4685L288.49219,317.281L291,317.281L291,318.7517L288.49219,318.7517L288.49219,323.4568Q288.49219,325.3728,289.85156,325.3728Q290.44922,325.3728,290.96484,325.0564L291.46875,326.3396ZM296.9004,317.0935Q298.0957,317.0935,298.998,317.65014Q299.9004,318.20092,300.3809,319.15014Q300.8672,320.0994,300.8672,321.2654Q300.8672,321.7517,300.7969,322.156L294.11719,322.156Q294.11719,323.779,294.96094,324.5759Q295.8047,325.3728,297.0938,325.3728Q298.6875,325.3728,299.4023,324.0955L300.5215,324.7693Q300.1582,325.7595,299.1797,326.3044Q298.207,326.8435,297.0117,326.8435Q295.7578,326.8435,294.72656,326.2693Q293.70117,325.6951,293.09766,324.5876Q292.5,323.4802,292.5,321.9333Q292.5,320.4392,293.09766,319.3435Q293.70117,318.24194,294.69727,317.66772Q295.6992,317.0935,296.9004,317.0935ZM296.877,318.5642Q295.8516,318.5642,295.0957,319.10912Q294.33984,319.64819,294.13477,320.6853L299.25,320.6853Q299.25,319.67748,298.5938,319.12084Q297.9375,318.5642,296.877,318.5642ZM309.1172,324.0076Q309.1172,324.8455,308.6719,325.49Q308.2324,326.1345,307.4355,326.4919Q306.6445,326.8435,305.6133,326.8435Q304.2363,326.8435,303.2402,326.2165Q302.25,325.5837,301.9453,324.4939L303.123,323.8435Q303.791,325.3728,305.6133,325.3728Q306.4922,325.3728,306.9961,325.0212Q307.5,324.6638,307.5,324.0369Q307.5,323.5564,307.2012,323.2576Q306.9082,322.9529,306.4629,322.783Q306.0176,322.613,305.2266,322.3845Q304.2715,322.115,303.6738,321.8689Q303.082,321.6169,302.666,321.1247Q302.25,320.6326,302.25,319.82983Q302.25,318.9978,302.7129,318.3767Q303.1758,317.74975,303.9551,317.42162Q304.7402,317.0935,305.6836,317.0935Q306.9141,317.0935,307.7988,317.65014Q308.6836,318.20092,308.9883,319.16186L307.8105,319.81225Q307.5176,319.21459,306.9492,318.89233Q306.3867,318.5642,305.6133,318.5642Q304.8223,318.5642,304.3418,318.88061Q303.8672,319.19115,303.8672,319.77709Q303.8672,320.2107,304.1426,320.4802Q304.4238,320.7439,304.8398,320.908Q305.2559,321.0662,306.0117,321.283Q307.002,321.5466,307.6172,321.8103Q308.2324,322.0681,308.6719,322.6013Q309.1172,323.1345,309.1172,324.0076ZM316.2188,326.3396Q315.4863,326.8435,314.3672,326.8435Q311.625,326.8435,311.625,323.6736L311.625,318.7517L310.125,318.7517L310.125,317.281L311.625,317.281L311.625,314.4685L313.2422,314.4685L313.2422,317.281L315.75,317.281L315.75,318.7517L313.2422,318.7517L313.2422,323.4568Q313.2422,325.3728,314.6016,325.3728Q315.1992,325.3728,315.7148,325.0564L316.2188,326.3396ZM319.6172,318.8103L326.625,318.8103L326.625,313.156L328.2422,313.156L328.2422,326.656L326.625,326.656L326.625,320.281L319.6172,320.281L319.6172,326.656L318,326.656L318,313.156L319.6172,313.156L319.6172,318.8103ZM335.1504,317.0935Q336.3457,317.0935,337.248,317.65014Q338.1504,318.20092,338.6309,319.15014Q339.1172,320.0994,339.1172,321.2654Q339.1172,321.7517,339.0469,322.156L332.3672,322.156Q332.3672,323.779,333.2109,324.5759Q334.0547,325.3728,335.3438,325.3728Q336.9375,325.3728,337.65229999999997,324.0955L338.7715,324.7693Q338.4082,325.7595,337.4297,326.3044Q336.457,326.8435,335.2617,326.8435Q334.0078,326.8435,332.9766,326.2693Q331.9512,325.6951,331.34770000000003,324.5876Q330.75,323.4802,330.75,321.9333Q330.75,320.4392,331.34770000000003,319.3435Q331.9512,318.24194,332.9473,317.66772Q333.9492,317.0935,335.1504,317.0935ZM335.127,318.5642Q334.1016,318.5642,333.3457,319.10912Q332.58979999999997,319.64819,332.3848,320.6853L337.5,320.6853Q337.5,319.67748,336.8438,319.12084Q336.1875,318.5642,335.127,318.5642ZM344.5371,317.0935Q346.1133,317.0935,347.1152,318.0603Q348.1172,319.02123,348.1172,320.8025L348.1172,326.656L346.6465,326.656Q346.6465,325.6072,346.6465,325.3025Q346.2188,326.0642,345.498,326.4568Q344.77729999999997,326.8435,343.8516,326.8435Q342.9668,326.8435,342.1934,326.4978Q341.4199,326.1521,340.957,325.4665Q340.5,324.7751,340.5,323.8142Q340.5,322.3611,341.6016,321.5232Q342.709,320.6853,344.4551,320.6853Q345.4453,320.6853,346.5,321.0017L346.5,320.8552Q346.5,319.69506,345.9844,319.13256Q345.4688,318.5642,344.4258,318.5642Q343.582,318.5642,343.0254,318.86889Q342.4688,319.17358,342.082,319.77709L340.8984,319.20873Q341.332,318.24194,342.3047,317.66772Q343.2832,317.0935,344.5371,317.0935ZM346.5,322.4372Q345.4043,322.156,344.4961,322.156Q343.3535,322.156,342.7324,322.5955Q342.1172,323.029,342.1172,323.8201Q342.1172,324.5466,342.6387,324.9626Q343.166,325.3728,344.0039,325.3728Q345.03520000000003,325.3728,345.7676,324.7693Q346.5,324.1658,346.5,323.0994L346.5,322.4372ZM355.6641,317.0935Q356.7188,317.0935,357.6562,317.67944Q358.5996,318.25951,359.168,319.36694Q359.7422,320.4744,359.7422,321.9685Q359.7422,323.4802,359.168,324.5876Q358.5996,325.6951,357.6562,326.2693Q356.7188,326.8435,355.65819999999997,326.8435Q354.7617,326.8435,353.9473,326.4158Q353.1387,325.9822,352.6172,325.1384L352.6172,330.781L351,330.781L351,317.281L352.4531,317.281Q352.4531,318.21264,352.5469,318.92162Q353.0508,318.00756,353.8828,317.55053Q354.71479999999997,317.0935,355.6641,317.0935ZM355.4473,325.3728Q356.66020000000003,325.3728,357.3926,324.4822Q358.125,323.5857,358.125,321.9685Q358.125,320.3513,357.3926,319.46069Q356.66020000000003,318.5642,355.4473,318.5642Q354.72069999999997,318.5642,354.0762,318.90405Q353.4375,319.24389,353.02729999999997,320.0115Q352.6172,320.7732,352.6172,321.9685Q352.6172,323.1638,353.02729999999997,323.9314Q353.4375,324.699,354.0762,325.0388Q354.72069999999997,325.3728,355.4473,325.3728ZM368.21479999999997,312.52319L381,312.52319L381,313.906L368.21479999999997,313.906L368.21479999999997,312.52319ZM382.582,318.62865L375.52729999999997,318.62865L375.52729999999997,325.613Q375.52729999999997,326.5271,375.2812,326.99Q375.041,327.4529,374.4902,327.6345Q373.9395,327.8162,372.8965,327.8162Q372.2871,327.8162,371.09770000000003,327.7458L370.793,326.2341Q371.959,326.3572,372.791,326.3572Q373.52930000000003,326.3572,373.7695,326.0935Q374.0156,325.824,374.0156,325.033L374.0156,318.62865L366.6504,318.62865L366.6504,317.281L382.582,317.281L382.582,318.62865ZM371.5312,320.8611Q370.8809,322.2615,369.7734,323.9255Q368.666,325.5896,367.6055,326.7908L366.34569999999997,325.8181Q367.4238,324.6521,368.5137,323.0525Q369.6035,321.4529,370.2129,320.1287L371.5312,320.8611ZM378.9316,320.1814Q379.7051,321.1189,380.8828,322.8122Q382.0605,324.4997,382.7812,325.7126L381.4688,326.6443Q380.7891,325.3904,379.623,323.656Q378.4629,321.9216,377.6895,320.99L378.9316,320.1814ZM400.5,315.781L400.5,316.89428L384.4629,316.89428L384.4629,315.781L389.109,315.781Q388.951,315.02514,388.693,313.91186L385.383,313.91186L385.383,312.781L391.928,312.781Q391.641,312.25951,391.283,311.72045L392.725,311.2517Q393.123,311.87865,393.586,312.781L399.562,312.781L399.562,313.91186L396.35699999999997,313.91186Q396.053,315.35912,395.96500000000003,315.781L400.5,315.781ZM390.111,313.91186Q390.258,314.52123,390.51,315.781L394.55899999999997,315.781Q394.74,315.0017,394.957,313.91186L390.111,313.91186ZM398.33799999999997,317.71459L398.33799999999997,322.906L392.361,322.906Q392.848,323.3455,393.422,323.908Q394.002,324.4705,394.324,324.8337L393.404,325.8474Q392.988,325.3728,392.361,324.7341Q391.734,324.0955,391.318,323.7087L392.039,322.906L386.549,322.906L386.549,317.71459L398.33799999999997,317.71459ZM396.955,319.906L396.955,318.781L387.955,318.781L387.955,319.906L396.955,319.906ZM387.955,320.9724L387.955,321.8396L396.955,321.8396L396.955,320.9724L387.955,320.9724ZM384.3516,326.738Q384.9316,325.9997,385.53499999999997,325.0212Q386.139,324.0369,386.496,323.2283L387.80899999999997,323.8376Q387.398,324.7224,386.748,325.7771Q386.098,326.8318,385.523,327.5466L384.3516,326.738ZM398.32,323.281Q398.859,323.9431,399.527,324.9333Q400.195,325.9236,400.664,326.6853L399.527,327.4763Q399.076,326.7029,398.408,325.7068Q397.746,324.7107,397.207,323.9958L398.32,323.281ZM395.461,325.6423Q395.514,324.8572,395.514,324.3357L396.867,324.74Q396.826,325.449,396.738,326.1228Q396.65,326.7556,396.457,327.072Q396.27,327.3884,395.9,327.5173Q395.531,327.6462,394.81100000000004,327.7107Q393.879,327.781,392.637,327.781Q391.377,327.781,390.43899999999996,327.7048Q389.719,327.6462,389.35,327.488Q388.98,327.3298,388.81600000000003,326.9314Q388.658,326.5388,388.658,325.8064L388.658,323.5154L390.094,323.5154L390.094,325.5427Q390.094,326.0994,390.264,326.3044Q390.43899999999996,326.5037,390.961,326.5388Q391.752,326.5915,392.619,326.5915Q393.586,326.5915,394.471,326.5388Q395.045,326.5037,395.23199999999997,326.3337Q395.426,326.158,395.461,325.6423ZM403.5,327.781L403.5,312.3474L417.95500000000004,312.3474L417.95500000000004,327.781L416.625,327.781L416.625,327.1072L404.848,327.1072L404.848,327.781L403.5,327.781ZM404.848,313.64233L404.848,325.865L416.625,325.865L416.625,313.64233L404.848,313.64233ZM411.896,318.77514Q413.426,319.41967,416.174,320.0056L415.688,321.1658Q412.506,320.3044,410.725,319.41967Q408.832,320.3689,405.762,321.2947L405.281,320.1872Q407.742,319.50756,409.523,318.73998Q408.609,318.15405,407.68899999999996,317.23998Q406.916,318.00756,406.125,318.61694L405.422,317.75561Q406.395,316.97045,407.30899999999997,315.89233Q408.229,314.8142,408.803,313.84155L409.898,314.26928Q409.58799999999997,314.82006,409.178,315.406L414.826,315.406L414.826,316.4724Q413.39099999999996,317.86694,411.896,318.77514ZM408.404,316.4724Q409.359,317.47436,410.672,318.20678Q412.21299999999997,317.36889,413.115,316.4724L408.404,316.4724ZM408.40999999999997,320.7029L410.68899999999996,321.1716Q412.266,321.4705,413.36699999999996,321.7048L413.209,322.7947Q412.219,322.5662,408.861,321.8865Q408.66200000000003,321.8513,408.504,321.8162Q408.352,321.7751,408.229,321.7576L408.40999999999997,320.7029ZM406.78700000000003,322.783Q410.871,323.5622,414.199,324.2771L414,325.3318Q408.627,324.2185,406.629,323.8494L406.78700000000003,322.783Z" fill="#000000" fill-opacity="1" style="mix-blend-mode:passthrough"/></g></g></svg>