
        <svg xmlns="http://www.w3.org/2000/svg" xmlns:cc="http://creativecommons.org/ns#" xmlns:rdf="http://www.w3.org/1999/02/22-rdf-syntax-ns#" version="1.1" width="601.2059936523438" height="48">
          <defs>
            <style type="text/css">
              svg {
                background-color: #fff;
              }

              .root text,
              .root tspan {
                font: 12px Arial;
              }

              .root path {
                fill-opacity: 0;
                stroke-width: 2px;
                stroke: #000;
              }

              .root circle {
                fill: #6b6659;
                stroke-width: 2px;
                stroke: #000;
              }

              .anchor text,
              .any-character text {
                fill: #fff;
              }

              .anchor rect,
              .any-character rect {
                fill: #6b6659;
              }

              .escape text,
              .charset-escape text,
              .literal text {
                fill: #000;
              }

              .escape rect,
              .charset-escape rect {
                fill: #bada55;
              }

              .literal rect {
                fill: #dae9e5;
              }

              .charset .charset-box {
                fill: #cbcbba;
              }

              .subexp .subexp-label tspan,
              .charset .charset-label tspan,
              .match-fragment .repeat-label tspan {
                font-size: 10px;
              }

              .repeat-label {
                cursor: help;
              }

              .subexp .subexp-label tspan,
              .charset .charset-label tspan {
                dominant-baseline: text-after-edge;
              }

              .subexp .subexp-box {
                stroke: #908c83;
                stroke-dasharray: 6, 2;
                stroke-width: 2px;
                fill-opacity: 0;
              }

              .quote {
                fill: #908c83;
              }
            </style>
          </defs>
        <desc>Created with Snap</desc><g class="root" transform="matrix(1,0,0,1,15,10)"><g class="regexp match" transform="matrix(1,0,0,1,10,0)"><path d="M32.6796875,16H42.6797M99.376965625,16H109.377M146.7129375,16H156.7129M217.066415625,16H227.0664M301.7617125,16H311.7617M409.474590625,16H419.4746M503.18163125,16H513.1816"></path><g class="match-fragment escape" transform="matrix(1,0,0,1,0,4)"><g class="label"><rect width="32.6796875" height="24" rx="3" ry="3"></rect><text x="0" y="0" transform="matrix(1,0,0,1,5,17)"><tspan>digit</tspan></text></g></g><g class="match-fragment escape" transform="matrix(1,0,0,1,42.6797,4)"><g class="label"><rect width="56.697265625" height="24" rx="3" ry="3"></rect><text x="0" y="0" transform="matrix(1,0,0,1,5,17)"><tspan>non-digit</tspan></text></g></g><g class="match-fragment escape" transform="matrix(1,0,0,1,109.377,4)"><g class="label"><rect width="37.3359375" height="24" rx="3" ry="3"></rect><text x="0" y="0" transform="matrix(1,0,0,1,5,17)"><tspan>word</tspan></text></g></g><g class="match-fragment escape" transform="matrix(1,0,0,1,156.7129,4)"><g class="label"><rect width="60.353515625" height="24" rx="3" ry="3"></rect><text x="0" y="0" transform="matrix(1,0,0,1,5,17)"><tspan>non-word</tspan></text></g></g><g class="match-fragment escape" transform="matrix(1,0,0,1,227.0664,4)"><g class="label"><rect width="74.6953125" height="24" rx="3" ry="3"></rect><text x="0" y="0" transform="matrix(1,0,0,1,5,17)"><tspan>white space</tspan></text></g></g><g class="match-fragment escape" transform="matrix(1,0,0,1,311.7617,4)"><g class="label"><rect width="97.712890625" height="24" rx="3" ry="3"></rect><text x="0" y="0" transform="matrix(1,0,0,1,5,17)"><tspan>non-white space</tspan></text></g></g><g class="match-fragment any-character" transform="matrix(1,0,0,1,419.4746,4)"><g class="label"><rect width="83.70703125" height="24"></rect><text x="0" y="0" transform="matrix(1,0,0,1,5,17)"><tspan>any character</tspan></text></g></g><g class="match-fragment charset" transform="matrix(1,0,0,1,513.1816,0)"><rect rx="3" ry="3" class="charset-box" transform="matrix(1,0,0,1,0,11)" width="38.0244140625" height="10"></rect><text x="0" y="0" class="charset-label" transform="matrix(1,0,0,1,0,11)"><tspan>None of:</tspan></text><g transform="matrix(1,0,0,1,19.0122,16)"></g></g></g><path d="M10,16H0M561.2060140625,16H571.2059936523438"></path><circle cx="0" cy="16" r="5"></circle><circle cx="571.2059936523438" cy="16" r="5"></circle></g></svg>
      