<svg xmlns="http://www.w3.org/2000/svg" xmlns:xlink="http://www.w3.org/1999/xlink" fill="none" version="1.1" width="195" height="82.3798828125" viewBox="0 0 195 82.3798828125"><g style="mix-blend-mode:passthrough"><g style="mix-blend-mode:passthrough"><g style="mix-blend-mode:passthrough"><g style="mix-blend-mode:passthrough"><ellipse cx="184.5" cy="61.8798828125" rx="10.5" ry="10.5" fill="#FD8B69" fill-opacity="1"/></g><g style="mix-blend-mode:passthrough"><ellipse cx="10.5" cy="61.8798828125" rx="10.5" ry="10.5" fill="#49B87D" fill-opacity="1"/></g><g style="mix-blend-mode:passthrough"><g style="mix-blend-mode:passthrough"><rect x="71" y="41.3798828125" width="53" height="41" rx="5" fill="#FD8B69" fill-opacity="1"/></g><g style="mix-blend-mode:passthrough"><g style="mix-blend-mode:passthrough"><rect x="74" y="44.3798828125" width="47" height="35" rx="5" fill="#696CFD" fill-opacity="1"/></g><g style="mix-blend-mode:passthrough"><path d="M85.53516,68.3598828125Q84.00586,68.3598828125,83.10352,67.4809728125Q82.20703,66.6020728125,82.20703,65.1782428125Q82.20703,64.2348828125,82.61719,63.5376128125Q83.0332,62.8344928125,83.77148,62.4360528125Q84.50977,62.0376178125,85.46484,62.0376178125L88.52344,62.0376178125L88.52344,61.3637895125Q88.52344,59.6821528125,86.41992,59.6821528125Q85.48242,59.6821528125,84.90234,59.9809728125Q84.32812,60.2739428125,84.29297,60.8071488125L82.67578,60.8071488125Q82.76367,59.6938628125,83.75977,58.9673028125Q84.76172,58.2348828125,86.41992,58.2348828125Q88.21875,58.2348828125,89.17969,59.1020728125Q90.14648,59.9692628125,90.14648,61.5278518125L90.14648,68.3598828125L88.54102,68.3598828125L88.54102,66.3266828125L88.50586,66.3266828125Q88.35938,67.2700428125,87.58594,67.8149628125Q86.8125,68.3598828125,85.53516,68.3598828125ZM85.93359,66.9126128125Q87.11719,66.9126128125,87.82031,66.3559728125Q88.52344,65.7934728125,88.52344,64.8325428125L88.52344,63.4848828125L85.64648,63.4848828125Q84.84961,63.4848828125,84.35156,63.9477728125Q83.85938,64.4106628125,83.85938,65.1841028125Q83.85938,65.9868328125,84.41016,66.4497228125Q84.96094,66.9126128125,85.93359,66.9126128125ZM97.8516,68.3598828125Q96.7324,68.3598828125,96.0117,67.8091028125Q95.2969,67.2524628125,95.168,66.2680828125L95.1504,66.2680828125L95.1504,68.3598828125L93.5332,68.3598828125L93.5332,55.234882812500004L95.1504,55.234882812500004L95.1504,58.1411328125L95.1152,60.4145708125L95.1328,60.4145708125Q95.2793,59.4126128125,96.0059,58.8266828125Q96.7324,58.2348828125,97.8516,58.2348828125Q99.3457,58.2348828125,100.2246,59.2134028125Q101.1094,60.1860528125,101.1094,61.8735548125L101.1094,64.7387928125Q101.1094,66.4087128125,100.2246,67.3872228125Q99.3457,68.3598828125,97.8516,68.3598828125ZM97.3125,66.9126128125Q98.3379,66.9126128125,98.9121,66.3911328125Q99.4863,65.8637928125,99.4863,64.6919128125L99.4863,61.9028518125Q99.4863,60.7133988125,98.9121,60.1977728125Q98.3379,59.6821528125,97.3125,59.6821528125Q96.3223,59.6821528125,95.7363,60.2973828125Q95.1504,60.9067578125,95.1504,61.9848828125L95.1504,64.6098828125Q95.1504,65.6880128125,95.7363,66.3032428125Q96.3223,66.9126128125,97.3125,66.9126128125ZM108.293,68.3598828125Q106.4941,68.3598828125,105.4102,67.3637928125Q104.332,66.3676928125,104.332,64.6274628125L104.332,61.9673048125Q104.332,60.2270728125,105.4102,59.2309728125Q106.4941,58.2348828125,108.293,58.2348828125Q110.0039,58.2348828125,111.0527,59.1430828125Q112.1074,60.0512928125,112.166,61.6157428125L110.543,61.6157428125Q110.4902,60.6841018125,109.8926,60.1860528125Q109.3008,59.6821528125,108.293,59.6821528125Q107.2324,59.6821528125,106.5938,60.2739428125Q105.9551,60.8657428125,105.9551,61.9555868125L105.9551,64.6216028125Q105.9551,65.7114428125,106.5938,66.3149628125Q107.2324,66.9126128125,108.293,66.9126128125Q109.3008,66.9126128125,109.8926,66.4028528125Q110.4902,65.8872228125,110.543,64.9673028125L112.166,64.9673028125Q112.1074,66.5376128125,111.0527,67.4516828125Q110.0039,68.3598828125,108.293,68.3598828125Z" fill="#FFFFFF" fill-opacity="1" style="mix-blend-mode:passthrough"/></g></g></g><g style="mix-blend-mode:passthrough"><path d="M21,60.8798828125L71,60.8798828125L71,62.8798828125L21,62.8798828125L21,60.8798828125Z" fill="#000000" fill-opacity="1" style="mix-blend-mode:passthrough"/></g><g style="mix-blend-mode:passthrough"><path d="M124,60.8798828125L174,60.8798828125L174,62.8798828125L124,62.8798828125L124,60.8798828125Z" fill="#000000" fill-opacity="1" style="mix-blend-mode:passthrough"/></g></g><g style="mix-blend-mode:passthrough"><path d="M82.0013,36.4798828125Q81.02148,36.4798828125,80.44857,35.9264928125Q79.878906,35.3731128125,79.878906,34.3412128125L79.878906,31.3268928125Q79.878906,30.2949828125,80.44857,29.7416028125Q81.02148,29.1882128125,82.0013,29.1882128125Q82.98112,29.1882128125,83.55078,29.7416028125Q84.12044,30.2949828125,84.12044,31.3171228125L84.12044,34.3412128125Q84.12044,35.3731128125,83.55078,35.9264928125Q82.98112,36.4798828125,82.0013,36.4798828125ZM82.0013,35.6758428125Q82.59049,35.6758428125,82.90299,35.3535828125Q83.21875,35.028062812499996,83.21875,34.4291028125L83.21875,31.2389928125Q83.21875,30.6400428125,82.90299,30.3177728125Q82.59049,29.9922528125,82.0013,29.9922528125Q81.41862,29.9922528125,81.09961,30.3177728125Q80.7806,30.6400428125,80.7806,31.2389928125L80.7806,34.4291028125Q80.7806,35.028062812499996,81.09961,35.3535828125Q81.41862,35.6758428125,82.0013,35.6758428125ZM85.96289,36.4798828125L85.96289,30.8548828125L86.86133,30.8548828125L86.86133,32.0788408125L86.87109,32.0788408125Q86.94271,31.4929038125,87.32031,31.1738928125Q87.70117,30.8548828125,88.33268,30.8548828125Q89.1628,30.8548828125,89.651,31.3692028125Q90.1426,31.8802738125,90.1426,32.7624348125L90.1426,36.4798828125L89.2409,36.4798828125L89.2409,32.9544918125Q89.2409,32.3262372125,88.92513,31.9942058125Q88.61263,31.6589198125,88.07227,31.6589198125Q87.51237,31.6589198125,87.18684999999999,32.0072268125Q86.86133,32.3555341125,86.86133,32.9935548125L86.86133,36.4798828125L85.96289,36.4798828125ZM94.0846,36.4798828125Q93.1146,36.4798828125,92.5189,35.9037128125Q91.9232,35.3242828125,91.9232,34.3086628125L91.9232,33.0261068125Q91.9232,32.0104818125,92.5189,31.4343098125Q93.1146,30.8548828125,94.0846,30.8548828125Q94.7324,30.8548828125,95.2174,31.1185528125Q95.7025,31.3789728125,95.9727,31.8509768125Q96.2428,32.3229818125,96.2428,32.9642578125L96.2428,33.9505828125L92.8021,33.9505828125L92.8021,34.4388628125Q92.8021,35.0085328125,93.1504,35.3438128125Q93.502,35.6758428125,94.0846,35.6758428125Q94.5827,35.6758428125,94.9082,35.4935528125Q95.2337,35.3080028125,95.3021,34.9987628125L96.2038,34.9987628125Q96.1126,35.6791028125,95.5332,36.0794928125Q94.9538,36.4798828125,94.0846,36.4798828125ZM92.8021,33.1465498125L95.3639,33.1465498125L95.3639,32.8926428125Q95.3639,32.3034506125,95.0286,31.9811848125Q94.6934,31.6589198125,94.0846,31.6589198125Q93.4727,31.6589198125,93.1374,31.9811848125Q92.8021,32.3034506125,92.8021,32.8926428125L92.8021,33.1465498125ZM106.168,36.4798828125Q105.1751,36.4798828125,104.5892,35.9037128125Q104.0065,35.3275428125,104.0065,34.2923828125L104.0065,33.0423828125Q104.0065,31.9974608125,104.5859,31.427799812499998Q105.1654,30.8548828125,106.168,30.8548828125Q107.1673,30.8548828125,107.7467,31.427799812499998Q108.3262,31.9974608125,108.3262,33.0423828125L108.3262,34.2923828125Q108.3262,35.3275428125,107.7402,35.9037128125Q107.1576,36.4798828125,106.168,36.4798828125ZM106.168,35.6758428125Q106.7572,35.6758428125,107.0924,35.350322812499996Q107.4277,35.0215528125,107.4277,34.3900428125L107.4277,32.9447268125Q107.4277,32.3132162125,107.0924,31.9876948125Q106.7572,31.6589198125,106.168,31.6589198125Q105.5853,31.6589198125,105.2467,31.9876948125Q104.9082,32.3132162125,104.9082,32.9447268125L104.9082,34.3900428125Q104.9082,35.0215528125,105.2467,35.350322812499996Q105.5853,35.6758428125,106.168,35.6758428125ZM111.35679999999999,36.4798828125L111.35679999999999,32.5215498125L109.7585,32.5215498125L109.7585,31.7175128125L111.35679999999999,31.7175128125L111.35679999999999,30.5781928125Q111.35679999999999,29.9336628125,111.76689999999999,29.5625628125Q112.1771,29.1882128125,112.8997,29.1882128125L114.5078,29.1882128125L114.5078,29.9922528125L112.8997,29.9922528125Q112.2585,29.9922528125,112.2585,30.5716828125L112.2585,31.7175128125L114.5078,31.7175128125L114.5078,32.5215498125L112.2585,32.5215498125L112.2585,36.4798828125L111.35679999999999,36.4798828125Z" fill="#555555" fill-opacity="1" style="mix-blend-mode:passthrough"/></g></g><g style="mix-blend-mode:passthrough"><path d="M1.67578,18.3598828125L1.67578,5.2348828125L5.72461,5.2348828125Q6.89648,5.2348828125,7.77539,5.7094928125Q8.66016,6.1782428125,9.14648,7.0219928125Q9.63281,7.8598828125,9.63281,8.9848828125Q9.63281,10.3032428125,8.94727,11.2524618125Q8.26172,12.1958208125,7.13086,12.5708228125L9.80859,18.3598828125L8.02734,18.3598828125L5.45508,12.7348828125L3.27539,12.7348828125L3.27539,18.3598828125L1.67578,18.3598828125ZM3.27539,11.2876177125L5.72461,11.2876177125Q6.73242,11.2876177125,7.3418,10.6548048125Q7.95703,10.0219928125,7.95703,8.9848828125Q7.95703,7.9301928125,7.3418,7.3091028125Q6.73242,6.6821528125,5.72461,6.6821528125L3.27539,6.6821528125L3.27539,11.2876177125ZM16.2773,18.3598828125Q14.5312,18.3598828125,13.459,17.3227728125Q12.3867,16.2798028125,12.3867,14.4516828125L12.3867,12.1430868125Q12.3867,10.3149628125,13.459,9.2778528125Q14.5312,8.2348828125,16.2773,8.2348828125Q17.4434,8.2348828125,18.3164,8.7094928125Q19.1895,9.1782428125,19.6758,10.0278528125Q20.1621,10.8774618125,20.1621,12.0317578125L20.1621,13.8071528125L13.9688,13.8071528125L13.9688,14.6860528125Q13.9688,15.7114428125,14.5957,16.3149628125Q15.2285,16.9126128125,16.2773,16.9126128125Q17.1738,16.9126128125,17.7598,16.5844928125Q18.3457,16.2505128125,18.4688,15.6938628125L20.0918,15.6938628125Q19.9277,16.9184728125,18.8848,17.6391828125Q17.8418,18.3598828125,16.2773,18.3598828125ZM13.9688,12.3598828125L18.5801,12.3598828125L18.5801,11.9028518125Q18.5801,10.8423048125,17.9766,10.2622228125Q17.373,9.6821528125,16.2773,9.6821528125Q15.1758,9.6821528125,14.5723,10.2622228125Q13.9688,10.8423048125,13.9688,11.9028518125L13.9688,12.3598828125ZM24.6504,21.7348828125L24.6504,20.2876128125L27.4395,20.2876128125Q28.2832,20.2876128125,28.7695,19.8071528125Q29.2559,19.3325428125,29.2559,18.5180828125L29.2559,17.6157428125L29.291,15.9926928125L29.2383,15.9926928125Q29.0918,16.9243328125,28.3887,17.4282428125Q27.6914,17.9321528125,26.6309,17.9321528125Q25.0957,17.9321528125,24.2109,16.9301928125Q23.332,15.928242812499999,23.332,14.1821528125L23.332,12.0258988125Q23.332,10.2798028125,24.2109,9.2602728125Q25.0957,8.2348828125,26.6309,8.2348828125Q27.6914,8.2348828125,28.3887,8.7622228125Q29.0918,9.2837128125,29.2383,10.1977728125L29.2734,10.1977728125L29.2734,8.2348828125L30.8789,8.2348828125L30.8789,18.4067628125Q30.8789,19.9419128125,29.9473,20.8384028125Q29.0215,21.7348828125,27.4219,21.7348828125L24.6504,21.7348828125ZM27.1113,16.4848828125Q28.1191,16.4848828125,28.6934,15.8403528125Q29.2734,15.1958228125,29.2734,14.0532428125L29.2734,12.1137898125Q29.2734,10.9712118125,28.6934,10.3266828125Q28.1191,9.6821528125,27.1113,9.6821528125Q26.0859,9.6821528125,25.5176,10.2915228125Q24.9551,10.9008988125,24.9551,11.9321488125L24.9551,14.2348828125Q24.9551,15.2661328125,25.5176,15.8755128125Q26.0859,16.4848828125,27.1113,16.4848828125ZM34.4238,18.3598828125L34.4238,5.2348828125L41.9824,5.2348828125L41.9824,6.6821528125L36.0293,6.6821528125L36.0293,10.8598828125L41.3555,10.8598828125L41.3555,12.3071488125L36.0293,12.3071488125L36.0293,16.9126128125L41.9824,16.9126128125L41.9824,18.3598828125L34.4238,18.3598828125ZM44.4023,18.3598828125L47.9121,13.1626128125L44.6133,8.2348828125L46.5234,8.2348828125L48.4863,11.3813676825Q48.6094,11.5864458125,48.7266,11.8266798125Q48.8438,12.0669148125,48.9199,12.2133988125Q48.9727,12.0669148125,49.0898,11.8266798125Q49.207,11.5864458125,49.3301,11.3813676825L51.293,8.2348828125L53.2031,8.2348828125L49.9102,13.1801928125L53.4023,18.3598828125L51.4922,18.3598828125L49.3652,15.0551928125Q49.2422,14.8559728125,49.125,14.5923028125Q49.0078,14.3227728125,48.9199,14.1587128125Q48.8438,14.3227728125,48.709,14.5923028125Q48.5742,14.8559728125,48.4336,15.0551928125L46.3066,18.3598828125L44.4023,18.3598828125ZM56.0332,21.7348828125L56.0332,8.2348828125L57.6504,8.2348828125L57.6504,10.4145708125L57.668,10.4145708125Q57.7969,9.3891828125,58.5117,8.8149628125Q59.2324,8.2348828125,60.3516,8.2348828125Q61.8457,8.2348828125,62.7246,9.2016828125Q63.6094,10.1684728125,63.6094,11.8559768125L63.6094,14.7212128125Q63.6094,16.4087128125,62.7246,17.3872228125Q61.8457,18.3598828125,60.3516,18.3598828125Q59.2324,18.3598828125,58.5117,17.7973828125Q57.7969,17.2348828125,57.668,16.2680828125L57.6152,16.2680828125L57.6504,18.6645728125L57.6504,21.7348828125L56.0332,21.7348828125ZM59.8125,16.9126128125Q60.8379,16.9126128125,61.4121,16.3911328125Q61.9863,15.8637928125,61.9863,14.6919128125L61.9863,11.9028518125Q61.9863,10.7133988125,61.4121,10.1977728125Q60.8379,9.6821528125,59.8125,9.6821528125Q58.8223,9.6821528125,58.2363,10.2973828125Q57.6504,10.9067578125,57.6504,11.9848828125L57.6504,14.6098828125Q57.6504,15.6880128125,58.2363,16.3032428125Q58.8223,16.9126128125,59.8125,16.9126128125ZM70.6523,10.8598828125Q69.9141,10.8598828125,69.5332,10.5083208125Q69.1582,10.1509028125,69.1582,9.5473828125Q69.1582,8.9438628125,69.5332,8.5923028125Q69.9141,8.2348828125,70.6523,8.2348828125Q71.3906,8.2348828125,71.7656,8.5923028125Q72.1465,8.9438628125,72.1465,9.5473828125Q72.1465,10.1509028125,71.7656,10.5083208125Q71.3906,10.8598828125,70.6523,10.8598828125ZM70.6523,18.3598828125Q69.9141,18.3598828125,69.5332,18.0083228125Q69.1582,17.6509028125,69.1582,17.0473828125Q69.1582,16.4438628125,69.5332,16.0923028125Q69.9141,15.7348828125,70.6523,15.7348828125Q71.3906,15.7348828125,71.7656,16.0923028125Q72.1465,16.4438628125,72.1465,17.0473828125Q72.1465,17.6509028125,71.7656,18.0083228125Q71.3906,18.3598828125,70.6523,18.3598828125ZM86.8398,19.8182128125L91.8118,6.5473828125L93.1426,6.5473828125L88.1706,19.8182128125L86.8398,19.8182128125ZM97.1211,19.8182128125L97.1211,6.6932128125L100.548,6.6932128125L100.548,7.8188628125L98.3789,7.8188628125L98.3789,18.6925628125L100.548,18.6925628125L100.548,19.8182128125L97.1211,19.8182128125ZM106.236,18.3598828125Q105.046,18.3598828125,104.344,17.6762928125Q103.647,16.9926928125,103.647,15.8852728125Q103.647,15.1515528125,103.966,14.6092328125Q104.29,14.0623528125,104.864,13.7524628125Q105.438,13.4425628125,106.181,13.4425628125L108.56,13.4425628125L108.56,12.9184728125Q108.56,11.6105348125,106.924,11.6105348125Q106.195,11.6105348125,105.743,11.8429568125Q105.297,12.0708208125,105.27,12.4855328125L104.012,12.4855328125Q104.08,11.6196488125,104.855,11.0545448125Q105.634,10.4848838125,106.924,10.4848838125Q108.323,10.4848838125,109.07,11.1593628125Q109.822,11.8338418125,109.822,13.0460828125L109.822,18.3598828125L108.574,18.3598828125L108.574,16.7785028125L108.546,16.7785028125Q108.432,17.5122228125,107.831,17.9360528125Q107.229,18.3598828125,106.236,18.3598828125ZM106.546,17.2342328125Q107.466,17.2342328125,108.013,16.8012928125Q108.56,16.3637928125,108.56,15.616392812499999L108.56,14.5682128125L106.322,14.5682128125Q105.702,14.5682128125,105.315,14.9282428125Q104.932,15.2882728125,104.932,15.8898328125Q104.932,16.5141828125,105.361,16.874202812500002Q105.789,17.2342328125,106.546,17.2342328125ZM115.815,18.3598828125Q114.945,18.3598828125,114.384,17.9315028125Q113.828,17.4985528125,113.728,16.7329328125L113.714,16.7329328125L113.714,18.3598828125L112.456,18.3598828125L112.456,8.1515528125L113.714,8.1515528125L113.714,10.4119668125L113.687,12.1801958125L113.701,12.1801958125Q113.814,11.4008989125,114.38,10.9451698125Q114.945,10.4848838125,115.815,10.4848838125Q116.977,10.4848838125,117.661,11.2459508125Q118.349,12.0024618125,118.349,13.3149628125L118.349,15.5434728125Q118.349,16.8423028125,117.661,17.603372812499998Q116.977,18.3598828125,115.815,18.3598828125ZM115.396,17.2342328125Q116.193,17.2342328125,116.64,16.8286328125Q117.087,16.4184728125,117.087,15.5070228125L117.087,13.3377528125Q117.087,12.4126128125,116.64,12.0115758125Q116.193,11.6105348125,115.396,11.6105348125Q114.626,11.6105348125,114.17,12.0890498125Q113.714,12.5630128125,113.714,13.4015528125L113.714,15.4432128125Q113.714,16.2817628125,114.17,16.7602728125Q114.626,17.2342328125,115.396,17.2342328125ZM123.936,18.3598828125Q122.537,18.3598828125,121.694,17.5851428125Q120.855,16.8104028125,120.855,15.4568928125L120.855,13.3878828125Q120.855,12.0343628125,121.694,11.2596228125Q122.537,10.4848838125,123.936,10.4848838125Q125.267,10.4848838125,126.083,11.1912638125Q126.903,11.8976438125,126.949,13.1144428125L125.686,13.1144428125Q125.645,12.3898328125,125.18,12.0024618125Q124.72,11.6105348125,123.936,11.6105348125Q123.111,11.6105348125,122.615,12.0708208125Q122.118,12.5311028125,122.118,13.3787628125L122.118,15.4523328125Q122.118,16.299982812499998,122.615,16.7693928125Q123.111,17.2342328125,123.936,17.2342328125Q124.72,17.2342328125,125.18,16.8377528125Q125.645,16.436702812500002,125.686,15.7212128125L126.949,15.7212128125Q126.903,16.9425628125,126.083,17.6535028125Q125.267,18.3598828125,123.936,18.3598828125ZM130.184,19.8182128125L130.184,18.6925628125L132.354,18.6925628125L132.354,7.8188628125L130.184,7.8188628125L130.184,6.6932128125L133.611,6.6932128125L133.611,19.8182128125L130.184,19.8182128125ZM137.59,19.8182128125L142.562,6.5473828125L143.893,6.5473828125L138.921,19.8182128125L137.59,19.8182128125Z" fill="#000000" fill-opacity="1" style="mix-blend-mode:passthrough"/></g></g></svg>