<svg xmlns="http://www.w3.org/2000/svg" xmlns:xlink="http://www.w3.org/1999/xlink" fill="none" version="1.1" width="1006" height="360" viewBox="0 0 1006 360"><g style="mix-blend-mode:passthrough"><g style="mix-blend-mode:passthrough"><rect x="5" y="0" width="802" height="50" rx="5" fill="#000000" fill-opacity="1" style="mix-blend-mode:passthrough"/></g><g style="mix-blend-mode:passthrough"><path d="M0 50C0 50 0 50 0 50L1006 50C1006 50 1006 50 1006 50L1006 298C1006 303.52284749830795 1001.5228474983079 308 996 308L10 308C4.477152501692067 308 0 303.52284749830795 0 298Z" fill="#FFFFFF" fill-opacity="1" style="mix-blend-mode:passthrough"/></g><g style="mix-blend-mode:passthrough"><path d="M0 10C9.81054792658386e-16 4.477152501692065 4.477152501692067 0 10 0L200 0C200 0 200 0 200 0L200 50C200 50 200 50 200 50L0 50C0 50 0 50 0 50Z" fill="#000000" fill-opacity="1" style="mix-blend-mode:passthrough"/></g><g style="mix-blend-mode:passthrough"><rect x="0" y="50" width="200" height="50" rx="0" fill="#FFFFFF" fill-opacity="1" style="mix-blend-mode:passthrough"/></g><g style="mix-blend-mode:passthrough"><rect x="0" y="102" width="200" height="50" rx="0" fill="#FFFFFF" fill-opacity="1" style="mix-blend-mode:passthrough"/></g><g style="mix-blend-mode:passthrough"><rect x="0" y="154" width="200" height="50" rx="0" fill="#FFFFFF" fill-opacity="1" style="mix-blend-mode:passthrough"/></g><g style="mix-blend-mode:passthrough"><rect x="0" y="206" width="200" height="50" rx="0" fill="#FFFFFF" fill-opacity="1" style="mix-blend-mode:passthrough"/></g><g style="mix-blend-mode:passthrough"><rect x="0" y="258" width="200" height="50" rx="0" fill="#FFFFFF" fill-opacity="1" style="mix-blend-mode:passthrough"/></g><g style="mix-blend-mode:passthrough"><rect x="0" y="310" width="200" height="50" rx="0" fill="#FFFFFF" fill-opacity="1" style="mix-blend-mode:passthrough"/></g><g style="mix-blend-mode:passthrough"><path d="M95.4238,17.976907C94.9961,18.75034,94.2227,19.86948,93.6074,20.58433L94.709,21.0062C95.3535,20.34409,96.1621,19.37144,96.8301,18.43394L95.4238,17.976907ZM85.25781,18.58628C86.01367,19.33628,86.82227,20.42027,87.16211,21.13511L88.36914,20.52573C88.01172,19.81089,87.16211,18.76792,86.38867,18.05308L85.25781,18.58628ZM90.2793,17.66636L90.2793,21.223L83.29492,21.223L83.29492,22.46519L89.19531,22.46519C87.71875,24.04136,85.32812,25.353859999999997,82.949219,25.93394C83.23633,26.21519,83.61719,26.73667,83.81641,27.094099999999997C86.26562,26.34409,88.69141,24.867530000000002,90.2793,23.01011L90.2793,26.15659L91.62695,26.15659L91.62695,23.34995C93.9121,24.52769,96.6133,26.06284,98.0547,27.0355L98.7227,25.87534C97.2812,24.97886,94.709,23.59019,92.4766,22.46519L98.793,22.46519L98.793,21.223L91.62695,21.223L91.62695,17.66636L90.2793,17.66636ZM90.33203,26.473C90.24414,27.2992,90.13281,27.973,89.97461,28.5882L83.20117,28.5882L83.20117,29.848L89.48828,29.848C88.58594,31.5589,86.76953,32.6898,82.826172,33.305C83.07812,33.6156,83.41797,34.1957,83.5293,34.5589C88.01172,33.762100000000004,90.00977,32.250299999999996,90.95898,29.9769C92.3652,32.5433,94.8496,33.9964,98.4883,34.5589C98.6465,34.1781,99.0273,33.598,99.332,33.2875C96.0566,32.9066,93.6426,31.758200000000002,92.3301,29.848L98.8457,29.848L98.8457,28.5882L91.41016,28.5882C91.55664,27.8089,91.66211,27.1585,91.75586,26.473L90.33203,26.473ZM111.4258,18.598L111.4258,24.93784L112.668,24.93784L112.668,18.598L111.4258,18.598ZM114.7949,17.713235L114.7949,26.05113C114.7949,26.2855,114.72460000000001,26.36167,114.4316,26.37925C114.16210000000001,26.39683,113.2656,26.39683,112.2402,26.36167C112.4336,26.71909,112.6152,27.2406,112.6855,27.598C113.9688,27.598,114.8477,27.580399999999997,115.38669999999999,27.369500000000002C115.92580000000001,27.170299999999997,116.0723,26.824559999999998,116.0723,26.0687L116.0723,17.713235L114.7949,17.713235ZM106.9844,19.723L106.9844,22.27183L104.752,22.27183L104.752,22.1605L104.752,19.723L106.9844,19.723ZM101.2012,22.27183L101.2012,23.473L103.3984,23.473C103.1992,24.639020000000002,102.6074,25.822609999999997,101.0605,26.742530000000002C101.3125,26.918309999999998,101.7637,27.4339,101.9395,27.7035C103.7793,26.555030000000002,104.459,24.99058,104.6582,23.473L106.9844,23.473L106.9844,27.223L108.2617,27.223L108.2617,23.473L110.3125,23.473L110.3125,22.27183L108.2617,22.27183L108.2617,19.723L109.9316,19.723L109.9316,18.53941L101.7988,18.53941L101.7988,19.723L103.5098,19.723L103.5098,22.14292L103.5098,22.27183L101.2012,22.27183ZM108.4023,26.88316L108.4023,28.9867L102.7129,28.9867L102.7129,30.223L108.4023,30.223L108.4023,32.7132L100.8438,32.7132L100.8438,33.973L117.1328,33.973L117.1328,32.7132L109.791,32.7132L109.791,30.223L115.2637,30.223L115.2637,28.9867L109.791,28.9867L109.791,26.88316L108.4023,26.88316Z" fill="#FFFFFF" fill-opacity="1" style="mix-blend-mode:passthrough"/></g><g style="mix-blend-mode:passthrough"><path d="M73.33203,74.75058Q74.82617,74.94394,75.6348,75.79355Q76.4492,76.6373,76.4492,77.9498Q76.4492,79.8775,74.99609,80.91460000000001Q73.54883,81.9459,70.84766,81.9459L66.34766,81.9459L66.34766,68.03573L70.79492,68.03573Q73.19141,68.03573,74.48633,68.96152Q75.7812,69.8873,75.7812,71.59823Q75.7812,72.75253000000001,75.1426,73.53769Q74.50391,74.31698,73.33203,74.63925L73.33203,74.75058ZM68.38672,69.92245L68.38672,73.7955L70.56055,73.7955Q72.03711,73.7955,72.8457,73.25644Q73.66016,72.71152000000001,73.66016,71.7623Q73.66016,70.87753000000001,72.8457,70.40292Q72.03711,69.92245,70.54297,69.92245L68.38672,69.92245ZM70.5957,80.0592Q72.41797,80.0592,73.37891,79.4674Q74.33984,78.8697,74.33984,77.774Q74.33984,76.7662,73.37891,76.22714Q72.41797,75.68222,70.61328,75.68222L68.38672,75.68222L68.38672,80.0592L70.5957,80.0592ZM82.7363,82.1978Q81.3359,82.1978,80.2871,81.5709Q79.2441,80.9381,78.6875,79.7603Q78.1309,78.5826,78.1309,77.0006Q78.1309,75.41269,78.6875,74.24667Q79.2441,73.0748,80.2871,72.43612Q81.3359,71.79745,82.7363,71.79745Q84.125,71.79745,85.168,72.43612Q86.2109,73.0748,86.7793,74.24667Q87.3477,75.41269,87.3477,77.0006Q87.3477,78.5826,86.7793,79.7603Q86.2109,80.9381,85.168,81.5709Q84.125,82.1978,82.7363,82.1978ZM82.7363,80.3639Q83.9434,80.3639,84.6465,79.45570000000001Q85.3496,78.5475,85.3496,77.0006Q85.3496,75.44784,84.6465,74.55136Q83.9434,73.64902000000001,82.7363,73.64902000000001Q81.5527,73.64902000000001,80.8496,74.55136Q80.1465,75.44784,80.1465,77.0006Q80.1465,78.5475,80.8496,79.45570000000001Q81.5527,80.3639,82.7363,80.3639ZM93.6113,82.1978Q92.2109,82.1978,91.1621,81.5709Q90.1191,80.9381,89.5625,79.7603Q89.0059,78.5826,89.0059,77.0006Q89.0059,75.41269,89.5625,74.24667Q90.1191,73.0748,91.1621,72.43612Q92.2109,71.79745,93.6113,71.79745Q95,71.79745,96.043,72.43612Q97.08590000000001,73.0748,97.6543,74.24667Q98.2227,75.41269,98.2227,77.0006Q98.2227,78.5826,97.6543,79.7603Q97.08590000000001,80.9381,96.043,81.5709Q95,82.1978,93.6113,82.1978ZM93.6113,80.3639Q94.8184,80.3639,95.5215,79.45570000000001Q96.2246,78.5475,96.2246,77.0006Q96.2246,75.44784,95.5215,74.55136Q94.8184,73.64902000000001,93.6113,73.64902000000001Q92.4277,73.64902000000001,91.7246,74.55136Q91.0215,75.44784,91.0215,77.0006Q91.0215,78.5475,91.7246,79.45570000000001Q92.4277,80.3639,93.6113,80.3639ZM100.34960000000001,68.03573L102.3125,68.03573L102.3125,79.5201Q102.3125,80.2174,103.0156,80.2174L103.4961,80.2174L103.4961,82.0748L102.48830000000001,82.0748Q101.4277,82.0748,100.8887,81.5709Q100.34960000000001,81.06700000000001,100.34960000000001,80.0943L100.34960000000001,68.03573ZM113.68549999999999,76.2037Q113.68549999999999,77.05330000000001,113.53909999999999,77.6451L106.78909999999999,77.6451Q106.93549999999999,78.9752,107.6445,79.7369Q108.3535,80.4928,109.56049999999999,80.4928Q110.2637,80.4928,110.87299999999999,80.1236Q111.48830000000001,79.75450000000001,111.9043,79.0689L113.4863,79.9478Q112.8945,81.0318,111.9043,81.6178Q110.91409999999999,82.1978,109.56049999999999,82.1978Q108.084,82.1978,107.0059,81.5709Q105.9277,80.9381,105.3418,79.7779Q104.7559,78.6178,104.7559,77.05330000000001Q104.7559,75.44784,105.3125,74.26425Q105.8691,73.0748,106.91210000000001,72.43612Q107.96090000000001,71.79745,109.3613,71.79745Q111.3594,71.79745,112.5195,72.98691Q113.68549999999999,74.1705,113.68549999999999,76.2037ZM111.6875,75.95175Q111.6875,74.83847,111.0547,74.17636Q110.4277,73.50839,109.3613,73.50839Q108.3711,73.50839,107.7207,74.14706Q107.0762,74.78573,106.8594,75.95175L111.6875,75.95175ZM118.3672,82.1978Q116.94919999999999,82.1978,116.09960000000001,81.44200000000001Q115.2559,80.6861,115.2559,79.4088Q115.2559,77.8092,116.5156,76.97128000000001Q117.77539999999999,76.13339,120.0957,76.13339L121.3555,76.13339L121.3555,75.50644Q121.3555,74.58652000000001,120.8047,74.05917Q120.2598,73.52597,119.3398,73.52597Q118.1562,73.52597,117.03710000000001,74.58652000000001L115.8125,73.43222Q117.3418,71.79745,119.5039,71.79745Q121.25,71.79745,122.2812,72.77011Q123.3184,73.74277000000001,123.3184,75.35995L123.3184,81.9459L121.3555,81.9459L121.3555,80.6334L121.25,80.6334Q120.8691,81.3541,120.0781,81.776Q119.28710000000001,82.1978,118.3672,82.1978ZM118.83590000000001,80.4928Q119.416,80.4928,119.9961,80.2584Q120.582,80.024,120.9688,79.5318Q121.3555,79.0338,121.3555,78.3131L121.3555,77.8443L120.4062,77.8443Q118.80080000000001,77.8443,118.0332,78.1959Q117.2715,78.5475,117.2715,79.2857Q117.2715,79.8248,117.6934,80.1588Q118.1152,80.4928,118.83590000000001,80.4928ZM125.84960000000001,81.9459L125.84960000000001,72.04941L127.8125,72.04941L127.8125,73.41464L127.90039999999999,73.41464Q128.3516,72.67636,129.14839999999998,72.23691Q129.9512,71.79745,130.8535,71.79745Q132.4531,71.79745,133.3438,72.79941Q134.2344,73.7955,134.2344,75.61191L134.2344,81.9459L132.2773,81.9459L132.2773,75.96933Q132.2773,74.90878000000001,131.69729999999998,74.27011Q131.123,73.63144,130.2207,73.63144Q129.14260000000002,73.63144,128.4746,74.3287Q127.8125,75.02011,127.8125,76.16855L127.8125,81.9459L125.84960000000001,81.9459Z" fill="#000000" fill-opacity="1" style="mix-blend-mode:passthrough"/></g><g style="mix-blend-mode:passthrough"><path d="M86.38672,133.9459L84.34766,133.9459L84.34766,120.03573L86.32812,120.03573L93.0254,130.2017L93.1133,130.2017L93.1133,120.03573L95.1523,120.03573L95.1523,133.9459L93.2246,133.9459L86.49219,123.77987L86.38672,123.77987L86.38672,133.9459ZM106.0215,124.04941L106.0215,133.9459L104.0586,133.9459L104.0586,132.6158L103.9531,132.6158Q103.502,133.3365,102.6992,133.7701Q101.9023,134.1978,101,134.1978Q99.418,134.1978,98.5156,133.2076Q97.6133,132.2174,97.6133,130.4185L97.6133,124.04941L99.5938,124.04941L99.5938,130.0435Q99.5938,131.1041,100.168,131.7545Q100.748,132.399,101.6504,132.399Q102.7285,132.399,103.3906,131.7076Q104.0586,131.0162,104.0586,129.8619L104.0586,124.04941L106.0215,124.04941ZM108.5996,120.03573L110.5625,120.03573L110.5625,131.5201Q110.5625,132.2174,111.2656,132.2174L111.7461,132.2174L111.7461,134.0748L110.7383,134.0748Q109.6777,134.0748,109.1387,133.5709Q108.5996,133.067,108.5996,132.0943L108.5996,120.03573ZM113.4746,120.03573L115.4375,120.03573L115.4375,131.5201Q115.4375,132.2174,116.1406,132.2174L116.6211,132.2174L116.6211,134.0748L115.61330000000001,134.0748Q114.5527,134.0748,114.0137,133.5709Q113.4746,133.067,113.4746,132.0943L113.4746,120.03573Z" fill="#000000" fill-opacity="1" style="mix-blend-mode:passthrough"/></g><g style="mix-blend-mode:passthrough"><path d="M62.01562,184.2935Q63.45703,184.2935,64.29492,183.3326Q65.13281,182.3658,65.13281,180.70761L65.13281,172.03573L67.1836,172.03573L67.1836,180.83652Q67.1836,182.47129999999999,66.5508,183.69Q65.9238,184.9029,64.75195,185.5533Q63.58008,186.1978,62.01562,186.1978Q60.45117,186.1978,59.2793,185.5533Q58.10742,184.9029,57.47461,183.69Q56.84766,182.47129999999999,56.84766,180.83652L56.84766,172.03573L58.88672,172.03573L58.88672,180.6373Q58.88672,182.3131,59.73047,183.3033Q60.57422,184.2935,62.01562,184.2935ZM69.8496,185.9459L69.8496,176.04941L71.8125,176.04941L71.8125,177.41464L71.9004,177.41464Q72.3516,176.67636,73.1484,176.23691Q73.9512,175.79745,74.8535,175.79745Q76.4531,175.79745,77.3438,176.79941Q78.2344,177.7955,78.2344,179.61191L78.2344,185.9459L76.2773,185.9459L76.2773,179.96933Q76.2773,178.90878,75.6973,178.27011Q75.123,177.63144,74.2207,177.63144Q73.1426,177.63144,72.4746,178.3287Q71.8125,179.02011,71.8125,180.16855L71.8125,185.9459L69.8496,185.9459ZM89.4023,185.9459L87.4395,185.9459L87.4395,184.6158L87.3281,184.6158Q86.8594,185.3717,86.1211,185.7877Q85.3887,186.1978,84.4688,186.1978Q83.2441,186.1978,82.2891,185.524Q81.334,184.8502,80.7949,183.6432Q80.2559,182.4361,80.2559,180.88925Q80.2559,179.39511,80.7832,178.23495Q81.3164,177.0748,82.2715,176.43612Q83.2266,175.79745,84.4336,175.79745Q85.3125,175.79745,86.0566,176.21933Q86.8066,176.6412,87.3281,177.39706L87.4395,177.39706L87.4395,172.03573L89.4023,172.03573L89.4023,185.9459ZM87.4922,181.0006Q87.4922,179.52402,86.7715,178.60409Q86.0508,177.68417,84.9023,177.68417Q83.7305,177.68417,82.998,178.60409Q82.2715,179.52402,82.2715,181.0006Q82.2715,181.9674,82.6113,182.7232Q82.957,183.4791,83.5664,183.8951Q84.1816,184.3111,84.9551,184.3111Q86.0859,184.3111,86.7891,183.3912Q87.4922,182.47129999999999,87.4922,181.0006ZM100.43549999999999,180.2037Q100.43549999999999,181.0533,100.28909999999999,181.6451L93.53909999999999,181.6451Q93.68549999999999,182.9752,94.3945,183.7369Q95.1035,184.4928,96.31049999999999,184.4928Q97.0137,184.4928,97.62299999999999,184.1236Q98.23830000000001,183.7545,98.6543,183.06889999999999L100.2363,183.9478Q99.6445,185.0318,98.6543,185.6178Q97.66409999999999,186.1978,96.31049999999999,186.1978Q94.834,186.1978,93.7559,185.5709Q92.6777,184.9381,92.0918,183.7779Q91.5059,182.6178,91.5059,181.0533Q91.5059,179.44783999999999,92.0625,178.26425Q92.6191,177.0748,93.66210000000001,176.43612Q94.71090000000001,175.79745,96.1113,175.79745Q98.1094,175.79745,99.2695,176.98691Q100.43549999999999,178.1705,100.43549999999999,180.2037ZM98.4375,179.95175Q98.4375,178.83847,97.8047,178.17636Q97.1777,177.50839,96.1113,177.50839Q95.1211,177.50839,94.4707,178.14706Q93.8262,178.78573,93.6094,179.95175L98.4375,179.95175ZM106.541,173.36581Q105.8789,173.36581,105.4453,173.76425Q105.01169999999999,174.15683,105.01169999999999,174.91269L105.01169999999999,176.04941L107.60159999999999,176.04941L107.60159999999999,177.90097L105.01169999999999,177.90097L105.01169999999999,185.9459L103.0312,185.9459L103.0312,177.90097L101.5898,177.90097L101.5898,176.04941L103.0312,176.04941L103.0312,174.8248Q103.0312,173.26034,103.85159999999999,172.39902Q104.6719,171.531828,106.1074,171.531828Q107.0098,171.531828,107.6777,171.783781L107.6777,173.60019Q107.0625,173.36581,106.541,173.36581ZM111.6562,172.79159Q111.6562,173.36581,111.3047,173.71152Q110.9531,174.05136,110.3789,174.05136Q109.8164,174.05136,109.4824,173.71152Q109.1543,173.36581,109.1543,172.79159Q109.1543,172.21152,109.4824,171.871672Q109.8164,171.531828,110.3789,171.531828Q110.9531,171.531828,111.3047,171.871672Q111.6562,172.21152,111.6562,172.79159ZM111.38669999999999,176.04941L111.38669999999999,185.9459L109.4238,185.9459L109.4238,176.04941L111.38669999999999,176.04941ZM114.09960000000001,185.9459L114.09960000000001,176.04941L116.0625,176.04941L116.0625,177.41464L116.15039999999999,177.41464Q116.60159999999999,176.67636,117.39840000000001,176.23691Q118.2012,175.79745,119.1035,175.79745Q120.7031,175.79745,121.5938,176.79941Q122.4844,177.7955,122.4844,179.61191L122.4844,185.9459L120.5273,185.9459L120.5273,179.96933Q120.5273,178.90878,119.9473,178.27011Q119.37299999999999,177.63144,118.4707,177.63144Q117.3926,177.63144,116.72460000000001,178.3287Q116.0625,179.02011,116.0625,180.16855L116.0625,185.9459L114.09960000000001,185.9459ZM133.4355,180.2037Q133.4355,181.0533,133.28910000000002,181.6451L126.5391,181.6451Q126.6855,182.9752,127.3945,183.7369Q128.1035,184.4928,129.3105,184.4928Q130.0137,184.4928,130.623,184.1236Q131.23829999999998,183.7545,131.6543,183.06889999999999L133.2363,183.9478Q132.6445,185.0318,131.6543,185.6178Q130.66410000000002,186.1978,129.3105,186.1978Q127.834,186.1978,126.7559,185.5709Q125.6777,184.9381,125.0918,183.7779Q124.5059,182.6178,124.5059,181.0533Q124.5059,179.44783999999999,125.0625,178.26425Q125.6191,177.0748,126.6621,176.43612Q127.7109,175.79745,129.1113,175.79745Q131.1094,175.79745,132.2695,176.98691Q133.4355,178.1705,133.4355,180.2037ZM131.4375,179.95175Q131.4375,178.83847,130.8047,178.17636Q130.17770000000002,177.50839,129.1113,177.50839Q128.1211,177.50839,127.4707,178.14706Q126.8262,178.78573,126.6094,179.95175L131.4375,179.95175ZM144.1523,185.9459L142.1895,185.9459L142.1895,184.6158L142.0781,184.6158Q141.6094,185.3717,140.8711,185.7877Q140.1387,186.1978,139.2188,186.1978Q137.9941,186.1978,137.03910000000002,185.524Q136.084,184.8502,135.54489999999998,183.6432Q135.0059,182.4361,135.0059,180.88925Q135.0059,179.39511,135.5332,178.23495Q136.0664,177.0748,137.0215,176.43612Q137.97660000000002,175.79745,139.1836,175.79745Q140.0625,175.79745,140.8066,176.21933Q141.5566,176.6412,142.0781,177.39706L142.1895,177.39706L142.1895,172.03573L144.1523,172.03573L144.1523,185.9459ZM142.2422,181.0006Q142.2422,179.52402,141.5215,178.60409Q140.80079999999998,177.68417,139.6523,177.68417Q138.4805,177.68417,137.748,178.60409Q137.0215,179.52402,137.0215,181.0006Q137.0215,181.9674,137.3613,182.7232Q137.707,183.4791,138.3164,183.8951Q138.9316,184.3111,139.70510000000002,184.3111Q140.83589999999998,184.3111,141.53910000000002,183.3912Q142.2422,182.47129999999999,142.2422,181.0006Z" fill="#000000" fill-opacity="1" style="mix-blend-mode:passthrough"/></g><g style="mix-blend-mode:passthrough"><path d="M68.88672,237.9459L66.84766,237.9459L66.84766,224.03573L68.82812,224.03573L75.5254,234.2017L75.6133,234.2017L75.6133,224.03573L77.6523,224.03573L77.6523,237.9459L75.7246,237.9459L68.99219,227.77987L68.88672,227.77987L68.88672,237.9459ZM88.5215,228.04941L88.5215,237.9459L86.5586,237.9459L86.5586,236.6158L86.4531,236.6158Q86.002,237.3365,85.1992,237.7701Q84.4023,238.1978,83.5,238.1978Q81.918,238.1978,81.0156,237.2076Q80.1133,236.2174,80.1133,234.4185L80.1133,228.04941L82.0938,228.04941L82.0938,234.0435Q82.0938,235.1041,82.668,235.7545Q83.248,236.399,84.1504,236.399Q85.2285,236.399,85.8906,235.7076Q86.5586,235.0162,86.5586,233.8619L86.5586,228.04941L88.5215,228.04941ZM91.0996,237.9459L91.0996,228.04941L93.0625,228.04941L93.0625,229.39706L93.1504,229.39706Q93.6016,228.6412,94.3223,228.21933Q95.043,227.79745,95.8691,227.79745Q96.7891,227.79745,97.4629,228.28378Q98.13669999999999,228.77011,98.5176,229.66659L98.6055,229.66659Q99.1094,228.77011,99.9238,228.28378Q100.7441,227.79745,101.793,227.79745Q103.3047,227.79745,104.14840000000001,228.79941Q104.9922,229.7955,104.9922,231.59433L104.9922,237.9459L103.0352,237.9459L103.0352,231.95175Q103.0352,230.8912,102.53710000000001,230.25253Q102.0449,229.61386,101.21289999999999,229.61386Q100.2051,229.61386,99.6191,230.29941Q99.03909999999999,230.97909,99.03909999999999,232.13339L99.03909999999999,237.9459L97.0586,237.9459L97.0586,231.95175Q97.0586,230.8912,96.5605,230.25253Q96.0684,229.61386,95.2363,229.61386Q94.2461,229.61386,93.6543,230.29941Q93.0625,230.97909,93.0625,232.13339L93.0625,237.9459L91.0996,237.9459ZM107.22460000000001,237.9459L107.22460000000001,224.03573L109.1875,224.03573L109.1875,229.37948L109.27539999999999,229.37948Q109.7969,228.6412,110.5703,228.23105Q111.3438,227.81503,112.2285,227.81503Q113.43549999999999,227.81503,114.3672,228.44784Q115.3047,229.0748,115.8262,230.21737Q116.3477,231.35995,116.3477,232.83652Q116.3477,234.401,115.8262,235.6256Q115.3047,236.8502,114.3672,237.524Q113.43549999999999,238.1978,112.2285,238.1978Q111.291,238.1978,110.5352,237.7877Q109.7793,237.3717,109.27539999999999,236.6158L109.1875,236.6158L109.1875,237.9459L107.22460000000001,237.9459ZM109.1113,233.0006Q109.1113,234.47129999999999,109.8203,235.3912Q110.5352,236.3111,111.6543,236.3111Q112.83789999999999,236.3111,113.582,235.3912Q114.332,234.47129999999999,114.332,233.0006Q114.332,232.0455,113.99799999999999,231.28964Q113.6699,230.53378,113.0723,230.11191Q112.4805,229.68417,111.72460000000001,229.68417Q110.9688,229.68417,110.3711,230.11191Q109.7793,230.53378,109.4453,231.28964Q109.1113,232.0455,109.1113,233.0006ZM126.93549999999999,232.2037Q126.93549999999999,233.0533,126.78909999999999,233.6451L120.03909999999999,233.6451Q120.18549999999999,234.9752,120.8945,235.7369Q121.6035,236.4928,122.81049999999999,236.4928Q123.5137,236.4928,124.12299999999999,236.1236Q124.73830000000001,235.7545,125.1543,235.06889999999999L126.7363,235.9478Q126.1445,237.0318,125.1543,237.6178Q124.16409999999999,238.1978,122.81049999999999,238.1978Q121.334,238.1978,120.2559,237.5709Q119.1777,236.9381,118.5918,235.7779Q118.0059,234.6178,118.0059,233.0533Q118.0059,231.44783999999999,118.5625,230.26425Q119.1191,229.0748,120.16210000000001,228.43612Q121.21090000000001,227.79745,122.6113,227.79745Q124.6094,227.79745,125.7695,228.98691Q126.93549999999999,230.1705,126.93549999999999,232.2037ZM124.9375,231.95175Q124.9375,230.83847,124.3047,230.17636Q123.6777,229.50839,122.6113,229.50839Q121.6211,229.50839,120.9707,230.14706Q120.3262,230.78573,120.1094,231.95175L124.9375,231.95175ZM129.00979999999998,237.9459L128.9746,228.04941L130.99020000000002,228.04941L130.99020000000002,229.90097L131.0781,229.90097Q131.6582,228.89316,132.5898,228.34823Q133.5273,227.79745,134.752,227.79745L134.85739999999998,227.79745L134.85739999999998,229.83066L134.69920000000002,229.83066Q132.9355,229.83066,131.9629,230.58652Q130.99020000000002,231.34237,130.99020000000002,232.54941L130.99020000000002,237.9459L129.00979999999998,237.9459Z" fill="#000000" fill-opacity="1" style="mix-blend-mode:passthrough"/></g><g style="mix-blend-mode:passthrough"><path d="M79.61328,290.19780000000003Q77.9082,290.19780000000003,76.55469,289.4068Q75.20703,288.6158,74.451172,287.2096L76.21484,286.26030000000003Q76.73633,287.2682,77.61523,287.7896Q78.5,288.3111,79.63672,288.3111Q80.87891,288.3111,81.66992,287.7428Q82.46094,287.1744,82.46094,286.2779Q82.46094,285.6803,82.14453,285.2584Q81.82812,284.83652,81.1543,284.51425Q80.48047,284.18612,79.27344,283.84628Q77.89062,283.44784,76.99414,283.05527Q76.10352,282.65683,75.4707,281.86581Q74.84375,281.0748,74.84375,279.77987Q74.84375,278.62558,75.46484,277.71737Q76.08594,276.80917,77.19336,276.29941Q78.30078,275.783781,79.70703,275.783781Q82.92969,275.783781,84.4766,278.50253L82.80078,279.51034Q82.24414,278.62558,81.44141,278.15097Q80.64453,277.6705,79.67188,277.6705Q78.91602,277.6705,78.2832,277.93417Q77.65625,278.19198,77.28711,278.64316Q76.91797,279.09433,76.91797,279.63339Q76.91797,280.35409,77.31055,280.80527Q77.70898,281.25644,78.35352,281.52011Q79.00391,281.77792,80.14062,282.08261Q81.4707,282.44003,82.38477,282.87362Q83.30469,283.30722,83.92578,284.11581Q84.5469,284.92441,84.5469,286.1842Q84.5469,287.4088,83.93164,288.317Q83.32227,289.2252,82.20312,289.7115Q81.08984,290.19780000000003,79.61328,290.19780000000003ZM91.8535,281.90097L89.0996,281.90097L89.0996,286.9225Q89.0996,287.6432,89.4863,288.0416Q89.8789,288.4342,90.5762,288.4342Q91.0801,288.4342,91.6426,288.2408L91.6426,290.0748Q90.957,290.3092,90.1484,290.3092Q88.6895,290.3092,87.916,289.4889Q87.1426,288.6685,87.1426,287.1392L87.1426,281.90097L85.5898,281.90097L85.5898,280.04941L87.1426,280.04941L87.1426,277.02597L89.0996,277.02597L89.0996,280.04941L91.8535,280.04941L91.8535,281.90097ZM93.6348,289.9459L93.5996,280.04941L95.6152,280.04941L95.6152,281.90097L95.7031,281.90097Q96.2832,280.89316,97.2148,280.34823Q98.1523,279.79745,99.377,279.79745L99.4824,279.79745L99.4824,281.83066L99.3242,281.83066Q97.5605,281.83066,96.5879,282.58652Q95.6152,283.34237,95.6152,284.54941L95.6152,289.9459L93.6348,289.9459ZM103.5312,276.79159Q103.5312,277.36581,103.1797,277.71152Q102.8281,278.05136,102.2539,278.05136Q101.6914,278.05136,101.3574,277.71152Q101.0293,277.36581,101.0293,276.79159Q101.0293,276.21152,101.3574,275.871672Q101.6914,275.531828,102.2539,275.531828Q102.8281,275.531828,103.1797,275.871672Q103.5312,276.21152,103.5312,276.79159ZM103.2617,280.04941L103.2617,289.9459L101.2988,289.9459L101.2988,280.04941L103.2617,280.04941ZM105.9746,289.9459L105.9746,280.04941L107.9375,280.04941L107.9375,281.41464L108.02539999999999,281.41464Q108.47659999999999,280.67636,109.27340000000001,280.23691Q110.0762,279.79745,110.9785,279.79745Q112.5781,279.79745,113.4688,280.79941Q114.3594,281.7955,114.3594,283.61191L114.3594,289.9459L112.4023,289.9459L112.4023,283.96933Q112.4023,282.90878,111.8223,282.27011Q111.24799999999999,281.63144,110.3457,281.63144Q109.2676,281.63144,108.59960000000001,282.3287Q107.9375,283.02011,107.9375,284.16855L107.9375,289.9459L105.9746,289.9459ZM120.9863,294.5572Q119.55080000000001,294.5572,118.41409999999999,293.942Q117.2832,293.3326,116.68549999999999,292.2721L118.3438,291.3521Q118.7363,292.0377,119.46289999999999,292.4244Q120.1953,292.8111,120.9512,292.8111Q122.1934,292.8111,122.8789,292.0611Q123.56450000000001,291.317,123.56450000000001,289.9459L123.56450000000001,288.5631L123.4531,288.5631Q122.9668,289.3189,122.2285,289.7408Q121.4902,290.1627,120.5938,290.1627Q119.38669999999999,290.1627,118.4199,289.4889Q117.459,288.815,116.9199,287.608Q116.3809,286.401,116.3809,284.87167Q116.3809,283.37753,116.9082,282.22909Q117.4414,281.0748,118.3965,280.43612Q119.35159999999999,279.79745,120.5586,279.79745Q121.4199,279.79745,122.17580000000001,280.21933Q122.9316,280.6412,123.4531,281.39706L123.56450000000001,281.39706L123.56450000000001,280.06698L125.5273,280.06698L125.5273,289.6412Q125.5273,291.9615,124.33789999999999,293.2564Q123.14840000000001,294.5572,120.9863,294.5572ZM121.0977,288.2584Q122.2285,288.2584,122.9199,287.3502Q123.6172,286.4361,123.6172,284.97714Q123.6172,283.52402,122.8965,282.60409Q122.17580000000001,281.68417,121.0273,281.68417Q119.8555,281.68417,119.12299999999999,282.60409Q118.3965,283.52402,118.3965,284.97714Q118.3965,286.4361,119.1523,287.3502Q119.9082,288.2584,121.0977,288.2584Z" fill="#000000" fill-opacity="1" style="mix-blend-mode:passthrough"/></g><g style="mix-blend-mode:passthrough"><path d="M73.61328,342.19780000000003Q71.9082,342.19780000000003,70.55469,341.4068Q69.20703,340.6158,68.451172,339.2096L70.21484,338.26030000000003Q70.73633,339.2682,71.61523,339.7896Q72.5,340.3111,73.63672,340.3111Q74.87891,340.3111,75.66992,339.7428Q76.46094,339.1744,76.46094,338.2779Q76.46094,337.6803,76.14453,337.2584Q75.82812,336.83652,75.1543,336.51425Q74.48047,336.18612,73.27344,335.84628Q71.89062,335.44784,70.99414,335.05527Q70.10352,334.65683,69.4707,333.86581Q68.84375,333.0748,68.84375,331.77987Q68.84375,330.62558,69.46484,329.71737Q70.08594,328.80917,71.19336,328.29941Q72.30078,327.783781,73.70703,327.783781Q76.92969,327.783781,78.4766,330.50253L76.80078,331.51034Q76.24414,330.62558,75.44141,330.15097Q74.64453,329.6705,73.67188,329.6705Q72.91602,329.6705,72.2832,329.93417Q71.65625,330.19198,71.28711,330.64316Q70.91797,331.09433,70.91797,331.63339Q70.91797,332.35409,71.31055,332.80527Q71.70898,333.25644,72.35352,333.52011Q73.00391,333.77792,74.14062,334.08261Q75.4707,334.44003,76.38477,334.87362Q77.30469,335.30722,77.92578,336.11581Q78.5469,336.92441,78.5469,338.1842Q78.5469,339.4088,77.93164,340.317Q77.32227,341.2252,76.20312,341.7115Q75.08984,342.19780000000003,73.61328,342.19780000000003ZM83.2109,341.9459L79.3379,332.04941L81.5352,332.04941L84.2891,339.5553L84.4004,339.5553L87.0078,332.04941L89.2051,332.04941L83.6621,346.3404L81.5176,346.3404L83.2109,341.9459ZM90.5996,341.9459L90.5996,332.04941L92.5625,332.04941L92.5625,333.39706L92.6504,333.39706Q93.1016,332.6412,93.8223,332.21933Q94.543,331.79745,95.3691,331.79745Q96.2891,331.79745,96.9629,332.28378Q97.6367,332.77011,98.0176,333.66659L98.1055,333.66659Q98.6094,332.77011,99.4238,332.28378Q100.2441,331.79745,101.293,331.79745Q102.8047,331.79745,103.64840000000001,332.79941Q104.4922,333.7955,104.4922,335.59433L104.4922,341.9459L102.5352,341.9459L102.5352,335.95175Q102.5352,334.8912,102.03710000000001,334.25253Q101.5449,333.61386,100.71289999999999,333.61386Q99.7051,333.61386,99.1191,334.29941Q98.5391,334.97909,98.5391,336.13339L98.5391,341.9459L96.5586,341.9459L96.5586,335.95175Q96.5586,334.8912,96.0605,334.25253Q95.5684,333.61386,94.7363,333.61386Q93.7461,333.61386,93.1543,334.29941Q92.5625,334.97909,92.5625,336.13339L92.5625,341.9459L90.5996,341.9459ZM106.72460000000001,341.9459L106.72460000000001,328.03573L108.6875,328.03573L108.6875,333.37948L108.77539999999999,333.37948Q109.2969,332.6412,110.0703,332.23105Q110.8438,331.81503,111.7285,331.81503Q112.93549999999999,331.81503,113.8672,332.44784Q114.8047,333.0748,115.3262,334.21737Q115.8477,335.35995,115.8477,336.83652Q115.8477,338.401,115.3262,339.6256Q114.8047,340.8502,113.8672,341.524Q112.93549999999999,342.19780000000003,111.7285,342.19780000000003Q110.791,342.19780000000003,110.0352,341.7877Q109.2793,341.3717,108.77539999999999,340.6158L108.6875,340.6158L108.6875,341.9459L106.72460000000001,341.9459ZM108.6113,337.0006Q108.6113,338.4713,109.3203,339.3912Q110.0352,340.3111,111.1543,340.3111Q112.33789999999999,340.3111,113.082,339.3912Q113.832,338.4713,113.832,337.0006Q113.832,336.0455,113.49799999999999,335.28964Q113.1699,334.53378,112.5723,334.11191Q111.9805,333.68417,111.22460000000001,333.68417Q110.4688,333.68417,109.8711,334.11191Q109.2793,334.53378,108.9453,335.28964Q108.6113,336.0455,108.6113,337.0006ZM122.1113,342.19780000000003Q120.71090000000001,342.19780000000003,119.66210000000001,341.5709Q118.6191,340.9381,118.0625,339.76030000000003Q117.5059,338.5826,117.5059,337.0006Q117.5059,335.41269,118.0625,334.24667Q118.6191,333.0748,119.66210000000001,332.43612Q120.71090000000001,331.79745,122.1113,331.79745Q123.5,331.79745,124.543,332.43612Q125.58590000000001,333.0748,126.1543,334.24667Q126.7227,335.41269,126.7227,337.0006Q126.7227,338.5826,126.1543,339.76030000000003Q125.58590000000001,340.9381,124.543,341.5709Q123.5,342.19780000000003,122.1113,342.19780000000003ZM122.1113,340.3639Q123.3184,340.3639,124.0215,339.4557Q124.72460000000001,338.5475,124.72460000000001,337.0006Q124.72460000000001,335.44784,124.0215,334.55136Q123.3184,333.64902,122.1113,333.64902Q120.9277,333.64902,120.22460000000001,334.55136Q119.5215,335.44784,119.5215,337.0006Q119.5215,338.5475,120.22460000000001,339.4557Q120.9277,340.3639,122.1113,340.3639ZM128.8496,328.03573L130.8125,328.03573L130.8125,339.5201Q130.8125,340.2174,131.5156,340.2174L131.9961,340.2174L131.9961,342.0748L130.9883,342.0748Q129.92770000000002,342.0748,129.3887,341.5709Q128.8496,341.067,128.8496,340.0943L128.8496,328.03573Z" fill="#000000" fill-opacity="1" style="mix-blend-mode:passthrough"/></g><g style="mix-blend-mode:passthrough"><path d="M202 0C202 0 202 0 202 0L996 0C1001.5228474983079 0 1006 4.477152501692067 1006 10L1006 50C1006 50 1006 50 1006 50L202 50C202 50 202 50 202 50Z" fill="#000000" fill-opacity="1" style="mix-blend-mode:passthrough"/></g><g style="mix-blend-mode:passthrough"><rect x="202" y="50" width="804" height="50" rx="0" fill="#FFFFFF" fill-opacity="1" style="mix-blend-mode:passthrough"/></g><g style="mix-blend-mode:passthrough"><rect x="202" y="102" width="804" height="50" rx="0" fill="#FFFFFF" fill-opacity="1" style="mix-blend-mode:passthrough"/></g><g style="mix-blend-mode:passthrough"><rect x="202" y="154" width="804" height="50" rx="0" fill="#FFFFFF" fill-opacity="1" style="mix-blend-mode:passthrough"/></g><g style="mix-blend-mode:passthrough"><rect x="202" y="206" width="804" height="50" rx="0" fill="#FFFFFF" fill-opacity="1" style="mix-blend-mode:passthrough"/></g><g style="mix-blend-mode:passthrough"><rect x="202" y="258" width="804" height="50" rx="0" fill="#FFFFFF" fill-opacity="1" style="mix-blend-mode:passthrough"/></g><g style="mix-blend-mode:passthrough"><rect x="202" y="310" width="804" height="50" rx="0" fill="#FFFFFF" fill-opacity="1" style="mix-blend-mode:passthrough"/></g><g style="mix-blend-mode:passthrough"><path d="M230.00586,76.2037L230.00586,67.725187L241.9766,67.725187L241.9766,76.2037L230.00586,76.2037ZM240.5703,69.06112L231.41211,69.06112L231.41211,74.83847L240.5703,74.83847L240.5703,69.06112ZM227.919922,81.8228Q229.25,80.95570000000001,230.69727,79.6607Q232.15039,78.36580000000001,233.21094,77.0885L234.25391,78.1314Q233.26367,79.356,231.79297,80.733Q230.32812,82.11,228.96289,83.065L227.919922,81.8228ZM238.6484,77.1236Q239.8906,78.1842,242.9316,80.9381L243.8281,81.7525L242.7852,82.9947Q241.8652,82.03960000000001,240.3242,80.6275Q238.7891,79.2096,237.6582,78.2193L238.6484,77.1236ZM261.9746,69.97519L252.3594,69.97519Q251.8379,70.98886,251.1758,71.99667L259.9238,71.99667L259.9238,80.8502Q259.9238,81.92830000000001,259.4551,82.3619Q258.9863,82.7955,257.7969,82.7955L255.36520000000002,82.7955L255.1543,81.5357L257.3281,81.5357Q257.8906,81.5357,258.1484,81.4478Q258.4121,81.3541,258.5,81.1373Q258.5879,80.9205,258.5879,80.4693L258.5879,79.4264L250.4727,79.4264L250.4727,82.9713L249.14260000000002,82.9713L249.14260000000002,74.63925Q247.9883,75.91659,246.5996,77.1236L245.99020000000002,75.75839Q248.9082,73.16269,250.79489999999998,69.97519L246.36520000000002,69.97519L246.36520000000002,68.69784L251.4805,68.69784Q252.07229999999998,67.455656,252.418,66.465422L253.8008,66.740812Q253.4434,67.707609,252.9922,68.69784L261.9746,68.69784L261.9746,69.97519ZM250.4727,75.09042L258.5879,75.09042L258.5879,73.21542L250.4727,73.21542L250.4727,75.09042ZM250.4727,76.2623L250.4727,78.2603L258.5879,78.2603L258.5879,76.2623L250.4727,76.2623ZM279.6348,68.93222L274.6836,68.93222L274.6484,71.31112L278.6445,71.31112L278.6445,80.6685Q278.6445,81.5006,278.4277,81.9459Q278.2109,82.3971,277.7305,82.5787Q277.2559,82.7603,276.4121,82.7603L274.3555,82.7603L274.1035,81.5006L276.0312,81.5006Q276.5703,81.5006,276.8281,81.401Q277.0918,81.3014,277.1797,81.06700000000001Q277.2734,80.8326,277.2734,80.3814L277.2734,72.57089L274.6074,72.57089Q274.5547,73.76034,274.3379,74.83847Q274.8418,75.37753000000001,276.752,77.6978L277.1855,78.2193L276.2305,79.1217Q275.1875,77.6627,273.9805,76.22128000000001Q273.27729999999997,78.5123,271.6191,80.58070000000001L270.5234,79.8775Q271.8535,78.2603,272.5098,76.56698Q273.1719,74.87362,273.27729999999997,72.57089L270.3418,72.57089Q270.2891,73.68417,270.1484,74.40487Q270.7578,75.07284,271.3672,75.8287L272.1055,76.69003000000001L271.1738,77.5572L270.7402,77.0357L269.8027,75.93417Q269.4805,77.01820000000001,268.9297,78.0377Q268.3848,79.0514,267.5527,80.16460000000001L266.4922,79.356Q267.7695,77.6627,268.291,76.233Q268.8125,74.80331,268.9766,72.57089L266.3867,72.57089L266.3867,82.86580000000001L265.0684,82.86580000000001L265.0684,71.31112L269.0469,71.31112L269.082,68.93222L264.2422,68.93222L264.2422,67.672453L279.6348,67.672453L279.6348,68.93222ZM273.2949,71.31112Q273.2949,70.33847,273.3301,68.93222L270.4355,68.93222L270.3828,71.31112L273.2949,71.31112ZM281.8848,73.90097Q284.2402,72.40683,286.1855,70.47323Q288.1309,68.53964,289.3906,66.465422L290.5918,66.465422Q293.3867,70.8248,298.1387,73.91855L297.2891,75.3248Q295.0391,73.77792,293.15819999999997,71.91464Q291.27729999999997,70.05136,290,68.08847Q288.65229999999997,70.10409,286.77729999999997,71.9498Q284.9082,73.7955,282.6758,75.3248L281.8848,73.90097ZM289.2441,72.33652000000001L290.7383,72.33652000000001L290.7383,83.1353L289.2441,83.1353L289.2441,72.33652000000001ZM304.3438,66.881437Q303.7695,69.02597,303.1191,70.73691L303.1191,82.9537L301.8242,82.9537L301.8242,73.64902000000001Q301.1797,74.90878000000001,300.3652,76.13339L299.791,74.49862Q300.7285,73.09237,301.5664,71.00644Q302.40430000000003,68.91464,302.9609,66.611906L304.3438,66.881437ZM314.4805,71.02402000000001L314.4805,81.2662L316.0625,81.2662L316.0625,82.4498L303.9863,82.4498L303.9863,81.2662L305.6035,81.2662L305.6035,71.02402000000001L309.3652,71.02402000000001L309.3652,69.36581L304.8301,69.36581L304.8301,68.19394L309.3652,68.19394L309.3652,66.629484L310.7188,66.629484L310.7188,68.19394L315.5938,68.19394L315.5938,69.36581L310.7188,69.36581L310.7188,71.02402000000001L314.4805,71.02402000000001ZM313.1504,73.61386L313.1504,72.19003000000001L306.9395,72.19003000000001L306.9395,73.61386L313.1504,73.61386ZM306.9395,76.06308L313.1504,76.06308L313.1504,74.67441L306.9395,74.67441L306.9395,76.06308ZM313.1504,78.6529L313.1504,77.1412L306.9395,77.1412L306.9395,78.6529L313.1504,78.6529ZM313.1504,79.67830000000001L306.9395,79.67830000000001L306.9395,81.2662L313.1504,81.2662L313.1504,79.67830000000001ZM322.4375,74.11777000000001L320.5625,74.11777000000001L320.5625,72.24862L322.4375,72.24862L322.4375,74.11777000000001ZM322.4375,81.858L320.5625,81.858L320.5625,79.9654L322.4375,79.9654L322.4375,81.858ZM341.1,73.71933L338.346,73.71933L338.346,79.19200000000001Q338.346,79.9889,338.762,80.4225Q339.178,80.8502,339.916,80.8502Q340.344,80.8502,340.889,80.6685L340.889,82.03960000000001Q340.402,82.2389,339.605,82.2389Q338.275,82.2389,337.56100000000004,81.483Q336.852,80.7213,336.852,79.30330000000001L336.852,73.71933L335.35699999999997,73.71933L335.35699999999997,72.31894L336.852,72.31894L336.852,69.2955L338.346,69.2955L338.346,72.31894L341.1,72.31894L341.1,73.71933ZM342.67,81.858L342.67,72.31894L344.164,72.31894L344.164,74.13534L344.258,74.13534Q344.85,73.16269,345.764,72.61777000000001Q346.68399999999997,72.06698,347.803,72.06698L347.926,72.06698L347.926,73.68417L347.76800000000003,73.68417Q346.666,73.68417,345.85699999999997,74.04745Q345.049,74.40487,344.604,75.02597Q344.164,75.64706,344.164,76.36777000000001L344.164,81.858L342.67,81.858ZM357.254,72.31894L357.254,81.858L355.76,81.858L355.76,80.5279L355.648,80.5279Q355.21500000000003,81.2486,354.389,81.6822Q353.562,82.11,352.695,82.11Q351.113,82.11,350.223,81.1314Q349.332,80.1471,349.332,78.3834L349.332,72.31894L350.826,72.31894L350.826,78.149Q350.826,79.3209,351.46500000000003,80.0357Q352.104,80.7447,353.094,80.7447Q354.283,80.7447,355.02099999999996,79.97710000000001Q355.76,79.2096,355.76,77.9674L355.76,72.31894L357.254,72.31894ZM367.842,76.27987Q367.842,76.90683,367.73,77.50450000000001L361.004,77.50450000000001Q361.092,78.9986,361.88300000000004,79.86Q362.674,80.7213,363.986,80.7213Q364.725,80.7213,365.375,80.3639Q366.025,80.0064,366.488,79.30330000000001L367.65999999999997,80.1119Q366.38300000000004,82.0924,363.986,82.0924Q361.88300000000004,82.0924,360.664,80.7623Q359.451,79.4264,359.451,77.106Q359.451,74.76816,360.605,73.4205Q361.76,72.06698,363.775,72.06698Q365.66200000000003,72.06698,366.752,73.2037Q367.842,74.33456,367.842,76.27987ZM366.312,76.15097Q366.312,74.90878000000001,365.615,74.1705Q364.924,73.43222,363.775,73.43222Q362.69100000000003,73.43222,361.971,74.15292Q361.256,74.87362,361.057,76.15097L366.312,76.15097ZM391.432,70.52011L380.598,70.52011L380.398,73.34433L390.693,73.34433L390.301,79.78960000000001Q390.207,80.9732,389.873,81.5943Q389.54499999999996,82.2154,388.865,82.45570000000001Q388.19100000000003,82.7017,387.00800000000004,82.7017L383.82,82.7017L383.551,81.3189L386.60900000000004,81.3189Q387.488,81.3189,387.922,81.1959Q388.355,81.06700000000001,388.555,80.6627Q388.754,80.2584,388.789,79.4088L389.023,75.93417Q389.05899999999997,75.44784,389.076,75.15487Q389.094,74.85605,389.111,74.72714L378.781,74.72714L379.355,66.828703L380.86699999999996,66.828703L380.703,69.16659L391.432,69.16659L391.432,70.52011ZM376.13300000000004,77.1236L387.723,77.1236L387.723,78.5123L376.13300000000004,78.5123L376.13300000000004,77.1236ZM404.451,69.2955Q403.73,69.2955,403.262,69.74667Q402.793,70.19198,402.793,71.02402000000001L402.793,72.31894L405.406,72.31894L405.406,73.71933L402.793,73.71933L402.793,81.858L401.299,81.858L401.299,73.71933L399.85699999999997,73.71933L399.85699999999997,72.31894L401.299,72.31894L401.299,70.98886Q401.299,69.54745,402.055,68.73886Q402.81100000000004,67.924406,404.129,67.924406Q404.91999999999996,67.924406,405.477,68.1412L405.477,69.49472Q404.973,69.2955,404.451,69.2955ZM409.725,82.11Q408.342,82.11,407.52099999999996,81.3834Q406.701,80.651,406.701,79.4439Q406.701,76.35019,411.418,76.35019L412.789,76.35019L412.789,75.57675Q412.789,74.60409,412.19100000000003,74.01816Q411.6,73.43222,410.627,73.43222Q409.41999999999996,73.43222,408.21299999999997,74.47519L407.334,73.46737Q408.775,72.06698,410.697,72.06698Q412.355,72.06698,413.31600000000003,72.96933Q414.283,73.86581,414.283,75.39511L414.283,81.858L412.789,81.858L412.789,80.4928L412.678,80.4928Q412.28499999999997,81.2076,411.453,81.6588Q410.627,82.11,409.725,82.11ZM409.994,80.7447Q410.592,80.7447,411.236,80.4752Q411.887,80.1998,412.33799999999997,79.6373Q412.789,79.0689,412.789,78.2193L412.789,77.7154L411.70500000000004,77.7154Q409.924,77.7154,409.074,78.1256Q408.23,78.5299,408.23,79.356Q408.23,79.9889,408.70500000000004,80.3697Q409.18600000000004,80.7447,409.994,80.7447ZM416.91999999999996,68.17636L418.414,68.17636L418.414,79.8775Q418.414,80.61580000000001,419.152,80.61580000000001L419.60400000000004,80.61580000000001L419.60400000000004,82.0221L418.812,82.0221Q416.91999999999996,82.0221,416.91999999999996,80.276L416.91999999999996,68.17636ZM424.52,82.11Q423.148,82.11,422.176,81.524Q421.203,80.9381,420.664,79.9654L421.94100000000003,79.22710000000001Q422.35699999999997,79.9478,423.031,80.3463Q423.70500000000004,80.7447,424.572,80.7447Q425.469,80.7447,425.99,80.3873Q426.51800000000003,80.024,426.51800000000003,79.4088Q426.51800000000003,78.81700000000001,425.99,78.4478Q425.469,78.0787,424.26800000000003,77.8092Q422.592,77.42830000000001,421.77099999999996,76.7662Q420.951,76.09823,420.951,75.03769Q420.951,73.64902000000001,421.889,72.858Q422.826,72.06698,424.443,72.06698Q426.77,72.06698,428.082,74.04745L426.89300000000003,74.8912Q426.424,74.1705,425.791,73.80136Q425.164,73.43222,424.426,73.43222Q423.547,73.43222,423.014,73.83066Q422.48,74.22323,422.48,74.85605Q422.48,75.39511,423.055,75.79355Q423.635,76.18612,424.789,76.45566Q428.047,77.1764,428.047,79.1744Q428.047,80.5455,427.098,81.33070000000001Q426.154,82.11,424.52,82.11ZM437.967,76.27987Q437.967,76.90683,437.855,77.50450000000001L431.129,77.50450000000001Q431.217,78.9986,432.00800000000004,79.86Q432.799,80.7213,434.111,80.7213Q434.85,80.7213,435.5,80.3639Q436.15,80.0064,436.613,79.30330000000001L437.78499999999997,80.1119Q436.50800000000004,82.0924,434.111,82.0924Q432.00800000000004,82.0924,430.789,80.7623Q429.576,79.4264,429.576,77.106Q429.576,74.76816,430.73,73.4205Q431.885,72.06698,433.9,72.06698Q435.78700000000003,72.06698,436.877,73.2037Q437.967,74.33456,437.967,76.27987ZM436.438,76.15097Q436.438,74.90878000000001,435.74,74.1705Q435.049,73.43222,433.9,73.43222Q432.81600000000003,73.43222,432.096,74.15292Q431.381,74.87362,431.182,76.15097L436.438,76.15097Z" fill="#000000" fill-opacity="1" style="mix-blend-mode:passthrough"/></g><g style="mix-blend-mode:passthrough"><path d="M230.00586,128.2037L230.00586,119.725187L241.9766,119.725187L241.9766,128.2037L230.00586,128.2037ZM240.5703,121.06112L231.41211,121.06112L231.41211,126.83847L240.5703,126.83847L240.5703,121.06112ZM227.919922,133.8228Q229.25,132.9557,230.69727,131.6607Q232.15039,130.3658,233.21094,129.0885L234.25391,130.13139999999999Q233.26367,131.356,231.79297,132.733Q230.32812,134.11,228.96289,135.065L227.919922,133.8228ZM238.6484,129.1236Q239.8906,130.1842,242.9316,132.9381L243.8281,133.7525L242.7852,134.9947Q241.8652,134.0396,240.3242,132.6275Q238.7891,131.2096,237.6582,130.2193L238.6484,129.1236ZM261.9746,121.97519L252.3594,121.97519Q251.8379,122.98886,251.1758,123.99667L259.9238,123.99667L259.9238,132.8502Q259.9238,133.9283,259.4551,134.3619Q258.9863,134.7955,257.7969,134.7955L255.36520000000002,134.7955L255.1543,133.5357L257.3281,133.5357Q257.8906,133.5357,258.1484,133.4478Q258.4121,133.3541,258.5,133.1373Q258.5879,132.9205,258.5879,132.4693L258.5879,131.4264L250.4727,131.4264L250.4727,134.97129999999999L249.14260000000002,134.97129999999999L249.14260000000002,126.63925Q247.9883,127.91659,246.5996,129.1236L245.99020000000002,127.75839Q248.9082,125.16269,250.79489999999998,121.97519L246.36520000000002,121.97519L246.36520000000002,120.69784L251.4805,120.69784Q252.07229999999998,119.455656,252.418,118.465422L253.8008,118.740812Q253.4434,119.707609,252.9922,120.69784L261.9746,120.69784L261.9746,121.97519ZM250.4727,127.09042L258.5879,127.09042L258.5879,125.21542L250.4727,125.21542L250.4727,127.09042ZM250.4727,128.2623L250.4727,130.2603L258.5879,130.2603L258.5879,128.2623L250.4727,128.2623ZM264.0957,125.54355L279.8867,125.54355L279.8867,127.108L264.0957,127.108L264.0957,125.54355ZM281.8848,125.90097Q284.2402,124.40683,286.1855,122.47323Q288.1309,120.53964,289.3906,118.465422L290.5918,118.465422Q293.3867,122.8248,298.1387,125.91855L297.2891,127.3248Q295.0391,125.77792,293.15819999999997,123.91464Q291.27729999999997,122.05136,290,120.08847Q288.65229999999997,122.10409,286.77729999999997,123.9498Q284.9082,125.7955,282.6758,127.3248L281.8848,125.90097ZM289.2441,124.33652000000001L290.7383,124.33652000000001L290.7383,135.1353L289.2441,135.1353L289.2441,124.33652000000001ZM304.3438,118.881437Q303.7695,121.02597,303.1191,122.73691L303.1191,134.9537L301.8242,134.9537L301.8242,125.64902000000001Q301.1797,126.90878000000001,300.3652,128.13339L299.791,126.49862Q300.7285,125.09237,301.5664,123.00644Q302.40430000000003,120.91464,302.9609,118.611906L304.3438,118.881437ZM314.4805,123.02402000000001L314.4805,133.2662L316.0625,133.2662L316.0625,134.4498L303.9863,134.4498L303.9863,133.2662L305.6035,133.2662L305.6035,123.02402000000001L309.3652,123.02402000000001L309.3652,121.36581L304.8301,121.36581L304.8301,120.19394L309.3652,120.19394L309.3652,118.629484L310.7188,118.629484L310.7188,120.19394L315.5938,120.19394L315.5938,121.36581L310.7188,121.36581L310.7188,123.02402000000001L314.4805,123.02402000000001ZM313.1504,125.61386L313.1504,124.19003000000001L306.9395,124.19003000000001L306.9395,125.61386L313.1504,125.61386ZM306.9395,128.06308L313.1504,128.06308L313.1504,126.67441L306.9395,126.67441L306.9395,128.06308ZM313.1504,130.6529L313.1504,129.1412L306.9395,129.1412L306.9395,130.6529L313.1504,130.6529ZM313.1504,131.6783L306.9395,131.6783L306.9395,133.2662L313.1504,133.2662L313.1504,131.6783ZM322.4375,126.11777000000001L320.5625,126.11777000000001L320.5625,124.24862L322.4375,124.24862L322.4375,126.11777000000001ZM322.4375,133.858L320.5625,133.858L320.5625,131.9654L322.4375,131.9654L322.4375,133.858ZM336.295,133.858L336.295,124.31894L337.789,124.31894L337.789,125.66659L337.883,125.66659Q338.31100000000004,124.94589,339.148,124.50644Q339.986,124.06698,340.83,124.06698Q342.418,124.06698,343.31399999999996,125.05136Q344.217,126.02987,344.217,127.81112L344.217,133.858L342.723,133.858L342.723,128.02792Q342.723,126.87362,342.072,126.15292Q341.428,125.43222,340.455,125.43222Q339.266,125.43222,338.527,126.1998Q337.789,126.96152000000001,337.789,128.2037L337.789,133.858L336.295,133.858ZM354.629,124.31894L354.629,133.858L353.135,133.858L353.135,132.5279L353.023,132.5279Q352.59000000000003,133.2486,351.764,133.6822Q350.938,134.11,350.07,134.11Q348.488,134.11,347.598,133.13139999999999Q346.707,132.1471,346.707,130.3834L346.707,124.31894L348.201,124.31894L348.201,130.149Q348.201,131.3209,348.84000000000003,132.0357Q349.479,132.7447,350.469,132.7447Q351.658,132.7447,352.396,131.9771Q353.135,131.2096,353.135,129.9674L353.135,124.31894L354.629,124.31894ZM357.29499999999996,120.17636L358.789,120.17636L358.789,131.8775Q358.789,132.6158,359.527,132.6158L359.97900000000004,132.6158L359.97900000000004,134.0221L359.188,134.0221Q357.29499999999996,134.0221,357.29499999999996,132.276L357.29499999999996,120.17636ZM361.79499999999996,120.17636L363.289,120.17636L363.289,131.8775Q363.289,132.6158,364.027,132.6158L364.47900000000004,132.6158L364.47900000000004,134.0221L363.688,134.0221Q361.79499999999996,134.0221,361.79499999999996,132.276L361.79499999999996,120.17636Z" fill="#000000" fill-opacity="1" style="mix-blend-mode:passthrough"/></g><g style="mix-blend-mode:passthrough"><path d="M230.00586,180.2037L230.00586,171.725187L241.9766,171.725187L241.9766,180.2037L230.00586,180.2037ZM240.5703,173.06112L231.41211,173.06112L231.41211,178.83847L240.5703,178.83847L240.5703,173.06112ZM227.919922,185.8228Q229.25,184.9557,230.69727,183.6607Q232.15039,182.3658,233.21094,181.0885L234.25391,182.13139999999999Q233.26367,183.356,231.79297,184.733Q230.32812,186.11,228.96289,187.065L227.919922,185.8228ZM238.6484,181.1236Q239.8906,182.1842,242.9316,184.9381L243.8281,185.7525L242.7852,186.9947Q241.8652,186.0396,240.3242,184.6275Q238.7891,183.2096,237.6582,182.2193L238.6484,181.1236ZM261.9746,173.97519L252.3594,173.97519Q251.8379,174.98886,251.1758,175.99667L259.9238,175.99667L259.9238,184.8502Q259.9238,185.9283,259.4551,186.3619Q258.9863,186.7955,257.7969,186.7955L255.36520000000002,186.7955L255.1543,185.5357L257.3281,185.5357Q257.8906,185.5357,258.1484,185.4478Q258.4121,185.3541,258.5,185.1373Q258.5879,184.9205,258.5879,184.4693L258.5879,183.4264L250.4727,183.4264L250.4727,186.97129999999999L249.14260000000002,186.97129999999999L249.14260000000002,178.63925Q247.9883,179.91658999999999,246.5996,181.1236L245.99020000000002,179.75839Q248.9082,177.16269,250.79489999999998,173.97519L246.36520000000002,173.97519L246.36520000000002,172.69784L251.4805,172.69784Q252.07229999999998,171.455656,252.418,170.465422L253.8008,170.740812Q253.4434,171.707609,252.9922,172.69784L261.9746,172.69784L261.9746,173.97519ZM250.4727,179.09042L258.5879,179.09042L258.5879,177.21542L250.4727,177.21542L250.4727,179.09042ZM250.4727,180.2623L250.4727,182.2603L258.5879,182.2603L258.5879,180.2623L250.4727,180.2623ZM264.0957,177.54355L279.8867,177.54355L279.8867,179.108L264.0957,179.108L264.0957,177.54355ZM281.8848,177.90097Q284.2402,176.40683,286.1855,174.47323Q288.1309,172.53964,289.3906,170.465422L290.5918,170.465422Q293.3867,174.8248,298.1387,177.91855L297.2891,179.3248Q295.0391,177.77792,293.15819999999997,175.91464Q291.27729999999997,174.05136,290,172.08847Q288.65229999999997,174.10409,286.77729999999997,175.9498Q284.9082,177.7955,282.6758,179.3248L281.8848,177.90097ZM289.2441,176.33652L290.7383,176.33652L290.7383,187.1353L289.2441,187.1353L289.2441,176.33652ZM304.3438,170.881437Q303.7695,173.02597,303.1191,174.73691L303.1191,186.9537L301.8242,186.9537L301.8242,177.64902Q301.1797,178.90878,300.3652,180.13339L299.791,178.49862Q300.7285,177.09237,301.5664,175.00644Q302.40430000000003,172.91464,302.9609,170.611906L304.3438,170.881437ZM314.4805,175.02402L314.4805,185.2662L316.0625,185.2662L316.0625,186.4498L303.9863,186.4498L303.9863,185.2662L305.6035,185.2662L305.6035,175.02402L309.3652,175.02402L309.3652,173.36581L304.8301,173.36581L304.8301,172.19394L309.3652,172.19394L309.3652,170.629484L310.7188,170.629484L310.7188,172.19394L315.5938,172.19394L315.5938,173.36581L310.7188,173.36581L310.7188,175.02402L314.4805,175.02402ZM313.1504,177.61386L313.1504,176.19003L306.9395,176.19003L306.9395,177.61386L313.1504,177.61386ZM306.9395,180.06308L313.1504,180.06308L313.1504,178.67441L306.9395,178.67441L306.9395,180.06308ZM313.1504,182.6529L313.1504,181.1412L306.9395,181.1412L306.9395,182.6529L313.1504,182.6529ZM313.1504,183.6783L306.9395,183.6783L306.9395,185.2662L313.1504,185.2662L313.1504,183.6783ZM322.4375,178.11777L320.5625,178.11777L320.5625,176.24862L322.4375,176.24862L322.4375,178.11777ZM322.4375,185.858L320.5625,185.858L320.5625,183.9654L322.4375,183.9654L322.4375,185.858ZM344.129,176.31894L344.129,185.858L342.635,185.858L342.635,184.5279L342.523,184.5279Q342.09000000000003,185.2486,341.264,185.6822Q340.438,186.11,339.57,186.11Q337.988,186.11,337.098,185.13139999999999Q336.207,184.1471,336.207,182.3834L336.207,176.31894L337.701,176.31894L337.701,182.149Q337.701,183.3209,338.34000000000003,184.0357Q338.979,184.7447,339.969,184.7447Q341.158,184.7447,341.896,183.9771Q342.635,183.2096,342.635,181.9674L342.635,176.31894L344.129,176.31894ZM346.795,185.858L346.795,176.31894L348.289,176.31894L348.289,177.66659L348.383,177.66659Q348.81100000000004,176.94589,349.648,176.50644Q350.486,176.06698,351.33,176.06698Q352.918,176.06698,353.81399999999996,177.05136Q354.717,178.02987,354.717,179.81112L354.717,185.858L353.223,185.858L353.223,180.02792Q353.223,178.87362,352.572,178.15292Q351.928,177.43222,350.955,177.43222Q349.766,177.43222,349.027,178.1998Q348.289,178.96152,348.289,180.2037L348.289,185.858L346.795,185.858ZM365.486,185.858L363.99199999999996,185.858L363.99199999999996,184.4928L363.887,184.4928Q363.418,185.2662,362.639,185.6881Q361.865,186.11,360.93399999999997,186.11Q359.762,186.11,358.824,185.4478Q357.89300000000003,184.7799,357.35900000000004,183.608Q356.826,182.4361,356.826,180.97714Q356.826,179.55917,357.35900000000004,178.43417Q357.89300000000003,177.30917,358.824,176.68808Q359.762,176.06698,360.93399999999997,176.06698Q361.79499999999996,176.06698,362.568,176.50058Q363.342,176.92831,363.887,177.68417L363.99199999999996,177.68417L363.99199999999996,172.17636L365.486,172.17636L365.486,185.858ZM364.04499999999996,181.0885Q364.04499999999996,180.06308,363.682,179.25448Q363.324,178.44003,362.68600000000004,177.99472Q362.047,177.54355,361.238,177.54355Q360.41200000000003,177.54355,359.75,177.99472Q359.094,178.44003,358.725,179.25448Q358.355,180.06308,358.355,181.0885Q358.355,182.1139,358.73,182.9283Q359.111,183.7369,359.779,184.1881Q360.447,184.6334,361.291,184.6334Q362.082,184.6334,362.709,184.1881Q363.342,183.7369,363.693,182.9283Q364.04499999999996,182.1139,364.04499999999996,181.0885ZM376.092,180.27987Q376.092,180.90683,375.98,181.5045L369.254,181.5045Q369.342,182.9986,370.13300000000004,183.86Q370.924,184.72129999999999,372.236,184.72129999999999Q372.975,184.72129999999999,373.625,184.3639Q374.275,184.00639999999999,374.738,183.3033L375.90999999999997,184.1119Q374.63300000000004,186.0924,372.236,186.0924Q370.13300000000004,186.0924,368.914,184.7623Q367.701,183.4264,367.701,181.106Q367.701,178.76816,368.855,177.4205Q370.01,176.06698,372.025,176.06698Q373.91200000000003,176.06698,375.002,177.2037Q376.092,178.33456,376.092,180.27987ZM374.562,180.15097Q374.562,178.90878,373.865,178.1705Q373.174,177.43222,372.025,177.43222Q370.94100000000003,177.43222,370.221,178.15292Q369.506,178.87362,369.307,180.15097L374.562,180.15097ZM381.951,173.2955Q381.23,173.2955,380.762,173.74667Q380.293,174.19198,380.293,175.02402L380.293,176.31894L382.906,176.31894L382.906,177.71933L380.293,177.71933L380.293,185.858L378.799,185.858L378.799,177.71933L377.35699999999997,177.71933L377.35699999999997,176.31894L378.799,176.31894L378.799,174.98886Q378.799,173.54745,379.555,172.73886Q380.31100000000004,171.924406,381.629,171.924406Q382.41999999999996,171.924406,382.977,172.1412L382.977,173.49472Q382.473,173.2955,381.951,173.2955ZM386.63300000000004,172.9498Q386.63300000000004,173.41855,386.346,173.68808Q386.05899999999997,173.95761,385.59000000000003,173.95761Q385.121,173.95761,384.85699999999997,173.68808Q384.6,173.41855,384.6,172.9498Q384.6,172.48105,384.869,172.20566Q385.139,171.924406,385.59000000000003,171.924406Q386.05899999999997,171.924406,386.346,172.20566Q386.63300000000004,172.48105,386.63300000000004,172.9498ZM386.363,176.31894L386.363,185.858L384.869,185.858L384.869,176.31894L386.363,176.31894ZM389.16999999999996,185.858L389.16999999999996,176.31894L390.664,176.31894L390.664,177.66659L390.75800000000004,177.66659Q391.18600000000004,176.94589,392.023,176.50644Q392.861,176.06698,393.70500000000004,176.06698Q395.293,176.06698,396.18899999999996,177.05136Q397.092,178.02987,397.092,179.81112L397.092,185.858L395.598,185.858L395.598,180.02792Q395.598,178.87362,394.947,178.15292Q394.303,177.43222,393.33000000000004,177.43222Q392.14099999999996,177.43222,391.402,178.1998Q390.664,178.96152,390.664,180.2037L390.664,185.858L389.16999999999996,185.858ZM407.592,180.27987Q407.592,180.90683,407.48,181.5045L400.754,181.5045Q400.842,182.9986,401.63300000000004,183.86Q402.424,184.72129999999999,403.736,184.72129999999999Q404.475,184.72129999999999,405.125,184.3639Q405.775,184.00639999999999,406.238,183.3033L407.40999999999997,184.1119Q406.13300000000004,186.0924,403.736,186.0924Q401.63300000000004,186.0924,400.414,184.7623Q399.201,183.4264,399.201,181.106Q399.201,178.76816,400.355,177.4205Q401.51,176.06698,403.525,176.06698Q405.41200000000003,176.06698,406.502,177.2037Q407.592,178.33456,407.592,180.27987ZM406.062,180.15097Q406.062,178.90878,405.365,178.1705Q404.674,177.43222,403.525,177.43222Q402.44100000000003,177.43222,401.721,178.15292Q401.006,178.87362,400.807,180.15097L406.062,180.15097ZM417.986,185.858L416.49199999999996,185.858L416.49199999999996,184.4928L416.387,184.4928Q415.918,185.2662,415.139,185.6881Q414.365,186.11,413.43399999999997,186.11Q412.262,186.11,411.324,185.4478Q410.39300000000003,184.7799,409.85900000000004,183.608Q409.326,182.4361,409.326,180.97714Q409.326,179.55917,409.85900000000004,178.43417Q410.39300000000003,177.30917,411.324,176.68808Q412.262,176.06698,413.43399999999997,176.06698Q414.29499999999996,176.06698,415.068,176.50058Q415.842,176.92831,416.387,177.68417L416.49199999999996,177.68417L416.49199999999996,172.17636L417.986,172.17636L417.986,185.858ZM416.54499999999996,181.0885Q416.54499999999996,180.06308,416.182,179.25448Q415.824,178.44003,415.18600000000004,177.99472Q414.547,177.54355,413.738,177.54355Q412.91200000000003,177.54355,412.25,177.99472Q411.594,178.44003,411.225,179.25448Q410.855,180.06308,410.855,181.0885Q410.855,182.1139,411.23,182.9283Q411.611,183.7369,412.279,184.1881Q412.947,184.6334,413.791,184.6334Q414.582,184.6334,415.209,184.1881Q415.842,183.7369,416.193,182.9283Q416.54499999999996,182.1139,416.54499999999996,181.0885Z" fill="#000000" fill-opacity="1" style="mix-blend-mode:passthrough"/></g><g style="mix-blend-mode:passthrough"><path d="M243.9043,228.858L243.9043,230.22323L241.5957,230.22323L241.5957,239.1002L240.2656,239.1002L240.2656,230.22323L237.5469,230.22323Q237.5117,232.43808,237.2832,233.9146Q237.0605,235.3912,236.55664,236.6334Q236.05273,237.8756,235.09766,239.3697L234.01953,238.3971Q234.95703,236.9732,235.42578,235.86Q235.89453,234.7467,236.09961,233.3053Q236.30469,231.86386,236.30469,229.54355L236.30469,224.19394Q238.0508,224.01816,239.7793,223.660734Q241.5078,223.297453,242.8203,222.828703L243.2188,224.21152Q241.9941,224.62753,240.4824,224.97323Q238.9707,225.31308,237.5469,225.47128L237.5469,228.858L243.9043,228.858ZM234.57617,233.5396L230.70898,233.5396Q230.59766,235.40879999999999,230.27539,236.5982Q229.95312,237.7877,229.17969,239.317L227.9375,238.6139Q228.64062,237.2486,228.96289,236.2115Q229.28516,235.1744,229.40234,233.7975Q229.51953,232.4205,229.51953,229.88339L229.51953,223.959562Q232.70703,223.654875,235.22656,222.881437L235.51367,224.28769Q233.51562,224.87948,230.7793,225.26034L230.7793,227.58066L234.57617,227.58066L234.57617,233.5396ZM233.29883,228.92831L230.7793,228.92831L230.7793,229.91855Q230.7793,231.52402,230.76172,232.18612L233.29883,232.18612L233.29883,228.92831ZM261.9746,225.97519L252.3594,225.97519Q251.8379,226.98886,251.1758,227.99667L259.9238,227.99667L259.9238,236.8502Q259.9238,237.9283,259.4551,238.3619Q258.9863,238.7955,257.7969,238.7955L255.36520000000002,238.7955L255.1543,237.5357L257.3281,237.5357Q257.8906,237.5357,258.1484,237.4478Q258.4121,237.3541,258.5,237.1373Q258.5879,236.9205,258.5879,236.4693L258.5879,235.4264L250.4727,235.4264L250.4727,238.97129999999999L249.14260000000002,238.97129999999999L249.14260000000002,230.63925Q247.9883,231.91658999999999,246.5996,233.1236L245.99020000000002,231.75839Q248.9082,229.16269,250.79489999999998,225.97519L246.36520000000002,225.97519L246.36520000000002,224.69784L251.4805,224.69784Q252.07229999999998,223.455656,252.418,222.465422L253.8008,222.740812Q253.4434,223.707609,252.9922,224.69784L261.9746,224.69784L261.9746,225.97519ZM250.4727,231.09042L258.5879,231.09042L258.5879,229.21542L250.4727,229.21542L250.4727,231.09042ZM250.4727,232.2623L250.4727,234.2603L258.5879,234.2603L258.5879,232.2623L250.4727,232.2623ZM279.3066,225.40097Q279.2539,227.34628,279.1367,230.90292Q279.0195,234.4537,278.9492,236.3639Q278.9141,237.2252,278.6504,237.7232Q278.3926,238.2154,277.8242,238.4322Q277.2559,238.649,276.2832,238.649L274.0156,238.649L273.7461,237.2486L275.8672,237.2486Q276.5703,237.2486,276.9395,237.1256Q277.3086,236.9967,277.47270000000003,236.6627Q277.6367,236.3287,277.6543,235.6783L277.8125,230.96152L277.9414,226.77206L273.7637,226.77206Q273.207,228.10214,272.4512,229.36191L271.2617,228.57089Q272.1055,227.29355,272.8145,225.54159Q273.5293,223.783781,273.8926,222.254484L275.22270000000003,222.57675Q274.8828,223.959562,274.3203,225.40097L279.3066,225.40097ZM268.9238,222.629484Q268.707,223.707609,268.2383,225.34823L271.0625,225.34823L271.0625,237.7291L266.1699,237.7291L266.1699,238.9185L264.8691,238.9185L264.8691,225.34823L266.7793,225.34823Q267.1191,224.30527,267.5,222.377531L268.9238,222.629484ZM266.1699,230.87362L269.7676,230.87362L269.7676,226.73691L266.1699,226.73691L266.1699,230.87362ZM275.1348,233.8443Q273.9805,232.06308,272.5566,230.24667L273.5469,229.43222Q275.15229999999997,231.37753,276.2832,233.0357L275.1348,233.8443ZM266.1699,232.2623L266.1699,236.34629999999999L269.7676,236.34629999999999L269.7676,232.2623L266.1699,232.2623ZM294.6055,234.401Q295.8652,236.2408,297.9746,237.8228L297.2012,239.1353Q295.168,237.4771,293.8496,235.5904Q292.666,237.2486,290.4512,239.1529L289.5312,238.0396Q291.91020000000003,236.1646,293.0938,234.3307Q291.9629,232.18612,291.5117,229.32675Q291.2246,229.90097,290.8262,230.55136L290.1289,229.27402Q290.90229999999997,227.97323,291.6113,226.12167Q292.3203,224.27011,292.6484,222.66464L293.90819999999997,222.899015Q293.6562,224.12362,293.1348,225.63534L297.9395,225.63534L297.9395,227.02402L296.5684,227.02402Q296.334,229.43222,295.877,231.19589Q295.4199,232.95956,294.6055,234.401ZM281.97270000000003,230.31698Q283.1445,229.68417,284.0234,229.05722Q284.9082,228.42441,285.5703,227.68612L282.2598,227.68612L282.2598,226.55527L285.8574,226.55527L285.8574,222.775969L287.082,222.775969L287.082,226.55527L290.5918,226.55527L290.5918,227.68612L287.082,227.68612L287.082,228.04941Q287.75,228.38925,288.6641,228.91073Q289.584,229.43222,290.2871,229.90097L289.7129,230.96152Q288.6348,230.13534,287.082,229.19784L287.082,230.8912L285.8574,230.8912L285.8574,228.858Q284.6562,230.1705,282.5117,231.41269L281.97270000000003,230.31698ZM284.1875,226.15683Q283.5547,225.11386,282.5996,223.766203L283.4316,223.186125Q283.8066,223.690031,284.5449,224.79159L285.084,225.58261L284.1875,226.15683ZM290.3809,223.801359Q289.584,225.02597,288.65229999999997,226.25058L287.7676,225.61777Q288.166,225.11386,288.6699,224.39316Q289.1738,223.672453,289.4785,223.186125L290.3809,223.801359ZM292.4141,227.45175Q292.7363,230.80331,293.832,233.0357Q294.4121,231.8287,294.7578,230.36972Q295.1094,228.91073,295.3086,227.02402L292.58979999999997,227.02402L292.4141,227.45175ZM289.2969,238.2916L288.541,237.8756L287.0293,237.067Q285.4121,238.1978,282.5117,239.1178L281.9551,237.9635Q284.52729999999997,237.1549,285.8223,236.4517Q284.1348,235.608,283.1211,235.1568Q283.6484,234.3482,284.0762,233.4635L282.1543,233.4635L282.1543,232.36777L284.59770000000003,232.36777Q284.9258,231.62948,285.1426,231.02011L286.3613,231.34237Q286.1094,232.02792,285.9688,232.36777L289.9121,232.36777L289.9121,233.4107Q289.5488,234.2955,289.1152,234.9693Q288.6875,235.6432,288.08979999999997,236.2174L289.8359,237.1021L289.2969,238.2916ZM284.832,234.7057Q285.9336,235.1744,286.959,235.6783Q287.5156,235.2271,287.90229999999997,234.6881Q288.2891,234.149,288.5762,233.4635L285.46479999999997,233.4635Q285.2129,234.0084,284.832,234.7057ZM313.8125,226.08652L302.1113,226.08652L302.1113,228.50058L300.7637,228.50058L300.7637,224.77402L307.7305,224.77402L306.8281,222.740812L308.2695,222.377531L309.2949,224.77402L315.2012,224.77402L315.2012,228.50058L313.8125,228.50058L313.8125,226.08652ZM315.84569999999997,232.58456L315.84569999999997,233.9146L308.9375,233.9146L308.9375,236.5807Q308.9375,237.5182,308.7559,237.981Q308.5742,238.4498,308.1172,238.6197Q307.66020000000003,238.7955,306.72270000000003,238.7955L304.291,238.7955L304.0215,237.4771L306.2363,237.4771Q306.8105,237.4771,307.0684,237.3834Q307.332,237.28379999999999,307.4199,237.026Q307.5137,236.7623,307.5137,236.1822L307.5137,233.9146L300.1133,233.9146L300.1133,232.58456L307.5137,232.58456L307.5137,231.64706L310.6836,229.46737L302.9258,229.46737L302.9258,228.15487L312.9863,228.15487L312.9863,229.4498L308.9375,232.16855L308.9375,232.58456L315.84569999999997,232.58456Z" fill="#000000" fill-opacity="1" style="mix-blend-mode:passthrough"/></g><g style="mix-blend-mode:passthrough"><path d="M243.9043,280.858L243.9043,282.22323L241.5957,282.22323L241.5957,291.1002L240.2656,291.1002L240.2656,282.22323L237.5469,282.22323Q237.5117,284.43808,237.2832,285.9146Q237.0605,287.3912,236.55664,288.6334Q236.05273,289.8756,235.09766,291.3697L234.01953,290.3971Q234.95703,288.9732,235.42578,287.86Q235.89453,286.7467,236.09961,285.3053Q236.30469,283.86386,236.30469,281.54355L236.30469,276.19394Q238.0508,276.01816,239.7793,275.660734Q241.5078,275.297453,242.8203,274.828703L243.2188,276.21152Q241.9941,276.62753,240.4824,276.97323Q238.9707,277.31308,237.5469,277.47128L237.5469,280.858L243.9043,280.858ZM234.57617,285.5396L230.70898,285.5396Q230.59766,287.4088,230.27539,288.5982Q229.95312,289.7877,229.17969,291.317L227.9375,290.6139Q228.64062,289.2486,228.96289,288.2115Q229.28516,287.1744,229.40234,285.7975Q229.51953,284.4205,229.51953,281.88339L229.51953,275.959562Q232.70703,275.654875,235.22656,274.881437L235.51367,276.28769Q233.51562,276.87948,230.7793,277.26034L230.7793,279.58066L234.57617,279.58066L234.57617,285.5396ZM233.29883,280.92831L230.7793,280.92831L230.7793,281.91855Q230.7793,283.52402,230.76172,284.18612L233.29883,284.18612L233.29883,280.92831ZM261.9746,277.97519L252.3594,277.97519Q251.8379,278.98886,251.1758,279.99667L259.9238,279.99667L259.9238,288.8502Q259.9238,289.9283,259.4551,290.3619Q258.9863,290.7955,257.7969,290.7955L255.36520000000002,290.7955L255.1543,289.5357L257.3281,289.5357Q257.8906,289.5357,258.1484,289.44780000000003Q258.4121,289.3541,258.5,289.1373Q258.5879,288.9205,258.5879,288.4693L258.5879,287.4264L250.4727,287.4264L250.4727,290.9713L249.14260000000002,290.9713L249.14260000000002,282.63925Q247.9883,283.91659,246.5996,285.1236L245.99020000000002,283.75839Q248.9082,281.16269,250.79489999999998,277.97519L246.36520000000002,277.97519L246.36520000000002,276.69784L251.4805,276.69784Q252.07229999999998,275.455656,252.418,274.465422L253.8008,274.740812Q253.4434,275.707609,252.9922,276.69784L261.9746,276.69784L261.9746,277.97519ZM250.4727,283.09042L258.5879,283.09042L258.5879,281.21542L250.4727,281.21542L250.4727,283.09042ZM250.4727,284.2623L250.4727,286.26030000000003L258.5879,286.26030000000003L258.5879,284.2623L250.4727,284.2623ZM279.3066,277.40097Q279.2539,279.34628,279.1367,282.90292Q279.0195,286.4537,278.9492,288.3639Q278.9141,289.2252,278.6504,289.7232Q278.3926,290.2154,277.8242,290.4322Q277.2559,290.649,276.2832,290.649L274.0156,290.649L273.7461,289.2486L275.8672,289.2486Q276.5703,289.2486,276.9395,289.1256Q277.3086,288.9967,277.47270000000003,288.6627Q277.6367,288.3287,277.6543,287.6783L277.8125,282.96152L277.9414,278.77206L273.7637,278.77206Q273.207,280.10214,272.4512,281.36191L271.2617,280.57089Q272.1055,279.29355,272.8145,277.54159Q273.5293,275.783781,273.8926,274.254484L275.22270000000003,274.57675Q274.8828,275.959562,274.3203,277.40097L279.3066,277.40097ZM268.9238,274.629484Q268.707,275.707609,268.2383,277.34823L271.0625,277.34823L271.0625,289.7291L266.1699,289.7291L266.1699,290.9185L264.8691,290.9185L264.8691,277.34823L266.7793,277.34823Q267.1191,276.30527,267.5,274.377531L268.9238,274.629484ZM266.1699,282.87362L269.7676,282.87362L269.7676,278.73691L266.1699,278.73691L266.1699,282.87362ZM275.1348,285.8443Q273.9805,284.06308,272.5566,282.24667L273.5469,281.43222Q275.15229999999997,283.37753,276.2832,285.0357L275.1348,285.8443ZM266.1699,284.2623L266.1699,288.3463L269.7676,288.3463L269.7676,284.2623L266.1699,284.2623ZM295.8125,278.08652L284.1113,278.08652L284.1113,280.50058L282.7637,280.50058L282.7637,276.77402L289.7305,276.77402L288.8281,274.740812L290.2695,274.377531L291.2949,276.77402L297.2012,276.77402L297.2012,280.50058L295.8125,280.50058L295.8125,278.08652ZM297.84569999999997,284.58456L297.84569999999997,285.9146L290.9375,285.9146L290.9375,288.5807Q290.9375,289.5182,290.7559,289.981Q290.5742,290.4498,290.1172,290.6197Q289.66020000000003,290.7955,288.72270000000003,290.7955L286.291,290.7955L286.0215,289.4771L288.2363,289.4771Q288.8105,289.4771,289.0684,289.3834Q289.332,289.2838,289.4199,289.026Q289.5137,288.7623,289.5137,288.1822L289.5137,285.9146L282.1133,285.9146L282.1133,284.58456L289.5137,284.58456L289.5137,283.64706L292.6836,281.46737L284.9258,281.46737L284.9258,280.15487L294.9863,280.15487L294.9863,281.4498L290.9375,284.16855L290.9375,284.58456L297.84569999999997,284.58456ZM307.3496,279.68612Q308.97270000000003,277.4537,310.0508,274.506437L311.2402,274.881437L310.7012,276.30527L315.8281,276.30527L315.8281,277.54745L312.71680000000003,277.54745Q313.3848,278.57284,313.707,279.16464L312.6641,279.7623Q312.0137,278.66073,311.5449,277.90487L311.3281,277.54745L310.1211,277.54745Q309.3652,279.07675,308.4863,280.30136L307.3496,279.68612ZM303.084,277.54745Q302.1348,279.16464,300.9805,280.51816L300.0605,279.45175Q300.8691,278.64316,301.77729999999997,277.16659Q302.6914,275.690031,303.1953,274.541594L304.4551,274.863859Q304.2383,275.402922,303.7871,276.30527L308.2695,276.30527L308.2695,277.54745L305.2109,277.54745Q305.8965,278.44394,306.34180000000003,279.1998L305.2637,279.83261Q304.59569999999997,278.73691,303.7344,277.54745L303.084,277.54745ZM304.9062,280.30136Q304.47270000000003,281.29159,303.9512,282.22323L303.9512,290.9713L302.6152,290.9713L302.6152,284.2623Q301.6836,285.4635,300.582,286.4361L299.97270000000003,285.2291Q302.1875,283.09042,303.752,279.79745L304.9062,280.30136ZM315.90430000000003,282.1705L315.90430000000003,283.52402L313.2734,283.52402L313.2734,288.7975Q313.2734,289.606,313.0625,290.0455Q312.8574,290.4908,312.34180000000003,290.6783Q311.832,290.8658,310.8828,290.8658L308.6328,290.8658L308.3574,289.5006L310.5195,289.5006Q311.15229999999997,289.5006,311.4395,289.4127Q311.7266,289.3189,311.8262,289.0963Q311.9258,288.8678,311.9258,288.3814L311.9258,283.52402L305.0469,283.52402L305.0469,282.1705L311.9258,282.1705L311.9258,280.2662L313.2734,280.2662L313.2734,282.1705L315.90430000000003,282.1705ZM308.5742,287.94780000000003Q307.6953,286.817,306.0723,285.0533L307.0801,284.15097Q308.7559,285.9908,309.5996,287.0162L308.5742,287.94780000000003ZM326.6504,281.34433L326.6504,283.12558L332.949,283.12558L332.949,288.1295L326.6504,288.1295L326.6504,291.065L325.3145,291.065L325.3145,288.1295L319.1035,288.1295L319.1035,283.12558L325.3145,283.12558L325.3145,281.34433L319.84180000000003,281.34433L319.84180000000003,276.52206L325.3145,276.52206L325.3145,274.594328L326.6504,274.594328L326.6504,276.52206L332.193,276.52206L332.193,281.34433L326.6504,281.34433ZM321.16020000000003,277.68808L321.16020000000003,280.19003L325.3145,280.19003L325.3145,277.68808L321.16020000000003,277.68808ZM330.881,280.19003L330.881,277.68808L326.6504,277.68808L326.6504,280.19003L330.881,280.19003ZM320.4395,284.29745L320.4395,286.94L325.3145,286.94L325.3145,284.29745L320.4395,284.29745ZM326.6504,284.29745L326.6504,286.94L331.596,286.94L331.596,284.29745L326.6504,284.29745Z" fill="#000000" fill-opacity="1" style="mix-blend-mode:passthrough"/></g><g style="mix-blend-mode:passthrough"><path d="M235.34961,331.68612Q236.97266,329.4537,238.0508,326.506437L239.2402,326.881437L238.7012,328.30527L243.8281,328.30527L243.8281,329.54745L240.7168,329.54745Q241.3848,330.57284,241.707,331.16464L240.6641,331.7623Q240.0137,330.66073,239.5449,329.90487L239.3281,329.54745L238.1211,329.54745Q237.3652,331.07675,236.48633,332.30136L235.34961,331.68612ZM231.08398,329.54745Q230.13477,331.16464,228.98047,332.51816L228.06055,331.45175Q228.86914,330.64316,229.77734,329.16659Q230.69141,327.690031,231.19531,326.541594L232.45508,326.863859Q232.23828,327.402922,231.78711,328.30527L236.26953,328.30527L236.26953,329.54745L233.21094,329.54745Q233.89648,330.44394,234.3418,331.1998L233.26367,331.83261Q232.5957,330.73691,231.73438,329.54745L231.08398,329.54745ZM232.90625,332.30136Q232.47266,333.29159,231.95117,334.22323L231.95117,342.9713L230.61523,342.9713L230.61523,336.2623Q229.68359,337.4635,228.58203,338.4361L227.972656,337.2291Q230.1875,335.09042,231.75195,331.79745L232.90625,332.30136ZM243.9043,334.1705L243.9043,335.52402L241.2734,335.52402L241.2734,340.7975Q241.2734,341.606,241.0625,342.0455Q240.8574,342.4908,240.3418,342.6783Q239.832,342.8658,238.8828,342.8658L236.63281,342.8658L236.35742,341.5006L238.5195,341.5006Q239.1523,341.5006,239.4395,341.4127Q239.7266,341.3189,239.8262,341.0963Q239.9258,340.8678,239.9258,340.3814L239.9258,335.52402L233.04688,335.52402L233.04688,334.1705L239.9258,334.1705L239.9258,332.2662L241.2734,332.2662L241.2734,334.1705L243.9043,334.1705ZM236.57422,339.94780000000003Q235.69531,338.817,234.07227,337.0533L235.08008,336.15097Q236.75586,337.9908,237.5996,339.0162L236.57422,339.94780000000003ZM248.3457,327.455656L259.6543,327.455656L259.6543,332.24862L248.3457,332.24862L248.3457,327.455656ZM249.7871,331.05917L258.2305,331.05917L258.2305,328.66269L249.7871,328.66269L249.7871,331.05917ZM262.02729999999997,335.108L250.7422,335.108L250.3613,336.97714L259.47270000000003,336.97714Q259.3086,339.1392,259.2031,340.1998Q259.0742,341.2486,258.7695,341.7818Q258.4648,342.3092,257.7852,342.5142Q257.1113,342.7193,255.8164,342.7193L252.0371,342.7193L251.7852,341.3717L255.4062,341.3717Q256.3555,341.3717,256.7891,341.2721Q257.2227,341.1725,257.4102,340.8795Q257.5977,340.5807,257.6738,339.8951L257.7266,339.3209Q257.7793,338.8346,257.832,338.1666L248.5977,338.1666L249.2305,335.108L246.0078,335.108L246.0078,333.90097L262.02729999999997,333.90097L262.02729999999997,335.108ZM264.2246,335.05527Q267.8984,333.93612,270.4883,331.68612L264.6582,331.68612L264.6582,330.50253L271.2969,330.50253L271.2969,326.699797L272.668,326.699797L272.668,330.50253L279.3594,330.50253L279.3594,331.68612L272.668,331.68612L272.668,332.06698Q276.1426,333.39706,279.6875,334.90878L279.2363,336.09823Q274.9531,334.20566,272.668,333.32675L272.668,334.78573L271.2969,334.78573L271.2969,332.60605Q269.9844,333.81308,268.4785,334.68027Q266.9785,335.54159,264.6758,336.36777L264.2246,335.05527ZM268.6719,330.46152Q267.8223,329.61777,265.8594,327.906828L266.6738,326.99276543L267.2305,327.455656Q268.5254,328.52206,269.5508,329.47128L268.6719,330.46152ZM278.1582,327.88925Q277.1504,328.87948,275.3105,330.44394L274.4492,329.52987Q276.16020000000003,328.08847,277.2383,326.99276543L278.1582,327.88925ZM272.8086,338.0435Q273.582,339.2506,275.3105,340.1705Q277.0391,341.0846,279.7578,341.5709L279.4355,343.0299Q276.5527,342.3092,274.7539,341.4127Q272.9551,340.51030000000003,272.0703,339.2506Q271.332,340.4517,269.5566,341.2896Q267.7871,342.1275,264.5293,342.9713L264.1367,341.5709Q267.2129,340.9205,268.8828,340.0767Q270.5586,339.2271,271.0625,338.0435L264.5293,338.0435L264.5293,336.85409L271.2969,336.85409L271.2969,335.50644L272.6855,335.50644L272.6855,336.85409L279.4883,336.85409L279.4883,338.0435L272.8086,338.0435ZM293.2051,336.2623L292.97069999999997,335.02011L294.3535,335.02011Q295.1094,335.02011,295.3906,334.79745Q295.6719,334.56894,295.6719,333.88339L295.6719,326.9517498L296.9316,326.9517498L296.9316,334.22323Q296.9316,335.02011,296.7383,335.4537Q296.5508,335.88144,296.0938,336.0748Q295.6367,336.2623,294.7695,336.2623L293.2051,336.2623ZM282.4062,336.0455Q283.4141,335.03769,283.8594,334.31698Q284.3105,333.59628,284.4395,332.77011L282.3652,332.77011L282.3652,331.56308L284.52729999999997,331.56308L284.52729999999997,331.07675L284.52729999999997,328.91464L282.8164,328.91464L282.8164,327.654875L291.1895,327.654875L291.1895,328.91464L289.4961,328.91464L289.4961,331.56308L291.5645,331.56308L291.5645,332.77011L289.4961,332.77011L289.4961,336.08066L288.2363,336.08066L288.2363,332.77011L285.7168,332.77011Q285.5703,333.93612,285.084,334.83847Q284.59770000000003,335.74081,283.4668,336.83652L282.4062,336.0455ZM292.2676,327.88925L293.52729999999997,327.88925L293.52729999999997,333.91855L292.2676,333.91855L292.2676,327.88925ZM285.7871,328.91464L285.7871,331.09433L285.7871,331.56308L288.2363,331.56308L288.2363,328.91464L285.7871,328.91464ZM290.7383,338.9986L290.7383,341.2486L297.8867,341.2486L297.8867,342.4674L282.1367,342.4674L282.1367,341.2486L289.3672,341.2486L289.3672,338.9986L283.8594,338.9986L283.8594,337.7564L289.3672,337.7564L289.3672,336.47323L290.7383,336.47323L290.7383,337.7564L296.2109,337.7564L296.2109,338.9986L290.7383,338.9986ZM306.6699,328.17636L308.1641,328.17636L308.1641,339.8775Q308.1641,340.6158,308.90229999999997,340.6158L309.3535,340.6158L309.3535,342.0221L308.5625,342.0221Q306.6699,342.0221,306.6699,340.276L306.6699,328.17636ZM319.09180000000003,336.27987Q319.09180000000003,336.90683,318.9805,337.5045L312.2539,337.5045Q312.34180000000003,338.9986,313.1328,339.86Q313.9238,340.7213,315.2363,340.7213Q315.9746,340.7213,316.625,340.3639Q317.2754,340.0064,317.7383,339.3033L318.91020000000003,340.1119Q317.6328,342.0924,315.2363,342.0924Q313.1328,342.0924,311.9141,340.7623Q310.7012,339.4264,310.7012,337.106Q310.7012,334.76816,311.8555,333.4205Q313.0098,332.06698,315.0254,332.06698Q316.9121,332.06698,318.002,333.2037Q319.09180000000003,334.33456,319.09180000000003,336.27987ZM317.5625,336.15097Q317.5625,334.90878,316.8652,334.1705Q316.1738,333.43222,315.0254,333.43222Q313.9414,333.43222,313.22069999999997,334.15292Q312.5059,334.87362,312.3066,336.15097L317.5625,336.15097ZM326.0996,333.71933L323.34569999999997,333.71933L323.34569999999997,339.192Q323.34569999999997,339.9889,323.7617,340.4225Q324.1777,340.8502,324.916,340.8502Q325.3438,340.8502,325.8887,340.6685L325.8887,342.0396Q325.40229999999997,342.2389,324.6055,342.2389Q323.2754,342.2389,322.5605,341.483Q321.8516,340.7213,321.8516,339.3033L321.8516,333.71933L320.3574,333.71933L320.3574,332.31894L321.8516,332.31894L321.8516,329.2955L323.34569999999997,329.2955L323.34569999999997,332.31894L326.0996,332.31894L326.0996,333.71933ZM337.145,342.11Q335.773,342.11,334.801,341.524Q333.828,340.9381,333.289,339.9654L334.56600000000003,339.2271Q334.98199999999997,339.94780000000003,335.656,340.3463Q336.33,340.7447,337.197,340.7447Q338.094,340.7447,338.615,340.3873Q339.14300000000003,340.024,339.14300000000003,339.4088Q339.14300000000003,338.817,338.615,338.44780000000003Q338.094,338.0787,336.89300000000003,337.8092Q335.217,337.4283,334.396,336.7662Q333.576,336.09823,333.576,335.03769Q333.576,333.64902,334.514,332.858Q335.451,332.06698,337.068,332.06698Q339.395,332.06698,340.707,334.04745L339.51800000000003,334.8912Q339.049,334.1705,338.416,333.80136Q337.789,333.43222,337.051,333.43222Q336.172,333.43222,335.639,333.83066Q335.105,334.22323,335.105,334.85605Q335.105,335.39511,335.68,335.79355Q336.26,336.18612,337.414,336.45566Q340.672,337.1764,340.672,339.1744Q340.672,340.5455,339.723,341.3307Q338.779,342.11,337.145,342.11ZM345.18899999999996,341.858L341.48,332.31894L343.156,332.31894L346.039,340.0064L346.145,340.0064L348.898,332.31894L350.574,332.31894L345.225,346.1939L343.572,346.1939L345.18899999999996,341.858ZM352.045,341.858L352.045,332.31894L353.539,332.31894L353.539,333.64902L353.633,333.64902Q354.078,332.92831,354.78700000000003,332.50058Q355.502,332.06698,356.25800000000004,332.06698Q357.178,332.06698,357.85699999999997,332.57089Q358.543,333.0748,358.94100000000003,334.02987L359.029,334.02987Q359.51599999999996,333.10995,360.342,332.58847Q361.174,332.06698,362.199,332.06698Q363.711,332.06698,364.555,333.05722Q365.404,334.04745,365.404,335.81112L365.404,341.858L363.90999999999997,341.858L363.90999999999997,336.02792Q363.90999999999997,334.85605,363.348,334.14706Q362.791,333.43222,361.871,333.43222Q360.793,333.43222,360.137,334.18808Q359.48,334.94394,359.48,336.2037L359.48,341.858L357.969,341.858L357.969,336.02792Q357.969,334.85605,357.406,334.14706Q356.85,333.43222,355.953,333.43222Q354.869,333.43222,354.201,334.1998Q353.539,334.96152,353.539,336.2037L353.539,341.858L352.045,341.858ZM382.449,333.63144L374.31600000000003,333.63144L374.31600000000003,332.24862L382.449,332.24862L382.449,333.63144ZM382.449,337.6275L374.31600000000003,337.6275L374.31600000000003,336.24472L382.449,336.24472L382.449,337.6275ZM395.562,342.11Q393.975,342.11,392.68,341.401Q391.385,340.6861,390.629,339.3736L391.959,338.565Q392.557,339.5904,393.471,340.1119Q394.39099999999996,340.6334,395.58000000000004,340.6334Q396.44100000000003,340.6334,397.145,340.3404Q397.848,340.0416,398.24,339.5201Q398.639,338.9986,398.639,338.3482Q398.639,337.6627,398.28700000000003,337.1939Q397.93600000000004,336.72519,397.203,336.37948Q396.477,336.02792,395.23400000000004,335.66464Q393.887,335.27206,393.02,334.88534Q392.158,334.49862,391.56100000000004,333.74277Q390.969,332.98691,390.969,331.74472Q390.969,330.64316,391.555,329.77011Q392.14099999999996,328.89706,393.18899999999996,328.41073Q394.244,327.924406,395.615,327.924406Q397.145,327.924406,398.25800000000004,328.55722Q399.377,329.18417,400.098,330.33847L398.873,331.21737Q398.281,330.37362,397.426,329.8873Q396.57,329.40097,395.58000000000004,329.40097Q394.73,329.40097,394.039,329.6998Q393.348,329.99862,392.949,330.50253Q392.557,331.00644,392.557,331.61581Q392.557,332.42441,393.002,332.94003Q393.453,333.4498,394.139,333.73105Q394.824,334.0123,395.973,334.31698Q397.273,334.67441,398.16999999999996,335.108Q399.072,335.54159,399.64599999999996,336.31503Q400.221,337.0885,400.221,338.2955Q400.221,339.4439,399.64599999999996,340.3111Q399.072,341.1725,398.01800000000003,341.6412Q396.96299999999997,342.11,395.562,342.11ZM404.81399999999996,341.858L401.105,332.31894L402.781,332.31894L405.664,340.0064L405.77,340.0064L408.523,332.31894L410.199,332.31894L404.85,346.1939L403.197,346.1939L404.81399999999996,341.858ZM411.66999999999996,341.858L411.66999999999996,332.31894L413.164,332.31894L413.164,333.64902L413.25800000000004,333.64902Q413.703,332.92831,414.41200000000003,332.50058Q415.127,332.06698,415.88300000000004,332.06698Q416.803,332.06698,417.48199999999997,332.57089Q418.168,333.0748,418.56600000000003,334.02987L418.654,334.02987Q419.14099999999996,333.10995,419.967,332.58847Q420.799,332.06698,421.824,332.06698Q423.336,332.06698,424.18,333.05722Q425.029,334.04745,425.029,335.81112L425.029,341.858L423.53499999999997,341.858L423.53499999999997,336.02792Q423.53499999999997,334.85605,422.973,334.14706Q422.416,333.43222,421.496,333.43222Q420.418,333.43222,419.762,334.18808Q419.105,334.94394,419.105,336.2037L419.105,341.858L417.594,341.858L417.594,336.02792Q417.594,334.85605,417.031,334.14706Q416.475,333.43222,415.578,333.43222Q414.494,333.43222,413.826,334.1998Q413.164,334.96152,413.164,336.2037L413.164,341.858L411.66999999999996,341.858ZM427.41999999999996,341.858L427.41999999999996,328.17636L428.914,328.17636L428.914,333.66659L429.00800000000004,333.66659Q429.547,332.92831,430.326,332.50644Q431.111,332.08456,432.014,332.08456Q433.16200000000003,332.08456,434.08799999999997,332.70566Q435.02,333.32675,435.541,334.42831Q436.062,335.52402,436.062,336.90683Q436.062,338.401,435.541,339.5846Q435.02,340.7623,434.08799999999997,341.4303Q433.16200000000003,342.0924,432.014,342.0924Q431.05899999999997,342.0924,430.28499999999997,341.6822Q429.512,341.2662,429.00800000000004,340.4928L428.914,340.4928L428.914,341.858L427.41999999999996,341.858ZM428.844,337.0885Q428.844,338.1139,429.195,338.9283Q429.547,339.7369,430.18600000000004,340.1881Q430.824,340.6334,431.615,340.6334Q432.44100000000003,340.6334,433.10900000000004,340.1881Q433.777,339.7369,434.152,338.9283Q434.533,338.1139,434.533,337.0885Q434.533,336.06308,434.164,335.25448Q433.79499999999996,334.44003,433.145,333.99472Q432.494,333.54355,431.668,333.54355Q430.85900000000004,333.54355,430.209,333.99472Q429.56399999999996,334.44003,429.201,335.25448Q428.844,336.06308,428.844,337.0885ZM442.18600000000004,342.11Q440.86699999999996,342.11,439.877,341.5006Q438.89300000000003,340.88530000000003,438.35900000000004,339.7545Q437.826,338.6178,437.826,337.0885Q437.826,335.55917,438.35900000000004,334.42831Q438.89300000000003,333.29159,439.877,332.68222Q440.86699999999996,332.06698,442.18600000000004,332.06698Q443.498,332.06698,444.477,332.68222Q445.461,333.29159,446,334.42831Q446.539,335.55917,446.539,337.0885Q446.539,338.6178,446,339.7545Q445.461,340.88530000000003,444.477,341.5006Q443.498,342.11,442.18600000000004,342.11ZM442.18600000000004,340.7037Q443.48,340.7037,444.24199999999996,339.7369Q445.01,338.7642,445.01,337.0885Q445.01,335.41269,444.24199999999996,334.44003Q443.48,333.46737,442.18600000000004,333.46737Q440.89099999999996,333.46737,440.123,334.44003Q439.355,335.41269,439.355,337.0885Q439.355,338.7642,440.123,339.7369Q440.89099999999996,340.7037,442.18600000000004,340.7037ZM448.79499999999996,328.17636L450.289,328.17636L450.289,339.8775Q450.289,340.6158,451.027,340.6158L451.47900000000004,340.6158L451.47900000000004,342.0221L450.688,342.0221Q448.79499999999996,342.0221,448.79499999999996,340.276L448.79499999999996,328.17636ZM455.49199999999996,342.9361Q454.467,341.19,453.887,339.0221Q453.312,336.85409,453.312,334.83847Q453.312,332.80527,453.887,330.64316Q454.467,328.48105,455.49199999999996,326.740812L456.986,326.740812Q455.943,328.55722,455.375,330.70761Q454.807,332.858,454.807,334.83847Q454.807,336.78378,455.381,338.9459Q455.961,341.1021,456.986,342.9361L455.49199999999996,342.9361ZM459.89300000000003,331.31112L458.797,331.31112L458.451,326.717375L460.21500000000003,326.717375L459.89300000000003,331.31112ZM462.55899999999997,331.31112L461.43899999999996,331.31112L461.135,326.717375L462.898,326.717375L462.55899999999997,331.31112ZM469.725,333.71933L466.971,333.71933L466.971,339.192Q466.971,339.9889,467.387,340.4225Q467.803,340.8502,468.541,340.8502Q468.969,340.8502,469.514,340.6685L469.514,342.0396Q469.027,342.2389,468.23,342.2389Q466.9,342.2389,466.18600000000004,341.483Q465.477,340.7213,465.477,339.3033L465.477,333.71933L463.98199999999997,333.71933L463.98199999999997,332.31894L465.477,332.31894L465.477,329.2955L466.971,329.2955L466.971,332.31894L469.725,332.31894L469.725,333.71933ZM479.217,336.27987Q479.217,336.90683,479.105,337.5045L472.379,337.5045Q472.467,338.9986,473.25800000000004,339.86Q474.049,340.7213,475.361,340.7213Q476.1,340.7213,476.75,340.3639Q477.4,340.0064,477.863,339.3033L479.03499999999997,340.1119Q477.75800000000004,342.0924,475.361,342.0924Q473.25800000000004,342.0924,472.039,340.7623Q470.826,339.4264,470.826,337.106Q470.826,334.76816,471.98,333.4205Q473.135,332.06698,475.15,332.06698Q477.03700000000003,332.06698,478.127,333.2037Q479.217,334.33456,479.217,336.27987ZM477.688,336.15097Q477.688,334.90878,476.99,334.1705Q476.299,333.43222,475.15,333.43222Q474.06600000000003,333.43222,473.346,334.15292Q472.631,334.87362,472.432,336.15097L477.688,336.15097ZM484.52,342.11Q483.148,342.11,482.176,341.524Q481.203,340.9381,480.664,339.9654L481.94100000000003,339.2271Q482.35699999999997,339.94780000000003,483.031,340.3463Q483.705,340.7447,484.572,340.7447Q485.469,340.7447,485.99,340.3873Q486.518,340.024,486.518,339.4088Q486.518,338.817,485.99,338.44780000000003Q485.469,338.0787,484.268,337.8092Q482.592,337.4283,481.77099999999996,336.7662Q480.951,336.09823,480.951,335.03769Q480.951,333.64902,481.889,332.858Q482.826,332.06698,484.443,332.06698Q486.77,332.06698,488.082,334.04745L486.893,334.8912Q486.424,334.1705,485.791,333.80136Q485.164,333.43222,484.426,333.43222Q483.547,333.43222,483.014,333.83066Q482.48,334.22323,482.48,334.85605Q482.48,335.39511,483.055,335.79355Q483.635,336.18612,484.789,336.45566Q488.047,337.1764,488.047,339.1744Q488.047,340.5455,487.098,341.3307Q486.154,342.11,484.52,342.11ZM494.85,333.71933L492.096,333.71933L492.096,339.192Q492.096,339.9889,492.512,340.4225Q492.928,340.8502,493.666,340.8502Q494.094,340.8502,494.639,340.6685L494.639,342.0396Q494.152,342.2389,493.355,342.2389Q492.025,342.2389,491.311,341.483Q490.602,340.7213,490.602,339.3033L490.602,333.71933L489.107,333.71933L489.107,332.31894L490.602,332.31894L490.602,329.2955L492.096,329.2955L492.096,332.31894L494.85,332.31894L494.85,333.71933ZM499.52,342.11Q498.148,342.11,497.176,341.524Q496.203,340.9381,495.664,339.9654L496.941,339.2271Q497.357,339.94780000000003,498.031,340.3463Q498.705,340.7447,499.572,340.7447Q500.469,340.7447,500.99,340.3873Q501.518,340.024,501.518,339.4088Q501.518,338.817,500.99,338.44780000000003Q500.469,338.0787,499.268,337.8092Q497.592,337.4283,496.771,336.7662Q495.951,336.09823,495.951,335.03769Q495.951,333.64902,496.889,332.858Q497.826,332.06698,499.443,332.06698Q501.77,332.06698,503.082,334.04745L501.893,334.8912Q501.424,334.1705,500.791,333.80136Q500.164,333.43222,499.426,333.43222Q498.547,333.43222,498.014,333.83066Q497.48,334.22323,497.48,334.85605Q497.48,335.39511,498.055,335.79355Q498.635,336.18612,499.789,336.45566Q503.047,337.1764,503.047,339.1744Q503.047,340.5455,502.098,341.3307Q501.154,342.11,499.52,342.11ZM507.564,341.858L503.855,332.31894L505.531,332.31894L508.414,340.0064L508.52,340.0064L511.273,332.31894L512.9490000000001,332.31894L507.6,346.1939L505.947,346.1939L507.564,341.858ZM514.4200000000001,341.858L514.4200000000001,332.31894L515.914,332.31894L515.914,333.64902L516.008,333.64902Q516.453,332.92831,517.162,332.50058Q517.877,332.06698,518.633,332.06698Q519.553,332.06698,520.232,332.57089Q520.918,333.0748,521.316,334.02987L521.404,334.02987Q521.8910000000001,333.10995,522.717,332.58847Q523.549,332.06698,524.5740000000001,332.06698Q526.086,332.06698,526.9300000000001,333.05722Q527.779,334.04745,527.779,335.81112L527.779,341.858L526.2850000000001,341.858L526.2850000000001,336.02792Q526.2850000000001,334.85605,525.723,334.14706Q525.1659999999999,333.43222,524.246,333.43222Q523.168,333.43222,522.512,334.18808Q521.855,334.94394,521.855,336.2037L521.855,341.858L520.344,341.858L520.344,336.02792Q520.344,334.85605,519.781,334.14706Q519.225,333.43222,518.328,333.43222Q517.244,333.43222,516.576,334.1998Q515.914,334.96152,515.914,336.2037L515.914,341.858L514.4200000000001,341.858ZM530.1700000000001,341.858L530.1700000000001,328.17636L531.664,328.17636L531.664,333.66659L531.758,333.66659Q532.297,332.92831,533.076,332.50644Q533.861,332.08456,534.764,332.08456Q535.912,332.08456,536.838,332.70566Q537.77,333.32675,538.2909999999999,334.42831Q538.812,335.52402,538.812,336.90683Q538.812,338.401,538.2909999999999,339.5846Q537.77,340.7623,536.838,341.4303Q535.912,342.0924,534.764,342.0924Q533.809,342.0924,533.0350000000001,341.6822Q532.262,341.2662,531.758,340.4928L531.664,340.4928L531.664,341.858L530.1700000000001,341.858ZM531.594,337.0885Q531.594,338.1139,531.9449999999999,338.9283Q532.297,339.7369,532.9359999999999,340.1881Q533.5740000000001,340.6334,534.365,340.6334Q535.191,340.6334,535.8589999999999,340.1881Q536.527,339.7369,536.902,338.9283Q537.283,338.1139,537.283,337.0885Q537.283,336.06308,536.914,335.25448Q536.5450000000001,334.44003,535.895,333.99472Q535.244,333.54355,534.418,333.54355Q533.6089999999999,333.54355,532.9590000000001,333.99472Q532.3140000000001,334.44003,531.951,335.25448Q531.594,336.06308,531.594,337.0885ZM544.9359999999999,342.11Q543.617,342.11,542.627,341.5006Q541.643,340.88530000000003,541.1089999999999,339.7545Q540.576,338.6178,540.576,337.0885Q540.576,335.55917,541.1089999999999,334.42831Q541.643,333.29159,542.627,332.68222Q543.617,332.06698,544.9359999999999,332.06698Q546.248,332.06698,547.227,332.68222Q548.211,333.29159,548.75,334.42831Q549.289,335.55917,549.289,337.0885Q549.289,338.6178,548.75,339.7545Q548.211,340.88530000000003,547.227,341.5006Q546.248,342.11,544.9359999999999,342.11ZM544.9359999999999,340.7037Q546.23,340.7037,546.992,339.7369Q547.76,338.7642,547.76,337.0885Q547.76,335.41269,546.992,334.44003Q546.23,333.46737,544.9359999999999,333.46737Q543.6410000000001,333.46737,542.873,334.44003Q542.105,335.41269,542.105,337.0885Q542.105,338.7642,542.873,339.7369Q543.6410000000001,340.7037,544.9359999999999,340.7037ZM551.5450000000001,328.17636L553.039,328.17636L553.039,339.8775Q553.039,340.6158,553.777,340.6158L554.229,340.6158L554.229,342.0221L553.438,342.0221Q551.5450000000001,342.0221,551.5450000000001,340.276L551.5450000000001,328.17636ZM557.018,331.31112L555.922,331.31112L555.576,326.717375L557.3399999999999,326.717375L557.018,331.31112ZM559.684,331.31112L558.5640000000001,331.31112L558.26,326.717375L560.023,326.717375L559.684,331.31112ZM561.3240000000001,342.9361Q562.367,341.1197,562.9359999999999,338.9635Q563.504,336.80136,563.504,334.83847Q563.504,332.858,562.9359999999999,330.70761Q562.367,328.55722,561.3240000000001,326.740812L562.818,326.740812Q563.861,328.48105,564.4300000000001,330.6373Q564.998,332.78769,564.998,334.83847Q564.998,336.87167,564.4300000000001,339.0338Q563.861,341.19,562.818,342.9361L561.3240000000001,342.9361Z" fill="#000000" fill-opacity="1" style="mix-blend-mode:passthrough"/></g><g style="mix-blend-mode:passthrough"><path d="M599.34375,16.881437Q598.76953,19.02597,598.11914,20.73691L598.11914,32.9537L596.82422,32.9537L596.82422,23.64902Q596.17969,24.90878,595.36523,26.13339L594.791016,24.49862Q595.72852,23.09237,596.56641,21.006439999999998Q597.4043,18.91464,597.96094,16.611906L599.34375,16.881437ZM609.4805,21.02402L609.4805,31.266199999999998L611.0625,31.266199999999998L611.0625,32.449799999999996L598.98633,32.449799999999996L598.98633,31.266199999999998L600.60352,31.266199999999998L600.60352,21.02402L604.3652,21.02402L604.3652,19.36581L599.83008,19.36581L599.83008,18.19394L604.3652,18.19394L604.3652,16.629484L605.7188,16.629484L605.7188,18.19394L610.5938,18.19394L610.5938,19.36581L605.7188,19.36581L605.7188,21.02402L609.4805,21.02402ZM608.1504,23.61386L608.1504,22.19003L601.93945,22.19003L601.93945,23.61386L608.1504,23.61386ZM601.93945,26.06308L608.1504,26.06308L608.1504,24.67441L601.93945,24.67441L601.93945,26.06308ZM608.1504,28.652900000000002L608.1504,27.141199999999998L601.93945,27.141199999999998L601.93945,28.652900000000002L608.1504,28.652900000000002ZM608.1504,29.6783L601.93945,29.6783L601.93945,31.266199999999998L608.1504,31.266199999999998L608.1504,29.6783Z" fill="#FFFFFF" fill-opacity="1" style="mix-blend-mode:passthrough"/></g></g></svg>