<svg xmlns="http://www.w3.org/2000/svg" xmlns:xlink="http://www.w3.org/1999/xlink" fill="none" version="1.1" width="963" height="355" viewBox="0 0 963 355"><g style="mix-blend-mode:passthrough"><g style="mix-blend-mode:passthrough"><rect x="699" y="1" width="263" height="353" rx="4" fill-opacity="0" stroke-opacity="1" stroke="#000000" fill="none" stroke-width="2"/></g><g style="mix-blend-mode:passthrough"><path d="M802.8867,33.650999999999996L802.8867,34.8756L794.83594,34.8756L794.83594,36.0475L793.54102,36.0475L793.54102,26.0748Q792.82031,27.33456,792.09961,28.27206L791.41992,26.91855Q793.54102,24.09433,794.81836,19.488859L796.1543,19.775969Q795.73828,21.19394,795.23438,22.4537L798.5449,22.4537Q798.0938,21.00058,797.7012,19.9341717L798.9434,19.629484Q799.6992,21.80917,799.916,22.4537L802.7227,22.4537L802.7227,23.71347L799.377,23.71347L799.377,26.162689999999998L802.4004,26.162689999999998L802.4004,27.36972L799.377,27.36972L799.377,29.85409L802.4004,29.85409L802.4004,31.078699999999998L799.377,31.078699999999998L799.377,33.650999999999996L802.8867,33.650999999999996ZM790.57031,31.2955L792.69727,30.5572L792.75,31.201700000000002L792.83789,31.904899999999998L787.1543,33.9557L786.808594,32.6256L789.25781,31.764200000000002L789.25781,25.318939999999998L787.34766,25.318939999999998L787.34766,23.93027L789.25781,23.93027L789.25781,19.75839L790.57031,19.75839L790.57031,23.93027L792.21094,23.93027L792.21094,25.318939999999998L790.57031,25.318939999999998L790.57031,31.2955ZM794.83594,26.162689999999998L798.0586,26.162689999999998L798.0586,23.71347L794.83594,23.71347L794.83594,26.162689999999998ZM794.83594,29.85409L798.0586,29.85409L798.0586,27.36972L794.83594,27.36972L794.83594,29.85409ZM798.0586,31.078699999999998L794.83594,31.078699999999998L794.83594,33.650999999999996L798.0586,33.650999999999996L798.0586,31.078699999999998ZM819.6973,22.43612L819.6973,33.5807Q819.6973,34.4771,819.498,34.934200000000004Q819.2988,35.3971,818.7949,35.567Q818.2909999999999,35.7428,817.3184,35.7428L815.0508,35.7428L814.7812,34.371700000000004L816.9082,34.371700000000004Q817.5527,34.371700000000004,817.8516,34.2838Q818.1504,34.19,818.2441,33.9381Q818.3438,33.686099999999996,818.3438,33.1295L818.3438,23.80722L813.6855,23.80722Q813.6504,25.17245,813.3984,26.27402Q814.582,27.42245,817.8223,30.774L816.8672,31.8521Q815.4492,30.305300000000003,812.8945,27.67441Q812.3672,28.828699999999998,811.4297,29.91855Q810.498,31.0084,809.0215,32.1744L808.1191,31.0084Q809.7422,29.748620000000003,810.6387,28.6705Q811.541,27.58652,811.916,26.45566Q812.2969,25.318939999999998,812.332,23.80722L807.6738,23.80722L807.6738,35.9185L806.3027,35.9185L806.3027,22.43612L812.332,22.43612L812.332,19.682219L813.6855,19.682219L813.6855,22.43612L819.6973,22.43612ZM838.9219,21.53964L838.9219,22.83456L829.2363,22.83456Q828.2988,24.90292,827.0391,26.71933L827.0391,36.0475L825.7090000000001,36.0475L825.7090000000001,28.412689999999998Q824.7012,29.58456,823.5645,30.6451L822.9375,29.2623Q825.8906,26.50839,827.6367,22.83456L823.2598,22.83456L823.2598,21.53964L828.1934,21.53964Q828.5684,20.619719,828.9141,19.524015L830.3906,19.699797Q830.0273,20.871672,829.7578,21.53964L838.9219,21.53964ZM834.3867,28.828699999999998L834.3867,29.38534L838.9219,29.38534L838.9219,30.627499999999998L834.3867,30.627499999999998L834.3867,33.815Q834.3867,34.606,834.1875,35.0338Q833.9883,35.4674,833.4902,35.6549Q832.998,35.8482,832.0605,35.8482L830.0449,35.8482L829.7754,34.5709L831.6094,34.5709Q832.207,34.5709,832.5,34.483000000000004Q832.7988,34.3892,832.9043,34.1666Q833.0156,33.9381,833.0156,33.4928L833.0156,30.627499999999998L827.9590000000001,30.627499999999998L827.9590000000001,29.38534L833.0156,29.38534L833.0156,28.23691L835.8047,26.27402L829.2188,26.27402L829.2188,25.03183L837.9492,25.03183L837.9492,26.27402L834.3867,28.828699999999998ZM843.2402,22.94003L843.2402,25.2662L841.8691,25.2662L841.8691,21.64511L848.5488,21.64511Q848.2441,20.60214,847.957,19.828703L849.3574,19.57675Q849.5391,20.0279217,850.0781,21.64511L856.1309,21.64511L856.1309,25.28378L854.7422,25.28378L854.7422,22.94003L843.2402,22.94003ZM850.7109,24.18222Q851.9883,24.850189999999998,853.9336,25.92245Q855.8789,26.99472,856.8867,27.58652L856.2012,28.79355Q855.0645,28.09042,853.1484,27.02987Q851.2324,25.96347,850.0957,25.40683L850.7109,24.18222ZM847.9043,25.40683Q846.5859,26.29159,844.9219,27.26425Q843.2578,28.23691,841.7284999999999,28.99277L841.1367,27.69198Q842.6659999999999,27.0123,844.3125,26.05136Q845.9590000000001,25.08456,847.1659999999999,24.1998L847.9043,25.40683ZM854.7422,30.1764L849.7383,30.1764L849.7383,33.9557L856.5234,33.9557L856.5234,35.274L841.4941,35.274L841.4941,33.9557L848.2793,33.9557L848.2793,30.1764L843.2754,30.1764L843.2754,28.863860000000003L854.7422,28.863860000000003L854.7422,30.1764ZM861.2402,19.57675L863.6895,22.06112L864.0117,22.40097L863.0039,23.40878Q862.4824,22.79941,861.6328,21.90878Q860.7891,21.01816,860.2852,20.51425L861.2402,19.57675ZM864.5859,20.637297L874.0723,20.637297L874.0723,33.3639Q874.0723,34.3892,873.8555,34.9107Q873.6445,35.4322,873.1113,35.637299999999996Q872.5781,35.8482,871.5527,35.8482L869.5723,35.8482L869.3027,34.5006L871.1602,34.5006Q871.8398,34.5006,872.1562,34.3951Q872.4727,34.2838,872.5957,33.9791Q872.7246,33.6685,872.7246,33.024L872.7246,22.00839L864.5859,22.00839L864.5859,20.637297ZM861.3281,35.9185L859.9805,35.9185L859.9805,23.37362L861.3281,23.37362L861.3281,35.9185ZM863.5957,24.24081L870.4043,24.24081L870.4043,32.9654L863.5957,32.9654L863.5957,24.24081ZM869.1034999999999,27.8912L869.1034999999999,25.53573L864.9141,25.53573L864.9141,27.8912L869.1034999999999,27.8912ZM864.9141,29.203699999999998L864.9141,31.6353L869.1034999999999,31.6353L869.1034999999999,29.203699999999998L864.9141,29.203699999999998Z" fill="#000000" fill-opacity="1" style="mix-blend-mode:passthrough"/></g><g style="mix-blend-mode:passthrough"><g style="mix-blend-mode:passthrough"><rect x="1" y="1" width="546" height="353" rx="4" fill-opacity="0" stroke-opacity="1" stroke="#000000" fill="none" stroke-width="2"/></g><g style="mix-blend-mode:passthrough"><path d="M21 61C21 58.23857625084603 23.238576250846034 56 26 56L189 56C189 56 189 56 189 56L189 104C189 104 189 104 189 104L21 104C21 104 21 104 21 104Z" fill-opacity="0" stroke-opacity="1" stroke="#000000" fill="none" stroke-width="2" style="mix-blend-mode:passthrough"/></g><g style="mix-blend-mode:passthrough"><rect x="21" y="152" width="168" height="48" rx="0" fill-opacity="0" stroke-opacity="1" stroke="#000000" fill="none" stroke-width="2" style="mix-blend-mode:passthrough"/></g><g style="mix-blend-mode:passthrough"><rect x="21" y="248" width="168" height="48" rx="0" fill-opacity="0" stroke-opacity="1" stroke="#000000" fill="none" stroke-width="2" style="mix-blend-mode:passthrough"/></g><g style="mix-blend-mode:passthrough"><rect x="21" y="104" width="168" height="48" rx="0" fill-opacity="0" stroke-opacity="1" stroke="#000000" fill="none" stroke-width="2" style="mix-blend-mode:passthrough"/></g><g style="mix-blend-mode:passthrough"><rect x="21" y="200" width="168" height="48" rx="0" fill-opacity="0" stroke-opacity="1" stroke="#000000" fill="none" stroke-width="2" style="mix-blend-mode:passthrough"/></g><g style="mix-blend-mode:passthrough"><path d="M21 296C21 296 21 296 21 296L189 296C189 296 189 296 189 296L189 344C189 344 189 344 189 344L26 344C23.238576250846034 344 21 341.76142374915395 21 339Z" fill-opacity="0" stroke-opacity="1" stroke="#000000" fill="none" stroke-width="2" style="mix-blend-mode:passthrough"/></g><g style="mix-blend-mode:passthrough"><path d="M189 56C189 56 189 56 189 56L522 56C524.761423749154 56 527 58.23857625084603 527 61L527 104C527 104 527 104 527 104L189 104C189 104 189 104 189 104Z" fill-opacity="0" stroke-opacity="1" stroke="#000000" fill="none" stroke-width="2" style="mix-blend-mode:passthrough"/></g><g style="mix-blend-mode:passthrough"><rect x="189" y="152" width="338" height="48" rx="0" fill-opacity="0" stroke-opacity="1" stroke="#000000" fill="none" stroke-width="2" style="mix-blend-mode:passthrough"/></g><g style="mix-blend-mode:passthrough"><rect x="189" y="248" width="338" height="48" rx="0" fill-opacity="0" stroke-opacity="1" stroke="#000000" fill="none" stroke-width="2" style="mix-blend-mode:passthrough"/></g><g style="mix-blend-mode:passthrough"><rect x="189" y="104" width="338" height="48" rx="0" fill-opacity="0" stroke-opacity="1" stroke="#000000" fill="none" stroke-width="2" style="mix-blend-mode:passthrough"/></g><g style="mix-blend-mode:passthrough"><rect x="189" y="200" width="338" height="48" rx="0" fill-opacity="0" stroke-opacity="1" stroke="#000000" fill="none" stroke-width="2" style="mix-blend-mode:passthrough"/></g><g style="mix-blend-mode:passthrough"><path d="M189 296C189 296 189 296 189 296L527 296C527 296 527 296 527 296L527 339C527 341.76142374915395 524.761423749154 344 522 344L189 344C189 344 189 344 189 344Z" fill-opacity="0" stroke-opacity="1" stroke="#000000" fill="none" stroke-width="2" style="mix-blend-mode:passthrough"/></g><g style="mix-blend-mode:passthrough"><path d="M244.44531,27.42245L244.44531,22.8873L239.40625,22.8873L239.40625,21.62753L246.51367,21.62753Q246.20898,20.584562,245.92188,19.846281L247.35742,19.559172Q247.82617,20.906828,248.0254,21.62753L254.63479999999998,21.62753L254.63479999999998,22.8873L249.5898,22.8873L249.5898,27.42245L248.2949,27.42245L248.2949,22.8873L245.74023,22.8873L245.74023,27.42245L244.44531,27.42245ZM243.56055,24.7037Q242.78711,25.58847,241.79688,26.49081Q240.80664,27.3873,239.74609,28.108L239.02539,27.06503Q241.27539,25.45956,242.69922,23.85995L243.56055,24.7037ZM251.2832,23.85995Q252.3262,24.66855,253.5859,25.71152L254.9395,26.81308L254.1836,27.8912L253.6797,27.45761Q251.5,25.60605,250.5098,24.850189999999998L251.2832,23.85995ZM252.1328,29.49667Q251.3535,30.6451,250.4512,31.529899999999998Q249.5547,32.4088,248.4062,33.1295Q250.8496,34.067,254.8633,34.7115L254.4355,36.1002Q249.8066,35.2154,247,33.8853Q245.63477,34.5533,243.82422,35.11Q242.01367,35.6666,239.54688,36.2057L239.11328,34.8756Q242.95117,34.19,245.55859,33.1119Q243.38477,31.7467,241.67383,29.53183L241.67383,28.30722L252.1328,28.30722L252.1328,29.49667ZM243.30859,29.53183Q244.11719,30.4869,244.99023,31.1959Q245.86328,31.904899999999998,246.92969,32.4615Q249.1445,31.2603,250.4395,29.53183L243.30859,29.53183ZM258.8828,20.244719L271.082,20.244719L271.082,24.46933L258.8828,24.46933L258.8828,20.244719ZM269.7695,21.93222L269.7695,21.12362L260.2305,21.12362L260.2305,21.93222L269.7695,21.93222ZM260.2305,22.76425L260.2305,23.608L269.7695,23.608L269.7695,22.76425L260.2305,22.76425ZM256.9902,26.36191L256.9902,25.40683L272.9922,25.40683L272.9922,26.36191L256.9902,26.36191ZM271.627,33.7037L265.6504,33.7037L265.6504,34.6588L272.8105,34.6588L272.8105,35.6139L257.1719,35.6139L257.1719,34.6588L264.3496,34.6588L264.3496,33.7037L258.3555,33.7037L258.3555,32.7721L264.3496,32.7721L264.3496,31.7994L258.8828,31.7994L258.8828,27.33456L271.0996,27.33456L271.0996,31.7994L265.6504,31.7994L265.6504,32.7721L271.627,32.7721L271.627,33.7037ZM264.3496,29.11581L264.3496,28.19589L260.2129,28.19589L260.2129,29.11581L264.3496,29.11581ZM265.6504,29.11581L269.7695,29.11581L269.7695,28.19589L265.6504,28.19589L265.6504,29.11581ZM260.2129,29.97714L260.2129,30.897100000000002L264.3496,30.897100000000002L264.3496,29.97714L260.2129,29.97714ZM265.6504,29.97714L265.6504,30.897100000000002L269.7695,30.897100000000002L269.7695,29.97714L265.6504,29.97714ZM290.957,23.26816L290.957,24.63339L288.9414,24.63339L288.9414,33.3814Q288.9414,34.2838,288.7129,34.781800000000004Q288.4902,35.274,287.9512,35.496700000000004Q287.4121,35.719300000000004,286.4219,35.719300000000004L284.2598,35.719300000000004L283.97270000000003,34.3189L286.1113,34.3189Q286.7441,34.3189,287.0371,34.219300000000004Q287.3359,34.1197,287.4414,33.8502Q287.5527,33.5807,287.5527,33.0064L287.5527,24.63339L282.4609,24.63339L282.4609,23.26816L287.5527,23.26816L287.5527,19.629484L288.9414,19.629484L288.9414,23.26816L290.957,23.26816ZM281.7402,22.97519Q281.1309,26.52597,279.959,29.15097Q281.418,31.2603,282.6777,33.1646L281.541,34.031800000000004Q280.5508,32.4791,279.2734,30.5748Q277.9609,33.0767,275.7285,35.5963L274.90229999999997,34.2662Q277.1348,31.8521,278.4121,29.297449999999998Q276.6074,26.64902,275.3887,24.99667L276.4492,24.21737Q277.3633,25.45956,279.0566,27.85605Q279.959,25.62362,280.3926,22.95761L275.4238,22.95761L275.4238,21.59237L281.7402,21.59237L281.7402,22.97519ZM285.1211,30.8795Q283.7559,28.66464,282.4082,26.64902L283.416,25.94589Q283.8613,26.5787,284.72270000000003,27.8912Q285.58979999999997,29.203699999999998,286.2051,30.1764L285.1211,30.8795ZM304.9434,29.78378Q305.6289,31.2955,306.4785,32.3033Q307.334,33.311099999999996,308.957,34.2252L308.1074,35.274Q306.5254,34.3189,305.5879,33.170500000000004Q304.6562,32.0162,303.8828,30.2877L302.6758,30.826700000000002Q302.9805,31.8873,302.9805,33.059200000000004Q302.9805,34.1197,302.6934,34.7408Q302.4062,35.3619,301.7383,35.637299999999996Q301.0703,35.9185,299.9043,35.9185L298.0117,35.9185L297.7949,34.6939L299.5938,34.6939Q300.748,34.6939,301.2168,34.3072Q301.6855,33.920500000000004,301.6855,32.8775Q301.6855,32.4088,301.6328,31.9752Q300.2266,33.059200000000004,298.1113,34.031800000000004Q295.9961,35.0045,293.459,35.7779L292.9902,34.6412Q295.457,34.0142,297.6074,33.0357Q299.7578,32.0514,301.3574,30.897100000000002Q301.2168,30.4459,300.9121,29.92441Q298.3516,31.7232,293.8926,33.1295L293.4238,32.0865Q297.6895,30.8092,300.332,29.09823Q300.0449,28.74081,299.5762,28.27206Q298.6211,28.95175,297.1562,29.537689999999998Q295.6914,30.1236,293.5645,30.6978L293.1543,29.56698Q295.4746,28.99277,296.8223,28.44198Q298.1758,27.8912,298.9492,27.22323L294.7715,27.22323L294.7715,24.41659Q294.0156,24.850189999999998,293.7988,24.97323L293.2246,23.85995Q294.918,22.95761,296.2188,21.86191Q297.5254,20.766203,298.5508,19.395109L299.7578,19.9165936Q299.5059,20.262297,298.9668,20.906828L305.377,20.906828L305.377,21.89706L303.5723,23.42636L307.5156,23.42636L307.5156,27.22323L300.6777,27.22323Q300.5312,27.40487,300.4434,27.49862Q301.6094,28.61191,302.2246,29.766199999999998Q304.832,28.57675,306.77729999999997,27.42245L307.41020000000003,28.52402Q306.3848,29.09823,304.9434,29.78378ZM298.0469,21.89706Q297.2383,22.70566,296.248,23.42636L301.791,23.42636L303.5547,21.89706L298.0469,21.89706ZM296.0488,24.45175L296.0488,26.21542L299.8457,26.21542Q300.2266,25.62362,300.66020000000003,24.45175L296.0488,24.45175ZM306.2383,26.21542L306.2383,24.45175L302.0254,24.45175Q301.6094,25.57089,301.2871,26.21542L306.2383,26.21542Z" fill="#000000" fill-opacity="1" style="mix-blend-mode:passthrough"/></g><g style="mix-blend-mode:passthrough"><path d="M84.44531,79.42245L84.44531,74.8873L79.40625,74.8873L79.40625,73.62753L86.51367,73.62753Q86.20898,72.584562,85.92188,71.846281L87.35742,71.559172Q87.82617,72.906828,88.0254,73.62753L94.6348,73.62753L94.6348,74.8873L89.5898,74.8873L89.5898,79.42245L88.2949,79.42245L88.2949,74.8873L85.74023,74.8873L85.74023,79.42245L84.44531,79.42245ZM83.56055,76.7037Q82.78711,77.58847,81.79688,78.49081Q80.80664,79.3873,79.74609,80.108L79.02539,79.06503000000001Q81.27539,77.45956,82.69922,75.85995L83.56055,76.7037ZM91.2832,75.85995Q92.3262,76.66855,93.5859,77.71152000000001L94.9395,78.81308L94.1836,79.8912L93.6797,79.45761Q91.5,77.60605,90.5098,76.85019L91.2832,75.85995ZM92.1328,81.49667Q91.3535,82.6451,90.4512,83.5299Q89.5547,84.4088,88.4062,85.12950000000001Q90.8496,86.06700000000001,94.8633,86.7115L94.4355,88.1002Q89.8066,87.2154,87,85.8853Q85.63477,86.55330000000001,83.82422,87.11Q82.01367,87.6666,79.54688,88.20570000000001L79.11328,86.8756Q82.95117,86.19,85.55859,85.1119Q83.38477,83.7467,81.67383,81.53183L81.67383,80.30722L92.1328,80.30722L92.1328,81.49667ZM83.30859,81.53183Q84.11719,82.4869,84.99023,83.1959Q85.86328,83.9049,86.92969,84.4615Q89.1445,83.2603,90.4395,81.53183L83.30859,81.53183ZM98.8828,72.244719L111.082,72.244719L111.082,76.46933L98.8828,76.46933L98.8828,72.244719ZM109.7695,73.93222L109.7695,73.12362L100.2305,73.12362L100.2305,73.93222L109.7695,73.93222ZM100.2305,74.76425L100.2305,75.608L109.7695,75.608L109.7695,74.76425L100.2305,74.76425ZM96.9902,78.36191L96.9902,77.40683L112.9922,77.40683L112.9922,78.36191L96.9902,78.36191ZM111.62700000000001,85.7037L105.6504,85.7037L105.6504,86.6588L112.81049999999999,86.6588L112.81049999999999,87.6139L97.1719,87.6139L97.1719,86.6588L104.3496,86.6588L104.3496,85.7037L98.3555,85.7037L98.3555,84.7721L104.3496,84.7721L104.3496,83.7994L98.8828,83.7994L98.8828,79.33456L111.09960000000001,79.33456L111.09960000000001,83.7994L105.6504,83.7994L105.6504,84.7721L111.62700000000001,84.7721L111.62700000000001,85.7037ZM104.3496,81.11581L104.3496,80.19589L100.2129,80.19589L100.2129,81.11581L104.3496,81.11581ZM105.6504,81.11581L109.7695,81.11581L109.7695,80.19589L105.6504,80.19589L105.6504,81.11581ZM100.2129,81.97714L100.2129,82.8971L104.3496,82.8971L104.3496,81.97714L100.2129,81.97714ZM105.6504,81.97714L105.6504,82.8971L109.7695,82.8971L109.7695,81.97714L105.6504,81.97714ZM129.4453,80.57675L129.4453,88.1178L128.0742,88.1178L128.0742,86.9635L119.7598,86.9635L119.7598,88.1178L118.41210000000001,88.1178L118.41210000000001,81.97714Q117.02340000000001,82.4635,115.4941,82.8971L114.9727,81.6373Q119.3848,80.48886,122.4434,78.7955Q125.50200000000001,77.10214,127.6289,74.79941L120.83789999999999,74.79941Q120.4453,75.22714,119.8652,75.73691Q121.2012,76.72128000000001,122.2969,77.60605L121.3828,78.64902000000001L120.2988,77.78769L118.8398,76.63339Q117.7969,77.53573,116.44919999999999,78.41464L115.59960000000001,77.24862Q117.3457,76.18222,119.0801,74.55331Q120.8203,72.924406,121.88669999999999,71.430265L123.16409999999999,71.9341717Q122.7305,72.584562,122.0098,73.50448L129.42770000000002,73.50448L129.42770000000002,74.79941Q127.916,76.59823,126.0527,78.02206Q124.18950000000001,79.44003000000001,121.8281,80.57675L129.4453,80.57675ZM119.7598,81.85409L119.7598,85.7447L128.0742,85.7447L128.0742,81.85409L119.7598,81.85409Z" fill="#000000" fill-opacity="1" style="mix-blend-mode:passthrough"/></g><g style="mix-blend-mode:passthrough"><path d="M100.84961,135.11Q99.4668,135.11,98.64648,134.3834Q97.826172,133.651,97.826172,132.44389999999999Q97.826172,129.35019,102.54297,129.35019L103.91406,129.35019L103.91406,128.57675Q103.91406,127.60409,103.31641,127.01816Q102.72461,126.43222,101.75195,126.43222Q100.54492,126.43222,99.33789,127.47519L98.45898,126.46737Q99.90039,125.06698,101.82227,125.06698Q103.48047,125.06698,104.44141,125.96933Q105.4082,126.86581,105.4082,128.39511L105.4082,134.858L103.91406,134.858L103.91406,133.4928L103.80273,133.4928Q103.41016,134.2076,102.57812,134.65879999999999Q101.75195,135.11,100.84961,135.11ZM101.11914,133.7447Q101.7168,133.7447,102.36133,133.4752Q103.01172,133.1998,103.46289,132.6373Q103.91406,132.06889999999999,103.91406,131.2193L103.91406,130.7154L102.83008,130.7154Q101.04883,130.7154,100.19922,131.1256Q99.35547,131.5299,99.35547,132.356Q99.35547,132.9889,99.83008,133.3697Q100.31055,133.7447,101.11914,133.7447ZM111.8828,134.858L110.3125,134.858L110.3125,122.99862L107.6523,124.39902000000001L107.6523,122.76425L110.7109,121.17636L111.8828,121.17636L111.8828,134.858Z" fill="#000000" fill-opacity="1" style="mix-blend-mode:passthrough"/></g><g style="mix-blend-mode:passthrough"><path d="M98.84961,231.11Q97.4668,231.11,96.64648,230.3834Q95.826172,229.651,95.826172,228.44389999999999Q95.826172,225.35019,100.54297,225.35019L101.91406,225.35019L101.91406,224.57675Q101.91406,223.60409,101.31641,223.01816Q100.72461,222.43222,99.75195,222.43222Q98.54492,222.43222,97.33789,223.47519L96.45898,222.46737Q97.90039,221.06698,99.82227,221.06698Q101.48047,221.06698,102.44141,221.96933Q103.4082,222.86581,103.4082,224.39511L103.4082,230.858L101.91406,230.858L101.91406,229.4928L101.80273,229.4928Q101.41016,230.2076,100.57812,230.65879999999999Q99.75195,231.11,98.84961,231.11ZM99.11914,229.7447Q99.7168,229.7447,100.36133,229.4752Q101.01172,229.1998,101.46289,228.6373Q101.91406,228.06889999999999,101.91406,227.2193L101.91406,226.7154L100.83008,226.7154Q99.04883,226.7154,98.19922,227.1256Q97.35547,227.5299,97.35547,228.356Q97.35547,228.9889,97.83008,229.3697Q98.31055,229.7447,99.11914,229.7447ZM109.8594,222.7955Q110.0586,222.76034,110.4746,222.76034Q111.4824,222.76034,112.3906,223.21737Q113.2988,223.67441,113.873,224.59433Q114.4531,225.51425,114.4531,226.8443Q114.4531,228.1392,113.9023,229.106Q113.3516,230.067,112.3613,230.5885Q111.3711,231.11,110.0586,231.11Q108.5996,231.11,107.4102,230.31889999999999Q106.2266,229.5279,105.7051,228.1041L107.1289,227.6002Q107.9727,229.6685,110.1113,229.6685Q111.3535,229.6685,112.0977,228.9068Q112.8477,228.1392,112.8477,226.8443Q112.8477,225.54941,112.0801,224.78769Q111.3184,224.02011,110.0059,224.02011Q109.2324,224.02011,108.5117,224.43027L107.6504,223.24667L111.6465,218.61777L106.0449,218.61777L106.0449,217.17636L113.6973,217.17636L113.6973,218.49472L109.8242,222.71933L109.8594,222.7955Z" fill="#000000" fill-opacity="1" style="mix-blend-mode:passthrough"/></g><g style="mix-blend-mode:passthrough"><path d="M98.84961,183.11Q97.4668,183.11,96.64648,182.3834Q95.826172,181.651,95.826172,180.44389999999999Q95.826172,177.35019,100.54297,177.35019L101.91406,177.35019L101.91406,176.57675Q101.91406,175.60409,101.31641,175.01816Q100.72461,174.43222,99.75195,174.43222Q98.54492,174.43222,97.33789,175.47519L96.45898,174.46737Q97.90039,173.06698,99.82227,173.06698Q101.48047,173.06698,102.44141,173.96933Q103.4082,174.86581,103.4082,176.39511L103.4082,182.858L101.91406,182.858L101.91406,181.4928L101.80273,181.4928Q101.41016,182.2076,100.57812,182.65879999999999Q99.75195,183.11,98.84961,183.11ZM99.11914,181.7447Q99.7168,181.7447,100.36133,181.4752Q101.01172,181.1998,101.46289,180.6373Q101.91406,180.06889999999999,101.91406,179.2193L101.91406,178.7154L100.83008,178.7154Q99.04883,178.7154,98.19922,179.1256Q97.35547,179.5299,97.35547,180.356Q97.35547,180.9889,97.83008,181.3697Q98.31055,181.7447,99.11914,181.7447ZM107.7559,181.4166L113.9844,181.4166L113.9844,182.858L105.6699,182.858L105.6699,181.5631L109.7715,176.8287Q111.0312,175.3873,111.5703,174.43222Q112.1094,173.47714,112.1094,172.65097Q112.1094,171.62558,111.4414,170.99862Q110.7793,170.36581,109.7012,170.36581Q108.7988,170.36581,108.0898,170.90487Q107.3809,171.44394,106.9121,172.45175L105.5762,171.80722Q106.1152,170.41855,107.1875,169.67441Q108.2598,168.924406,109.7363,168.924406Q110.9082,168.924406,111.8047,169.37558Q112.707,169.82675,113.2109,170.65292Q113.7148,171.47909,113.7148,172.58066Q113.7148,173.62362,113.1172,174.7955Q112.5254,175.96152,111.1777,177.51425L107.7559,181.4166Z" fill="#000000" fill-opacity="1" style="mix-blend-mode:passthrough"/></g><g style="mix-blend-mode:passthrough"><path d="M105.32617,279.11Q103.96094,279.11,102.94141,278.4889Q101.92773,277.8678,101.37695,276.7252Q100.826172,275.5826,100.826172,274.0709Q100.826172,272.57675,101.37695,271.44589Q101.92773,270.30917,102.94141,269.6998Q103.96094,269.08456,105.32617,269.08456Q106.33398,269.08456,107.29492,269.62362Q108.26172,270.16269,108.83594,271.06503L107.66992,271.8912Q107.23633,271.24667,106.59766,270.87167Q105.95898,270.49081,105.2207,270.49081Q103.94336,270.49081,103.14648,271.46933Q102.35547,272.44784,102.35547,274.0709Q102.35547,275.7057,103.14062,276.7076Q103.92578,277.7037,105.20312,277.7037Q105.94141,277.7037,106.59766,277.3287Q107.25391,276.94780000000003,107.66992,276.3033L108.83594,277.1295Q108.26172,278.0318,107.29492,278.5709Q106.33398,279.11,105.32617,279.11Z" fill="#000000" fill-opacity="1" style="mix-blend-mode:passthrough"/></g><g style="mix-blend-mode:passthrough"><path d="M101.29492,326.858L101.29492,313.17636L102.78906,313.17636L102.78906,318.66659L102.88281,318.66659Q103.42188,317.92831,104.20117,317.50644Q104.98633,317.08456,105.88867,317.08456Q107.03711,317.08456,107.96289,317.70566Q108.89453,318.32675,109.41602,319.42831Q109.9375,320.52402,109.9375,321.90683Q109.9375,323.401,109.41602,324.5846Q108.89453,325.7623,107.96289,326.4303Q107.03711,327.0924,105.88867,327.0924Q104.93359,327.0924,104.16016,326.6822Q103.38672,326.2662,102.88281,325.4928L102.78906,325.4928L102.78906,326.858L101.29492,326.858ZM102.71875,322.0885Q102.71875,323.1139,103.07031,323.9283Q103.42188,324.7369,104.06055,325.1881Q104.69922,325.6334,105.49023,325.6334Q106.31641,325.6334,106.98438,325.1881Q107.65234,324.7369,108.02734,323.9283Q108.4082,323.1139,108.4082,322.0885Q108.4082,321.06308,108.03906,320.25448Q107.66992,319.44003,107.01953,318.99472Q106.36914,318.54355,105.54297,318.54355Q104.73438,318.54355,104.08398,318.99472Q103.43945,319.44003,103.07617,320.25448Q102.71875,321.06308,102.71875,322.0885Z" fill="#000000" fill-opacity="1" style="mix-blend-mode:passthrough"/></g><g style="mix-blend-mode:passthrough"><path d="M322.70703,327.11Q320.52734,327.11,319.32031,325.2642Q318.11328,323.4185,318.11328,320.02011Q318.11328,316.61581,319.32031,314.77011Q320.52734,312.924406,322.70703,312.924406Q324.9043,312.924406,326.09961,314.77011Q327.2949,316.61581,327.2949,320.02011Q327.2949,323.4185,326.09961,325.2642Q324.9043,327.11,322.70703,327.11ZM322.70703,325.6685Q324.13086,325.6685,324.91016,324.2037Q325.69531,322.7389,325.69531,320.02011Q325.69531,317.30136,324.91016,315.83652Q324.13086,314.36581,322.70703,314.36581Q321.2832,314.36581,320.49805,315.83652Q319.71875,317.30136,319.71875,320.02011Q319.71875,322.7389,320.49805,324.2037Q321.2832,325.6685,322.70703,325.6685ZM333.6113,322.0357L336.9629,326.858L335.1465,326.858L332.6973,323.1314L330.2129,326.858L328.4141,326.858L331.8652,321.88925L328.6484,317.31894L330.4473,317.31894L332.8203,320.88144L335.0879,317.31894L336.8516,317.31894L333.6113,322.0357ZM342.957,327.11Q340.7773,327.11,339.5703,325.2642Q338.3633,323.4185,338.3633,320.02011Q338.3633,316.61581,339.5703,314.77011Q340.7773,312.924406,342.957,312.924406Q345.1543,312.924406,346.3496,314.77011Q347.5449,316.61581,347.5449,320.02011Q347.5449,323.4185,346.3496,325.2642Q345.1543,327.11,342.957,327.11ZM342.957,325.6685Q344.3809,325.6685,345.1602,324.2037Q345.9453,322.7389,345.9453,320.02011Q345.9453,317.30136,345.1602,315.83652Q344.3809,314.36581,342.957,314.36581Q341.5332,314.36581,340.748,315.83652Q339.9688,317.30136,339.9688,320.02011Q339.9688,322.7389,340.748,324.2037Q341.5332,325.6685,342.957,325.6685ZM354.207,327.11Q352.02729999999997,327.11,350.8203,325.2642Q349.6133,323.4185,349.6133,320.02011Q349.6133,316.61581,350.8203,314.77011Q352.02729999999997,312.924406,354.207,312.924406Q356.4043,312.924406,357.5996,314.77011Q358.7949,316.61581,358.7949,320.02011Q358.7949,323.4185,357.5996,325.2642Q356.4043,327.11,354.207,327.11ZM354.207,325.6685Q355.6309,325.6685,356.41020000000003,324.2037Q357.1953,322.7389,357.1953,320.02011Q357.1953,317.30136,356.41020000000003,315.83652Q355.6309,314.36581,354.207,314.36581Q352.7832,314.36581,351.998,315.83652Q351.2188,317.30136,351.2188,320.02011Q351.2188,322.7389,351.998,324.2037Q352.7832,325.6685,354.207,325.6685ZM364.8828,326.858L363.3125,326.858L363.3125,314.99862L360.65229999999997,316.39902L360.65229999999997,314.76425L363.7109,313.17636L364.8828,313.17636L364.8828,326.858ZM369.8809,325.4166L376.1094,325.4166L376.1094,326.858L367.7949,326.858L367.7949,325.5631L371.8965,320.8287Q373.1562,319.3873,373.6953,318.43222Q374.2344,317.47714,374.2344,316.65097Q374.2344,315.62558,373.5664,314.99862Q372.9043,314.36581,371.8262,314.36581Q370.9238,314.36581,370.21479999999997,314.90487Q369.5059,315.44394,369.0371,316.45175L367.7012,315.80722Q368.2402,314.41855,369.3125,313.67441Q370.3848,312.924406,371.8613,312.924406Q373.0332,312.924406,373.9297,313.37558Q374.832,313.82675,375.3359,314.65292Q375.83979999999997,315.47909,375.83979999999997,316.58066Q375.83979999999997,317.62362,375.2422,318.7955Q374.6504,319.96152,373.3027,321.51425L369.8809,325.4166ZM381.9512,314.2955Q381.2305,314.2955,380.7617,314.74667Q380.293,315.19198,380.293,316.02402L380.293,317.31894L382.9062,317.31894L382.9062,318.71933L380.293,318.71933L380.293,326.858L378.7988,326.858L378.7988,318.71933L377.3574,318.71933L377.3574,317.31894L378.7988,317.31894L378.7988,315.98886Q378.7988,314.54745,379.5547,313.73886Q380.3105,312.924406,381.6289,312.924406Q382.4199,312.924406,382.9766,313.1412L382.9766,314.49472Q382.47270000000003,314.2955,381.9512,314.2955ZM388.3262,314.2955Q387.6055,314.2955,387.1367,314.74667Q386.668,315.19198,386.668,316.02402L386.668,317.31894L389.2812,317.31894L389.2812,318.71933L386.668,318.71933L386.668,326.858L385.1738,326.858L385.1738,318.71933L383.7324,318.71933L383.7324,317.31894L385.1738,317.31894L385.1738,315.98886Q385.1738,314.54745,385.9297,313.73886Q386.6855,312.924406,388.0039,312.924406Q388.7949,312.924406,389.3516,313.1412L389.3516,314.49472Q388.84770000000003,314.2955,388.3262,314.2955ZM392.7559,325.4166L398.9844,325.4166L398.9844,326.858L390.6699,326.858L390.6699,325.5631L394.7715,320.8287Q396.0312,319.3873,396.5703,318.43222Q397.1094,317.47714,397.1094,316.65097Q397.1094,315.62558,396.4414,314.99862Q395.77930000000003,314.36581,394.7012,314.36581Q393.7988,314.36581,393.08979999999997,314.90487Q392.3809,315.44394,391.9121,316.45175L390.5762,315.80722Q391.1152,314.41855,392.1875,313.67441Q393.2598,312.924406,394.7363,312.924406Q395.90819999999997,312.924406,396.8047,313.37558Q397.707,313.82675,398.2109,314.65292Q398.71479999999997,315.47909,398.71479999999997,316.58066Q398.71479999999997,317.62362,398.1172,318.7955Q397.5254,319.96152,396.1777,321.51425L392.7559,325.4166Z" fill="#000000" fill-opacity="1" style="mix-blend-mode:passthrough"/></g><g style="mix-blend-mode:passthrough"><path d="M337.25,172.3287L336.1543,172.3287L335.826172,167.740812L337.58984,167.740812L337.25,172.3287ZM339.66992,182.858L339.66992,169.17636L341.16406,169.17636L341.16406,174.66659L341.25781,174.66659Q341.68555,173.94589,342.52344,173.50644Q343.36133,173.06698,344.20508,173.06698Q345.793,173.06698,346.6895,174.05136Q347.5918,175.02987,347.5918,176.81112L347.5918,182.858L346.0977,182.858L346.0977,177.02792Q346.0977,175.87362,345.4473,175.15292Q344.80273,174.43222,343.83008,174.43222Q342.64062,174.43222,341.90234,175.1998Q341.16406,175.96152,341.16406,177.2037L341.16406,182.858L339.66992,182.858ZM358.0918,177.27987Q358.0918,177.90683,357.9805,178.5045L351.2539,178.5045Q351.3418,179.9986,352.1328,180.86Q352.9238,181.72129999999999,354.2363,181.72129999999999Q354.9746,181.72129999999999,355.625,181.3639Q356.2754,181.00639999999999,356.7383,180.3033L357.9102,181.1119Q356.6328,183.0924,354.2363,183.0924Q352.1328,183.0924,350.9141,181.7623Q349.7012,180.4264,349.7012,178.106Q349.7012,175.76816,350.8555,174.4205Q352.0098,173.06698,354.0254,173.06698Q355.9121,173.06698,357.002,174.2037Q358.0918,175.33456,358.0918,177.27987ZM356.5625,177.15097Q356.5625,175.90878,355.8652,175.1705Q355.1738,174.43222,354.0254,174.43222Q352.9414,174.43222,352.2207,175.15292Q351.5059,175.87362,351.3066,177.15097L356.5625,177.15097ZM360.2949,169.17636L361.7891,169.17636L361.7891,180.8775Q361.7891,181.6158,362.5273,181.6158L362.9785,181.6158L362.9785,183.0221L362.1875,183.0221Q360.2949,183.0221,360.2949,181.276L360.2949,169.17636ZM364.7949,169.17636L366.2891,169.17636L366.2891,180.8775Q366.2891,181.6158,367.02729999999997,181.6158L367.4785,181.6158L367.4785,183.0221L366.6875,183.0221Q364.7949,183.0221,364.7949,181.276L364.7949,169.17636ZM373.1855,183.11Q371.8672,183.11,370.877,182.5006Q369.8926,181.8853,369.3594,180.7545Q368.8262,179.6178,368.8262,178.0885Q368.8262,176.55917,369.3594,175.42831Q369.8926,174.29159,370.877,173.68222Q371.8672,173.06698,373.1855,173.06698Q374.498,173.06698,375.4766,173.68222Q376.4609,174.29159,377,175.42831Q377.5391,176.55917,377.5391,178.0885Q377.5391,179.6178,377,180.7545Q376.4609,181.8853,375.4766,182.5006Q374.498,183.11,373.1855,183.11ZM373.1855,181.7037Q374.4805,181.7037,375.2422,180.7369Q376.0098,179.7642,376.0098,178.0885Q376.0098,176.41269,375.2422,175.44003Q374.4805,174.46737,373.1855,174.46737Q371.8906,174.46737,371.123,175.44003Q370.3555,176.41269,370.3555,178.0885Q370.3555,179.7642,371.123,180.7369Q371.8906,181.7037,373.1855,181.7037ZM380.75,172.3287L379.6543,172.3287L379.3262,167.740812L381.08979999999997,167.740812L380.75,172.3287Z" fill="#000000" fill-opacity="1" style="mix-blend-mode:passthrough"/></g><g style="mix-blend-mode:passthrough"><path d="M322.70703,279.11Q320.52734,279.11,319.32031,277.2642Q318.11328,275.4185,318.11328,272.02011Q318.11328,268.61581,319.32031,266.77011Q320.52734,264.924406,322.70703,264.924406Q324.9043,264.924406,326.09961,266.77011Q327.2949,268.61581,327.2949,272.02011Q327.2949,275.4185,326.09961,277.2642Q324.9043,279.11,322.70703,279.11ZM322.70703,277.6685Q324.13086,277.6685,324.91016,276.2037Q325.69531,274.7389,325.69531,272.02011Q325.69531,269.30136,324.91016,267.83652Q324.13086,266.36581,322.70703,266.36581Q321.2832,266.36581,320.49805,267.83652Q319.71875,269.30136,319.71875,272.02011Q319.71875,274.7389,320.49805,276.2037Q321.2832,277.6685,322.70703,277.6685ZM333.6113,274.0357L336.9629,278.858L335.1465,278.858L332.6973,275.1314L330.2129,278.858L328.4141,278.858L331.8652,273.88925L328.6484,269.31894L330.4473,269.31894L332.8203,272.88144L335.0879,269.31894L336.8516,269.31894L333.6113,274.0357ZM342.957,279.11Q340.7773,279.11,339.5703,277.2642Q338.3633,275.4185,338.3633,272.02011Q338.3633,268.61581,339.5703,266.77011Q340.7773,264.924406,342.957,264.924406Q345.1543,264.924406,346.3496,266.77011Q347.5449,268.61581,347.5449,272.02011Q347.5449,275.4185,346.3496,277.2642Q345.1543,279.11,342.957,279.11ZM342.957,277.6685Q344.3809,277.6685,345.1602,276.2037Q345.9453,274.7389,345.9453,272.02011Q345.9453,269.30136,345.1602,267.83652Q344.3809,266.36581,342.957,266.36581Q341.5332,266.36581,340.748,267.83652Q339.9688,269.30136,339.9688,272.02011Q339.9688,274.7389,340.748,276.2037Q341.5332,277.6685,342.957,277.6685ZM354.207,279.11Q352.02729999999997,279.11,350.8203,277.2642Q349.6133,275.4185,349.6133,272.02011Q349.6133,268.61581,350.8203,266.77011Q352.02729999999997,264.924406,354.207,264.924406Q356.4043,264.924406,357.5996,266.77011Q358.7949,268.61581,358.7949,272.02011Q358.7949,275.4185,357.5996,277.2642Q356.4043,279.11,354.207,279.11ZM354.207,277.6685Q355.6309,277.6685,356.41020000000003,276.2037Q357.1953,274.7389,357.1953,272.02011Q357.1953,269.30136,356.41020000000003,267.83652Q355.6309,266.36581,354.207,266.36581Q352.7832,266.36581,351.998,267.83652Q351.2188,269.30136,351.2188,272.02011Q351.2188,274.7389,351.998,276.2037Q352.7832,277.6685,354.207,277.6685ZM364.8828,278.858L363.3125,278.858L363.3125,266.99862L360.65229999999997,268.39902L360.65229999999997,266.76425L363.7109,265.17636L364.8828,265.17636L364.8828,278.858ZM369.8809,277.4166L376.1094,277.4166L376.1094,278.858L367.7949,278.858L367.7949,277.5631L371.8965,272.8287Q373.1562,271.3873,373.6953,270.43222Q374.2344,269.47714,374.2344,268.65097Q374.2344,267.62558,373.5664,266.99862Q372.9043,266.36581,371.8262,266.36581Q370.9238,266.36581,370.21479999999997,266.90487Q369.5059,267.44394,369.0371,268.45175L367.7012,267.80722Q368.2402,266.41855,369.3125,265.67441Q370.3848,264.924406,371.8613,264.924406Q373.0332,264.924406,373.9297,265.37558Q374.832,265.82675,375.3359,266.65292Q375.83979999999997,267.47909,375.83979999999997,268.58066Q375.83979999999997,269.62362,375.2422,270.7955Q374.6504,271.96152,373.3027,273.51425L369.8809,277.4166ZM381.9512,266.2955Q381.2305,266.2955,380.7617,266.74667Q380.293,267.19198,380.293,268.02402L380.293,269.31894L382.9062,269.31894L382.9062,270.71933L380.293,270.71933L380.293,278.858L378.7988,278.858L378.7988,270.71933L377.3574,270.71933L377.3574,269.31894L378.7988,269.31894L378.7988,267.98886Q378.7988,266.54745,379.5547,265.73886Q380.3105,264.924406,381.6289,264.924406Q382.4199,264.924406,382.9766,265.1412L382.9766,266.49472Q382.47270000000003,266.2955,381.9512,266.2955ZM388.3262,266.2955Q387.6055,266.2955,387.1367,266.74667Q386.668,267.19198,386.668,268.02402L386.668,269.31894L389.2812,269.31894L389.2812,270.71933L386.668,270.71933L386.668,278.858L385.1738,278.858L385.1738,270.71933L383.7324,270.71933L383.7324,269.31894L385.1738,269.31894L385.1738,267.98886Q385.1738,266.54745,385.9297,265.73886Q386.6855,264.924406,388.0039,264.924406Q388.7949,264.924406,389.3516,265.1412L389.3516,266.49472Q388.84770000000003,266.2955,388.3262,266.2955ZM393.1719,278.858L391.4609,278.858L396.6289,266.61777L390.3242,266.61777L390.3242,265.17636L398.41020000000003,265.17636L398.41020000000003,266.33066L393.1719,278.858Z" fill="#000000" fill-opacity="1" style="mix-blend-mode:passthrough"/></g><g style="mix-blend-mode:passthrough"><path d="M354.70703,135.11Q352.52734,135.11,351.32031,133.2642Q350.11328,131.4185,350.11328,128.02011Q350.11328,124.61581,351.32031,122.77011Q352.52734,120.924406,354.70703,120.924406Q356.9043,120.924406,358.09961,122.77011Q359.2949,124.61581,359.2949,128.02011Q359.2949,131.4185,358.09961,133.2642Q356.9043,135.11,354.70703,135.11ZM354.70703,133.6685Q356.13086,133.6685,356.91016,132.2037Q357.69531,130.7389,357.69531,128.02011Q357.69531,125.30136,356.91016,123.83652000000001Q356.13086,122.36581,354.70703,122.36581Q353.2832,122.36581,352.49805,123.83652000000001Q351.71875,125.30136,351.71875,128.02011Q351.71875,130.7389,352.49805,132.2037Q353.2832,133.6685,354.70703,133.6685Z" fill="#000000" fill-opacity="1" style="mix-blend-mode:passthrough"/></g><g style="mix-blend-mode:passthrough"><path d="M344.29492,230.858L344.29492,221.31894L345.78906,221.31894L345.78906,222.66659L345.88281,222.66659Q346.31055,221.94589,347.14844,221.50644Q347.98633,221.06698,348.83008,221.06698Q350.41797,221.06698,351.31445,222.05136Q352.2168,223.02987,352.2168,224.81112L352.2168,230.858L350.72266,230.858L350.72266,225.02792Q350.72266,223.87362,350.07227,223.15292Q349.42773,222.43222,348.45508,222.43222Q347.26562,222.43222,346.52734,223.1998Q345.78906,223.96152,345.78906,225.2037L345.78906,230.858L344.29492,230.858ZM362.6289,221.31894L362.6289,230.858L361.1348,230.858L361.1348,229.5279L361.0234,229.5279Q360.5898,230.2486,359.7637,230.6822Q358.9375,231.11,358.0703,231.11Q356.4883,231.11,355.5977,230.13139999999999Q354.707,229.1471,354.707,227.3834L354.707,221.31894L356.2012,221.31894L356.2012,227.149Q356.2012,228.3209,356.8398,229.0357Q357.4785,229.7447,358.4688,229.7447Q359.6582,229.7447,360.3965,228.9771Q361.1348,228.2096,361.1348,226.9674L361.1348,221.31894L362.6289,221.31894ZM365.2949,217.17636L366.7891,217.17636L366.7891,228.8775Q366.7891,229.6158,367.5273,229.6158L367.9785,229.6158L367.9785,231.0221L367.1875,231.0221Q365.2949,231.0221,365.2949,229.276L365.2949,217.17636ZM369.7949,217.17636L371.2891,217.17636L371.2891,228.8775Q371.2891,229.6158,372.0273,229.6158L372.4785,229.6158L372.4785,231.0221L371.6875,231.0221Q369.7949,231.0221,369.7949,229.276L369.7949,217.17636Z" fill="#000000" fill-opacity="1" style="mix-blend-mode:passthrough"/></g><g style="mix-blend-mode:passthrough"><path d="M345.6133,72.473234L345.6133,82.8092L347.8281,82.8092L347.8281,84.0514L332.1543,84.0514L332.1543,82.8092L334.38672,82.8092L334.38672,72.473234L345.6133,72.473234ZM344.248,75.10409L344.248,73.69784L335.73438,73.69784L335.73438,75.10409L344.248,75.10409ZM335.73438,77.65878000000001L344.248,77.65878000000001L344.248,76.25839L335.73438,76.25839L335.73438,77.65878000000001ZM344.248,80.21347L344.248,78.81308L335.73438,78.81308L335.73438,80.21347L344.248,80.21347ZM344.248,81.36777000000001L335.73438,81.36777000000001L335.73438,82.8092L344.248,82.8092L344.248,81.36777000000001ZM332.20703,86.9869Q333.71875,86.5006,335.21875,85.8443Q336.72461,85.1822,337.89648,84.5025L338.57617,85.5631Q336.77734,86.6412,332.69336,88.1705L332.20703,86.9869ZM341.834,84.5025Q342.9355,84.8951,346.3164,86.2838L347.6523,86.8228L347.0547,88.0123Q345.2734,87.1803,341.7109,85.7447L341.3301,85.58070000000001L341.834,84.5025ZM365.2012,85.0767Q363.77729999999997,83.4947,362.5527,81.53183Q361.3281,79.56894,360.5195,77.50058L360.5195,83.70570000000001L363.2559,83.70570000000001L363.2559,85.0064L360.5195,85.0064L360.5195,88.1002L359.1543,88.1002L359.1543,85.0064L356.4004,85.0064L356.4004,83.70570000000001L359.1543,83.70570000000001L359.1543,77.50058Q358.3574,79.60409,357.1973,81.47909Q356.0371,83.3482,354.4023,85.1822L353.5176,83.8873Q356.8105,80.52402000000001,358.5215,76.12948L354.6719,76.12948L354.6719,74.85214L359.1543,74.85214L359.1543,71.629484L360.5195,71.629484L360.5195,74.85214L365.4004,74.85214L365.4004,76.12948L361.2051,76.12948Q362.0312,78.27402000000001,363.2793,80.20761Q364.5332,82.1412,366.02729999999997,83.6705L365.2012,85.0767ZM354.7949,71.9693279Q354.2207,73.99081,353.3184,76.12948L353.3184,88.0299L352.0234,88.0299L352.0234,78.7955Q351.2676,80.17831,350.4414,81.29745L349.791,79.78573Q350.7812,78.36191,351.7773,76.15878000000001Q352.7793,73.9498,353.3945,71.740812L354.7949,71.9693279ZM372.3438,71.881437Q371.7695,74.02597,371.1191,75.73691L371.1191,87.9537L369.8242,87.9537L369.8242,78.64902000000001Q369.1797,79.90878000000001,368.3652,81.13339L367.791,79.49862Q368.7285,78.09237,369.5664,76.00644Q370.4043,73.91464,370.9609,71.611906L372.3438,71.881437ZM382.4805,76.02402000000001L382.4805,86.2662L384.0625,86.2662L384.0625,87.4498L371.9863,87.4498L371.9863,86.2662L373.6035,86.2662L373.6035,76.02402000000001L377.3652,76.02402000000001L377.3652,74.36581L372.8301,74.36581L372.8301,73.19394L377.3652,73.19394L377.3652,71.629484L378.7188,71.629484L378.7188,73.19394L383.5938,73.19394L383.5938,74.36581L378.7188,74.36581L378.7188,76.02402000000001L382.4805,76.02402000000001ZM381.1504,78.61386L381.1504,77.19003000000001L374.9395,77.19003000000001L374.9395,78.61386L381.1504,78.61386ZM374.9395,81.06308L381.1504,81.06308L381.1504,79.67441L374.9395,79.67441L374.9395,81.06308ZM381.1504,83.6529L381.1504,82.1412L374.9395,82.1412L374.9395,83.6529L381.1504,83.6529ZM381.1504,84.67830000000001L374.9395,84.67830000000001L374.9395,86.2662L381.1504,86.2662L381.1504,84.67830000000001Z" fill="#000000" fill-opacity="1" style="mix-blend-mode:passthrough"/></g></g><g style="mix-blend-mode:passthrough"><g style="mix-blend-mode:passthrough"><g style="mix-blend-mode:passthrough"><ellipse cx="763" cy="121" rx="44" ry="44" fill-opacity="0" stroke-opacity="1" stroke="#000000" fill="none" stroke-width="2"/></g><g style="mix-blend-mode:passthrough"><path d="M733.48047,112.740812L737.54688,112.740812L737.54688,114.07089L734.97461,114.07089L734.97461,127.606L737.54688,127.606L737.54688,128.9361L733.48047,128.9361L733.48047,112.740812ZM743.0078,127.858L741.4375,127.858L741.4375,115.99862L738.77734,117.39902000000001L738.77734,115.76425L741.8359,114.17636L743.0078,114.17636L743.0078,127.858ZM746.207,129.8209Q746.8926,129.4986,747.2031,129.0299Q747.5195,128.5611,747.5195,127.858L746.4941,127.858L746.4941,125.9654L748.3633,125.9654L748.3633,127.858Q748.3633,129.6744,746.6406,130.5592L746.207,129.8209ZM758.8809,126.4166L765.1094,126.4166L765.1094,127.858L756.7949,127.858L756.7949,126.5631L760.8965,121.8287Q762.1562,120.3873,762.6953,119.43222Q763.2344,118.47714,763.2344,117.65097Q763.2344,116.62558,762.5664,115.99862Q761.9043,115.36581,760.8262,115.36581Q759.9238,115.36581,759.2148,115.90487Q758.5059,116.44394,758.0371,117.45175L756.7012,116.80722Q757.2402,115.41855,758.3125,114.67441Q759.3848,113.924406,760.8613,113.924406Q762.0332,113.924406,762.9297,114.37558Q763.832,114.82675,764.3359,115.65292Q764.8398,116.47909,764.8398,117.58066Q764.8398,118.62362,764.2422,119.7955Q763.6504,120.96152000000001,762.3027,122.51425L758.8809,126.4166ZM767.207,129.8209Q767.8926,129.4986,768.2031,129.0299Q768.5195,128.5611,768.5195,127.858L767.4941,127.858L767.4941,125.9654L769.3633,125.9654L769.3633,127.858Q769.3633,129.6744,767.6406,130.5592L767.207,129.8209ZM781.9844,119.7955Q782.1836,119.76034,782.5996,119.76034Q783.6074,119.76034,784.5156,120.21737Q785.4238,120.67441,785.998,121.59433Q786.5781,122.51425,786.5781,123.8443Q786.5781,125.1392,786.0273,126.106Q785.4766,127.06700000000001,784.4863,127.5885Q783.4961,128.11,782.1836,128.11Q780.7246,128.11,779.5352,127.3189Q778.3516,126.5279,777.8301,125.1041L779.2539,124.6002Q780.0977,126.6685,782.2363,126.6685Q783.4784999999999,126.6685,784.2227,125.9068Q784.9727,125.1392,784.9727,123.8443Q784.9727,122.54941,784.2051,121.78769Q783.4434,121.02011,782.1309,121.02011Q781.3574,121.02011,780.6367,121.43027000000001L779.7754,120.24667L783.7715000000001,115.61777000000001L778.1699,115.61777000000001L778.1699,114.17636L785.8223,114.17636L785.8223,115.49472L781.9492,119.71933L781.9844,119.7955ZM787.627,114.07089L787.627,112.740812L791.6934,112.740812L791.6934,128.9361L787.627,128.9361L787.627,127.606L790.1992,127.606L790.1992,114.07089L787.627,114.07089Z" fill="#000000" fill-opacity="1" style="mix-blend-mode:passthrough"/></g></g><g style="mix-blend-mode:passthrough"><g style="mix-blend-mode:passthrough"><ellipse cx="898" cy="211" rx="44" ry="44" fill-opacity="0" stroke-opacity="1" stroke="#000000" fill="none" stroke-width="2"/></g><g style="mix-blend-mode:passthrough"><path d="M877.07227,218.11Q875.23828,218.11,873.86719,217.2369Q872.50195,216.3639,871.76367,214.7642Q871.02539,213.15879999999999,871.02539,211.02011Q871.02539,208.858,871.76367,207.25839Q872.50195,205.65292,873.86719,204.79159Q875.23828,203.924406,877.07227,203.924406Q878.91211,203.924406,880.2773,204.79159Q881.6484,205.65292,882.3809,207.25839Q883.1191,208.858,883.1191,211.02011Q883.1191,213.15879999999999,882.3809,214.7642Q881.6484,216.3639,880.2773,217.2369Q878.91211,218.11,877.07227,218.11ZM877.07227,216.6334Q878.4082,216.6334,879.41602,215.9537Q880.4238,215.2682,880.9688,213.9967Q881.5195,212.72519,881.5195,211.02011Q881.5195,209.30917,880.9688,208.04355Q880.4238,206.77206,879.41602,206.08652Q878.4082,205.40097,877.07227,205.40097Q875.72461,205.40097,874.7168,206.08652Q873.70898,206.77206,873.16992,208.04355Q872.63086,209.30917,872.63086,211.02011Q872.63086,212.72519,873.16992,213.9967Q873.70898,215.2682,874.7168,215.9537Q875.72461,216.6334,877.07227,216.6334ZM885.5449,217.858L885.5449,204.17636L887.0391,204.17636L887.0391,209.66659L887.1328,209.66659Q887.6719,208.92831,888.4512,208.50644Q889.2363,208.08456,890.1387,208.08456Q891.2871,208.08456,892.2129,208.70566Q893.1445,209.32675,893.666,210.42831Q894.1875,211.52402,894.1875,212.90683Q894.1875,214.401,893.666,215.5846Q893.1445,216.7623,892.2129,217.4303Q891.2871,218.0924,890.1387,218.0924Q889.1836,218.0924,888.4102,217.6822Q887.6367,217.2662,887.1328,216.4928L887.0391,216.4928L887.0391,217.858L885.5449,217.858ZM886.9688,213.0885Q886.9688,214.1139,887.3203,214.9283Q887.6719,215.7369,888.3105,216.1881Q888.9492,216.6334,889.7402,216.6334Q890.5664,216.6334,891.2344,216.1881Q891.9023,215.7369,892.2773,214.9283Q892.6582,214.1139,892.6582,213.0885Q892.6582,212.06308,892.2891,211.25448Q891.9199,210.44003,891.2695,209.99472Q890.6191,209.54355,889.793,209.54355Q888.9844,209.54355,888.334,209.99472Q887.6895,210.44003,887.3262,211.25448Q886.9688,212.06308,886.9688,213.0885ZM897.3574,205.95761Q896.8887,205.95761,896.625,205.68808Q896.3672,205.41855,896.3672,204.9498Q896.3672,204.48105,896.6367,204.20566Q896.9062,203.924406,897.3574,203.924406Q897.8262,203.924406,898.1133,204.20566Q898.4004,204.48105,898.4004,204.9498Q898.4004,205.41855,898.1133,205.68808Q897.8262,205.95761,897.3574,205.95761ZM895.4648,222.4459Q894.8027,222.4459,894.1699,222.2525L894.1699,220.8639Q894.5332,221.0455,895.1426,221.0455Q895.8457,221.0455,896.2383,220.5826Q896.6367,220.1256,896.6367,219.2994L896.6367,208.31894L898.1309,208.31894L898.1309,219.56889999999999Q898.1309,220.9517,897.4453,221.6959Q896.7656,222.4459,895.4648,222.4459ZM908.8418,212.27987Q908.8418,212.90683,908.7305,213.5045L902.0039,213.5045Q902.0918,214.9986,902.8828,215.86Q903.6738,216.72129999999999,904.9863,216.72129999999999Q905.7246,216.72129999999999,906.375,216.3639Q907.0254,216.00639999999999,907.4883,215.3033L908.6602,216.1119Q907.3828,218.0924,904.9863,218.0924Q902.8828,218.0924,901.6641,216.7623Q900.4512,215.4264,900.4512,213.106Q900.4512,210.76816,901.6055,209.4205Q902.7598,208.06698,904.7754,208.06698Q906.6621,208.06698,907.752,209.2037Q908.8418,210.33456,908.8418,212.27987ZM907.3125,212.15097Q907.3125,210.90878,906.6152,210.1705Q905.9238,209.43222,904.7754,209.43222Q903.6914,209.43222,902.9707,210.15292Q902.2559,210.87362,902.0566,212.15097L907.3125,212.15097ZM915.0762,218.11Q913.7109,218.11,912.6914,217.4889Q911.6777,216.8678,911.127,215.7252Q910.5762,214.5826,910.5762,213.0709Q910.5762,211.57675,911.127,210.44589Q911.6777,209.30917,912.6914,208.6998Q913.7109,208.08456,915.0762,208.08456Q916.0840000000001,208.08456,917.0449,208.62362Q918.0117,209.16269,918.5859,210.06503L917.4199,210.8912Q916.9863,210.24667,916.3477,209.87167Q915.7090000000001,209.49081,914.9707,209.49081Q913.6934,209.49081,912.8965000000001,210.46933Q912.1055,211.44783999999999,912.1055,213.0709Q912.1055,214.7057,912.8906,215.7076Q913.6758,216.7037,914.9531,216.7037Q915.6914,216.7037,916.3477,216.3287Q917.0039,215.9478,917.4199,215.3033L918.5859,216.1295Q918.0117,217.0318,917.0449,217.5709Q916.0840000000001,218.11,915.0762,218.11ZM925.5996,209.71933L922.8457,209.71933L922.8457,215.192Q922.8457,215.9889,923.2617,216.4225Q923.6777,216.8502,924.4159999999999,216.8502Q924.8438,216.8502,925.3887,216.6685L925.3887,218.0396Q924.9023,218.2389,924.1055,218.2389Q922.7754,218.2389,922.0605,217.483Q921.3516,216.72129999999999,921.3516,215.3033L921.3516,209.71933L919.8574,209.71933L919.8574,208.31894L921.3516,208.31894L921.3516,205.2955L922.8457,205.2955L922.8457,208.31894L925.5996,208.31894L925.5996,209.71933Z" fill="#000000" fill-opacity="1" style="mix-blend-mode:passthrough"/></g></g><g style="mix-blend-mode:passthrough"><g style="mix-blend-mode:passthrough"><ellipse cx="808" cy="300" rx="44" ry="44" fill-opacity="0" stroke-opacity="1" stroke="#000000" fill="none" stroke-width="2"/></g><g style="mix-blend-mode:passthrough"><path d="M783.38867,307.9361Q781.67773,307.9361,780.88086,307.1803Q780.08984,306.4244,780.08984,304.8248L780.08984,302.9498Q780.08984,301.67245,779.56836,301.11581Q779.04688,300.55917,777.916016,300.55917L777.916016,299.15292Q779.04688,299.15292,779.56836,298.59042Q780.08984,298.02206,780.08984,296.7623L780.08984,294.83456Q780.08984,293.22909,780.88086,292.484953Q781.67773,291.740812,783.38867,291.740812L783.38867,293.1412Q782.39844,293.1412,781.94727,293.5748Q781.49609,294.00839,781.49609,294.99862L781.49609,296.9205Q781.49609,298.12753,781.0918,298.81308Q780.6875,299.49862,779.80273,299.80331L779.80273,299.90878Q780.70508,300.23691,781.09766,300.91073Q781.49609,301.58456,781.49609,302.7916L781.49609,304.6607Q781.49609,305.651,781.94727,306.0963Q782.39844,306.5357,783.38867,306.5357L783.38867,307.9361ZM785.16992,306.858L785.16992,297.31894L786.66406,297.31894L786.66406,298.64902L786.75781,298.64902Q787.20312,297.92831,787.9121,297.50058Q788.627,297.06698,789.3828,297.06698Q790.3027,297.06698,790.9824,297.57089Q791.668,298.0748,792.0664,299.02987L792.1543,299.02987Q792.6406,298.10995,793.4668,297.58847Q794.2988,297.06698,795.3242,297.06698Q796.8359,297.06698,797.6797,298.05722Q798.5293,299.04745,798.5293,300.81112L798.5293,306.858L797.0352,306.858L797.0352,301.02792Q797.0352,299.85605,796.4727,299.14706Q795.916,298.43222,794.9961,298.43222Q793.918,298.43222,793.2617,299.18808Q792.6055,299.94394,792.6055,301.2037L792.6055,306.858L791.0938,306.858L791.0938,301.02792Q791.0938,299.85605,790.5312,299.14706Q789.9746,298.43222,789.0781,298.43222Q787.9941,298.43222,787.32617,299.1998Q786.66406,299.96152,786.66406,301.2037L786.66406,306.858L785.16992,306.858ZM802.7949,299.11777L800.9199,299.11777L800.9199,297.24862L802.7949,297.24862L802.7949,299.11777ZM802.7949,306.858L800.9199,306.858L800.9199,304.9654L802.7949,304.9654L802.7949,306.858ZM813.5059,305.4166L819.7344,305.4166L819.7344,306.858L811.4199,306.858L811.4199,305.5631L815.5215000000001,300.8287Q816.7812,299.3873,817.3203,298.43222Q817.8594,297.47714,817.8594,296.65097Q817.8594,295.62558,817.1914,294.99862Q816.5293,294.36581,815.4512,294.36581Q814.5488,294.36581,813.8398,294.90487Q813.1309,295.44394,812.6621,296.45175L811.3262,295.80722Q811.8652,294.41855,812.9375,293.67441Q814.0098,292.924406,815.4863,292.924406Q816.6582,292.924406,817.5547,293.37558Q818.457,293.82675,818.9609,294.65292Q819.4648,295.47909,819.4648,296.58066Q819.4648,297.62362,818.8672,298.7955Q818.2754,299.96152,816.9277,301.51425L813.5059,305.4166ZM826.332,307.11Q824.1523,307.11,822.9453,305.2642Q821.7383,303.4185,821.7383,300.02011Q821.7383,296.61581,822.9453,294.77011Q824.1523,292.924406,826.332,292.924406Q828.5293,292.924406,829.7246,294.77011Q830.9199,296.61581,830.9199,300.02011Q830.9199,303.4185,829.7246,305.2642Q828.5293,307.11,826.332,307.11ZM826.332,305.6685Q827.7559,305.6685,828.5352,304.2037Q829.3203,302.7389,829.3203,300.02011Q829.3203,297.30136,828.5352,295.83652Q827.7559,294.36581,826.332,294.36581Q824.9082,294.36581,824.123,295.83652Q823.3438,297.30136,823.3438,300.02011Q823.3438,302.7389,824.123,304.2037Q824.9082,305.6685,826.332,305.6685ZM832.2909999999999,306.5357Q833.2812,306.5357,833.7266,306.0963Q834.1777,305.651,834.1777,304.6607L834.1777,302.7916Q834.1777,301.60214,834.582,300.92245Q834.9863,300.23691,835.8887,299.90878L835.8887,299.80331Q834.9863,299.49862,834.582,298.81308Q834.1777,298.12753,834.1777,296.9205L834.1777,294.99862Q834.1777,294.00839,833.7266,293.5748Q833.2812,293.1412,832.2909999999999,293.1412L832.2909999999999,291.740812Q834.0195,291.740812,834.8105,292.484953Q835.6016,293.22909,835.6016,294.83456L835.6016,296.7623Q835.6016,298.02206,836.1113,298.59042Q836.627,299.15292,837.7637,299.15292L837.7637,300.55917Q836.627,300.55917,836.1113,301.11581Q835.6016,301.67245,835.6016,302.9498L835.6016,304.8248Q835.6016,306.442,834.8105,307.1861Q834.0195,307.9361,832.2909999999999,307.9361L832.2909999999999,306.5357Z" fill="#000000" fill-opacity="1" style="mix-blend-mode:passthrough"/></g></g></g><g style="mix-blend-mode:passthrough"><path d="M528,271L607,271Q609.8611,271,612.5214,269.947Q615.4099,268.803,617.6066,266.60699999999997Q619.8033,264.40999999999997,620.9467999999999,261.52099999999996Q622,258.861,622,256L622,212.5L624,212.5L624,256Q624,259.243,622.8063999999999,262.25800000000004Q621.5104,265.531,619.0208,268.02099999999996Q616.5312,270.51,613.2576,271.80600000000004Q610.2426,273,607,273L528,273L528,271ZM622,180.5L622,137Q622,133.7573,623.1936000000001,130.74239Q624.4896,127.46876,626.9792,124.97918Q629.469,122.4896,632.742,121.193599Q635.7570000000001,120,639,120L718,120L718,122L639,122Q636.139,122,633.479,123.05318Q630.59,124.19669999999999,628.393,126.3934Q626.1967,128.59009,625.0532000000001,131.4786Q624,134.1388,624,137L624,180.5L622,180.5ZM718.707,121.707107L712.343,128.07107Q712.273,128.14071,712.192,128.19543Q712.11,128.25015,712.019,128.28784Q711.928,128.32553,711.831,128.34474Q711.734,128.36396,711.636,128.36396Q711.538,128.36396,711.441,128.34474Q711.344,128.32553,711.2529999999999,128.28784Q711.162,128.25015,711.08,128.19543Q710.999,128.14071,710.929,128.07107Q710.859,128.00142,710.8050000000001,127.91953Q710.75,127.83764,710.712,127.74664Q710.674,127.65565,710.655,127.55905Q710.636,127.46245,710.636,127.36396Q710.636,127.26547,710.655,127.16887Q710.674,127.07227,710.712,126.98128Q710.75,126.89028,710.8050000000001,126.80839Q710.859,126.7265,710.929,126.65685L717.293,120.292893Q717.363,120.223249,717.444,120.16853Q717.5260000000001,120.113811,717.617,120.07612Q717.708,120.038429,717.8050000000001,120.019215Q717.9010000000001,120,718,120Q718.098,120,718.1949999999999,120.019215Q718.292,120.03843,718.383,120.076121Q718.4739999999999,120.113812,718.556,120.168531Q718.637,120.22325,718.707,120.292894Q718.777,120.362538,718.831,120.44443Q718.886,120.526323,718.924,120.617317Q718.962,120.708311,718.981,120.80491Q719,120.9015092,719,121.000000628481Q719,121.098492,718.981,121.195091Q718.962,121.29169,718.924,121.382684Q718.886,121.473678,718.831,121.555571Q718.777,121.637463,718.707,121.707107ZM717.293,121.707107L710.929,115.34315Q710.859,115.2735,710.8050000000001,115.19161Q710.75,115.10972,710.712,115.01872Q710.674,114.92773,710.655,114.83113Q710.636,114.73453,710.636,114.63604Q710.636,114.53755,710.655,114.44095Q710.674,114.34435,710.712,114.25336Q710.75,114.16236,710.8050000000001,114.08047Q710.859,113.99858,710.929,113.92893Q710.999,113.85929,711.08,113.80457Q711.162,113.74985,711.2529999999999,113.71216Q711.344,113.67447,711.441,113.65526Q711.538,113.63604,711.636,113.63604Q711.734,113.63604,711.831,113.65526Q711.928,113.67447,712.019,113.71216Q712.11,113.74985,712.192,113.80457Q712.273,113.85929,712.343,113.92893L718.707,120.292893Q718.777,120.362537,718.831,120.444429Q718.886,120.526322,718.924,120.617316Q718.962,120.70831,718.981,120.804909Q719,120.901508,719,120.999999371519Q719,121.0984908,718.981,121.19509Q718.962,121.291689,718.924,121.382683Q718.886,121.473677,718.831,121.55557Q718.777,121.637462,718.707,121.707106Q718.637,121.77675,718.556,121.831469Q718.4739999999999,121.886188,718.383,121.923879Q718.292,121.96157,718.1949999999999,121.980785Q718.098,122,718,122Q717.9010000000001,122,717.8050000000001,121.980785Q717.708,121.961571,717.617,121.92388Q717.5260000000001,121.886189,717.444,121.83147Q717.363,121.776751,717.293,121.707107ZM599,208.5L599,184.5Q599,184.30349999999999,599.0193,184.1079Q599.0385,183.9124,599.0769,183.7196Q599.1152,183.5269,599.1722,183.3389Q599.2293,183.1508,599.3045,182.9693Q599.3797,182.7877,599.4723,182.6144Q599.5649,182.4411,599.6741,182.2777Q599.7833,182.11430000000001,599.908,181.9624Q600.0326,181.8105,600.1716,181.6716Q600.3105,181.5326,600.4624,181.40800000000002Q600.6143,181.2833,600.7777,181.1741Q600.9411,181.0649,601.1144,180.9723Q601.2877,180.8797,601.4693,180.8045Q601.6508,180.7293,601.8389,180.6722Q602.0269,180.61520000000002,602.2196,180.5769Q602.4124,180.5385,602.6079,180.5193Q602.8035,180.5,603,180.5L643,180.5Q643.197,180.5,643.392,180.5193Q643.588,180.5385,643.78,180.5769Q643.973,180.61520000000002,644.1610000000001,180.6722Q644.349,180.7293,644.531,180.8045Q644.712,180.8797,644.886,180.9723Q645.059,181.0649,645.222,181.1741Q645.386,181.2833,645.538,181.40800000000002Q645.689,181.5326,645.828,181.6716Q645.967,181.8105,646.092,181.9624Q646.217,182.11430000000001,646.326,182.2777Q646.435,182.4411,646.528,182.6144Q646.62,182.7877,646.696,182.9693Q646.771,183.1508,646.828,183.3389Q646.885,183.5269,646.923,183.7196Q646.961,183.9124,646.981,184.1079Q647,184.30349999999999,647,184.5L647,208.5Q647,208.69650000000001,646.981,208.8921Q646.961,209.0876,646.923,209.2803Q646.885,209.4731,646.828,209.6611Q646.771,209.8492,646.696,210.0307Q646.62,210.2123,646.528,210.3856Q646.435,210.5589,646.326,210.72230000000002Q646.217,210.88569999999999,646.092,211.0376Q645.967,211.1895,645.828,211.3284Q645.689,211.4674,645.538,211.59199999999998Q645.386,211.7167,645.222,211.8259Q645.059,211.935,644.886,212.02769999999998Q644.712,212.1203,644.531,212.19549999999998Q644.349,212.2707,644.1610000000001,212.3278Q643.973,212.38479999999998,643.78,212.4231Q643.588,212.4615,643.392,212.4807Q643.197,212.5,643,212.5L603,212.5Q602.8035,212.5,602.6079,212.4807Q602.4124,212.4615,602.2196,212.4231Q602.0269,212.38479999999998,601.8389,212.3278Q601.6508,212.2707,601.4693,212.19549999999998Q601.2877,212.1203,601.1144,212.02769999999998Q600.9411,211.935,600.7777,211.8259Q600.6143,211.7167,600.4624,211.59199999999998Q600.3105,211.4674,600.1716,211.3284Q600.0326,211.1895,599.908,211.0376Q599.7833,210.88569999999999,599.6741,210.72230000000002Q599.5649,210.5589,599.4723,210.3856Q599.3797,210.2123,599.3045,210.0307Q599.2293,209.8492,599.1722,209.6611Q599.1152,209.4731,599.0769,209.2803Q599.0385,209.0876,599.0193,208.8921Q599,208.69650000000001,599,208.5Z" fill="#000000" fill-opacity="1" style="mix-blend-mode:passthrough"/></g><g style="mix-blend-mode:passthrough"><path d="M619.2396,203.5856L619.2396,189.236626L620.5052,189.236626L620.5052,203.5856L619.2396,203.5856ZM608.92188,189.87725L615.92708,189.87725L615.92708,194.58038L610.48958,194.58038L610.29688,196.91371L615.91146,196.91371Q615.88021,197.66892,615.80729,198.9345Q615.73438,200.195,615.67188,201.1377Q615.625,202.0335,615.375,202.4866Q615.13021,202.9345,614.55208,203.1168Q613.97396,203.2991,612.86979,203.2991L610.01042,203.2991L609.78646,202.1325L612.53646,202.1325Q613.30208,202.1325,613.6875,202.0387Q614.07292,201.9398,614.23958,201.6637Q614.40625,201.3825,614.4375,200.8043Q614.55208,199.1741,614.58333,198.08558L608.9375,198.08558L609.31771,193.42933L614.66146,193.42933L614.66146,191.04392L608.92188,191.04392L608.92188,189.87725ZM625.4167,190.00225L637.0781,190.00225L637.0781,201.6689Q637.0781,202.7106,636.6354,203.0908Q636.1979,203.4762,635.0781,203.4762L633.4479,203.4762L633.2552,202.2418L634.7135,202.2418Q635.2083,202.2418,635.4375,202.1741Q635.6719,202.1012,635.75,201.8929Q635.8333,201.6845,635.8333,201.2523L635.8333,199.0283L631.8177,199.0283L631.8177,203.3825L630.5833,203.3825L630.5833,199.0283L626.5677,199.0283Q626.4583,200.4189,626.1094,201.4866Q625.7656,202.5491,625.0469,203.7627L623.9115,203.1741Q624.5833,202.07,624.8854,201.2627Q625.1927,200.4502,625.3021,199.4189Q625.4167,198.38767,625.4167,196.50225L625.4167,190.00225ZM630.5833,193.98663L630.5833,191.20538L626.6458,191.20538L626.6458,193.98663L630.5833,193.98663ZM631.8177,193.98663L635.8333,193.98663L635.8333,191.20538L631.8177,191.20538L631.8177,193.98663ZM630.5833,197.83038L630.5833,195.18975L626.6458,195.18975L626.6458,196.93454Q626.6458,197.53871,626.6302,197.83038L630.5833,197.83038ZM631.8177,195.18975L631.8177,197.83038L635.8333,197.83038L635.8333,195.18975L631.8177,195.18975Z" fill="#FFFFFF" fill-opacity="1" style="mix-blend-mode:passthrough"/></g><g style="mix-blend-mode:passthrough"><path d="M528,319L621.5,319L621.5,321L528,321L528,319ZM669.5,299L763,299L763,301L669.5,301L669.5,299ZM763.707,300.70711L757.343,307.0711Q757.273,307.1407,757.192,307.1954Q757.11,307.2501,757.019,307.2878Q756.928,307.3255,756.831,307.3447Q756.735,307.364,756.636,307.364Q756.538,307.364,756.441,307.3447Q756.344,307.3255,756.2529999999999,307.2878Q756.162,307.2501,756.08,307.1954Q755.999,307.1407,755.929,307.0711Q755.859,307.0014,755.8050000000001,306.91949999999997Q755.75,306.8376,755.712,306.7466Q755.674,306.6556,755.655,306.559Q755.636,306.4625,755.636,306.364Q755.636,306.2655,755.655,306.1689Q755.674,306.0723,755.712,305.9813Q755.75,305.8903,755.8050000000001,305.8084Q755.859,305.7265,755.929,305.6569L762.293,299.29289Q762.363,299.22325,762.444,299.16853Q762.5260000000001,299.11381,762.617,299.07612Q762.708,299.03843,762.8050000000001,299.01921Q762.9010000000001,299,763,299Q763.098,299,763.1949999999999,299.01921Q763.292,299.03843,763.383,299.07612Q763.4739999999999,299.11381,763.556,299.16853Q763.637,299.22325,763.707,299.29289Q763.777,299.36254,763.831,299.44443Q763.886,299.52632,763.924,299.61732Q763.962,299.70831,763.981,299.80491Q764,299.90151,764,300Q764,300.09849,763.981,300.19509Q763.962,300.29169,763.924,300.38268Q763.886,300.47368,763.831,300.55557Q763.777,300.63746,763.707,300.70711ZM762.293,300.70711L755.929,294.343147Q755.859,294.273504,755.8050000000001,294.191611Q755.75,294.109718,755.712,294.0187242Q755.674,293.9277301,755.655,293.831131Q755.636,293.734532,755.636,293.636041Q755.636,293.537549,755.655,293.440951Q755.674,293.344352,755.712,293.253357Q755.75,293.162363,755.8050000000001,293.080471Q755.859,292.99858,755.929,292.92893Q755.999,292.85929,756.08,292.80457Q756.162,292.74985,756.2529999999999,292.71216Q756.344,292.67447,756.441,292.65526Q756.538,292.63604,756.636,292.63604Q756.734,292.63604,756.831,292.65525Q756.928,292.67447,757.019,292.71216Q757.11,292.74985,757.192,292.80457Q757.273,292.85929,757.343,292.92893L763.707,299.29289Q763.777,299.36254,763.831,299.44443Q763.886,299.52632,763.924,299.61732Q763.962,299.70831,763.981,299.80491Q764,299.90151,764,300Q764,300.09849,763.981,300.19509Q763.962,300.29169,763.924,300.38268Q763.886,300.47368,763.831,300.55557Q763.777,300.63746,763.707,300.70711Q763.637,300.77675,763.556,300.83147Q763.4739999999999,300.88619,763.383,300.92388Q763.292,300.96157,763.1949999999999,300.98078Q763.098,301,763,301Q762.9010000000001,301,762.8050000000001,300.98078Q762.708,300.96157,762.617,300.92388Q762.5260000000001,300.88619,762.444,300.83147Q762.363,300.77675,762.293,300.70711ZM621.5,322L621.5,298Q621.5,297.80349,621.5193,297.60793Q621.5385,297.41237,621.5769,297.21964Q621.6152,297.02691,621.6722,296.83886Q621.7293,296.65082,621.8045,296.46927Q621.8797,296.28772,621.9723,296.11441Q622.0649,295.94111,622.1741,295.77772Q622.2833,295.61433,622.408,295.46243Q622.5326,295.31052,622.6716,295.17157Q622.8105,295.03262,622.9624,294.907958Q623.1143,294.783295,623.2777,294.674121Q623.4411,294.564948,623.6144,294.472315Q623.7877,294.379682,623.9693,294.304482Q624.1508,294.229282,624.3389,294.172239Q624.5269,294.115196,624.7196,294.0768589Q624.9124,294.0385222,625.1079,294.0192611Q625.3035,294,625.5,294L665.5,294Q665.697,294,665.892,294.0192611Q666.088,294.0385222,666.28,294.0768589Q666.473,294.115196,666.6610000000001,294.172239Q666.8489999999999,294.229282,667.031,294.304482Q667.212,294.379682,667.386,294.472315Q667.559,294.564948,667.722,294.674121Q667.886,294.783295,668.038,294.907958Q668.189,295.03262,668.328,295.17157Q668.467,295.31052,668.592,295.46243Q668.717,295.61433,668.826,295.77772Q668.935,295.94111,669.028,296.11441Q669.12,296.28772,669.1949999999999,296.46927Q669.271,296.65082,669.328,296.83886Q669.385,297.02691,669.423,297.21964Q669.461,297.41237,669.481,297.60793Q669.5,297.80349,669.5,298L669.5,322Q669.5,322.1965,669.481,322.3921Q669.461,322.5876,669.423,322.7804Q669.385,322.9731,669.328,323.1611Q669.271,323.3492,669.1949999999999,323.5307Q669.12,323.7123,669.028,323.8856Q668.935,324.0589,668.826,324.2223Q668.717,324.3857,668.592,324.5376Q668.467,324.6895,668.328,324.8284Q668.189,324.9674,668.038,325.092Q667.886,325.2167,667.722,325.3259Q667.559,325.435,667.386,325.5277Q667.212,325.6203,667.031,325.6955Q666.8489999999999,325.7707,666.6610000000001,325.8278Q666.473,325.8848,666.28,325.9231Q666.088,325.9615,665.892,325.9807Q665.697,326,665.5,326L625.5,326Q625.3035,326,625.1079,325.9807Q624.9124,325.9615,624.7196,325.9231Q624.5269,325.8848,624.3389,325.8278Q624.1508,325.7707,623.9693,325.6955Q623.7877,325.6203,623.6144,325.5277Q623.4411,325.435,623.2777,325.3259Q623.1143,325.2167,622.9624,325.092Q622.8105,324.9674,622.6716,324.8284Q622.5326,324.6895,622.408,324.5376Q622.2833,324.3857,622.1741,324.2223Q622.0649,324.0589,621.9723,323.8856Q621.8797,323.7123,621.8045,323.5307Q621.7293,323.3492,621.6722,323.1611Q621.6152,322.9731,621.5769,322.7804Q621.5385,322.5876,621.5193,322.3921Q621.5,322.1965,621.5,322Z" fill="#000000" fill-opacity="1" style="mix-blend-mode:passthrough"/></g><g style="mix-blend-mode:passthrough"><path d="M641.7396,317.0856L641.7396,302.736626L643.0052,302.736626L643.0052,317.0856L641.7396,317.0856ZM631.42188,303.37725L638.42708,303.37725L638.42708,308.08038L632.98958,308.08038L632.79688,310.41371L638.41146,310.41371Q638.38021,311.16892,638.30729,312.4345Q638.23438,313.695,638.17188,314.6377Q638.125,315.5335,637.875,315.9866Q637.63021,316.4345,637.05208,316.6168Q636.47396,316.7991,635.36979,316.7991L632.51042,316.7991L632.28646,315.6325L635.03646,315.6325Q635.80208,315.6325,636.1875,315.5387Q636.57292,315.4398,636.73958,315.1637Q636.90625,314.8825,636.9375,314.3043Q637.05208,312.6741,637.08333,311.58558L631.4375,311.58558L631.81771,306.92933L637.16146,306.92933L637.16146,304.54392L631.42188,304.54392L631.42188,303.37725ZM647.9167,303.50225L659.5781,303.50225L659.5781,315.1689Q659.5781,316.2106,659.1354,316.5908Q658.6979,316.9762,657.5781,316.9762L655.9479,316.9762L655.7552,315.7418L657.2135,315.7418Q657.7083,315.7418,657.9375,315.6741Q658.1719,315.6012,658.25,315.3929Q658.3333,315.1845,658.3333,314.7523L658.3333,312.5283L654.3177,312.5283L654.3177,316.8825L653.0833,316.8825L653.0833,312.5283L649.0677,312.5283Q648.9583,313.9189,648.6094,314.9866Q648.2656,316.0491,647.5469,317.2627L646.4115,316.6741Q647.0833,315.57,647.3854,314.7627Q647.6927,313.9502,647.8021,312.9189Q647.9167,311.88767,647.9167,310.00225L647.9167,303.50225ZM653.0833,307.48663L653.0833,304.70538L649.1458,304.70538L649.1458,307.48663L653.0833,307.48663ZM654.3177,307.48663L658.3333,307.48663L658.3333,304.70538L654.3177,304.70538L654.3177,307.48663ZM653.0833,311.33038L653.0833,308.68975L649.1458,308.68975L649.1458,310.43454Q649.1458,311.03871,649.1302,311.33038L653.0833,311.33038ZM654.3177,308.68975L654.3177,311.33038L658.3333,311.33038L658.3333,308.68975L654.3177,308.68975Z" fill="#FFFFFF" fill-opacity="1" style="mix-blend-mode:passthrough"/></g></g></svg>