<svg xmlns="http://www.w3.org/2000/svg" xmlns:xlink="http://www.w3.org/1999/xlink" fill="none" version="1.1" width="834" height="371.51123046875" viewBox="0 0 834 371.51123046875"><g style="mix-blend-mode:passthrough"><g style="mix-blend-mode:passthrough"><rect x="1" y="32.51123046875" width="236" height="338" rx="4" fill-opacity="0" stroke-opacity="1" stroke="#000000" fill="none" stroke-width="2"/></g><g style="mix-blend-mode:passthrough"><rect x="299" y="32.51123046875" width="236" height="338" rx="4" fill-opacity="0" stroke-opacity="1" stroke="#000000" fill="none" stroke-width="2"/></g><g style="mix-blend-mode:passthrough"><rect x="597" y="32.51123046875" width="236" height="338" rx="4" fill-opacity="0" stroke-opacity="1" stroke="#000000" fill="none" stroke-width="2"/></g><g style="mix-blend-mode:passthrough"><g style="mix-blend-mode:passthrough"><path d="M21 317.51123046875C21 314.74980671959605 23.238576250846034 312.51123046875 26 312.51123046875L69 312.51123046875C69 312.51123046875 69 312.51123046875 69 312.51123046875L69 360.51123046875C69 360.51123046875 69 360.51123046875 69 360.51123046875L26 360.51123046875C23.238576250846034 360.51123046875 21 358.27265421790395 21 355.51123046875Z" fill-opacity="0" stroke-opacity="1" stroke="#000000" fill="none" stroke-width="2"/></g><g style="mix-blend-mode:passthrough"><path d="M69 312.51123046875C69 312.51123046875 69 312.51123046875 69 312.51123046875L212 312.51123046875C214.76142374915398 312.51123046875 217 314.74980671959605 217 317.51123046875L217 355.51123046875C217 358.27265421790395 214.76142374915398 360.51123046875 212 360.51123046875L69 360.51123046875C69 360.51123046875 69 360.51123046875 69 360.51123046875Z" fill-opacity="0" stroke-opacity="1" stroke="#000000" fill="none" stroke-width="2"/></g><g style="mix-blend-mode:passthrough"><path d="M43.84961,343.62123046875Q42.4668,343.62123046875,41.64648,342.89463046875Q40.826172,342.16223046875,40.826172,340.95513046875Q40.826172,337.86142046875,45.54297,337.86142046875L46.91406,337.86142046875L46.91406,337.08798046875Q46.91406,336.11532046875,46.31641,335.52939046875Q45.72461,334.94345046875,44.75195,334.94345046875Q43.54492,334.94345046875,42.33789,335.98642046875L41.45898,334.97860046875Q42.90039,333.57821046875,44.82227,333.57821046875Q46.48047,333.57821046875,47.44141,334.48056046875Q48.4082,335.37704046875,48.4082,336.90634046875L48.4082,343.36923046875L46.91406,343.36923046875L46.91406,342.00403046875L46.80273,342.00403046875Q46.41016,342.71883046875,45.57812,343.17003046875Q44.75195,343.62123046875,43.84961,343.62123046875ZM44.11914,342.25593046875Q44.7168,342.25593046875,45.36133,341.98643046875Q46.01172,341.71103046875,46.46289,341.14853046875Q46.91406,340.58013046875,46.91406,339.73053046875L46.91406,339.22663046875L45.83008,339.22663046875Q44.04883,339.22663046875,43.19922,339.63683046875Q42.35547,340.04113046875,42.35547,340.86723046875Q42.35547,341.50013046875,42.83008,341.88093046875Q43.31055,342.25593046875,44.11914,342.25593046875Z" fill="#000000" fill-opacity="1" style="mix-blend-mode:passthrough"/></g><g style="mix-blend-mode:passthrough"><path d="M135.00586,341.92783046875L141.23438,341.92783046875L141.23438,343.36923046875L132.919922,343.36923046875L132.919922,342.07433046875L137.02148,337.33993046875Q138.28125,335.89853046875,138.82031,334.94345046875Q139.35938,333.98837046875,139.35938,333.16220046875Q139.35938,332.13681046875,138.69141,331.50985046875Q138.0293,330.87704046875,136.95117,330.87704046875Q136.04883,330.87704046875,135.33984,331.41610046875Q134.63086,331.95517046875,134.16211,332.96298046875L132.826172,332.31845046875Q133.36523,330.92978046875,134.4375,330.18564046875Q135.50977,329.43563646875,136.98633,329.43563646875Q138.1582,329.43563646875,139.05469,329.88681046875Q139.95703,330.33798046875,140.46094,331.16415046875Q140.96484,331.99032046875,140.96484,333.09189046875Q140.96484,334.13485046875,140.36719,335.30673046875Q139.77539,336.47275046875,138.42773,338.02548046875L135.00586,341.92783046875ZM147.832,343.62123046875Q145.6523,343.62123046875,144.4453,341.77543046875Q143.2383,339.92973046875,143.2383,336.53134046875Q143.2383,333.12704046875,144.4453,331.28134046875Q145.6523,329.43563646875,147.832,329.43563646875Q150.0293,329.43563646875,151.2246,331.28134046875Q152.41989999999998,333.12704046875,152.41989999999998,336.53134046875Q152.41989999999998,339.92973046875,151.2246,341.77543046875Q150.0293,343.62123046875,147.832,343.62123046875ZM147.832,342.17973046875Q149.2559,342.17973046875,150.0352,340.71493046875Q150.8203,339.25013046875,150.8203,336.53134046875Q150.8203,333.81259046875,150.0352,332.34775046875Q149.2559,330.87704046875,147.832,330.87704046875Q146.4082,330.87704046875,145.623,332.34775046875Q144.8438,333.81259046875,144.8438,336.53134046875Q144.8438,339.25013046875,145.623,340.71493046875Q146.4082,342.17973046875,147.832,342.17973046875Z" fill="#000000" fill-opacity="1" style="mix-blend-mode:passthrough"/></g></g><g style="mix-blend-mode:passthrough"><g style="mix-blend-mode:passthrough"><path d="M319 312.51123046875C319 312.51123046875 319 312.51123046875 319 312.51123046875L367 312.51123046875C367 312.51123046875 367 312.51123046875 367 312.51123046875L367 360.51123046875C367 360.51123046875 367 360.51123046875 367 360.51123046875L324 360.51123046875C321.23857625084605 360.51123046875 319 358.27265421790395 319 355.51123046875Z" fill-opacity="0" stroke-opacity="1" stroke="#000000" fill="none" stroke-width="2"/></g><g style="mix-blend-mode:passthrough"><path d="M367 312.51123046875C367 312.51123046875 367 312.51123046875 367 312.51123046875L515 312.51123046875C515 312.51123046875 515 312.51123046875 515 312.51123046875L515 355.51123046875C515 358.27265421790395 512.761423749154 360.51123046875 510 360.51123046875L367 360.51123046875C367 360.51123046875 367 360.51123046875 367 360.51123046875Z" fill-opacity="0" stroke-opacity="1" stroke="#000000" fill="none" stroke-width="2"/></g><g style="mix-blend-mode:passthrough"><path d="M341.84961,343.62123046875Q340.4668,343.62123046875,339.64648,342.89463046875Q338.826172,342.16223046875,338.826172,340.95513046875Q338.826172,337.86142046875,343.54297,337.86142046875L344.91406,337.86142046875L344.91406,337.08798046875Q344.91406,336.11532046875,344.31641,335.52939046875Q343.72461,334.94345046875,342.75195,334.94345046875Q341.54492,334.94345046875,340.33789,335.98642046875L339.45898,334.97860046875Q340.90039,333.57821046875,342.82227,333.57821046875Q344.48047,333.57821046875,345.44141,334.48056046875Q346.4082,335.37704046875,346.4082,336.90634046875L346.4082,343.36923046875L344.91406,343.36923046875L344.91406,342.00403046875L344.80273,342.00403046875Q344.41016,342.71883046875,343.57812,343.17003046875Q342.75195,343.62123046875,341.84961,343.62123046875ZM342.11914,342.25593046875Q342.7168,342.25593046875,343.36133,341.98643046875Q344.01172,341.71103046875,344.46289,341.14853046875Q344.91406,340.58013046875,344.91406,339.73053046875L344.91406,339.22663046875L343.83008,339.22663046875Q342.04883,339.22663046875,341.19922,339.63683046875Q340.35547,340.04113046875,340.35547,340.86723046875Q340.35547,341.50013046875,340.83008,341.88093046875Q341.31055,342.25593046875,342.11914,342.25593046875Z" fill="#000000" fill-opacity="1" style="mix-blend-mode:passthrough"/></g><g style="mix-blend-mode:passthrough"><path d="M433.00586,341.92783046875L439.23438,341.92783046875L439.23438,343.36923046875L430.919922,343.36923046875L430.919922,342.07433046875L435.02148,337.33993046875Q436.28125,335.89853046875,436.82031,334.94345046875Q437.35938,333.98837046875,437.35938,333.16220046875Q437.35938,332.13681046875,436.69141,331.50985046875Q436.0293,330.87704046875,434.95117,330.87704046875Q434.04883,330.87704046875,433.33984,331.41610046875Q432.63086,331.95517046875,432.16211,332.96298046875L430.826172,332.31845046875Q431.36523,330.92978046875,432.4375,330.18564046875Q433.50977,329.43563646875,434.98633,329.43563646875Q436.1582,329.43563646875,437.05469,329.88681046875Q437.95703,330.33798046875,438.46094,331.16415046875Q438.96484,331.99032046875,438.96484,333.09189046875Q438.96484,334.13485046875,438.36719,335.30673046875Q437.77539,336.47275046875,436.42773,338.02548046875L433.00586,341.92783046875ZM445.832,343.62123046875Q443.6523,343.62123046875,442.4453,341.77543046875Q441.2383,339.92973046875,441.2383,336.53134046875Q441.2383,333.12704046875,442.4453,331.28134046875Q443.6523,329.43563646875,445.832,329.43563646875Q448.0293,329.43563646875,449.2246,331.28134046875Q450.4199,333.12704046875,450.4199,336.53134046875Q450.4199,339.92973046875,449.2246,341.77543046875Q448.0293,343.62123046875,445.832,343.62123046875ZM445.832,342.17973046875Q447.2559,342.17973046875,448.0352,340.71493046875Q448.8203,339.25013046875,448.8203,336.53134046875Q448.8203,333.81259046875,448.0352,332.34775046875Q447.2559,330.87704046875,445.832,330.87704046875Q444.4082,330.87704046875,443.623,332.34775046875Q442.8438,333.81259046875,442.8438,336.53134046875Q442.8438,339.25013046875,443.623,340.71493046875Q444.4082,342.17973046875,445.832,342.17973046875Z" fill="#000000" fill-opacity="1" style="mix-blend-mode:passthrough"/></g></g><g style="mix-blend-mode:passthrough"><g style="mix-blend-mode:passthrough"><path d="M319 269.51123046875C319 266.74980671959605 321.23857625084605 264.51123046875 324 264.51123046875L367 264.51123046875C367 264.51123046875 367 264.51123046875 367 264.51123046875L367 312.51123046875C367 312.51123046875 367 312.51123046875 367 312.51123046875L319 312.51123046875C319 312.51123046875 319 312.51123046875 319 312.51123046875Z" fill-opacity="0" stroke-opacity="1" stroke="#000000" fill="none" stroke-width="2"/></g><g style="mix-blend-mode:passthrough"><path d="M367 264.51123046875C367 264.51123046875 367 264.51123046875 367 264.51123046875L510 264.51123046875C512.761423749154 264.51123046875 515 266.74980671959605 515 269.51123046875L515 312.51123046875C515 312.51123046875 515 312.51123046875 515 312.51123046875L367 312.51123046875C367 312.51123046875 367 312.51123046875 367 312.51123046875Z" fill-opacity="0" stroke-opacity="1" stroke="#000000" fill="none" stroke-width="2"/></g><g style="mix-blend-mode:passthrough"><path d="M339.29492,295.36923046875L339.29492,281.68759046875L340.78906,281.68759046875L340.78906,287.17782046875L340.88281,287.17782046875Q341.42188,286.43954046875,342.20117,286.01767046875Q342.98633,285.59579046875,343.88867,285.59579046875Q345.03711,285.59579046875,345.96289,286.21689046875Q346.89453,286.83798046875,347.41602,287.93954046875Q347.9375,289.03525046875,347.9375,290.41806046875Q347.9375,291.91223046875,347.41602,293.09583046875Q346.89453,294.27353046875,345.96289,294.94153046875Q345.03711,295.60363046875,343.88867,295.60363046875Q342.93359,295.60363046875,342.16016,295.19343046875Q341.38672,294.77743046875,340.88281,294.00403046875L340.78906,294.00403046875L340.78906,295.36923046875L339.29492,295.36923046875ZM340.71875,290.59973046875Q340.71875,291.62513046875,341.07031,292.43953046875Q341.42188,293.24813046875,342.06055,293.69933046875Q342.69922,294.14463046875,343.49023,294.14463046875Q344.31641,294.14463046875,344.98438,293.69933046875Q345.65234,293.24813046875,346.02734,292.43953046875Q346.4082,291.62513046875,346.4082,290.59973046875Q346.4082,289.57431046875,346.03906,288.76571046875Q345.66992,287.95126046875,345.01953,287.50595046875Q344.36914,287.05478046875,343.54297,287.05478046875Q342.73438,287.05478046875,342.08398,287.50595046875Q341.43945,287.95126046875,341.07617,288.76571046875Q340.71875,289.57431046875,340.71875,290.59973046875Z" fill="#000000" fill-opacity="1" style="mix-blend-mode:passthrough"/></g><g style="mix-blend-mode:passthrough"><path d="M433.00586,293.92783046875L439.23438,293.92783046875L439.23438,295.36923046875L430.919922,295.36923046875L430.919922,294.07433046875L435.02148,289.33993046875Q436.28125,287.89853046875,436.82031,286.94345046875Q437.35938,285.98837046875,437.35938,285.16220046875Q437.35938,284.13681046875,436.69141,283.50985046875Q436.0293,282.87704046875,434.95117,282.87704046875Q434.04883,282.87704046875,433.33984,283.41610046875Q432.63086,283.95517046875,432.16211,284.96298046875L430.826172,284.31845046875Q431.36523,282.92978046875,432.4375,282.18564046875Q433.50977,281.43563646875,434.98633,281.43563646875Q436.1582,281.43563646875,437.05469,281.88681046875Q437.95703,282.33798046875,438.46094,283.16415046875Q438.96484,283.99032046875,438.96484,285.09189046875Q438.96484,286.13485046875,438.36719,287.30673046875Q437.77539,288.47275046875,436.42773,290.02548046875L433.00586,293.92783046875ZM445.832,295.62123046875Q443.6523,295.62123046875,442.4453,293.77543046875Q441.2383,291.92973046875,441.2383,288.53134046875Q441.2383,285.12704046875,442.4453,283.28134046875Q443.6523,281.43563646875,445.832,281.43563646875Q448.0293,281.43563646875,449.2246,283.28134046875Q450.4199,285.12704046875,450.4199,288.53134046875Q450.4199,291.92973046875,449.2246,293.77543046875Q448.0293,295.62123046875,445.832,295.62123046875ZM445.832,294.17973046875Q447.2559,294.17973046875,448.0352,292.71493046875Q448.8203,291.25013046875,448.8203,288.53134046875Q448.8203,285.81259046875,448.0352,284.34775046875Q447.2559,282.87704046875,445.832,282.87704046875Q444.4082,282.87704046875,443.623,284.34775046875Q442.8438,285.81259046875,442.8438,288.53134046875Q442.8438,291.25013046875,443.623,292.71493046875Q444.4082,294.17973046875,445.832,294.17973046875Z" fill="#000000" fill-opacity="1" style="mix-blend-mode:passthrough"/></g></g><g style="mix-blend-mode:passthrough"><g style="mix-blend-mode:passthrough"><path d="M617 312.51123046875C617 312.51123046875 617 312.51123046875 617 312.51123046875L665 312.51123046875C665 312.51123046875 665 312.51123046875 665 312.51123046875L665 360.51123046875C665 360.51123046875 665 360.51123046875 665 360.51123046875L622 360.51123046875C619.238576250846 360.51123046875 617 358.27265421790395 617 355.51123046875Z" fill-opacity="0" stroke-opacity="1" stroke="#000000" fill="none" stroke-width="2"/></g><g style="mix-blend-mode:passthrough"><path d="M665 312.51123046875C665 312.51123046875 665 312.51123046875 665 312.51123046875L813 312.51123046875C813 312.51123046875 813 312.51123046875 813 312.51123046875L813 355.51123046875C813 358.27265421790395 810.761423749154 360.51123046875 808 360.51123046875L665 360.51123046875C665 360.51123046875 665 360.51123046875 665 360.51123046875Z" fill-opacity="0" stroke-opacity="1" stroke="#000000" fill="none" stroke-width="2"/></g><g style="mix-blend-mode:passthrough"><path d="M639.84961,343.62123046875Q638.4668,343.62123046875,637.64648,342.89463046875Q636.826172,342.16223046875,636.826172,340.95513046875Q636.826172,337.86142046875,641.54297,337.86142046875L642.91406,337.86142046875L642.91406,337.08798046875Q642.91406,336.11532046875,642.31641,335.52939046875Q641.72461,334.94345046875,640.75195,334.94345046875Q639.54492,334.94345046875,638.33789,335.98642046875L637.45898,334.97860046875Q638.90039,333.57821046875,640.82227,333.57821046875Q642.48047,333.57821046875,643.44141,334.48056046875Q644.4082,335.37704046875,644.4082,336.90634046875L644.4082,343.36923046875L642.91406,343.36923046875L642.91406,342.00403046875L642.80273,342.00403046875Q642.41016,342.71883046875,641.57812,343.17003046875Q640.75195,343.62123046875,639.84961,343.62123046875ZM640.11914,342.25593046875Q640.7168,342.25593046875,641.36133,341.98643046875Q642.01172,341.71103046875,642.46289,341.14853046875Q642.91406,340.58013046875,642.91406,339.73053046875L642.91406,339.22663046875L641.83008,339.22663046875Q640.04883,339.22663046875,639.19922,339.63683046875Q638.35547,340.04113046875,638.35547,340.86723046875Q638.35547,341.50013046875,638.83008,341.88093046875Q639.31055,342.25593046875,640.11914,342.25593046875Z" fill="#000000" fill-opacity="1" style="mix-blend-mode:passthrough"/></g><g style="mix-blend-mode:passthrough"><path d="M731.00586,341.92783046875L737.23438,341.92783046875L737.23438,343.36923046875L728.919922,343.36923046875L728.919922,342.07433046875L733.02148,337.33993046875Q734.28125,335.89853046875,734.82031,334.94345046875Q735.35938,333.98837046875,735.35938,333.16220046875Q735.35938,332.13681046875,734.69141,331.50985046875Q734.0293,330.87704046875,732.95117,330.87704046875Q732.04883,330.87704046875,731.33984,331.41610046875Q730.63086,331.95517046875,730.16211,332.96298046875L728.826172,332.31845046875Q729.36523,330.92978046875,730.4375,330.18564046875Q731.50977,329.43563646875,732.98633,329.43563646875Q734.1582,329.43563646875,735.05469,329.88681046875Q735.95703,330.33798046875,736.46094,331.16415046875Q736.96484,331.99032046875,736.96484,333.09189046875Q736.96484,334.13485046875,736.36719,335.30673046875Q735.77539,336.47275046875,734.42773,338.02548046875L731.00586,341.92783046875ZM743.832,343.62123046875Q741.6523,343.62123046875,740.4453,341.77543046875Q739.2383,339.92973046875,739.2383,336.53134046875Q739.2383,333.12704046875,740.4453,331.28134046875Q741.6523,329.43563646875,743.832,329.43563646875Q746.0293,329.43563646875,747.2246,331.28134046875Q748.4199,333.12704046875,748.4199,336.53134046875Q748.4199,339.92973046875,747.2246,341.77543046875Q746.0293,343.62123046875,743.832,343.62123046875ZM743.832,342.17973046875Q745.2559,342.17973046875,746.0352,340.71493046875Q746.8203,339.25013046875,746.8203,336.53134046875Q746.8203,333.81259046875,746.0352,332.34775046875Q745.2559,330.87704046875,743.832,330.87704046875Q742.4082,330.87704046875,741.623,332.34775046875Q740.8438,333.81259046875,740.8438,336.53134046875Q740.8438,339.25013046875,741.623,340.71493046875Q742.4082,342.17973046875,743.832,342.17973046875Z" fill="#000000" fill-opacity="1" style="mix-blend-mode:passthrough"/></g></g><g style="mix-blend-mode:passthrough"><g style="mix-blend-mode:passthrough"><path d="M617 269.51123046875C617 266.74980671959605 619.238576250846 264.51123046875 622 264.51123046875L665 264.51123046875C665 264.51123046875 665 264.51123046875 665 264.51123046875L665 312.51123046875C665 312.51123046875 665 312.51123046875 665 312.51123046875L617 312.51123046875C617 312.51123046875 617 312.51123046875 617 312.51123046875Z" fill-opacity="0" stroke-opacity="1" stroke="#000000" fill="none" stroke-width="2"/></g><g style="mix-blend-mode:passthrough"><path d="M665 264.51123046875C665 264.51123046875 665 264.51123046875 665 264.51123046875L808 264.51123046875C810.761423749154 264.51123046875 813 266.74980671959605 813 269.51123046875L813 312.51123046875C813 312.51123046875 813 312.51123046875 813 312.51123046875L665 312.51123046875C665 312.51123046875 665 312.51123046875 665 312.51123046875Z" fill-opacity="0" stroke-opacity="1" stroke="#000000" fill="none" stroke-width="2"/></g><g style="mix-blend-mode:passthrough"><path d="M637.29492,295.36923046875L637.29492,281.68759046875L638.78906,281.68759046875L638.78906,287.17782046875L638.88281,287.17782046875Q639.42188,286.43954046875,640.20117,286.01767046875Q640.98633,285.59579046875,641.88867,285.59579046875Q643.03711,285.59579046875,643.96289,286.21689046875Q644.89453,286.83798046875,645.41602,287.93954046875Q645.9375,289.03525046875,645.9375,290.41806046875Q645.9375,291.91223046875,645.41602,293.09583046875Q644.89453,294.27353046875,643.96289,294.94153046875Q643.03711,295.60363046875,641.88867,295.60363046875Q640.93359,295.60363046875,640.16016,295.19343046875Q639.38672,294.77743046875,638.88281,294.00403046875L638.78906,294.00403046875L638.78906,295.36923046875L637.29492,295.36923046875ZM638.71875,290.59973046875Q638.71875,291.62513046875,639.07031,292.43953046875Q639.42188,293.24813046875,640.06055,293.69933046875Q640.69922,294.14463046875,641.49023,294.14463046875Q642.31641,294.14463046875,642.98438,293.69933046875Q643.65234,293.24813046875,644.02734,292.43953046875Q644.4082,291.62513046875,644.4082,290.59973046875Q644.4082,289.57431046875,644.03906,288.76571046875Q643.66992,287.95126046875,643.01953,287.50595046875Q642.36914,287.05478046875,641.54297,287.05478046875Q640.73438,287.05478046875,640.08398,287.50595046875Q639.43945,287.95126046875,639.07617,288.76571046875Q638.71875,289.57431046875,638.71875,290.59973046875Z" fill="#000000" fill-opacity="1" style="mix-blend-mode:passthrough"/></g><g style="mix-blend-mode:passthrough"><path d="M733.10938,287.30673046875Q733.30859,287.27157046875,733.72461,287.27157046875Q734.73242,287.27157046875,735.64062,287.72860046875Q736.54883,288.18564046875,737.12305,289.10556046875Q737.70312,290.02548046875,737.70312,291.35553046875Q737.70312,292.65043046875,737.15234,293.61723046875Q736.60156,294.57823046875,735.61133,295.09973046875Q734.62109,295.62123046875,733.30859,295.62123046875Q731.84961,295.62123046875,730.66016,294.83013046875Q729.47656,294.03913046875,728.955078,292.61533046875L730.37891,292.11143046875Q731.22266,294.17973046875,733.36133,294.17973046875Q734.60352,294.17973046875,735.34766,293.41803046875Q736.09766,292.65043046875,736.09766,291.35553046875Q736.09766,290.06064046875,735.33008,289.29892046875Q734.56836,288.53134046875,733.25586,288.53134046875Q732.48242,288.53134046875,731.76172,288.94150046875L730.90039,287.75790046875L734.89648,283.12900046875L729.29492,283.12900046875L729.29492,281.68759046875L736.94727,281.68759046875L736.94727,283.00595046875L733.07422,287.23056046875L733.10938,287.30673046875ZM744.207,295.62123046875Q742.0273,295.62123046875,740.8203,293.77543046875Q739.6133,291.92973046875,739.6133,288.53134046875Q739.6133,285.12704046875,740.8203,283.28134046875Q742.0273,281.43563646875,744.207,281.43563646875Q746.4043,281.43563646875,747.5996,283.28134046875Q748.7949,285.12704046875,748.7949,288.53134046875Q748.7949,291.92973046875,747.5996,293.77543046875Q746.4043,295.62123046875,744.207,295.62123046875ZM744.207,294.17973046875Q745.6309,294.17973046875,746.4102,292.71493046875Q747.1953,291.25013046875,747.1953,288.53134046875Q747.1953,285.81259046875,746.4102,284.34775046875Q745.6309,282.87704046875,744.207,282.87704046875Q742.7832,282.87704046875,741.998,284.34775046875Q741.2188,285.81259046875,741.2188,288.53134046875Q741.2188,291.25013046875,741.998,292.71493046875Q742.7832,294.17973046875,744.207,294.17973046875Z" fill="#000000" fill-opacity="1" style="mix-blend-mode:passthrough"/></g></g><g style="mix-blend-mode:passthrough"><path d="M108.5234,16.50593046875Q104.4219,15.96103046875,101.55664,14.90043046875Q98.66211,15.90833046875,93.78125,16.66413046875L93.40625,15.51573046875Q97.10938,15.01183046875,99.9043,14.19733046875Q98.17578,13.37123046875,96.75195,12.18173046875Q95.4043,13.37123046875,93.72852,14.25593046875L93.0957,13.18953046875Q95.96094,11.66023046875,97.57812,9.57431046875L95.36328,9.57431046875L95.36328,4.40634046875Q94.4668,5.39657046875,93.58203,6.20517046875L92.884766,5.00400046875Q94.08594,3.95517046875,95.12891,2.63681046875Q96.17773,1.3125894687500002,96.83984,0.017667468750000026L98.21094,0.30477746875Q97.8125,1.02548046875,97.47266,1.59970046875L108.4707,1.59970046875L108.4707,2.75400046875L96.69922,2.75400046875Q96.23047,3.41610046875,95.74414,3.97275046875L107.0645,3.97275046875L107.0645,9.57431046875L99.13086,9.57431046875Q98.58594,10.23642046875,98.09961,10.81653046875L107.1406,10.81653046875L107.1406,11.85943046875Q105.4473,13.22473046875,103.2676,14.21493046875Q105.6816,14.90043046875,108.793,15.20513046875L108.5234,16.50593046875ZM105.6992,6.31650046875L105.6992,5.05673046875L96.7168,5.05673046875L96.7168,6.31650046875L105.6992,6.31650046875ZM105.6992,7.23056046875L96.7168,7.23056046875L96.7168,8.54892046875L105.6992,8.54892046875L105.6992,7.23056046875ZM98.17578,11.85943046875Q99.65234,12.93763046875,101.55664,13.65833046875Q103.7363,12.86723046875,105.1777,11.85943046875L98.17578,11.85943046875ZM116.75,4.01376046875L116.75,6.22275046875L120.7109,6.22275046875L120.7109,7.46493046875L116.75,7.46493046875L116.75,9.41025046875L120.1719,9.41025046875L120.1719,13.83993046875Q120.1719,14.63093046875,119.7734,14.97663046875Q119.3809,15.31653046875,118.4961,15.31653046875L117.5234,15.31653046875L117.3066,14.12703046875L118.0625,14.12703046875Q118.5664,14.12703046875,118.748,13.97473046875Q118.9297,13.82233046875,118.9297,13.33603046875L118.9297,10.65243046875L116.75,10.65243046875L116.75,16.73443046875L115.4727,16.73443046875L115.4727,10.65243046875L113.2578,10.65243046875L113.2578,15.51573046875L112.0156,15.51573046875L112.0156,9.41025046875L115.4727,9.41025046875L115.4727,7.46493046875L111.0781,7.46493046875L111.0781,6.22275046875L115.4727,6.22275046875L115.4727,4.01376046875L113.1699,4.01376046875Q112.7539,5.07431046875,112.4492,5.70126046875L111.2773,5.29110046875Q112.3555,2.89462046875,112.7715,0.86141746875L113.9961,1.0606364687499998Q113.7793,2.0332904687499997,113.5625,2.78915046875L115.4727,2.78915046875L115.4727,0.26962046875L116.75,0.26962046875L116.75,2.78915046875L120.3301,2.78915046875L120.3301,4.01376046875L116.75,4.01376046875ZM124.8477,0.44540216875L126.14840000000001,0.44540216875L126.14840000000001,14.27353046875Q126.14840000000001,15.04693046875,125.94919999999999,15.49223046875Q125.75,15.94343046875,125.2695,16.14853046875Q124.7949,16.35943046875,123.9336,16.35943046875L121.8242,16.35943046875L121.5723,15.04693046875L123.5352,15.04693046875Q124.3086,15.04693046875,124.5781,14.77743046875Q124.8477,14.50793046875,124.8477,13.76963046875L124.8477,0.44540216875ZM121.7539,1.97470046875L123.0137,1.97470046875L123.0137,12.77943046875L121.7539,12.77943046875L121.7539,1.97470046875ZM144.8867,2.33798046875L144.8867,3.58017046875L129.0254,3.58017046875L129.0254,2.33798046875L133.5957,2.33798046875L132.3184,0.59188656875L133.7246,0.17587046875L134.2109,0.8262614687500001L135.3066,2.33798046875L138.6406,2.33798046875Q138.7637,2.15634046875,139.0508,1.79892046875Q139.1621,1.65243046875,139.5898,1.08993346875Q140.0234,0.52157406875,140.293,0.08798046874999998L141.6289,0.53915216875Q140.9785,1.47079246875,140.3105,2.33798046875L144.8867,2.33798046875ZM142.0742,4.87509046875L143.3691,4.87509046875L143.3691,14.21493046875Q143.3691,15.02943046875,143.1816,15.46883046875Q142.9941,15.90833046875,142.5078,16.095830468750002Q142.0215,16.289130468750002,141.1016,16.289130468750002L139.0332,16.289130468750002L138.7812,14.98833046875L140.7793,14.98833046875Q141.3535,14.98833046875,141.623,14.90043046875Q141.8984,14.81263046875,141.9863,14.58993046875Q142.0742,14.36143046875,142.0742,13.87513046875L142.0742,4.87509046875ZM130.3379,16.42973046875L130.3379,5.34384046875L136.6953,5.34384046875L136.6953,14.46693046875Q136.6953,15.53333046875,136.2793,15.93763046875Q135.8633,16.34193046875,134.76760000000002,16.34193046875L133.291,16.34193046875L133.0215,15.06453046875L134.334,15.06453046875Q134.80270000000002,15.06453046875,135.0254,14.98253046875Q135.2539,14.90043046875,135.3359,14.70713046875Q135.418,14.50793046875,135.418,14.10943046875L135.418,12.65043046875L131.6387,12.65043046875L131.6387,16.42973046875L130.3379,16.42973046875ZM138.6406,5.61337046875L139.8594,5.61337046875L139.8594,13.33603046875L138.6406,13.33603046875L138.6406,5.61337046875ZM135.418,8.42001046875L135.418,6.60360046875L131.6387,6.60360046875L131.6387,8.42001046875L135.418,8.42001046875ZM131.6387,9.62704046875L131.6387,11.44343046875L135.418,11.44343046875L135.418,9.62704046875L131.6387,9.62704046875Z" fill="#000000" fill-opacity="1" style="mix-blend-mode:passthrough"/></g><g style="mix-blend-mode:passthrough"><path d="M89.44531,58.93368046875L89.44531,54.39853046875L84.40625,54.39853046875L84.40625,53.13876046875L91.51367,53.13876046875Q91.20898,52.09579246875,90.92188,51.35751146875L92.35742,51.07040246875Q92.82617,52.41805846875,93.0254,53.13876046875L99.6348,53.13876046875L99.6348,54.39853046875L94.5898,54.39853046875L94.5898,58.93368046875L93.2949,58.93368046875L93.2949,54.39853046875L90.74023,54.39853046875L90.74023,58.93368046875L89.44531,58.93368046875ZM88.56055,56.21493046875Q87.78711,57.09970046875,86.79688,58.002040468749996Q85.80664,58.898530468749996,84.74609,59.619230468750004L84.02539,58.57626046875Q86.27539,56.970790468749996,87.69922,55.37118046875L88.56055,56.21493046875ZM96.2832,55.37118046875Q97.3262,56.179780468749996,98.5859,57.22275046875L99.9395,58.32431046875L99.1836,59.40243046875L98.6797,58.96884046875Q96.5,57.117280468749996,95.5098,56.36142046875L96.2832,55.37118046875ZM97.1328,61.00790046875Q96.3535,62.15633046875,95.4512,63.04113046875Q94.5547,63.92003046875,93.4062,64.64073046875001Q95.8496,65.57823046875001,99.8633,66.22273046875L99.4355,67.61143046875Q94.8066,66.72663046875,92,65.39653046875Q90.63477,66.06453046875001,88.82422,66.62123046875Q87.01367,67.17783046875,84.54688,67.71693046875001L84.11328,66.38683046875Q87.95117,65.70123046875,90.55859,64.62313046875Q88.38477,63.257930468750004,86.67383,61.04306046875L86.67383,59.81845046875L97.1328,59.81845046875L97.1328,61.00790046875ZM88.30859,61.04306046875Q89.11719,61.99813046875,89.99023,62.70713046875Q90.86328,63.41613046875,91.92969,63.97273046875Q94.1445,62.77153046875,95.4395,61.04306046875L88.30859,61.04306046875ZM103.8828,51.75594946875L116.082,51.75594946875L116.082,55.98056046875L103.8828,55.98056046875L103.8828,51.75594946875ZM114.7695,53.44345046875L114.7695,52.63485046875L105.2305,52.63485046875L105.2305,53.44345046875L114.7695,53.44345046875ZM105.2305,54.27548046875L105.2305,55.11923046875L114.7695,55.11923046875L114.7695,54.27548046875L105.2305,54.27548046875ZM101.9902,57.87314046875L101.9902,56.91806046875L117.9922,56.91806046875L117.9922,57.87314046875L101.9902,57.87314046875ZM116.62700000000001,65.21493046875L110.6504,65.21493046875L110.6504,66.17003046875L117.81049999999999,66.17003046875L117.81049999999999,67.12513046875L102.1719,67.12513046875L102.1719,66.17003046875L109.3496,66.17003046875L109.3496,65.21493046875L103.3555,65.21493046875L103.3555,64.28333046875L109.3496,64.28333046875L109.3496,63.31063046875L103.8828,63.31063046875L103.8828,58.845790468749996L116.09960000000001,58.845790468749996L116.09960000000001,63.31063046875L110.6504,63.31063046875L110.6504,64.28333046875L116.62700000000001,64.28333046875L116.62700000000001,65.21493046875ZM109.3496,60.627040468749996L109.3496,59.70712046875L105.2129,59.70712046875L105.2129,60.627040468749996L109.3496,60.627040468749996ZM110.6504,60.627040468749996L114.7695,60.627040468749996L114.7695,59.70712046875L110.6504,59.70712046875L110.6504,60.627040468749996ZM105.2129,61.48837046875L105.2129,62.40833046875L109.3496,62.40833046875L109.3496,61.48837046875L105.2129,61.48837046875ZM110.6504,61.48837046875L110.6504,62.40833046875L114.7695,62.40833046875L114.7695,61.48837046875L110.6504,61.48837046875ZM135.957,54.77939046875L135.957,56.14462046875L133.9414,56.14462046875L133.9414,64.89263046875Q133.9414,65.79503046875,133.7129,66.29303046875Q133.49020000000002,66.78523046875,132.9512,67.00793046875Q132.4121,67.23053046875,131.4219,67.23053046875L129.25979999999998,67.23053046875L128.9727,65.83013046875L131.1113,65.83013046875Q131.7441,65.83013046875,132.0371,65.73053046875Q132.3359,65.63093046875,132.4414,65.36143046875Q132.55270000000002,65.09193046875001,132.55270000000002,64.51763046875L132.55270000000002,56.14462046875L127.46090000000001,56.14462046875L127.46090000000001,54.77939046875L132.55270000000002,54.77939046875L132.55270000000002,51.14071446875L133.9414,51.14071446875L133.9414,54.77939046875L135.957,54.77939046875ZM126.7402,54.48642046875Q126.1309,58.03720046875,124.959,60.66220046875Q126.418,62.77153046875,127.6777,64.67583046875001L126.541,65.54303046875Q125.55080000000001,63.99033046875,124.27340000000001,62.086030468749996Q122.96090000000001,64.58793046875,120.7285,67.10753046875L119.9023,65.77743046875Q122.1348,63.36333046875,123.41210000000001,60.80868046875Q121.6074,58.16025046875,120.3887,56.50790046875L121.44919999999999,55.72860046875Q122.36330000000001,56.970790468749996,124.0566,59.367280468749996Q124.959,57.13485046875,125.3926,54.46884046875L120.4238,54.46884046875L120.4238,53.10360046875L126.7402,53.10360046875L126.7402,54.48642046875ZM130.1211,62.39073046875Q128.7559,60.17587046875,127.4082,58.16025046875L128.416,57.45712046875Q128.8613,58.08993046875,129.7227,59.40243046875Q130.5898,60.71493046875,131.20510000000002,61.68763046875L130.1211,62.39073046875ZM149.9434,61.29501046875Q150.6289,62.806730468750004,151.4785,63.81453046875Q152.334,64.82233046875,153.957,65.73643046875L153.10739999999998,66.78523046875Q151.5254,65.83013046875,150.5879,64.68173046875Q149.6562,63.52743046875,148.8828,61.79893046875L147.67579999999998,62.33793046875Q147.9805,63.398530468749996,147.9805,64.57043046875Q147.9805,65.63093046875,147.6934,66.25203046875001Q147.4062,66.87313046875,146.7383,67.14853046875Q146.0703,67.42973046875,144.9043,67.42973046875L143.0117,67.42973046875L142.79489999999998,66.20513046875L144.5938,66.20513046875Q145.748,66.20513046875,146.2168,65.81843046875Q146.6855,65.43173046875,146.6855,64.38873046875Q146.6855,63.92003046875,146.6328,63.48643046875Q145.2266,64.57043046875,143.1113,65.54303046875Q140.9961,66.51573046875001,138.459,67.28913046875L137.99020000000002,66.15243046875Q140.457,65.52543046875,142.60739999999998,64.54693046875Q144.7578,63.56263046875,146.35739999999998,62.40833046875Q146.2168,61.95713046875,145.9121,61.43564046875Q143.3516,63.23443046875,138.89260000000002,64.64073046875001L138.4238,63.59773046875Q142.6895,62.320430468750004,145.332,60.60946046875Q145.04489999999998,60.252040468749996,144.5762,59.783290468749996Q143.6211,60.462980468750004,142.1562,61.04892046875Q140.6914,61.634830468749996,138.5645,62.20903046875L138.1543,61.07821046875Q140.4746,60.50400046875,141.82229999999998,59.95321046875Q143.1758,59.40243046875,143.9492,58.73446046875L139.7715,58.73446046875L139.7715,55.92782046875Q139.0156,56.36142046875,138.7988,56.48446046875L138.2246,55.37118046875Q139.918,54.46884046875,141.2188,53.37314046875Q142.5254,52.27743346875,143.5508,50.90633946875L144.7578,51.42782406875Q144.5059,51.77352746875,143.9668,52.41805846875L150.377,52.41805846875L150.377,53.40829046875L148.57229999999998,54.93759046875L152.5156,54.93759046875L152.5156,58.73446046875L145.67770000000002,58.73446046875Q145.5312,58.91610046875,145.4434,59.00985046875Q146.6094,60.12314046875,147.2246,61.27743046875Q149.832,60.087980468750004,151.7773,58.93368046875L152.4102,60.03525046875Q151.38479999999998,60.60946046875,149.9434,61.29501046875ZM143.0469,53.40829046875Q142.2383,54.21689046875,141.248,54.93759046875L146.791,54.93759046875L148.5547,53.40829046875L143.0469,53.40829046875ZM141.0488,55.96298046875L141.0488,57.72665046875L144.8457,57.72665046875Q145.2266,57.13485046875,145.6602,55.96298046875L141.0488,55.96298046875ZM151.23829999999998,57.72665046875L151.23829999999998,55.96298046875L147.0254,55.96298046875Q146.6094,57.08212046875,146.2871,57.72665046875L151.23829999999998,57.72665046875Z" fill="#000000" fill-opacity="1" style="mix-blend-mode:passthrough"/></g><g style="mix-blend-mode:passthrough"><path d="M387.44531,58.93368046875L387.44531,54.39853046875L382.40625,54.39853046875L382.40625,53.13876046875L389.51367,53.13876046875Q389.20898,52.09579246875,388.92188,51.35751146875L390.35742,51.07040246875Q390.82617,52.41805846875,391.0254,53.13876046875L397.6348,53.13876046875L397.6348,54.39853046875L392.5898,54.39853046875L392.5898,58.93368046875L391.2949,58.93368046875L391.2949,54.39853046875L388.74023,54.39853046875L388.74023,58.93368046875L387.44531,58.93368046875ZM386.56055,56.21493046875Q385.78711,57.09970046875,384.79688,58.002040468749996Q383.80664,58.898530468749996,382.74609,59.619230468750004L382.02539,58.57626046875Q384.27539,56.970790468749996,385.69922,55.37118046875L386.56055,56.21493046875ZM394.2832,55.37118046875Q395.3262,56.179780468749996,396.5859,57.22275046875L397.9395,58.32431046875L397.1836,59.40243046875L396.6797,58.96884046875Q394.5,57.117280468749996,393.5098,56.36142046875L394.2832,55.37118046875ZM395.1328,61.00790046875Q394.3535,62.15633046875,393.4512,63.04113046875Q392.5547,63.92003046875,391.4062,64.64073046875001Q393.8496,65.57823046875001,397.8633,66.22273046875L397.4355,67.61143046875Q392.8066,66.72663046875,390,65.39653046875Q388.63477,66.06453046875001,386.82422,66.62123046875Q385.01367,67.17783046875,382.54688,67.71693046875001L382.11328,66.38683046875Q385.95117,65.70123046875,388.55859,64.62313046875Q386.38477,63.257930468750004,384.67383,61.04306046875L384.67383,59.81845046875L395.1328,59.81845046875L395.1328,61.00790046875ZM386.30859,61.04306046875Q387.11719,61.99813046875,387.99023,62.70713046875Q388.86328,63.41613046875,389.92969,63.97273046875Q392.1445,62.77153046875,393.4395,61.04306046875L386.30859,61.04306046875ZM401.8828,51.75594946875L414.082,51.75594946875L414.082,55.98056046875L401.8828,55.98056046875L401.8828,51.75594946875ZM412.7695,53.44345046875L412.7695,52.63485046875L403.2305,52.63485046875L403.2305,53.44345046875L412.7695,53.44345046875ZM403.2305,54.27548046875L403.2305,55.11923046875L412.7695,55.11923046875L412.7695,54.27548046875L403.2305,54.27548046875ZM399.9902,57.87314046875L399.9902,56.91806046875L415.9922,56.91806046875L415.9922,57.87314046875L399.9902,57.87314046875ZM414.627,65.21493046875L408.6504,65.21493046875L408.6504,66.17003046875L415.8105,66.17003046875L415.8105,67.12513046875L400.1719,67.12513046875L400.1719,66.17003046875L407.3496,66.17003046875L407.3496,65.21493046875L401.3555,65.21493046875L401.3555,64.28333046875L407.3496,64.28333046875L407.3496,63.31063046875L401.8828,63.31063046875L401.8828,58.845790468749996L414.0996,58.845790468749996L414.0996,63.31063046875L408.6504,63.31063046875L408.6504,64.28333046875L414.627,64.28333046875L414.627,65.21493046875ZM407.3496,60.627040468749996L407.3496,59.70712046875L403.2129,59.70712046875L403.2129,60.627040468749996L407.3496,60.627040468749996ZM408.6504,60.627040468749996L412.7695,60.627040468749996L412.7695,59.70712046875L408.6504,59.70712046875L408.6504,60.627040468749996ZM403.2129,61.48837046875L403.2129,62.40833046875L407.3496,62.40833046875L407.3496,61.48837046875L403.2129,61.48837046875ZM408.6504,61.48837046875L408.6504,62.40833046875L412.7695,62.40833046875L412.7695,61.48837046875L408.6504,61.48837046875ZM433.957,54.77939046875L433.957,56.14462046875L431.9414,56.14462046875L431.9414,64.89263046875Q431.9414,65.79503046875,431.7129,66.29303046875Q431.4902,66.78523046875,430.9512,67.00793046875Q430.4121,67.23053046875,429.4219,67.23053046875L427.2598,67.23053046875L426.97270000000003,65.83013046875L429.1113,65.83013046875Q429.7441,65.83013046875,430.0371,65.73053046875Q430.3359,65.63093046875,430.4414,65.36143046875Q430.5527,65.09193046875001,430.5527,64.51763046875L430.5527,56.14462046875L425.4609,56.14462046875L425.4609,54.77939046875L430.5527,54.77939046875L430.5527,51.14071446875L431.9414,51.14071446875L431.9414,54.77939046875L433.957,54.77939046875ZM424.7402,54.48642046875Q424.1309,58.03720046875,422.959,60.66220046875Q424.418,62.77153046875,425.6777,64.67583046875001L424.541,65.54303046875Q423.5508,63.99033046875,422.2734,62.086030468749996Q420.9609,64.58793046875,418.7285,67.10753046875L417.90229999999997,65.77743046875Q420.1348,63.36333046875,421.4121,60.80868046875Q419.6074,58.16025046875,418.3887,56.50790046875L419.4492,55.72860046875Q420.3633,56.970790468749996,422.0566,59.367280468749996Q422.959,57.13485046875,423.3926,54.46884046875L418.4238,54.46884046875L418.4238,53.10360046875L424.7402,53.10360046875L424.7402,54.48642046875ZM428.1211,62.39073046875Q426.7559,60.17587046875,425.4082,58.16025046875L426.416,57.45712046875Q426.8613,58.08993046875,427.72270000000003,59.40243046875Q428.58979999999997,60.71493046875,429.2051,61.68763046875L428.1211,62.39073046875ZM447.9434,61.29501046875Q448.6289,62.806730468750004,449.4785,63.81453046875Q450.334,64.82233046875,451.957,65.73643046875L451.1074,66.78523046875Q449.5254,65.83013046875,448.5879,64.68173046875Q447.6562,63.52743046875,446.8828,61.79893046875L445.6758,62.33793046875Q445.9805,63.398530468749996,445.9805,64.57043046875Q445.9805,65.63093046875,445.6934,66.25203046875001Q445.4062,66.87313046875,444.7383,67.14853046875Q444.0703,67.42973046875,442.9043,67.42973046875L441.0117,67.42973046875L440.7949,66.20513046875L442.5938,66.20513046875Q443.748,66.20513046875,444.2168,65.81843046875Q444.6855,65.43173046875,444.6855,64.38873046875Q444.6855,63.92003046875,444.6328,63.48643046875Q443.2266,64.57043046875,441.1113,65.54303046875Q438.9961,66.51573046875001,436.459,67.28913046875L435.9902,66.15243046875Q438.457,65.52543046875,440.6074,64.54693046875Q442.7578,63.56263046875,444.3574,62.40833046875Q444.2168,61.95713046875,443.9121,61.43564046875Q441.3516,63.23443046875,436.8926,64.64073046875001L436.4238,63.59773046875Q440.6895,62.320430468750004,443.332,60.60946046875Q443.0449,60.252040468749996,442.5762,59.783290468749996Q441.6211,60.462980468750004,440.1562,61.04892046875Q438.6914,61.634830468749996,436.5645,62.20903046875L436.1543,61.07821046875Q438.4746,60.50400046875,439.8223,59.95321046875Q441.1758,59.40243046875,441.9492,58.73446046875L437.7715,58.73446046875L437.7715,55.92782046875Q437.0156,56.36142046875,436.7988,56.48446046875L436.2246,55.37118046875Q437.918,54.46884046875,439.2188,53.37314046875Q440.5254,52.27743346875,441.5508,50.90633946875L442.7578,51.42782406875Q442.5059,51.77352746875,441.9668,52.41805846875L448.377,52.41805846875L448.377,53.40829046875L446.5723,54.93759046875L450.5156,54.93759046875L450.5156,58.73446046875L443.6777,58.73446046875Q443.5312,58.91610046875,443.4434,59.00985046875Q444.6094,60.12314046875,445.2246,61.27743046875Q447.832,60.087980468750004,449.77729999999997,58.93368046875L450.41020000000003,60.03525046875Q449.3848,60.60946046875,447.9434,61.29501046875ZM441.0469,53.40829046875Q440.2383,54.21689046875,439.248,54.93759046875L444.791,54.93759046875L446.5547,53.40829046875L441.0469,53.40829046875ZM439.0488,55.96298046875L439.0488,57.72665046875L442.8457,57.72665046875Q443.2266,57.13485046875,443.66020000000003,55.96298046875L439.0488,55.96298046875ZM449.2383,57.72665046875L449.2383,55.96298046875L445.0254,55.96298046875Q444.6094,57.08212046875,444.2871,57.72665046875L449.2383,57.72665046875Z" fill="#000000" fill-opacity="1" style="mix-blend-mode:passthrough"/></g><g style="mix-blend-mode:passthrough"><path d="M685.44531,58.93368046875L685.44531,54.39853046875L680.40625,54.39853046875L680.40625,53.13876046875L687.51367,53.13876046875Q687.20898,52.09579246875,686.92188,51.35751146875L688.35742,51.07040246875Q688.82617,52.41805846875,689.0254,53.13876046875L695.6348,53.13876046875L695.6348,54.39853046875L690.5898,54.39853046875L690.5898,58.93368046875L689.2949,58.93368046875L689.2949,54.39853046875L686.74023,54.39853046875L686.74023,58.93368046875L685.44531,58.93368046875ZM684.56055,56.21493046875Q683.78711,57.09970046875,682.79688,58.002040468749996Q681.80664,58.898530468749996,680.74609,59.619230468750004L680.02539,58.57626046875Q682.27539,56.970790468749996,683.69922,55.37118046875L684.56055,56.21493046875ZM692.2832,55.37118046875Q693.3262,56.179780468749996,694.5859,57.22275046875L695.9395,58.32431046875L695.1836,59.40243046875L694.6797,58.96884046875Q692.5,57.117280468749996,691.5098,56.36142046875L692.2832,55.37118046875ZM693.1328,61.00790046875Q692.3535,62.15633046875,691.4512,63.04113046875Q690.5547,63.92003046875,689.4062,64.64073046875001Q691.8496,65.57823046875001,695.8633,66.22273046875L695.4355,67.61143046875Q690.8066,66.72663046875,688,65.39653046875Q686.63477,66.06453046875001,684.82422,66.62123046875Q683.01367,67.17783046875,680.54688,67.71693046875001L680.11328,66.38683046875Q683.95117,65.70123046875,686.55859,64.62313046875Q684.38477,63.257930468750004,682.67383,61.04306046875L682.67383,59.81845046875L693.1328,59.81845046875L693.1328,61.00790046875ZM684.30859,61.04306046875Q685.11719,61.99813046875,685.99023,62.70713046875Q686.86328,63.41613046875,687.92969,63.97273046875Q690.1445,62.77153046875,691.4395,61.04306046875L684.30859,61.04306046875ZM699.8828,51.75594946875L712.082,51.75594946875L712.082,55.98056046875L699.8828,55.98056046875L699.8828,51.75594946875ZM710.7695,53.44345046875L710.7695,52.63485046875L701.2305,52.63485046875L701.2305,53.44345046875L710.7695,53.44345046875ZM701.2305,54.27548046875L701.2305,55.11923046875L710.7695,55.11923046875L710.7695,54.27548046875L701.2305,54.27548046875ZM697.9902,57.87314046875L697.9902,56.91806046875L713.9922,56.91806046875L713.9922,57.87314046875L697.9902,57.87314046875ZM712.627,65.21493046875L706.6504,65.21493046875L706.6504,66.17003046875L713.8105,66.17003046875L713.8105,67.12513046875L698.1719,67.12513046875L698.1719,66.17003046875L705.3496,66.17003046875L705.3496,65.21493046875L699.3555,65.21493046875L699.3555,64.28333046875L705.3496,64.28333046875L705.3496,63.31063046875L699.8828,63.31063046875L699.8828,58.845790468749996L712.0996,58.845790468749996L712.0996,63.31063046875L706.6504,63.31063046875L706.6504,64.28333046875L712.627,64.28333046875L712.627,65.21493046875ZM705.3496,60.627040468749996L705.3496,59.70712046875L701.2129,59.70712046875L701.2129,60.627040468749996L705.3496,60.627040468749996ZM706.6504,60.627040468749996L710.7695,60.627040468749996L710.7695,59.70712046875L706.6504,59.70712046875L706.6504,60.627040468749996ZM701.2129,61.48837046875L701.2129,62.40833046875L705.3496,62.40833046875L705.3496,61.48837046875L701.2129,61.48837046875ZM706.6504,61.48837046875L706.6504,62.40833046875L710.7695,62.40833046875L710.7695,61.48837046875L706.6504,61.48837046875ZM731.957,54.77939046875L731.957,56.14462046875L729.9414,56.14462046875L729.9414,64.89263046875Q729.9414,65.79503046875,729.7129,66.29303046875Q729.4902,66.78523046875,728.9512,67.00793046875Q728.4121,67.23053046875,727.4219,67.23053046875L725.2598,67.23053046875L724.9727,65.83013046875L727.1113,65.83013046875Q727.7441,65.83013046875,728.0371,65.73053046875Q728.3359,65.63093046875,728.4414,65.36143046875Q728.5527,65.09193046875001,728.5527,64.51763046875L728.5527,56.14462046875L723.4609,56.14462046875L723.4609,54.77939046875L728.5527,54.77939046875L728.5527,51.14071446875L729.9414,51.14071446875L729.9414,54.77939046875L731.957,54.77939046875ZM722.7402,54.48642046875Q722.1309,58.03720046875,720.9590000000001,60.66220046875Q722.418,62.77153046875,723.6777,64.67583046875001L722.5409999999999,65.54303046875Q721.5508,63.99033046875,720.2734,62.086030468749996Q718.9609,64.58793046875,716.7284999999999,67.10753046875L715.9023,65.77743046875Q718.1348,63.36333046875,719.4121,60.80868046875Q717.6074,58.16025046875,716.3887,56.50790046875L717.4492,55.72860046875Q718.3633,56.970790468749996,720.0566,59.367280468749996Q720.9590000000001,57.13485046875,721.3926,54.46884046875L716.4238,54.46884046875L716.4238,53.10360046875L722.7402,53.10360046875L722.7402,54.48642046875ZM726.1211,62.39073046875Q724.7559,60.17587046875,723.4082,58.16025046875L724.4159999999999,57.45712046875Q724.8613,58.08993046875,725.7227,59.40243046875Q726.5898,60.71493046875,727.2051,61.68763046875L726.1211,62.39073046875ZM745.9434,61.29501046875Q746.6289,62.806730468750004,747.4784999999999,63.81453046875Q748.3340000000001,64.82233046875,749.957,65.73643046875L749.1074,66.78523046875Q747.5254,65.83013046875,746.5879,64.68173046875Q745.6562,63.52743046875,744.8828,61.79893046875L743.6758,62.33793046875Q743.9805,63.398530468749996,743.9805,64.57043046875Q743.9805,65.63093046875,743.6934,66.25203046875001Q743.4062,66.87313046875,742.7383,67.14853046875Q742.0703,67.42973046875,740.9043,67.42973046875L739.0117,67.42973046875L738.7949,66.20513046875L740.5938,66.20513046875Q741.748,66.20513046875,742.2168,65.81843046875Q742.6855,65.43173046875,742.6855,64.38873046875Q742.6855,63.92003046875,742.6328,63.48643046875Q741.2266,64.57043046875,739.1113,65.54303046875Q736.9961,66.51573046875001,734.4590000000001,67.28913046875L733.9902,66.15243046875Q736.457,65.52543046875,738.6074,64.54693046875Q740.7578,63.56263046875,742.3574,62.40833046875Q742.2168,61.95713046875,741.9121,61.43564046875Q739.3516,63.23443046875,734.8926,64.64073046875001L734.4238,63.59773046875Q738.6895,62.320430468750004,741.332,60.60946046875Q741.0449,60.252040468749996,740.5762,59.783290468749996Q739.6211,60.462980468750004,738.1562,61.04892046875Q736.6914,61.634830468749996,734.5645,62.20903046875L734.1543,61.07821046875Q736.4746,60.50400046875,737.8223,59.95321046875Q739.1758,59.40243046875,739.9492,58.73446046875L735.7715000000001,58.73446046875L735.7715000000001,55.92782046875Q735.0156,56.36142046875,734.7988,56.48446046875L734.2246,55.37118046875Q735.918,54.46884046875,737.2188,53.37314046875Q738.5254,52.27743346875,739.5508,50.90633946875L740.7578,51.42782406875Q740.5059,51.77352746875,739.9668,52.41805846875L746.377,52.41805846875L746.377,53.40829046875L744.5723,54.93759046875L748.5156,54.93759046875L748.5156,58.73446046875L741.6777,58.73446046875Q741.5312,58.91610046875,741.4434,59.00985046875Q742.6094,60.12314046875,743.2246,61.27743046875Q745.832,60.087980468750004,747.7773,58.93368046875L748.4102,60.03525046875Q747.3848,60.60946046875,745.9434,61.29501046875ZM739.0469,53.40829046875Q738.2383,54.21689046875,737.248,54.93759046875L742.7909999999999,54.93759046875L744.5547,53.40829046875L739.0469,53.40829046875ZM737.0488,55.96298046875L737.0488,57.72665046875L740.8457,57.72665046875Q741.2266,57.13485046875,741.6602,55.96298046875L737.0488,55.96298046875ZM747.2383,57.72665046875L747.2383,55.96298046875L743.0254,55.96298046875Q742.6094,57.08212046875,742.2871,57.72665046875L747.2383,57.72665046875Z" fill="#000000" fill-opacity="1" style="mix-blend-mode:passthrough"/></g><g style="mix-blend-mode:passthrough"><path d="M406.5234,16.50593046875Q402.4219,15.96103046875,399.55664,14.90043046875Q396.66211,15.90833046875,391.78125,16.66413046875L391.40625,15.51573046875Q395.10938,15.01183046875,397.9043,14.19733046875Q396.17578,13.37123046875,394.75195,12.18173046875Q393.4043,13.37123046875,391.72852,14.25593046875L391.0957,13.18953046875Q393.96094,11.66023046875,395.57812,9.57431046875L393.36328,9.57431046875L393.36328,4.40634046875Q392.4668,5.39657046875,391.58203,6.20517046875L390.884766,5.00400046875Q392.08594,3.95517046875,393.12891,2.63681046875Q394.17773,1.3125894687500002,394.83984,0.017667468750000026L396.21094,0.30477746875Q395.8125,1.02548046875,395.47266,1.59970046875L406.4707,1.59970046875L406.4707,2.75400046875L394.69922,2.75400046875Q394.23047,3.41610046875,393.74414,3.97275046875L405.0645,3.97275046875L405.0645,9.57431046875L397.13086,9.57431046875Q396.58594,10.23642046875,396.09961,10.81653046875L405.1406,10.81653046875L405.1406,11.85943046875Q403.4473,13.22473046875,401.2676,14.21493046875Q403.6816,14.90043046875,406.793,15.20513046875L406.5234,16.50593046875ZM403.6992,6.31650046875L403.6992,5.05673046875L394.7168,5.05673046875L394.7168,6.31650046875L403.6992,6.31650046875ZM403.6992,7.23056046875L394.7168,7.23056046875L394.7168,8.54892046875L403.6992,8.54892046875L403.6992,7.23056046875ZM396.17578,11.85943046875Q397.65234,12.93763046875,399.55664,13.65833046875Q401.7363,12.86723046875,403.1777,11.85943046875L396.17578,11.85943046875ZM414.75,4.01376046875L414.75,6.22275046875L418.7109,6.22275046875L418.7109,7.46493046875L414.75,7.46493046875L414.75,9.41025046875L418.1719,9.41025046875L418.1719,13.83993046875Q418.1719,14.63093046875,417.7734,14.97663046875Q417.3809,15.31653046875,416.4961,15.31653046875L415.5234,15.31653046875L415.3066,14.12703046875L416.0625,14.12703046875Q416.5664,14.12703046875,416.748,13.97473046875Q416.9297,13.82233046875,416.9297,13.33603046875L416.9297,10.65243046875L414.75,10.65243046875L414.75,16.73443046875L413.4727,16.73443046875L413.4727,10.65243046875L411.2578,10.65243046875L411.2578,15.51573046875L410.0156,15.51573046875L410.0156,9.41025046875L413.4727,9.41025046875L413.4727,7.46493046875L409.0781,7.46493046875L409.0781,6.22275046875L413.4727,6.22275046875L413.4727,4.01376046875L411.1699,4.01376046875Q410.7539,5.07431046875,410.4492,5.70126046875L409.2773,5.29110046875Q410.3555,2.89462046875,410.7715,0.86141746875L411.9961,1.0606364687499998Q411.7793,2.0332904687499997,411.5625,2.78915046875L413.4727,2.78915046875L413.4727,0.26962046875L414.75,0.26962046875L414.75,2.78915046875L418.3301,2.78915046875L418.3301,4.01376046875L414.75,4.01376046875ZM422.84770000000003,0.44540216875L424.1484,0.44540216875L424.1484,14.27353046875Q424.1484,15.04693046875,423.9492,15.49223046875Q423.75,15.94343046875,423.2695,16.14853046875Q422.7949,16.35943046875,421.9336,16.35943046875L419.8242,16.35943046875L419.5723,15.04693046875L421.5352,15.04693046875Q422.3086,15.04693046875,422.5781,14.77743046875Q422.84770000000003,14.50793046875,422.84770000000003,13.76963046875L422.84770000000003,0.44540216875ZM419.7539,1.97470046875L421.0137,1.97470046875L421.0137,12.77943046875L419.7539,12.77943046875L419.7539,1.97470046875ZM430.3184,5.37900046875L442.72270000000003,5.37900046875L442.72270000000003,6.67392046875L430.3184,6.67392046875Q430.3008,8.95907046875,430.1367,10.51183046875Q429.9785,12.05873046875,429.52729999999997,13.46493046875Q429.0762,14.86533046875,428.1973,16.41223046875L426.97270000000003,15.53333046875Q427.8516,14.03913046875,428.28520000000003,12.76183046875Q428.7188,11.47863046875,428.8535,10.00790046875Q428.9883,8.53134046875,428.9883,6.06454046875L428.9883,1.65243046875Q431.959,1.58212046875,435.375,1.3125894687500002Q438.7969,1.04305846875,441.4277,0.62704246875L441.7676,1.99228046875Q439.5,2.32040046875,436.3008,2.57235046875Q433.1074,2.82431046875,430.3184,2.94735046875L430.3184,5.37900046875ZM432.9844,16.52353046875L431.6367,16.52353046875L431.6367,9.21103046875L441.1934,9.21103046875L441.1934,16.52353046875L439.83979999999997,16.52353046875L439.83979999999997,15.28133046875L432.9844,15.28133046875L432.9844,16.52353046875ZM439.83979999999997,14.05673046875L439.83979999999997,10.48837046875L432.9844,10.48837046875L432.9844,14.05673046875L439.83979999999997,14.05673046875Z" fill="#000000" fill-opacity="1" style="mix-blend-mode:passthrough"/></g><g style="mix-blend-mode:passthrough"><path d="M671.29492,15.36923046875L671.29492,1.68759046875L672.78906,1.68759046875L672.78906,7.17782046875L672.88281,7.17782046875Q673.42188,6.43954046875,674.20117,6.01767046875Q674.98633,5.59579046875,675.88867,5.59579046875Q677.03711,5.59579046875,677.96289,6.21689046875Q678.89453,6.83798046875,679.41602,7.93954046875Q679.9375,9.03525046875,679.9375,10.41806046875Q679.9375,11.91223046875,679.41602,13.09583046875Q678.89453,14.27353046875,677.96289,14.94153046875Q677.03711,15.60363046875,675.88867,15.60363046875Q674.93359,15.60363046875,674.16016,15.19343046875Q673.38672,14.77743046875,672.88281,14.00403046875L672.78906,14.00403046875L672.78906,15.36923046875L671.29492,15.36923046875ZM672.71875,10.59973046875Q672.71875,11.62513046875,673.07031,12.43953046875Q673.42188,13.24813046875,674.06055,13.69933046875Q674.69922,14.14463046875,675.49023,14.14463046875Q676.31641,14.14463046875,676.98438,13.69933046875Q677.65234,13.24813046875,678.02734,12.43953046875Q678.4082,11.62513046875,678.4082,10.59973046875Q678.4082,9.57431046875,678.03906,8.76571046875Q677.66992,7.95126046875,677.01953,7.50595046875Q676.36914,7.05478046875,675.54297,7.05478046875Q674.73438,7.05478046875,674.08398,7.50595046875Q673.43945,7.95126046875,673.07617,8.76571046875Q672.71875,9.57431046875,672.71875,10.59973046875ZM692.5938,0.39266746875Q692.0195,2.53720046875,691.3691,4.24814046875L691.3691,16.464930468749998L690.0742,16.464930468749998L690.0742,7.16025046875Q689.4297,8.42001046875,688.6152,9.64462046875L688.041,8.009850468749999Q688.9785,6.60360046875,689.8164,4.51767046875Q690.6543,2.42587046875,691.2109,0.12313646875L692.5938,0.39266746875ZM702.7305,4.53525046875L702.7305,14.77743046875L704.3125,14.77743046875L704.3125,15.96103046875L692.2363,15.96103046875L692.2363,14.77743046875L693.8535,14.77743046875L693.8535,4.53525046875L697.6152,4.53525046875L697.6152,2.87704046875L693.0801,2.87704046875L693.0801,1.70517046875L697.6152,1.70517046875L697.6152,0.14071446875L698.9688,0.14071446875L698.9688,1.70517046875L703.8438,1.70517046875L703.8438,2.87704046875L698.9688,2.87704046875L698.9688,4.53525046875L702.7305,4.53525046875ZM701.4004,7.12509046875L701.4004,5.70126046875L695.1895,5.70126046875L695.1895,7.12509046875L701.4004,7.12509046875ZM695.1895,9.57431046875L701.4004,9.57431046875L701.4004,8.18564046875L695.1895,8.18564046875L695.1895,9.57431046875ZM701.4004,12.16413046875L701.4004,10.65243046875L695.1895,10.65243046875L695.1895,12.16413046875L701.4004,12.16413046875ZM701.4004,13.18953046875L695.1895,13.18953046875L695.1895,14.77743046875L701.4004,14.77743046875L701.4004,13.18953046875ZM712.1465000000001,7.37704046875Q714.6836,6.63876046875,716.2305,5.79501046875Q715.2402,5.02157046875,714.4316,3.95517046875Q713.7284999999999,4.82235046875,712.8848,5.56064046875L712.1465000000001,4.57040046875Q713.1133,3.72079046875,714.0156,2.47860046875Q714.918,1.23641746875,715.4922,0.0000894687500000435L716.6055,0.44540216875Q716.2832,1.14852746875,716.0312,1.59970046875L721.1055,1.59970046875L721.1055,2.67782046875Q720.0273,4.55282046875,718.4102,5.77743046875Q719.9922,6.60360046875,722.3125,7.10751046875L721.8848,8.31454046875Q719.0195,7.57626046875,717.3086,6.53329046875Q715.4219,7.68173046875,712.6504,8.54892046875L712.1465000000001,7.37704046875ZM710.5938,0.46298026875Q710.0195,2.60751046875,709.2461,4.62314046875L709.2461,16.59383046875L708.0215000000001,16.59383046875L708.0215000000001,7.34189046875Q707.4121,8.53134046875,706.7441,9.53915046875L706.1348,8.009850468749999Q706.9434,6.85556046875,707.9159999999999,4.56454046875Q708.8887,2.26767046875,709.4102,0.17587046875L710.5938,0.46298026875ZM715.1523,3.02353046875Q715.9961,4.22470046875,717.3086,5.12704046875Q718.7148,4.136810468749999,719.6113,2.71298046875L715.3457,2.71298046875L715.1523,3.02353046875ZM711.8184,13.69343046875L710.6875,13.69343046875L710.6875,2.84189046875L711.8184,2.84189046875L711.8184,13.69343046875ZM719.1659999999999,8.384850468749999Q716.5352,10.13095046875,713.4590000000001,11.17393046875L712.9199,10.06064046875Q716.2832,8.97665046875,718.5859,7.42978046875L719.1659999999999,8.384850468749999ZM712.8262,12.76183046875Q714.7188,12.19933046875,716.5645,11.30283046875Q718.4102,10.40048046875,719.957,9.30478046875L720.6016,10.23642046875Q719.0898,11.37313046875,717.1973,12.29893046875Q715.3105,13.22473046875,713.3887,13.80473046875L712.8262,12.76183046875ZM711.9648,15.55083046875Q714.6836,14.83013046875,717.1211,13.72273046875Q719.5586,12.61533046875,721.4336,11.20903046875L722.0781,12.14653046875Q718.4453,15.04693046875,712.4512,16.64653046875L711.9648,15.55083046875ZM736.0996,11.77153046875Q737.7051,13.71103046875,740.2949,15.33403046875L739.4336,16.59383046875Q736.8379,14.83013046875,735.2383,12.86723046875Q733.5625,14.75983046875,730.3574,16.68173046875L729.4784999999999,15.43953046875Q732.7363,13.64073046875,734.4121,11.75403046875Q732.9531,9.62704046875,732.3203,6.90829046875Q731.8340000000001,7.71689046875,731.4062,8.27939046875L730.5215000000001,7.25400046875Q731.5645,5.83017046875,732.4434,3.80868046875Q733.3281,1.78134046875,733.6914,0.03524546875000001L735.0742,0.33993346874999997Q734.7871,1.56454046875,734.248,2.98251046875L740.1133,2.98251046875L740.1133,4.38876046875L738.5664,4.38876046875Q738.2793,6.78525046875,737.6934,8.54892046875Q737.1074,10.31259046875,736.0996,11.77153046875ZM730.3398,11.80673046875L730.5742,13.22473046875L725.2305,16.089930468749998L724.5449,14.79503046875Q724.9258,14.48443046875,725.0312,14.31453046875Q725.1426,14.14463046875,725.1426,13.89263046875L725.1426,7.10751046875L728.9922,7.10751046875L728.9922,2.98251046875L724.7441,2.98251046875L724.7441,1.58212046875L730.3223,1.58212046875L730.3223,8.49032046875L726.543,8.49032046875L726.543,13.83993046875L730.3398,11.80673046875ZM733.293,5.16220046875Q733.8145,8.36728046875,735.2734,10.61723046875Q736.082,9.37509046875,736.5391,7.88095046875Q737.002,6.38681046875,737.2363,4.38876046875L733.6562,4.38876046875L733.293,5.16220046875ZM745.5684,5.37900046875L757.9727,5.37900046875L757.9727,6.67392046875L745.5684,6.67392046875Q745.5508,8.95907046875,745.3867,10.51183046875Q745.2284999999999,12.05873046875,744.7773,13.46493046875Q744.3262,14.86533046875,743.4473,16.41223046875L742.2227,15.53333046875Q743.1016,14.03913046875,743.5352,12.76183046875Q743.9688,11.47863046875,744.1034999999999,10.00790046875Q744.2383,8.53134046875,744.2383,6.06454046875L744.2383,1.65243046875Q747.2090000000001,1.58212046875,750.625,1.3125894687500002Q754.0469,1.04305846875,756.6777,0.62704246875L757.0176,1.99228046875Q754.75,2.32040046875,751.5508,2.57235046875Q748.3574,2.82431046875,745.5684,2.94735046875L745.5684,5.37900046875ZM748.2344,16.52353046875L746.8867,16.52353046875L746.8867,9.21103046875L756.4434,9.21103046875L756.4434,16.52353046875L755.0898,16.52353046875L755.0898,15.28133046875L748.2344,15.28133046875L748.2344,16.52353046875ZM755.0898,14.05673046875L755.0898,10.48837046875L748.2344,10.48837046875L748.2344,14.05673046875L755.0898,14.05673046875Z" fill="#000000" fill-opacity="1" style="mix-blend-mode:passthrough"/></g></g></svg>