<svg xmlns="http://www.w3.org/2000/svg" xmlns:xlink="http://www.w3.org/1999/xlink" fill="none" version="1.1" width="548" height="259" viewBox="0 0 548 259"><g style="mix-blend-mode:passthrough"><g style="mix-blend-mode:passthrough"><rect x="1" y="1" width="546" height="257" rx="4" fill-opacity="0" stroke-opacity="1" stroke="#000000" fill="none" stroke-width="2"/></g><g style="mix-blend-mode:passthrough"><path d="M21 61C21 58.23857625084603 23.238576250846034 56 26 56L189 56C189 56 189 56 189 56L189 104C189 104 189 104 189 104L21 104C21 104 21 104 21 104Z" fill-opacity="0" stroke-opacity="1" stroke="#000000" fill="none" stroke-width="2" style="mix-blend-mode:passthrough"/></g><g style="mix-blend-mode:passthrough"><rect x="21" y="152" width="168" height="48" rx="0" fill-opacity="0" stroke-opacity="1" stroke="#000000" fill="none" stroke-width="2" style="mix-blend-mode:passthrough"/></g><g style="mix-blend-mode:passthrough"><rect x="21" y="104" width="168" height="48" rx="0" fill-opacity="0" stroke-opacity="1" stroke="#000000" fill="none" stroke-width="2" style="mix-blend-mode:passthrough"/></g><g style="mix-blend-mode:passthrough"><path d="M21 200C21 200 21 200 21 200L189 200C189 200 189 200 189 200L189 248C189 248 189 248 189 248L26 248C23.238576250846034 248 21 245.76142374915398 21 243Z" fill-opacity="0" stroke-opacity="1" stroke="#000000" fill="none" stroke-width="2" style="mix-blend-mode:passthrough"/></g><g style="mix-blend-mode:passthrough"><path d="M189 56C189 56 189 56 189 56L522 56C524.761423749154 56 527 58.23857625084603 527 61L527 104C527 104 527 104 527 104L189 104C189 104 189 104 189 104Z" fill-opacity="0" stroke-opacity="1" stroke="#000000" fill="none" stroke-width="2" style="mix-blend-mode:passthrough"/></g><g style="mix-blend-mode:passthrough"><rect x="189" y="152" width="338" height="48" rx="0" fill-opacity="0" stroke-opacity="1" stroke="#000000" fill="none" stroke-width="2" style="mix-blend-mode:passthrough"/></g><g style="mix-blend-mode:passthrough"><rect x="189" y="104" width="338" height="48" rx="0" fill-opacity="0" stroke-opacity="1" stroke="#000000" fill="none" stroke-width="2" style="mix-blend-mode:passthrough"/></g><g style="mix-blend-mode:passthrough"><path d="M189 200C189 200 189 200 189 200L527 200C527 200 527 200 527 200L527 243C527 245.76142374915398 524.761423749154 248 522 248L189 248C189 248 189 248 189 248Z" fill-opacity="0" stroke-opacity="1" stroke="#000000" fill="none" stroke-width="2" style="mix-blend-mode:passthrough"/></g><g style="mix-blend-mode:passthrough"><path d="M235.44531,27.42245L235.44531,22.8873L230.40625,22.8873L230.40625,21.62753L237.51367,21.62753Q237.20898,20.584562,236.92188,19.846281L238.35742,19.559172Q238.82617,20.906828,239.0254,21.62753L245.63479999999998,21.62753L245.63479999999998,22.8873L240.5898,22.8873L240.5898,27.42245L239.2949,27.42245L239.2949,22.8873L236.74023,22.8873L236.74023,27.42245L235.44531,27.42245ZM234.56055,24.7037Q233.78711,25.58847,232.79688,26.49081Q231.80664,27.3873,230.74609,28.108L230.02539,27.06503Q232.27539,25.45956,233.69922,23.85995L234.56055,24.7037ZM242.2832,23.85995Q243.3262,24.66855,244.5859,25.71152L245.9395,26.81308L245.1836,27.8912L244.6797,27.45761Q242.5,25.60605,241.5098,24.850189999999998L242.2832,23.85995ZM243.1328,29.49667Q242.3535,30.6451,241.4512,31.529899999999998Q240.5547,32.4088,239.4062,33.1295Q241.8496,34.067,245.8633,34.7115L245.4355,36.1002Q240.8066,35.2154,238,33.8853Q236.63477,34.5533,234.82422,35.11Q233.01367,35.6666,230.54688,36.2057L230.11328,34.8756Q233.95117,34.19,236.55859,33.1119Q234.38477,31.7467,232.67383,29.53183L232.67383,28.30722L243.1328,28.30722L243.1328,29.49667ZM234.30859,29.53183Q235.11719,30.4869,235.99023,31.1959Q236.86328,31.904899999999998,237.92969,32.4615Q240.1445,31.2603,241.4395,29.53183L234.30859,29.53183ZM249.8828,20.244719L262.082,20.244719L262.082,24.46933L249.8828,24.46933L249.8828,20.244719ZM260.7695,21.93222L260.7695,21.12362L251.2305,21.12362L251.2305,21.93222L260.7695,21.93222ZM251.2305,22.76425L251.2305,23.608L260.7695,23.608L260.7695,22.76425L251.2305,22.76425ZM247.99020000000002,26.36191L247.99020000000002,25.40683L263.9922,25.40683L263.9922,26.36191L247.99020000000002,26.36191ZM262.627,33.7037L256.6504,33.7037L256.6504,34.6588L263.8105,34.6588L263.8105,35.6139L248.1719,35.6139L248.1719,34.6588L255.3496,34.6588L255.3496,33.7037L249.3555,33.7037L249.3555,32.7721L255.3496,32.7721L255.3496,31.7994L249.8828,31.7994L249.8828,27.33456L262.0996,27.33456L262.0996,31.7994L256.6504,31.7994L256.6504,32.7721L262.627,32.7721L262.627,33.7037ZM255.3496,29.11581L255.3496,28.19589L251.2129,28.19589L251.2129,29.11581L255.3496,29.11581ZM256.6504,29.11581L260.7695,29.11581L260.7695,28.19589L256.6504,28.19589L256.6504,29.11581ZM251.2129,29.97714L251.2129,30.897100000000002L255.3496,30.897100000000002L255.3496,29.97714L251.2129,29.97714ZM256.6504,29.97714L256.6504,30.897100000000002L260.7695,30.897100000000002L260.7695,29.97714L256.6504,29.97714ZM281.957,23.26816L281.957,24.63339L279.9414,24.63339L279.9414,33.3814Q279.9414,34.2838,279.7129,34.781800000000004Q279.4902,35.274,278.9512,35.496700000000004Q278.4121,35.719300000000004,277.4219,35.719300000000004L275.2598,35.719300000000004L274.97270000000003,34.3189L277.1113,34.3189Q277.7441,34.3189,278.0371,34.219300000000004Q278.3359,34.1197,278.4414,33.8502Q278.5527,33.5807,278.5527,33.0064L278.5527,24.63339L273.4609,24.63339L273.4609,23.26816L278.5527,23.26816L278.5527,19.629484L279.9414,19.629484L279.9414,23.26816L281.957,23.26816ZM272.7402,22.97519Q272.1309,26.52597,270.959,29.15097Q272.418,31.2603,273.6777,33.1646L272.541,34.031800000000004Q271.5508,32.4791,270.2734,30.5748Q268.9609,33.0767,266.7285,35.5963L265.90229999999997,34.2662Q268.1348,31.8521,269.4121,29.297449999999998Q267.6074,26.64902,266.3887,24.99667L267.4492,24.21737Q268.3633,25.45956,270.0566,27.85605Q270.959,25.62362,271.3926,22.95761L266.4238,22.95761L266.4238,21.59237L272.7402,21.59237L272.7402,22.97519ZM276.1211,30.8795Q274.7559,28.66464,273.4082,26.64902L274.416,25.94589Q274.8613,26.5787,275.72270000000003,27.8912Q276.58979999999997,29.203699999999998,277.2051,30.1764L276.1211,30.8795ZM295.9434,29.78378Q296.6289,31.2955,297.4785,32.3033Q298.334,33.311099999999996,299.957,34.2252L299.1074,35.274Q297.5254,34.3189,296.5879,33.170500000000004Q295.6562,32.0162,294.8828,30.2877L293.6758,30.826700000000002Q293.9805,31.8873,293.9805,33.059200000000004Q293.9805,34.1197,293.6934,34.7408Q293.4062,35.3619,292.7383,35.637299999999996Q292.0703,35.9185,290.9043,35.9185L289.0117,35.9185L288.7949,34.6939L290.5938,34.6939Q291.748,34.6939,292.2168,34.3072Q292.6855,33.920500000000004,292.6855,32.8775Q292.6855,32.4088,292.6328,31.9752Q291.2266,33.059200000000004,289.1113,34.031800000000004Q286.9961,35.0045,284.459,35.7779L283.9902,34.6412Q286.457,34.0142,288.6074,33.0357Q290.7578,32.0514,292.3574,30.897100000000002Q292.2168,30.4459,291.9121,29.92441Q289.3516,31.7232,284.8926,33.1295L284.4238,32.0865Q288.6895,30.8092,291.332,29.09823Q291.0449,28.74081,290.5762,28.27206Q289.6211,28.95175,288.1562,29.537689999999998Q286.6914,30.1236,284.5645,30.6978L284.1543,29.56698Q286.4746,28.99277,287.8223,28.44198Q289.1758,27.8912,289.9492,27.22323L285.7715,27.22323L285.7715,24.41659Q285.0156,24.850189999999998,284.7988,24.97323L284.2246,23.85995Q285.918,22.95761,287.2188,21.86191Q288.5254,20.766203,289.5508,19.395109L290.7578,19.9165936Q290.5059,20.262297,289.9668,20.906828L296.377,20.906828L296.377,21.89706L294.5723,23.42636L298.5156,23.42636L298.5156,27.22323L291.6777,27.22323Q291.5312,27.40487,291.4434,27.49862Q292.6094,28.61191,293.2246,29.766199999999998Q295.832,28.57675,297.77729999999997,27.42245L298.41020000000003,28.52402Q297.3848,29.09823,295.9434,29.78378ZM289.0469,21.89706Q288.2383,22.70566,287.248,23.42636L292.791,23.42636L294.5547,21.89706L289.0469,21.89706ZM287.0488,24.45175L287.0488,26.21542L290.8457,26.21542Q291.2266,25.62362,291.66020000000003,24.45175L287.0488,24.45175ZM297.2383,26.21542L297.2383,24.45175L293.0254,24.45175Q292.6094,25.57089,292.2871,26.21542L297.2383,26.21542ZM315.291,35.936099999999996Q314.248,34.19,313.6797,32.0338Q313.1113,29.87167,313.1113,27.83847Q313.1113,25.787689999999998,313.6797,23.6373Q314.248,21.48105,315.291,19.740812L316.78520000000003,19.740812Q315.7422,21.55722,315.1738,23.70761Q314.6055,25.858,314.6055,27.83847Q314.6055,29.801360000000003,315.1738,31.9635Q315.7422,34.1197,316.78520000000003,35.936099999999996L315.291,35.936099999999996ZM324.1855,34.858000000000004L319.2344,21.17636L320.91020000000003,21.17636L324.9414,32.5904L325.0469,32.5904L329.078,21.17636L330.754,21.17636L325.8027,34.858000000000004L324.1855,34.858000000000004ZM338.072,35.11Q336.238,35.11,334.867,34.2369Q333.502,33.3639,332.764,31.764200000000002Q332.025,30.1588,332.025,28.020110000000003Q332.025,25.858,332.764,24.25839Q333.502,22.65292,334.867,21.79159Q336.238,20.924406,338.072,20.924406Q339.91200000000003,20.924406,341.277,21.79159Q342.648,22.65292,343.381,24.25839Q344.119,25.858,344.119,28.020110000000003Q344.119,30.1588,343.381,31.764200000000002Q342.648,33.3639,341.277,34.2369Q339.91200000000003,35.11,338.072,35.11ZM338.072,33.6334Q339.408,33.6334,340.416,32.9537Q341.424,32.2682,341.969,30.9967Q342.52,29.725189999999998,342.52,28.020110000000003Q342.52,26.30917,341.969,25.04355Q341.424,23.77206,340.416,23.08652Q339.408,22.40097,338.072,22.40097Q336.725,22.40097,335.717,23.08652Q334.709,23.77206,334.17,25.04355Q333.631,26.30917,333.631,28.020110000000003Q333.631,29.725189999999998,334.17,30.9967Q334.709,32.2682,335.717,32.9537Q336.725,33.6334,338.072,33.6334ZM347.46500000000003,35.936099999999996Q348.508,34.1197,349.076,31.9635Q349.645,29.801360000000003,349.645,27.83847Q349.645,25.858,349.076,23.70761Q348.508,21.55722,347.46500000000003,19.740812L348.959,19.740812Q350.002,21.48105,350.57,23.6373Q351.139,25.787689999999998,351.139,27.83847Q351.139,29.87167,350.57,32.0338Q350.002,34.19,348.959,35.936099999999996L347.46500000000003,35.936099999999996Z" fill="#000000" fill-opacity="1" style="mix-blend-mode:passthrough"/></g><g style="mix-blend-mode:passthrough"><path d="M84.44531,79.42245L84.44531,74.8873L79.40625,74.8873L79.40625,73.62753L86.51367,73.62753Q86.20898,72.584562,85.92188,71.846281L87.35742,71.559172Q87.82617,72.906828,88.0254,73.62753L94.6348,73.62753L94.6348,74.8873L89.5898,74.8873L89.5898,79.42245L88.2949,79.42245L88.2949,74.8873L85.74023,74.8873L85.74023,79.42245L84.44531,79.42245ZM83.56055,76.7037Q82.78711,77.58847,81.79688,78.49081Q80.80664,79.3873,79.74609,80.108L79.02539,79.06503000000001Q81.27539,77.45956,82.69922,75.85995L83.56055,76.7037ZM91.2832,75.85995Q92.3262,76.66855,93.5859,77.71152000000001L94.9395,78.81308L94.1836,79.8912L93.6797,79.45761Q91.5,77.60605,90.5098,76.85019L91.2832,75.85995ZM92.1328,81.49667Q91.3535,82.6451,90.4512,83.5299Q89.5547,84.4088,88.4062,85.12950000000001Q90.8496,86.06700000000001,94.8633,86.7115L94.4355,88.1002Q89.8066,87.2154,87,85.8853Q85.63477,86.55330000000001,83.82422,87.11Q82.01367,87.6666,79.54688,88.20570000000001L79.11328,86.8756Q82.95117,86.19,85.55859,85.1119Q83.38477,83.7467,81.67383,81.53183L81.67383,80.30722L92.1328,80.30722L92.1328,81.49667ZM83.30859,81.53183Q84.11719,82.4869,84.99023,83.1959Q85.86328,83.9049,86.92969,84.4615Q89.1445,83.2603,90.4395,81.53183L83.30859,81.53183ZM98.8828,72.244719L111.082,72.244719L111.082,76.46933L98.8828,76.46933L98.8828,72.244719ZM109.7695,73.93222L109.7695,73.12362L100.2305,73.12362L100.2305,73.93222L109.7695,73.93222ZM100.2305,74.76425L100.2305,75.608L109.7695,75.608L109.7695,74.76425L100.2305,74.76425ZM96.9902,78.36191L96.9902,77.40683L112.9922,77.40683L112.9922,78.36191L96.9902,78.36191ZM111.62700000000001,85.7037L105.6504,85.7037L105.6504,86.6588L112.81049999999999,86.6588L112.81049999999999,87.6139L97.1719,87.6139L97.1719,86.6588L104.3496,86.6588L104.3496,85.7037L98.3555,85.7037L98.3555,84.7721L104.3496,84.7721L104.3496,83.7994L98.8828,83.7994L98.8828,79.33456L111.09960000000001,79.33456L111.09960000000001,83.7994L105.6504,83.7994L105.6504,84.7721L111.62700000000001,84.7721L111.62700000000001,85.7037ZM104.3496,81.11581L104.3496,80.19589L100.2129,80.19589L100.2129,81.11581L104.3496,81.11581ZM105.6504,81.11581L109.7695,81.11581L109.7695,80.19589L105.6504,80.19589L105.6504,81.11581ZM100.2129,81.97714L100.2129,82.8971L104.3496,82.8971L104.3496,81.97714L100.2129,81.97714ZM105.6504,81.97714L105.6504,82.8971L109.7695,82.8971L109.7695,81.97714L105.6504,81.97714ZM129.4453,80.57675L129.4453,88.1178L128.0742,88.1178L128.0742,86.9635L119.7598,86.9635L119.7598,88.1178L118.41210000000001,88.1178L118.41210000000001,81.97714Q117.02340000000001,82.4635,115.4941,82.8971L114.9727,81.6373Q119.3848,80.48886,122.4434,78.7955Q125.50200000000001,77.10214,127.6289,74.79941L120.83789999999999,74.79941Q120.4453,75.22714,119.8652,75.73691Q121.2012,76.72128000000001,122.2969,77.60605L121.3828,78.64902000000001L120.2988,77.78769L118.8398,76.63339Q117.7969,77.53573,116.44919999999999,78.41464L115.59960000000001,77.24862Q117.3457,76.18222,119.0801,74.55331Q120.8203,72.924406,121.88669999999999,71.430265L123.16409999999999,71.9341717Q122.7305,72.584562,122.0098,73.50448L129.42770000000002,73.50448L129.42770000000002,74.79941Q127.916,76.59823,126.0527,78.02206Q124.18950000000001,79.44003000000001,121.8281,80.57675L129.4453,80.57675ZM119.7598,81.85409L119.7598,85.7447L128.0742,85.7447L128.0742,81.85409L119.7598,81.85409Z" fill="#000000" fill-opacity="1" style="mix-blend-mode:passthrough"/></g><g style="mix-blend-mode:passthrough"><path d="M100.84961,135.11Q99.4668,135.11,98.64648,134.3834Q97.826172,133.651,97.826172,132.44389999999999Q97.826172,129.35019,102.54297,129.35019L103.91406,129.35019L103.91406,128.57675Q103.91406,127.60409,103.31641,127.01816Q102.72461,126.43222,101.75195,126.43222Q100.54492,126.43222,99.33789,127.47519L98.45898,126.46737Q99.90039,125.06698,101.82227,125.06698Q103.48047,125.06698,104.44141,125.96933Q105.4082,126.86581,105.4082,128.39511L105.4082,134.858L103.91406,134.858L103.91406,133.4928L103.80273,133.4928Q103.41016,134.2076,102.57812,134.65879999999999Q101.75195,135.11,100.84961,135.11ZM101.11914,133.7447Q101.7168,133.7447,102.36133,133.4752Q103.01172,133.1998,103.46289,132.6373Q103.91406,132.06889999999999,103.91406,131.2193L103.91406,130.7154L102.83008,130.7154Q101.04883,130.7154,100.19922,131.1256Q99.35547,131.5299,99.35547,132.356Q99.35547,132.9889,99.83008,133.3697Q100.31055,133.7447,101.11914,133.7447ZM111.8828,134.858L110.3125,134.858L110.3125,122.99862L107.6523,124.39902000000001L107.6523,122.76425L110.7109,121.17636L111.8828,121.17636L111.8828,134.858Z" fill="#000000" fill-opacity="1" style="mix-blend-mode:passthrough"/></g><g style="mix-blend-mode:passthrough"><path d="M98.84961,183.11Q97.4668,183.11,96.64648,182.3834Q95.826172,181.651,95.826172,180.44389999999999Q95.826172,177.35019,100.54297,177.35019L101.91406,177.35019L101.91406,176.57675Q101.91406,175.60409,101.31641,175.01816Q100.72461,174.43222,99.75195,174.43222Q98.54492,174.43222,97.33789,175.47519L96.45898,174.46737Q97.90039,173.06698,99.82227,173.06698Q101.48047,173.06698,102.44141,173.96933Q103.4082,174.86581,103.4082,176.39511L103.4082,182.858L101.91406,182.858L101.91406,181.4928L101.80273,181.4928Q101.41016,182.2076,100.57812,182.65879999999999Q99.75195,183.11,98.84961,183.11ZM99.11914,181.7447Q99.7168,181.7447,100.36133,181.4752Q101.01172,181.1998,101.46289,180.6373Q101.91406,180.06889999999999,101.91406,179.2193L101.91406,178.7154L100.83008,178.7154Q99.04883,178.7154,98.19922,179.1256Q97.35547,179.5299,97.35547,180.356Q97.35547,180.9889,97.83008,181.3697Q98.31055,181.7447,99.11914,181.7447ZM107.7559,181.4166L113.9844,181.4166L113.9844,182.858L105.6699,182.858L105.6699,181.5631L109.7715,176.8287Q111.0312,175.3873,111.5703,174.43222Q112.1094,173.47714,112.1094,172.65097Q112.1094,171.62558,111.4414,170.99862Q110.7793,170.36581,109.7012,170.36581Q108.7988,170.36581,108.0898,170.90487Q107.3809,171.44394,106.9121,172.45175L105.5762,171.80722Q106.1152,170.41855,107.1875,169.67441Q108.2598,168.924406,109.7363,168.924406Q110.9082,168.924406,111.8047,169.37558Q112.707,169.82675,113.2109,170.65292Q113.7148,171.47909,113.7148,172.58066Q113.7148,173.62362,113.1172,174.7955Q112.5254,175.96152,111.1777,177.51425L107.7559,181.4166Z" fill="#000000" fill-opacity="1" style="mix-blend-mode:passthrough"/></g><g style="mix-blend-mode:passthrough"><path d="M98.84961,231.11Q97.4668,231.11,96.64648,230.3834Q95.826172,229.651,95.826172,228.44389999999999Q95.826172,225.35019,100.54297,225.35019L101.91406,225.35019L101.91406,224.57675Q101.91406,223.60409,101.31641,223.01816Q100.72461,222.43222,99.75195,222.43222Q98.54492,222.43222,97.33789,223.47519L96.45898,222.46737Q97.90039,221.06698,99.82227,221.06698Q101.48047,221.06698,102.44141,221.96933Q103.4082,222.86581,103.4082,224.39511L103.4082,230.858L101.91406,230.858L101.91406,229.4928L101.80273,229.4928Q101.41016,230.2076,100.57812,230.65879999999999Q99.75195,231.11,98.84961,231.11ZM99.11914,229.7447Q99.7168,229.7447,100.36133,229.4752Q101.01172,229.1998,101.46289,228.6373Q101.91406,228.06889999999999,101.91406,227.2193L101.91406,226.7154L100.83008,226.7154Q99.04883,226.7154,98.19922,227.1256Q97.35547,227.5299,97.35547,228.356Q97.35547,228.9889,97.83008,229.3697Q98.31055,229.7447,99.11914,229.7447ZM109.8594,222.7955Q110.0586,222.76034,110.4746,222.76034Q111.4824,222.76034,112.3906,223.21737Q113.2988,223.67441,113.873,224.59433Q114.4531,225.51425,114.4531,226.8443Q114.4531,228.1392,113.9023,229.106Q113.3516,230.067,112.3613,230.5885Q111.3711,231.11,110.0586,231.11Q108.5996,231.11,107.4102,230.31889999999999Q106.2266,229.5279,105.7051,228.1041L107.1289,227.6002Q107.9727,229.6685,110.1113,229.6685Q111.3535,229.6685,112.0977,228.9068Q112.8477,228.1392,112.8477,226.8443Q112.8477,225.54941,112.0801,224.78769Q111.3184,224.02011,110.0059,224.02011Q109.2324,224.02011,108.5117,224.43027L107.6504,223.24667L111.6465,218.61777L106.0449,218.61777L106.0449,217.17636L113.6973,217.17636L113.6973,218.49472L109.8242,222.71933L109.8594,222.7955Z" fill="#000000" fill-opacity="1" style="mix-blend-mode:passthrough"/></g><g style="mix-blend-mode:passthrough"><path d="M344.29492,230.858L344.29492,221.31894L345.78906,221.31894L345.78906,222.66659L345.88281,222.66659Q346.31055,221.94589,347.14844,221.50644Q347.98633,221.06698,348.83008,221.06698Q350.41797,221.06698,351.31445,222.05136Q352.2168,223.02987,352.2168,224.81112L352.2168,230.858L350.72266,230.858L350.72266,225.02792Q350.72266,223.87362,350.07227,223.15292Q349.42773,222.43222,348.45508,222.43222Q347.26562,222.43222,346.52734,223.1998Q345.78906,223.96152,345.78906,225.2037L345.78906,230.858L344.29492,230.858ZM362.6289,221.31894L362.6289,230.858L361.1348,230.858L361.1348,229.5279L361.0234,229.5279Q360.5898,230.2486,359.7637,230.6822Q358.9375,231.11,358.0703,231.11Q356.4883,231.11,355.5977,230.13139999999999Q354.707,229.1471,354.707,227.3834L354.707,221.31894L356.2012,221.31894L356.2012,227.149Q356.2012,228.3209,356.8398,229.0357Q357.4785,229.7447,358.4688,229.7447Q359.6582,229.7447,360.3965,228.9771Q361.1348,228.2096,361.1348,226.9674L361.1348,221.31894L362.6289,221.31894ZM365.2949,217.17636L366.7891,217.17636L366.7891,228.8775Q366.7891,229.6158,367.5273,229.6158L367.9785,229.6158L367.9785,231.0221L367.1875,231.0221Q365.2949,231.0221,365.2949,229.276L365.2949,217.17636ZM369.7949,217.17636L371.2891,217.17636L371.2891,228.8775Q371.2891,229.6158,372.0273,229.6158L372.4785,229.6158L372.4785,231.0221L371.6875,231.0221Q369.7949,231.0221,369.7949,229.276L369.7949,217.17636Z" fill="#000000" fill-opacity="1" style="mix-blend-mode:passthrough"/></g><g style="mix-blend-mode:passthrough"><path d="M337.25,172.3287L336.1543,172.3287L335.826172,167.740812L337.58984,167.740812L337.25,172.3287ZM339.66992,182.858L339.66992,169.17636L341.16406,169.17636L341.16406,174.66659L341.25781,174.66659Q341.68555,173.94589,342.52344,173.50644Q343.36133,173.06698,344.20508,173.06698Q345.793,173.06698,346.6895,174.05136Q347.5918,175.02987,347.5918,176.81112L347.5918,182.858L346.0977,182.858L346.0977,177.02792Q346.0977,175.87362,345.4473,175.15292Q344.80273,174.43222,343.83008,174.43222Q342.64062,174.43222,341.90234,175.1998Q341.16406,175.96152,341.16406,177.2037L341.16406,182.858L339.66992,182.858ZM358.0918,177.27987Q358.0918,177.90683,357.9805,178.5045L351.2539,178.5045Q351.3418,179.9986,352.1328,180.86Q352.9238,181.72129999999999,354.2363,181.72129999999999Q354.9746,181.72129999999999,355.625,181.3639Q356.2754,181.00639999999999,356.7383,180.3033L357.9102,181.1119Q356.6328,183.0924,354.2363,183.0924Q352.1328,183.0924,350.9141,181.7623Q349.7012,180.4264,349.7012,178.106Q349.7012,175.76816,350.8555,174.4205Q352.0098,173.06698,354.0254,173.06698Q355.9121,173.06698,357.002,174.2037Q358.0918,175.33456,358.0918,177.27987ZM356.5625,177.15097Q356.5625,175.90878,355.8652,175.1705Q355.1738,174.43222,354.0254,174.43222Q352.9414,174.43222,352.2207,175.15292Q351.5059,175.87362,351.3066,177.15097L356.5625,177.15097ZM360.2949,169.17636L361.7891,169.17636L361.7891,180.8775Q361.7891,181.6158,362.5273,181.6158L362.9785,181.6158L362.9785,183.0221L362.1875,183.0221Q360.2949,183.0221,360.2949,181.276L360.2949,169.17636ZM364.7949,169.17636L366.2891,169.17636L366.2891,180.8775Q366.2891,181.6158,367.02729999999997,181.6158L367.4785,181.6158L367.4785,183.0221L366.6875,183.0221Q364.7949,183.0221,364.7949,181.276L364.7949,169.17636ZM373.1855,183.11Q371.8672,183.11,370.877,182.5006Q369.8926,181.8853,369.3594,180.7545Q368.8262,179.6178,368.8262,178.0885Q368.8262,176.55917,369.3594,175.42831Q369.8926,174.29159,370.877,173.68222Q371.8672,173.06698,373.1855,173.06698Q374.498,173.06698,375.4766,173.68222Q376.4609,174.29159,377,175.42831Q377.5391,176.55917,377.5391,178.0885Q377.5391,179.6178,377,180.7545Q376.4609,181.8853,375.4766,182.5006Q374.498,183.11,373.1855,183.11ZM373.1855,181.7037Q374.4805,181.7037,375.2422,180.7369Q376.0098,179.7642,376.0098,178.0885Q376.0098,176.41269,375.2422,175.44003Q374.4805,174.46737,373.1855,174.46737Q371.8906,174.46737,371.123,175.44003Q370.3555,176.41269,370.3555,178.0885Q370.3555,179.7642,371.123,180.7369Q371.8906,181.7037,373.1855,181.7037ZM380.75,172.3287L379.6543,172.3287L379.3262,167.740812L381.08979999999997,167.740812L380.75,172.3287Z" fill="#000000" fill-opacity="1" style="mix-blend-mode:passthrough"/></g><g style="mix-blend-mode:passthrough"><path d="M354.13281,134.858L352.5625,134.858L352.5625,122.99862L349.902344,124.39902000000001L349.902344,122.76425L352.96094,121.17636L354.13281,121.17636L354.13281,134.858ZM361.832,135.11Q359.6523,135.11,358.44531,133.2642Q357.23828,131.4185,357.23828,128.02011Q357.23828,124.61581,358.44531,122.77011Q359.6523,120.924406,361.832,120.924406Q364.0293,120.924406,365.2246,122.77011Q366.4199,124.61581,366.4199,128.02011Q366.4199,131.4185,365.2246,133.2642Q364.0293,135.11,361.832,135.11ZM361.832,133.6685Q363.2559,133.6685,364.0352,132.2037Q364.8203,130.7389,364.8203,128.02011Q364.8203,125.30136,364.0352,123.83652000000001Q363.2559,122.36581,361.832,122.36581Q360.4082,122.36581,359.623,123.83652000000001Q358.84375,125.30136,358.84375,128.02011Q358.84375,130.7389,359.623,132.2037Q360.4082,133.6685,361.832,133.6685Z" fill="#000000" fill-opacity="1" style="mix-blend-mode:passthrough"/></g><g style="mix-blend-mode:passthrough"><path d="M345.6133,72.473234L345.6133,82.8092L347.8281,82.8092L347.8281,84.0514L332.1543,84.0514L332.1543,82.8092L334.38672,82.8092L334.38672,72.473234L345.6133,72.473234ZM344.248,75.10409L344.248,73.69784L335.73438,73.69784L335.73438,75.10409L344.248,75.10409ZM335.73438,77.65878000000001L344.248,77.65878000000001L344.248,76.25839L335.73438,76.25839L335.73438,77.65878000000001ZM344.248,80.21347L344.248,78.81308L335.73438,78.81308L335.73438,80.21347L344.248,80.21347ZM344.248,81.36777000000001L335.73438,81.36777000000001L335.73438,82.8092L344.248,82.8092L344.248,81.36777000000001ZM332.20703,86.9869Q333.71875,86.5006,335.21875,85.8443Q336.72461,85.1822,337.89648,84.5025L338.57617,85.5631Q336.77734,86.6412,332.69336,88.1705L332.20703,86.9869ZM341.834,84.5025Q342.9355,84.8951,346.3164,86.2838L347.6523,86.8228L347.0547,88.0123Q345.2734,87.1803,341.7109,85.7447L341.3301,85.58070000000001L341.834,84.5025ZM365.2012,85.0767Q363.77729999999997,83.4947,362.5527,81.53183Q361.3281,79.56894,360.5195,77.50058L360.5195,83.70570000000001L363.2559,83.70570000000001L363.2559,85.0064L360.5195,85.0064L360.5195,88.1002L359.1543,88.1002L359.1543,85.0064L356.4004,85.0064L356.4004,83.70570000000001L359.1543,83.70570000000001L359.1543,77.50058Q358.3574,79.60409,357.1973,81.47909Q356.0371,83.3482,354.4023,85.1822L353.5176,83.8873Q356.8105,80.52402000000001,358.5215,76.12948L354.6719,76.12948L354.6719,74.85214L359.1543,74.85214L359.1543,71.629484L360.5195,71.629484L360.5195,74.85214L365.4004,74.85214L365.4004,76.12948L361.2051,76.12948Q362.0312,78.27402000000001,363.2793,80.20761Q364.5332,82.1412,366.02729999999997,83.6705L365.2012,85.0767ZM354.7949,71.9693279Q354.2207,73.99081,353.3184,76.12948L353.3184,88.0299L352.0234,88.0299L352.0234,78.7955Q351.2676,80.17831,350.4414,81.29745L349.791,79.78573Q350.7812,78.36191,351.7773,76.15878000000001Q352.7793,73.9498,353.3945,71.740812L354.7949,71.9693279ZM372.3438,71.881437Q371.7695,74.02597,371.1191,75.73691L371.1191,87.9537L369.8242,87.9537L369.8242,78.64902000000001Q369.1797,79.90878000000001,368.3652,81.13339L367.791,79.49862Q368.7285,78.09237,369.5664,76.00644Q370.4043,73.91464,370.9609,71.611906L372.3438,71.881437ZM382.4805,76.02402000000001L382.4805,86.2662L384.0625,86.2662L384.0625,87.4498L371.9863,87.4498L371.9863,86.2662L373.6035,86.2662L373.6035,76.02402000000001L377.3652,76.02402000000001L377.3652,74.36581L372.8301,74.36581L372.8301,73.19394L377.3652,73.19394L377.3652,71.629484L378.7188,71.629484L378.7188,73.19394L383.5938,73.19394L383.5938,74.36581L378.7188,74.36581L378.7188,76.02402000000001L382.4805,76.02402000000001ZM381.1504,78.61386L381.1504,77.19003000000001L374.9395,77.19003000000001L374.9395,78.61386L381.1504,78.61386ZM374.9395,81.06308L381.1504,81.06308L381.1504,79.67441L374.9395,79.67441L374.9395,81.06308ZM381.1504,83.6529L381.1504,82.1412L374.9395,82.1412L374.9395,83.6529L381.1504,83.6529ZM381.1504,84.67830000000001L374.9395,84.67830000000001L374.9395,86.2662L381.1504,86.2662L381.1504,84.67830000000001Z" fill="#000000" fill-opacity="1" style="mix-blend-mode:passthrough"/></g></g></svg>